%TF.GenerationSoftware,KiCad,Pcbnew,9.0.0*%
%TF.CreationDate,2025-06-04T14:10:33+02:00*%
%TF.ProjectId,usb_c_pd_source,7573625f-635f-4706-945f-736f75726365,rev?*%
%TF.SameCoordinates,Original*%
%TF.FileFunction,Legend,Top*%
%TF.FilePolarity,Positive*%
%FSLAX46Y46*%
G04 Gerber Fmt 4.6, Leading zero omitted, Abs format (unit mm)*
G04 Created by KiCad (PCBNEW 9.0.0) date 2025-06-04 14:10:33*
%MOMM*%
%LPD*%
G01*
G04 APERTURE LIST*
%ADD10C,0.200000*%
%ADD11C,0.300000*%
%ADD12C,0.150000*%
%ADD13C,0.254000*%
%ADD14C,0.120000*%
%ADD15C,0.100000*%
G04 APERTURE END LIST*
D10*
G36*
X136536554Y-125541084D02*
G01*
X136561223Y-125565752D01*
X136591028Y-125625362D01*
X136591028Y-125882707D01*
X136267219Y-125882707D01*
X136267219Y-125625362D01*
X136297024Y-125565752D01*
X136321692Y-125541083D01*
X136381302Y-125511279D01*
X136476945Y-125511279D01*
X136536554Y-125541084D01*
G37*
G36*
X137378330Y-127241437D02*
G01*
X135956108Y-127241437D01*
X135956108Y-127023341D01*
X136067463Y-127023341D01*
X136069140Y-127036534D01*
X136069140Y-127049835D01*
X136071579Y-127055723D01*
X136072383Y-127062048D01*
X136078983Y-127073597D01*
X136084072Y-127085883D01*
X136088579Y-127090390D01*
X136091742Y-127095925D01*
X136102256Y-127104067D01*
X136111662Y-127113473D01*
X136117552Y-127115912D01*
X136122591Y-127119815D01*
X136135419Y-127123313D01*
X136147710Y-127128405D01*
X136157687Y-127129387D01*
X136160234Y-127130082D01*
X136162201Y-127129831D01*
X136167219Y-127130326D01*
X137167219Y-127130326D01*
X137186728Y-127128405D01*
X137222776Y-127113473D01*
X137250366Y-127085883D01*
X137265298Y-127049835D01*
X137265298Y-127010817D01*
X137250366Y-126974769D01*
X137222776Y-126947179D01*
X137186728Y-126932247D01*
X137167219Y-126930326D01*
X136543775Y-126930326D01*
X137216833Y-126545722D01*
X137220943Y-126542803D01*
X137222776Y-126542045D01*
X137224642Y-126540178D01*
X137232818Y-126534375D01*
X137240962Y-126523858D01*
X137250366Y-126514455D01*
X137252804Y-126508567D01*
X137256709Y-126503526D01*
X137260208Y-126490693D01*
X137265298Y-126478407D01*
X137265298Y-126472031D01*
X137266975Y-126465882D01*
X137265298Y-126452688D01*
X137265298Y-126439389D01*
X137262858Y-126433500D01*
X137262055Y-126427176D01*
X137255454Y-126415626D01*
X137250366Y-126403341D01*
X137245858Y-126398833D01*
X137242696Y-126393299D01*
X137232179Y-126385154D01*
X137222776Y-126375751D01*
X137216888Y-126373312D01*
X137211847Y-126369408D01*
X137199014Y-126365908D01*
X137186728Y-126360819D01*
X137176750Y-126359836D01*
X137174204Y-126359142D01*
X137172236Y-126359392D01*
X137167219Y-126358898D01*
X136167219Y-126358898D01*
X136147710Y-126360819D01*
X136111662Y-126375751D01*
X136084072Y-126403341D01*
X136069140Y-126439389D01*
X136069140Y-126478407D01*
X136084072Y-126514455D01*
X136111662Y-126542045D01*
X136147710Y-126556977D01*
X136167219Y-126558898D01*
X136790663Y-126558898D01*
X136117605Y-126943502D01*
X136113494Y-126946420D01*
X136111662Y-126947179D01*
X136109795Y-126949045D01*
X136101620Y-126954849D01*
X136093477Y-126965363D01*
X136084072Y-126974769D01*
X136081632Y-126980659D01*
X136077730Y-126985698D01*
X136074231Y-126998526D01*
X136069140Y-127010817D01*
X136069140Y-127017192D01*
X136067463Y-127023341D01*
X135956108Y-127023341D01*
X135956108Y-125601755D01*
X136067219Y-125601755D01*
X136067219Y-125982707D01*
X136069140Y-126002216D01*
X136084072Y-126038264D01*
X136111662Y-126065854D01*
X136147710Y-126080786D01*
X136167219Y-126082707D01*
X137167219Y-126082707D01*
X137186728Y-126080786D01*
X137222776Y-126065854D01*
X137250366Y-126038264D01*
X137265298Y-126002216D01*
X137265298Y-125963198D01*
X137250366Y-125927150D01*
X137222776Y-125899560D01*
X137186728Y-125884628D01*
X137167219Y-125882707D01*
X136791028Y-125882707D01*
X136791028Y-125796677D01*
X137224565Y-125493202D01*
X137239446Y-125480441D01*
X137260415Y-125447536D01*
X137267196Y-125409111D01*
X137258756Y-125371017D01*
X137236381Y-125339052D01*
X137203476Y-125318083D01*
X137165052Y-125311302D01*
X137126957Y-125319742D01*
X137109873Y-125329356D01*
X136781347Y-125559323D01*
X136780471Y-125557033D01*
X136732852Y-125461796D01*
X136727566Y-125453399D01*
X136726556Y-125450959D01*
X136724302Y-125448213D01*
X136722409Y-125445205D01*
X136720411Y-125443472D01*
X136714119Y-125435806D01*
X136666501Y-125388187D01*
X136658830Y-125381892D01*
X136657101Y-125379898D01*
X136654093Y-125378004D01*
X136651347Y-125375751D01*
X136648907Y-125374740D01*
X136640511Y-125369455D01*
X136545273Y-125321836D01*
X136526965Y-125314830D01*
X136523381Y-125314575D01*
X136520061Y-125313200D01*
X136500552Y-125311279D01*
X136357695Y-125311279D01*
X136338186Y-125313200D01*
X136334865Y-125314575D01*
X136331282Y-125314830D01*
X136312973Y-125321836D01*
X136217736Y-125369455D01*
X136209339Y-125374740D01*
X136206899Y-125375751D01*
X136204153Y-125378004D01*
X136201145Y-125379898D01*
X136199412Y-125381895D01*
X136191746Y-125388188D01*
X136144127Y-125435806D01*
X136137832Y-125443476D01*
X136135838Y-125445206D01*
X136133944Y-125448213D01*
X136131691Y-125450960D01*
X136130680Y-125453399D01*
X136125395Y-125461796D01*
X136077776Y-125557034D01*
X136070770Y-125575342D01*
X136070515Y-125578925D01*
X136069140Y-125582246D01*
X136067219Y-125601755D01*
X135956108Y-125601755D01*
X135956108Y-124601755D01*
X136067219Y-124601755D01*
X136067219Y-124839850D01*
X136069140Y-124859359D01*
X136070515Y-124862679D01*
X136070770Y-124866263D01*
X136077776Y-124884571D01*
X136125395Y-124979809D01*
X136130680Y-124988205D01*
X136131691Y-124990645D01*
X136133944Y-124993391D01*
X136135838Y-124996399D01*
X136137832Y-124998128D01*
X136144127Y-125005799D01*
X136191746Y-125053417D01*
X136199412Y-125059709D01*
X136201145Y-125061707D01*
X136204153Y-125063600D01*
X136206899Y-125065854D01*
X136209339Y-125066864D01*
X136217736Y-125072150D01*
X136312973Y-125119769D01*
X136331282Y-125126775D01*
X136334865Y-125127029D01*
X136338186Y-125128405D01*
X136357695Y-125130326D01*
X136452933Y-125130326D01*
X136472442Y-125128405D01*
X136475762Y-125127029D01*
X136479346Y-125126775D01*
X136497654Y-125119769D01*
X136592892Y-125072150D01*
X136601288Y-125066864D01*
X136603728Y-125065854D01*
X136606474Y-125063600D01*
X136609482Y-125061707D01*
X136611211Y-125059712D01*
X136618882Y-125053418D01*
X136666500Y-125005799D01*
X136672792Y-124998132D01*
X136674790Y-124996400D01*
X136676683Y-124993391D01*
X136678937Y-124990646D01*
X136679947Y-124988205D01*
X136685233Y-124979809D01*
X136732852Y-124884572D01*
X136733398Y-124883143D01*
X136733828Y-124882564D01*
X136736749Y-124874387D01*
X136739858Y-124866263D01*
X136739909Y-124865542D01*
X136740423Y-124864104D01*
X136785379Y-124684278D01*
X136820833Y-124613371D01*
X136845501Y-124588702D01*
X136905111Y-124558898D01*
X136953135Y-124558898D01*
X137012746Y-124588704D01*
X137037414Y-124613371D01*
X137067219Y-124672981D01*
X137067219Y-124871242D01*
X137024732Y-124998703D01*
X137020385Y-125017819D01*
X137023151Y-125056739D01*
X137040601Y-125091638D01*
X137070077Y-125117203D01*
X137107093Y-125129541D01*
X137146013Y-125126775D01*
X137180912Y-125109325D01*
X137206477Y-125079849D01*
X137214468Y-125061949D01*
X137262087Y-124919092D01*
X137264286Y-124909419D01*
X137265298Y-124906978D01*
X137265646Y-124903440D01*
X137266434Y-124899977D01*
X137266246Y-124897342D01*
X137267219Y-124887469D01*
X137267219Y-124649374D01*
X137265298Y-124629865D01*
X137263922Y-124626544D01*
X137263668Y-124622961D01*
X137256662Y-124604652D01*
X137209043Y-124509415D01*
X137203757Y-124501018D01*
X137202747Y-124498578D01*
X137200493Y-124495832D01*
X137198600Y-124492824D01*
X137196603Y-124491092D01*
X137190310Y-124483424D01*
X137142690Y-124435806D01*
X137135020Y-124429511D01*
X137133291Y-124427517D01*
X137130286Y-124425625D01*
X137127537Y-124423369D01*
X137125093Y-124422357D01*
X137116701Y-124417074D01*
X137021463Y-124369455D01*
X137003155Y-124362449D01*
X136999571Y-124362194D01*
X136996251Y-124360819D01*
X136976742Y-124358898D01*
X136881504Y-124358898D01*
X136861995Y-124360819D01*
X136858674Y-124362194D01*
X136855091Y-124362449D01*
X136836782Y-124369455D01*
X136741545Y-124417074D01*
X136733148Y-124422359D01*
X136730708Y-124423370D01*
X136727962Y-124425623D01*
X136724954Y-124427517D01*
X136723221Y-124429514D01*
X136715555Y-124435807D01*
X136667936Y-124483425D01*
X136661641Y-124491095D01*
X136659647Y-124492825D01*
X136657753Y-124495832D01*
X136655500Y-124498579D01*
X136654489Y-124501018D01*
X136649204Y-124509415D01*
X136601585Y-124604653D01*
X136601039Y-124606079D01*
X136600609Y-124606660D01*
X136597687Y-124614836D01*
X136594579Y-124622961D01*
X136594527Y-124623683D01*
X136594014Y-124625121D01*
X136549057Y-124804945D01*
X136513604Y-124875852D01*
X136488935Y-124900520D01*
X136429326Y-124930326D01*
X136381302Y-124930326D01*
X136321692Y-124900521D01*
X136297024Y-124875852D01*
X136267219Y-124816242D01*
X136267219Y-124617982D01*
X136309706Y-124490521D01*
X136314053Y-124471406D01*
X136311287Y-124432486D01*
X136293837Y-124397587D01*
X136264361Y-124372022D01*
X136227345Y-124359683D01*
X136188425Y-124362450D01*
X136153526Y-124379899D01*
X136127961Y-124409375D01*
X136119970Y-124427276D01*
X136072351Y-124570132D01*
X136070151Y-124579803D01*
X136069140Y-124582246D01*
X136068791Y-124585784D01*
X136068004Y-124589248D01*
X136068191Y-124591881D01*
X136067219Y-124601755D01*
X135956108Y-124601755D01*
X135956108Y-123601755D01*
X136067219Y-123601755D01*
X136067219Y-124173183D01*
X136069140Y-124192692D01*
X136084072Y-124228740D01*
X136111662Y-124256330D01*
X136147710Y-124271262D01*
X136186728Y-124271262D01*
X136222776Y-124256330D01*
X136250366Y-124228740D01*
X136265298Y-124192692D01*
X136267219Y-124173183D01*
X136267219Y-123987469D01*
X137167219Y-123987469D01*
X137186728Y-123985548D01*
X137222776Y-123970616D01*
X137250366Y-123943026D01*
X137265298Y-123906978D01*
X137265298Y-123867960D01*
X137250366Y-123831912D01*
X137222776Y-123804322D01*
X137186728Y-123789390D01*
X137167219Y-123787469D01*
X136267219Y-123787469D01*
X136267219Y-123601755D01*
X136265298Y-123582246D01*
X136250366Y-123546198D01*
X136222776Y-123518608D01*
X136186728Y-123503676D01*
X136147710Y-123503676D01*
X136111662Y-123518608D01*
X136084072Y-123546198D01*
X136069140Y-123582246D01*
X136067219Y-123601755D01*
X135956108Y-123601755D01*
X135956108Y-123392565D01*
X137378330Y-123392565D01*
X137378330Y-127241437D01*
G37*
D11*
G36*
X77911153Y-140414613D02*
G01*
X76140725Y-140414613D01*
X76140725Y-139500136D01*
X76307392Y-139500136D01*
X76307392Y-139558664D01*
X76329790Y-139612736D01*
X76371174Y-139654120D01*
X76425246Y-139676518D01*
X76454510Y-139679400D01*
X76875939Y-139679400D01*
X76875939Y-140100828D01*
X76878821Y-140130092D01*
X76901219Y-140184164D01*
X76942603Y-140225548D01*
X76996675Y-140247946D01*
X77055203Y-140247946D01*
X77109275Y-140225548D01*
X77150659Y-140184164D01*
X77173057Y-140130092D01*
X77175939Y-140100828D01*
X77175939Y-139679400D01*
X77597368Y-139679400D01*
X77626632Y-139676518D01*
X77680704Y-139654120D01*
X77722088Y-139612736D01*
X77744486Y-139558664D01*
X77744486Y-139500136D01*
X77722088Y-139446064D01*
X77680704Y-139404680D01*
X77626632Y-139382282D01*
X77597368Y-139379400D01*
X77175939Y-139379400D01*
X77175939Y-138957971D01*
X77173057Y-138928707D01*
X77150659Y-138874635D01*
X77109275Y-138833251D01*
X77055203Y-138810853D01*
X76996675Y-138810853D01*
X76942603Y-138833251D01*
X76901219Y-138874635D01*
X76878821Y-138928707D01*
X76875939Y-138957971D01*
X76875939Y-139379400D01*
X76454510Y-139379400D01*
X76425246Y-139382282D01*
X76371174Y-139404680D01*
X76329790Y-139446064D01*
X76307392Y-139500136D01*
X76140725Y-139500136D01*
X76140725Y-138644186D01*
X77911153Y-138644186D01*
X77911153Y-140414613D01*
G37*
D10*
G36*
X134861588Y-114678330D02*
G01*
X132010943Y-114678330D01*
X132010943Y-113895790D01*
X132122054Y-113895790D01*
X132122054Y-114038647D01*
X132122389Y-114042049D01*
X132122172Y-114043508D01*
X132123251Y-114050805D01*
X132123975Y-114058156D01*
X132124539Y-114059519D01*
X132125040Y-114062901D01*
X132172659Y-114253376D01*
X132173172Y-114254813D01*
X132173224Y-114255536D01*
X132176332Y-114263660D01*
X132179254Y-114271837D01*
X132179684Y-114272417D01*
X132180230Y-114273844D01*
X132227849Y-114369082D01*
X132233131Y-114377474D01*
X132234144Y-114379918D01*
X132236400Y-114382667D01*
X132238292Y-114385672D01*
X132240286Y-114387401D01*
X132246581Y-114395071D01*
X132341819Y-114490311D01*
X132356972Y-114502747D01*
X132360291Y-114504122D01*
X132363007Y-114506477D01*
X132380907Y-114514468D01*
X132523764Y-114562087D01*
X132533436Y-114564286D01*
X132535878Y-114565298D01*
X132539415Y-114565646D01*
X132542879Y-114566434D01*
X132545513Y-114566246D01*
X132555387Y-114567219D01*
X132650625Y-114567219D01*
X132660498Y-114566246D01*
X132663132Y-114566434D01*
X132666595Y-114565646D01*
X132670134Y-114565298D01*
X132672576Y-114564286D01*
X132682248Y-114562087D01*
X132825104Y-114514468D01*
X132843005Y-114506477D01*
X132845720Y-114504122D01*
X132849040Y-114502747D01*
X132864193Y-114490310D01*
X132911812Y-114442690D01*
X132924249Y-114427537D01*
X132939180Y-114391488D01*
X132939179Y-114352470D01*
X132924248Y-114316422D01*
X132896657Y-114288832D01*
X132860609Y-114273901D01*
X132821591Y-114273902D01*
X132785543Y-114288833D01*
X132770389Y-114301270D01*
X132739462Y-114332197D01*
X132634398Y-114367219D01*
X132571613Y-114367219D01*
X132466548Y-114332197D01*
X132399478Y-114265127D01*
X132364024Y-114194218D01*
X132322054Y-114026337D01*
X132322054Y-113908100D01*
X132364024Y-113740218D01*
X132399477Y-113669312D01*
X132466549Y-113602240D01*
X132571613Y-113567219D01*
X132634398Y-113567219D01*
X132739463Y-113602240D01*
X132770390Y-113633167D01*
X132785543Y-113645604D01*
X132821592Y-113660535D01*
X132860610Y-113660535D01*
X132896658Y-113645604D01*
X132924248Y-113618014D01*
X132939179Y-113581966D01*
X132939179Y-113542948D01*
X132924248Y-113506899D01*
X132911811Y-113491746D01*
X132887285Y-113467219D01*
X133169673Y-113467219D01*
X133169673Y-114467219D01*
X133171594Y-114486728D01*
X133186526Y-114522776D01*
X133214116Y-114550366D01*
X133250164Y-114565298D01*
X133269673Y-114567219D01*
X133745863Y-114567219D01*
X133765372Y-114565298D01*
X133801420Y-114550366D01*
X133829010Y-114522776D01*
X133843942Y-114486728D01*
X133843942Y-114447710D01*
X133829010Y-114411662D01*
X133801420Y-114384072D01*
X133765372Y-114369140D01*
X133745863Y-114367219D01*
X133369673Y-114367219D01*
X133369673Y-113467219D01*
X133979197Y-113467219D01*
X133979197Y-114467219D01*
X133981118Y-114486728D01*
X133996050Y-114522776D01*
X134023640Y-114550366D01*
X134059688Y-114565298D01*
X134098706Y-114565298D01*
X134134754Y-114550366D01*
X134162344Y-114522776D01*
X134177276Y-114486728D01*
X134179197Y-114467219D01*
X134179197Y-114080069D01*
X134211234Y-114048031D01*
X134570625Y-114527219D01*
X134583867Y-114541674D01*
X134617442Y-114561553D01*
X134656068Y-114567071D01*
X134693865Y-114557388D01*
X134725080Y-114533977D01*
X134744959Y-114500403D01*
X134750477Y-114461777D01*
X134740794Y-114423979D01*
X134730625Y-114407219D01*
X134354091Y-113905174D01*
X134721336Y-113537930D01*
X134733772Y-113522777D01*
X134748703Y-113486728D01*
X134748703Y-113447710D01*
X134733772Y-113411662D01*
X134706182Y-113384072D01*
X134670134Y-113369141D01*
X134631116Y-113369141D01*
X134595067Y-113384072D01*
X134579914Y-113396508D01*
X134179197Y-113797225D01*
X134179197Y-113467219D01*
X134177276Y-113447710D01*
X134162344Y-113411662D01*
X134134754Y-113384072D01*
X134098706Y-113369140D01*
X134059688Y-113369140D01*
X134023640Y-113384072D01*
X133996050Y-113411662D01*
X133981118Y-113447710D01*
X133979197Y-113467219D01*
X133369673Y-113467219D01*
X133367752Y-113447710D01*
X133352820Y-113411662D01*
X133325230Y-113384072D01*
X133289182Y-113369140D01*
X133250164Y-113369140D01*
X133214116Y-113384072D01*
X133186526Y-113411662D01*
X133171594Y-113447710D01*
X133169673Y-113467219D01*
X132887285Y-113467219D01*
X132864193Y-113444127D01*
X132849039Y-113431691D01*
X132845720Y-113430316D01*
X132843005Y-113427961D01*
X132825104Y-113419970D01*
X132682248Y-113372351D01*
X132672576Y-113370151D01*
X132670134Y-113369140D01*
X132666595Y-113368791D01*
X132663132Y-113368004D01*
X132660498Y-113368191D01*
X132650625Y-113367219D01*
X132555387Y-113367219D01*
X132545513Y-113368191D01*
X132542879Y-113368004D01*
X132539415Y-113368791D01*
X132535878Y-113369140D01*
X132533436Y-113370151D01*
X132523764Y-113372351D01*
X132380907Y-113419970D01*
X132363007Y-113427961D01*
X132360291Y-113430316D01*
X132356973Y-113431691D01*
X132341819Y-113444127D01*
X132246581Y-113539365D01*
X132240286Y-113547035D01*
X132238292Y-113548765D01*
X132236398Y-113551772D01*
X132234145Y-113554519D01*
X132233134Y-113556958D01*
X132227849Y-113565355D01*
X132180230Y-113660593D01*
X132179684Y-113662019D01*
X132179254Y-113662600D01*
X132176332Y-113670776D01*
X132173224Y-113678901D01*
X132173172Y-113679623D01*
X132172659Y-113681061D01*
X132125040Y-113871536D01*
X132124539Y-113874917D01*
X132123975Y-113876281D01*
X132123251Y-113883631D01*
X132122172Y-113890929D01*
X132122389Y-113892387D01*
X132122054Y-113895790D01*
X132010943Y-113895790D01*
X132010943Y-113256108D01*
X134861588Y-113256108D01*
X134861588Y-114678330D01*
G37*
G36*
X134544224Y-116202240D02*
G01*
X134611297Y-116269313D01*
X134646749Y-116340218D01*
X134688720Y-116508099D01*
X134688720Y-116626337D01*
X134646749Y-116794218D01*
X134611296Y-116865124D01*
X134544225Y-116932197D01*
X134439160Y-116967219D01*
X134317292Y-116967219D01*
X134317292Y-116167219D01*
X134439160Y-116167219D01*
X134544224Y-116202240D01*
G37*
G36*
X134999831Y-117278330D02*
G01*
X131910943Y-117278330D01*
X131910943Y-116495790D01*
X132022054Y-116495790D01*
X132022054Y-116638647D01*
X132022389Y-116642049D01*
X132022172Y-116643508D01*
X132023251Y-116650805D01*
X132023975Y-116658156D01*
X132024539Y-116659519D01*
X132025040Y-116662901D01*
X132072659Y-116853376D01*
X132073172Y-116854813D01*
X132073224Y-116855536D01*
X132076332Y-116863660D01*
X132079254Y-116871837D01*
X132079684Y-116872417D01*
X132080230Y-116873844D01*
X132127849Y-116969082D01*
X132133131Y-116977474D01*
X132134144Y-116979918D01*
X132136400Y-116982667D01*
X132138292Y-116985672D01*
X132140286Y-116987401D01*
X132146581Y-116995071D01*
X132241819Y-117090311D01*
X132256972Y-117102747D01*
X132260291Y-117104122D01*
X132263007Y-117106477D01*
X132280907Y-117114468D01*
X132423764Y-117162087D01*
X132433436Y-117164286D01*
X132435878Y-117165298D01*
X132439415Y-117165646D01*
X132442879Y-117166434D01*
X132445513Y-117166246D01*
X132455387Y-117167219D01*
X132550625Y-117167219D01*
X132560498Y-117166246D01*
X132563132Y-117166434D01*
X132566595Y-117165646D01*
X132570134Y-117165298D01*
X132572576Y-117164286D01*
X132582248Y-117162087D01*
X132725104Y-117114468D01*
X132743005Y-117106477D01*
X132745720Y-117104122D01*
X132749040Y-117102747D01*
X132764193Y-117090310D01*
X132811812Y-117042690D01*
X132824249Y-117027537D01*
X132839180Y-116991488D01*
X132841101Y-116971980D01*
X132841101Y-116638647D01*
X132839180Y-116619138D01*
X132824248Y-116583090D01*
X132796658Y-116555500D01*
X132760610Y-116540568D01*
X132741101Y-116538647D01*
X132550625Y-116538647D01*
X132531116Y-116540568D01*
X132495068Y-116555500D01*
X132467478Y-116583090D01*
X132452546Y-116619138D01*
X132452546Y-116658156D01*
X132467478Y-116694204D01*
X132495068Y-116721794D01*
X132531116Y-116736726D01*
X132550625Y-116738647D01*
X132641101Y-116738647D01*
X132641101Y-116930559D01*
X132639462Y-116932197D01*
X132534398Y-116967219D01*
X132471613Y-116967219D01*
X132366548Y-116932197D01*
X132299478Y-116865127D01*
X132264024Y-116794218D01*
X132222054Y-116626337D01*
X132222054Y-116508100D01*
X132264024Y-116340218D01*
X132299477Y-116269312D01*
X132366549Y-116202240D01*
X132471613Y-116167219D01*
X132574637Y-116167219D01*
X132648760Y-116204281D01*
X132667069Y-116211287D01*
X132705989Y-116214053D01*
X132743005Y-116201714D01*
X132772482Y-116176149D01*
X132789931Y-116141251D01*
X132792696Y-116102331D01*
X132780993Y-116067219D01*
X133069673Y-116067219D01*
X133069673Y-117067219D01*
X133071594Y-117086728D01*
X133086526Y-117122776D01*
X133114116Y-117150366D01*
X133150164Y-117165298D01*
X133189182Y-117165298D01*
X133225230Y-117150366D01*
X133252820Y-117122776D01*
X133267752Y-117086728D01*
X133269673Y-117067219D01*
X133269673Y-116443775D01*
X133654277Y-117116833D01*
X133657195Y-117120943D01*
X133657954Y-117122776D01*
X133659820Y-117124642D01*
X133665624Y-117132818D01*
X133676140Y-117140962D01*
X133685544Y-117150366D01*
X133691431Y-117152804D01*
X133696473Y-117156709D01*
X133709305Y-117160208D01*
X133721592Y-117165298D01*
X133727968Y-117165298D01*
X133734117Y-117166975D01*
X133747310Y-117165298D01*
X133760610Y-117165298D01*
X133766498Y-117162858D01*
X133772823Y-117162055D01*
X133784372Y-117155454D01*
X133796658Y-117150366D01*
X133801165Y-117145858D01*
X133806700Y-117142696D01*
X133814844Y-117132179D01*
X133824248Y-117122776D01*
X133826686Y-117116888D01*
X133830591Y-117111847D01*
X133834090Y-117099014D01*
X133839180Y-117086728D01*
X133840162Y-117076750D01*
X133840857Y-117074204D01*
X133840606Y-117072236D01*
X133841101Y-117067219D01*
X133841101Y-116067219D01*
X134117292Y-116067219D01*
X134117292Y-117067219D01*
X134119213Y-117086728D01*
X134134145Y-117122776D01*
X134161735Y-117150366D01*
X134197783Y-117165298D01*
X134217292Y-117167219D01*
X134455387Y-117167219D01*
X134465260Y-117166246D01*
X134467894Y-117166434D01*
X134471357Y-117165646D01*
X134474896Y-117165298D01*
X134477338Y-117164286D01*
X134487010Y-117162087D01*
X134629866Y-117114468D01*
X134647767Y-117106477D01*
X134650482Y-117104122D01*
X134653802Y-117102747D01*
X134668955Y-117090310D01*
X134764193Y-116995071D01*
X134770485Y-116987404D01*
X134772482Y-116985673D01*
X134774375Y-116982665D01*
X134776630Y-116979918D01*
X134777641Y-116977476D01*
X134782925Y-116969082D01*
X134830544Y-116873845D01*
X134831090Y-116872416D01*
X134831520Y-116871837D01*
X134834441Y-116863660D01*
X134837550Y-116855536D01*
X134837601Y-116854815D01*
X134838115Y-116853377D01*
X134885734Y-116662901D01*
X134886234Y-116659519D01*
X134886799Y-116658156D01*
X134887522Y-116650805D01*
X134888602Y-116643508D01*
X134888384Y-116642049D01*
X134888720Y-116638647D01*
X134888720Y-116495790D01*
X134888384Y-116492387D01*
X134888602Y-116490929D01*
X134887522Y-116483631D01*
X134886799Y-116476281D01*
X134886234Y-116474917D01*
X134885734Y-116471536D01*
X134838115Y-116281060D01*
X134837601Y-116279621D01*
X134837550Y-116278901D01*
X134834441Y-116270776D01*
X134831520Y-116262600D01*
X134831090Y-116262020D01*
X134830544Y-116260592D01*
X134782925Y-116165355D01*
X134777638Y-116156956D01*
X134776629Y-116154519D01*
X134774377Y-116151775D01*
X134772482Y-116148764D01*
X134770484Y-116147031D01*
X134764193Y-116139365D01*
X134668955Y-116044127D01*
X134653801Y-116031691D01*
X134650482Y-116030316D01*
X134647767Y-116027961D01*
X134629866Y-116019970D01*
X134487010Y-115972351D01*
X134477338Y-115970151D01*
X134474896Y-115969140D01*
X134471357Y-115968791D01*
X134467894Y-115968004D01*
X134465260Y-115968191D01*
X134455387Y-115967219D01*
X134217292Y-115967219D01*
X134197783Y-115969140D01*
X134161735Y-115984072D01*
X134134145Y-116011662D01*
X134119213Y-116047710D01*
X134117292Y-116067219D01*
X133841101Y-116067219D01*
X133839180Y-116047710D01*
X133824248Y-116011662D01*
X133796658Y-115984072D01*
X133760610Y-115969140D01*
X133721592Y-115969140D01*
X133685544Y-115984072D01*
X133657954Y-116011662D01*
X133643022Y-116047710D01*
X133641101Y-116067219D01*
X133641101Y-116690662D01*
X133256497Y-116017605D01*
X133253578Y-116013494D01*
X133252820Y-116011662D01*
X133250953Y-116009795D01*
X133245150Y-116001620D01*
X133234635Y-115993477D01*
X133225230Y-115984072D01*
X133219339Y-115981632D01*
X133214301Y-115977730D01*
X133201472Y-115974231D01*
X133189182Y-115969140D01*
X133182807Y-115969140D01*
X133176658Y-115967463D01*
X133163465Y-115969140D01*
X133150164Y-115969140D01*
X133144275Y-115971579D01*
X133137951Y-115972383D01*
X133126401Y-115978983D01*
X133114116Y-115984072D01*
X133109608Y-115988579D01*
X133104074Y-115991742D01*
X133095931Y-116002256D01*
X133086526Y-116011662D01*
X133084086Y-116017552D01*
X133080184Y-116022591D01*
X133076685Y-116035419D01*
X133071594Y-116047710D01*
X133070611Y-116057687D01*
X133069917Y-116060234D01*
X133070167Y-116062201D01*
X133069673Y-116067219D01*
X132780993Y-116067219D01*
X132780358Y-116065315D01*
X132754793Y-116035838D01*
X132738203Y-116025395D01*
X132642965Y-115977776D01*
X132624657Y-115970770D01*
X132621073Y-115970515D01*
X132617753Y-115969140D01*
X132598244Y-115967219D01*
X132455387Y-115967219D01*
X132445513Y-115968191D01*
X132442879Y-115968004D01*
X132439415Y-115968791D01*
X132435878Y-115969140D01*
X132433436Y-115970151D01*
X132423764Y-115972351D01*
X132280907Y-116019970D01*
X132263007Y-116027961D01*
X132260291Y-116030316D01*
X132256973Y-116031691D01*
X132241819Y-116044127D01*
X132146581Y-116139365D01*
X132140286Y-116147035D01*
X132138292Y-116148765D01*
X132136398Y-116151772D01*
X132134145Y-116154519D01*
X132133134Y-116156958D01*
X132127849Y-116165355D01*
X132080230Y-116260593D01*
X132079684Y-116262019D01*
X132079254Y-116262600D01*
X132076332Y-116270776D01*
X132073224Y-116278901D01*
X132073172Y-116279623D01*
X132072659Y-116281061D01*
X132025040Y-116471536D01*
X132024539Y-116474917D01*
X132023975Y-116476281D01*
X132023251Y-116483631D01*
X132022172Y-116490929D01*
X132022389Y-116492387D01*
X132022054Y-116495790D01*
X131910943Y-116495790D01*
X131910943Y-115856108D01*
X134999831Y-115856108D01*
X134999831Y-117278330D01*
G37*
G36*
X134814117Y-112078330D02*
G01*
X131965245Y-112078330D01*
X131965245Y-110847710D01*
X132076356Y-110847710D01*
X132076356Y-110886728D01*
X132091288Y-110922776D01*
X132118878Y-110950366D01*
X132154926Y-110965298D01*
X132174435Y-110967219D01*
X132573105Y-110967219D01*
X132384891Y-111182321D01*
X132378861Y-111190754D01*
X132377002Y-111192614D01*
X132376271Y-111194377D01*
X132373490Y-111198268D01*
X132368285Y-111213656D01*
X132362070Y-111228662D01*
X132362070Y-111232035D01*
X132360990Y-111235229D01*
X132362070Y-111251431D01*
X132362070Y-111267680D01*
X132363360Y-111270795D01*
X132363585Y-111274161D01*
X132370785Y-111288721D01*
X132377002Y-111303728D01*
X132379386Y-111306112D01*
X132380882Y-111309136D01*
X132393107Y-111319833D01*
X132404592Y-111331318D01*
X132407706Y-111332608D01*
X132410246Y-111334830D01*
X132425634Y-111340034D01*
X132440640Y-111346250D01*
X132445399Y-111346718D01*
X132447207Y-111347330D01*
X132449831Y-111347155D01*
X132460149Y-111348171D01*
X132579399Y-111348171D01*
X132639008Y-111377976D01*
X132663677Y-111402644D01*
X132693482Y-111462254D01*
X132693482Y-111653135D01*
X132663677Y-111712743D01*
X132639008Y-111737413D01*
X132579399Y-111767219D01*
X132340899Y-111767219D01*
X132281289Y-111737414D01*
X132245146Y-111701270D01*
X132229993Y-111688833D01*
X132193945Y-111673902D01*
X132154927Y-111673901D01*
X132118878Y-111688832D01*
X132091288Y-111716422D01*
X132076357Y-111752470D01*
X132076356Y-111791488D01*
X132091287Y-111827537D01*
X132103724Y-111842690D01*
X132151342Y-111890310D01*
X132159010Y-111896603D01*
X132160742Y-111898600D01*
X132163750Y-111900493D01*
X132166496Y-111902747D01*
X132168936Y-111903757D01*
X132177333Y-111909043D01*
X132272570Y-111956662D01*
X132290879Y-111963668D01*
X132294462Y-111963922D01*
X132297783Y-111965298D01*
X132317292Y-111967219D01*
X132603006Y-111967219D01*
X132622515Y-111965298D01*
X132625835Y-111963922D01*
X132629419Y-111963668D01*
X132647727Y-111956662D01*
X132742965Y-111909043D01*
X132751360Y-111903758D01*
X132753802Y-111902747D01*
X132756549Y-111900491D01*
X132759555Y-111898600D01*
X132761285Y-111896605D01*
X132768955Y-111890310D01*
X132816574Y-111842690D01*
X132822866Y-111835023D01*
X132824863Y-111833292D01*
X132826756Y-111830284D01*
X132829011Y-111827537D01*
X132830022Y-111825095D01*
X132835306Y-111816701D01*
X132882925Y-111721464D01*
X132889931Y-111703155D01*
X132890185Y-111699571D01*
X132891561Y-111696251D01*
X132893482Y-111676742D01*
X132893482Y-111438647D01*
X132891561Y-111419138D01*
X132890185Y-111415817D01*
X132889931Y-111412234D01*
X132882925Y-111393925D01*
X132835306Y-111298688D01*
X132830020Y-111290291D01*
X132829010Y-111287851D01*
X132826756Y-111285105D01*
X132824863Y-111282097D01*
X132822865Y-111280364D01*
X132816573Y-111272698D01*
X132768955Y-111225079D01*
X132761284Y-111218784D01*
X132759555Y-111216790D01*
X132756547Y-111214896D01*
X132753801Y-111212643D01*
X132751361Y-111211632D01*
X132742965Y-111206347D01*
X132664117Y-111166923D01*
X132868740Y-110933069D01*
X132874769Y-110924635D01*
X132876629Y-110922776D01*
X132877359Y-110921012D01*
X132880141Y-110917122D01*
X132885345Y-110901733D01*
X132891561Y-110886728D01*
X132891561Y-110883354D01*
X132892641Y-110880161D01*
X132892612Y-110879726D01*
X132979982Y-110879726D01*
X132984329Y-110898842D01*
X133317662Y-111898841D01*
X133325653Y-111916742D01*
X133330336Y-111922141D01*
X133333531Y-111928531D01*
X133343002Y-111936746D01*
X133351218Y-111946218D01*
X133357606Y-111949412D01*
X133363007Y-111954096D01*
X133374908Y-111958063D01*
X133386117Y-111963667D01*
X133393241Y-111964173D01*
X133400023Y-111966434D01*
X133412532Y-111965544D01*
X133425037Y-111966434D01*
X133431815Y-111964174D01*
X133438943Y-111963668D01*
X133450159Y-111958059D01*
X133462053Y-111954095D01*
X133467450Y-111949414D01*
X133473842Y-111946218D01*
X133482060Y-111936742D01*
X133491529Y-111928530D01*
X133494722Y-111922143D01*
X133499407Y-111916742D01*
X133507398Y-111898842D01*
X133840731Y-110898842D01*
X133845078Y-110879727D01*
X133842803Y-110847710D01*
X133885880Y-110847710D01*
X133885880Y-110886728D01*
X133900812Y-110922776D01*
X133928402Y-110950366D01*
X133964450Y-110965298D01*
X133983959Y-110967219D01*
X134382629Y-110967219D01*
X134194415Y-111182321D01*
X134188385Y-111190754D01*
X134186526Y-111192614D01*
X134185795Y-111194377D01*
X134183014Y-111198268D01*
X134177809Y-111213656D01*
X134171594Y-111228662D01*
X134171594Y-111232035D01*
X134170514Y-111235229D01*
X134171594Y-111251431D01*
X134171594Y-111267680D01*
X134172884Y-111270795D01*
X134173109Y-111274161D01*
X134180309Y-111288721D01*
X134186526Y-111303728D01*
X134188910Y-111306112D01*
X134190406Y-111309136D01*
X134202631Y-111319833D01*
X134214116Y-111331318D01*
X134217230Y-111332608D01*
X134219770Y-111334830D01*
X134235158Y-111340034D01*
X134250164Y-111346250D01*
X134254923Y-111346718D01*
X134256731Y-111347330D01*
X134259355Y-111347155D01*
X134269673Y-111348171D01*
X134388923Y-111348171D01*
X134448532Y-111377976D01*
X134473201Y-111402644D01*
X134503006Y-111462254D01*
X134503006Y-111653135D01*
X134473201Y-111712743D01*
X134448532Y-111737413D01*
X134388923Y-111767219D01*
X134150423Y-111767219D01*
X134090813Y-111737414D01*
X134054670Y-111701270D01*
X134039517Y-111688833D01*
X134003469Y-111673902D01*
X133964451Y-111673901D01*
X133928402Y-111688832D01*
X133900812Y-111716422D01*
X133885881Y-111752470D01*
X133885880Y-111791488D01*
X133900811Y-111827537D01*
X133913248Y-111842690D01*
X133960866Y-111890310D01*
X133968534Y-111896603D01*
X133970266Y-111898600D01*
X133973274Y-111900493D01*
X133976020Y-111902747D01*
X133978460Y-111903757D01*
X133986857Y-111909043D01*
X134082094Y-111956662D01*
X134100403Y-111963668D01*
X134103986Y-111963922D01*
X134107307Y-111965298D01*
X134126816Y-111967219D01*
X134412530Y-111967219D01*
X134432039Y-111965298D01*
X134435359Y-111963922D01*
X134438943Y-111963668D01*
X134457251Y-111956662D01*
X134552489Y-111909043D01*
X134560884Y-111903758D01*
X134563326Y-111902747D01*
X134566073Y-111900491D01*
X134569079Y-111898600D01*
X134570809Y-111896605D01*
X134578479Y-111890310D01*
X134626098Y-111842690D01*
X134632390Y-111835023D01*
X134634387Y-111833292D01*
X134636280Y-111830284D01*
X134638535Y-111827537D01*
X134639546Y-111825095D01*
X134644830Y-111816701D01*
X134692449Y-111721464D01*
X134699455Y-111703155D01*
X134699709Y-111699571D01*
X134701085Y-111696251D01*
X134703006Y-111676742D01*
X134703006Y-111438647D01*
X134701085Y-111419138D01*
X134699709Y-111415817D01*
X134699455Y-111412234D01*
X134692449Y-111393925D01*
X134644830Y-111298688D01*
X134639544Y-111290291D01*
X134638534Y-111287851D01*
X134636280Y-111285105D01*
X134634387Y-111282097D01*
X134632389Y-111280364D01*
X134626097Y-111272698D01*
X134578479Y-111225079D01*
X134570808Y-111218784D01*
X134569079Y-111216790D01*
X134566071Y-111214896D01*
X134563325Y-111212643D01*
X134560885Y-111211632D01*
X134552489Y-111206347D01*
X134473641Y-111166923D01*
X134678264Y-110933069D01*
X134684293Y-110924635D01*
X134686153Y-110922776D01*
X134686883Y-110921012D01*
X134689665Y-110917122D01*
X134694869Y-110901733D01*
X134701085Y-110886728D01*
X134701085Y-110883354D01*
X134702165Y-110880161D01*
X134701085Y-110863958D01*
X134701085Y-110847710D01*
X134699794Y-110844594D01*
X134699570Y-110841229D01*
X134692367Y-110826663D01*
X134686153Y-110811662D01*
X134683769Y-110809278D01*
X134682274Y-110806254D01*
X134670040Y-110795549D01*
X134658563Y-110784072D01*
X134655449Y-110782782D01*
X134652910Y-110780560D01*
X134637518Y-110775354D01*
X134622515Y-110769140D01*
X134617755Y-110768671D01*
X134615948Y-110768060D01*
X134613323Y-110768234D01*
X134603006Y-110767219D01*
X133983959Y-110767219D01*
X133964450Y-110769140D01*
X133928402Y-110784072D01*
X133900812Y-110811662D01*
X133885880Y-110847710D01*
X133842803Y-110847710D01*
X133842312Y-110840807D01*
X133824862Y-110805908D01*
X133795386Y-110780343D01*
X133758370Y-110768004D01*
X133719450Y-110770771D01*
X133684551Y-110788220D01*
X133658986Y-110817696D01*
X133650995Y-110835597D01*
X133412530Y-111550991D01*
X133174065Y-110835596D01*
X133166074Y-110817696D01*
X133140509Y-110788220D01*
X133105610Y-110770770D01*
X133066690Y-110768004D01*
X133029674Y-110780342D01*
X133000198Y-110805907D01*
X132982748Y-110840806D01*
X132979982Y-110879726D01*
X132892612Y-110879726D01*
X132891561Y-110863958D01*
X132891561Y-110847710D01*
X132890270Y-110844594D01*
X132890046Y-110841229D01*
X132882843Y-110826663D01*
X132876629Y-110811662D01*
X132874245Y-110809278D01*
X132872750Y-110806254D01*
X132860516Y-110795549D01*
X132849039Y-110784072D01*
X132845925Y-110782782D01*
X132843386Y-110780560D01*
X132827994Y-110775354D01*
X132812991Y-110769140D01*
X132808231Y-110768671D01*
X132806424Y-110768060D01*
X132803799Y-110768234D01*
X132793482Y-110767219D01*
X132174435Y-110767219D01*
X132154926Y-110769140D01*
X132118878Y-110784072D01*
X132091288Y-110811662D01*
X132076356Y-110847710D01*
X131965245Y-110847710D01*
X131965245Y-110656108D01*
X134814117Y-110656108D01*
X134814117Y-112078330D01*
G37*
G36*
X134362816Y-118697023D02*
G01*
X134426995Y-118761202D01*
X134464910Y-118912861D01*
X134464910Y-119221575D01*
X134426994Y-119373235D01*
X134362818Y-119437413D01*
X134303208Y-119467219D01*
X134159946Y-119467219D01*
X134100336Y-119437414D01*
X134036159Y-119373236D01*
X133998244Y-119221575D01*
X133998244Y-118912862D01*
X134036159Y-118761202D01*
X134100338Y-118697023D01*
X134159946Y-118667219D01*
X134303208Y-118667219D01*
X134362816Y-118697023D01*
G37*
G36*
X134776021Y-119778330D02*
G01*
X133258562Y-119778330D01*
X133258562Y-118567219D01*
X133369673Y-118567219D01*
X133369673Y-119567219D01*
X133371594Y-119586728D01*
X133386526Y-119622776D01*
X133414116Y-119650366D01*
X133450164Y-119665298D01*
X133489182Y-119665298D01*
X133525230Y-119650366D01*
X133552820Y-119622776D01*
X133567752Y-119586728D01*
X133569673Y-119567219D01*
X133569673Y-118900552D01*
X133798244Y-118900552D01*
X133798244Y-119233885D01*
X133798579Y-119237287D01*
X133798362Y-119238746D01*
X133799441Y-119246043D01*
X133800165Y-119253394D01*
X133800729Y-119254757D01*
X133801230Y-119258139D01*
X133848849Y-119448614D01*
X133855444Y-119467075D01*
X133859869Y-119473047D01*
X133862715Y-119479918D01*
X133875152Y-119495071D01*
X133970390Y-119590311D01*
X133978058Y-119596604D01*
X133979789Y-119598600D01*
X133982796Y-119600493D01*
X133985543Y-119602747D01*
X133987983Y-119603757D01*
X133996380Y-119609043D01*
X134091617Y-119656662D01*
X134109926Y-119663668D01*
X134113509Y-119663922D01*
X134116830Y-119665298D01*
X134136339Y-119667219D01*
X134326815Y-119667219D01*
X134346324Y-119665298D01*
X134349644Y-119663922D01*
X134353228Y-119663668D01*
X134371536Y-119656662D01*
X134466774Y-119609043D01*
X134475169Y-119603758D01*
X134477611Y-119602747D01*
X134480358Y-119600491D01*
X134483364Y-119598600D01*
X134485094Y-119596605D01*
X134492764Y-119590310D01*
X134588002Y-119495071D01*
X134600439Y-119479918D01*
X134603284Y-119473047D01*
X134607710Y-119467075D01*
X134614305Y-119448615D01*
X134661924Y-119258139D01*
X134662424Y-119254757D01*
X134662989Y-119253394D01*
X134663712Y-119246043D01*
X134664792Y-119238746D01*
X134664574Y-119237287D01*
X134664910Y-119233885D01*
X134664910Y-118900552D01*
X134664574Y-118897149D01*
X134664792Y-118895691D01*
X134663712Y-118888393D01*
X134662989Y-118881043D01*
X134662424Y-118879679D01*
X134661924Y-118876298D01*
X134614305Y-118685822D01*
X134607710Y-118667362D01*
X134603283Y-118661387D01*
X134600438Y-118654519D01*
X134588002Y-118639365D01*
X134492764Y-118544127D01*
X134485093Y-118537832D01*
X134483364Y-118535838D01*
X134480356Y-118533944D01*
X134477610Y-118531691D01*
X134475170Y-118530680D01*
X134466774Y-118525395D01*
X134371536Y-118477776D01*
X134353228Y-118470770D01*
X134349644Y-118470515D01*
X134346324Y-118469140D01*
X134326815Y-118467219D01*
X134136339Y-118467219D01*
X134116830Y-118469140D01*
X134113509Y-118470515D01*
X134109926Y-118470770D01*
X134091617Y-118477776D01*
X133996380Y-118525395D01*
X133987981Y-118530681D01*
X133985544Y-118531691D01*
X133982800Y-118533942D01*
X133979789Y-118535838D01*
X133978056Y-118537835D01*
X133970390Y-118544127D01*
X133875152Y-118639365D01*
X133862716Y-118654519D01*
X133859870Y-118661387D01*
X133855444Y-118667362D01*
X133848849Y-118685823D01*
X133801230Y-118876298D01*
X133800729Y-118879679D01*
X133800165Y-118881043D01*
X133799441Y-118888393D01*
X133798362Y-118895691D01*
X133798579Y-118897149D01*
X133798244Y-118900552D01*
X133569673Y-118900552D01*
X133569673Y-118567219D01*
X133567752Y-118547710D01*
X133552820Y-118511662D01*
X133525230Y-118484072D01*
X133489182Y-118469140D01*
X133450164Y-118469140D01*
X133414116Y-118484072D01*
X133386526Y-118511662D01*
X133371594Y-118547710D01*
X133369673Y-118567219D01*
X133258562Y-118567219D01*
X133258562Y-118356108D01*
X134776021Y-118356108D01*
X134776021Y-119778330D01*
G37*
D11*
X67340225Y-149800828D02*
X66483082Y-149800828D01*
X66911653Y-149800828D02*
X66911653Y-148300828D01*
X66911653Y-148300828D02*
X66768796Y-148515114D01*
X66768796Y-148515114D02*
X66625939Y-148657971D01*
X66625939Y-148657971D02*
X66483082Y-148729400D01*
X68268796Y-148300828D02*
X68411653Y-148300828D01*
X68411653Y-148300828D02*
X68554510Y-148372257D01*
X68554510Y-148372257D02*
X68625939Y-148443685D01*
X68625939Y-148443685D02*
X68697367Y-148586542D01*
X68697367Y-148586542D02*
X68768796Y-148872257D01*
X68768796Y-148872257D02*
X68768796Y-149229400D01*
X68768796Y-149229400D02*
X68697367Y-149515114D01*
X68697367Y-149515114D02*
X68625939Y-149657971D01*
X68625939Y-149657971D02*
X68554510Y-149729400D01*
X68554510Y-149729400D02*
X68411653Y-149800828D01*
X68411653Y-149800828D02*
X68268796Y-149800828D01*
X68268796Y-149800828D02*
X68125939Y-149729400D01*
X68125939Y-149729400D02*
X68054510Y-149657971D01*
X68054510Y-149657971D02*
X67983081Y-149515114D01*
X67983081Y-149515114D02*
X67911653Y-149229400D01*
X67911653Y-149229400D02*
X67911653Y-148872257D01*
X67911653Y-148872257D02*
X67983081Y-148586542D01*
X67983081Y-148586542D02*
X68054510Y-148443685D01*
X68054510Y-148443685D02*
X68125939Y-148372257D01*
X68125939Y-148372257D02*
X68268796Y-148300828D01*
X69697367Y-148300828D02*
X69840224Y-148300828D01*
X69840224Y-148300828D02*
X69983081Y-148372257D01*
X69983081Y-148372257D02*
X70054510Y-148443685D01*
X70054510Y-148443685D02*
X70125938Y-148586542D01*
X70125938Y-148586542D02*
X70197367Y-148872257D01*
X70197367Y-148872257D02*
X70197367Y-149229400D01*
X70197367Y-149229400D02*
X70125938Y-149515114D01*
X70125938Y-149515114D02*
X70054510Y-149657971D01*
X70054510Y-149657971D02*
X69983081Y-149729400D01*
X69983081Y-149729400D02*
X69840224Y-149800828D01*
X69840224Y-149800828D02*
X69697367Y-149800828D01*
X69697367Y-149800828D02*
X69554510Y-149729400D01*
X69554510Y-149729400D02*
X69483081Y-149657971D01*
X69483081Y-149657971D02*
X69411652Y-149515114D01*
X69411652Y-149515114D02*
X69340224Y-149229400D01*
X69340224Y-149229400D02*
X69340224Y-148872257D01*
X69340224Y-148872257D02*
X69411652Y-148586542D01*
X69411652Y-148586542D02*
X69483081Y-148443685D01*
X69483081Y-148443685D02*
X69554510Y-148372257D01*
X69554510Y-148372257D02*
X69697367Y-148300828D01*
X70697366Y-148300828D02*
X71054509Y-149800828D01*
X71054509Y-149800828D02*
X71340223Y-148729400D01*
X71340223Y-148729400D02*
X71625938Y-149800828D01*
X71625938Y-149800828D02*
X71983081Y-148300828D01*
X73697366Y-148300828D02*
X73697366Y-149515114D01*
X73697366Y-149515114D02*
X73768795Y-149657971D01*
X73768795Y-149657971D02*
X73840224Y-149729400D01*
X73840224Y-149729400D02*
X73983081Y-149800828D01*
X73983081Y-149800828D02*
X74268795Y-149800828D01*
X74268795Y-149800828D02*
X74411652Y-149729400D01*
X74411652Y-149729400D02*
X74483081Y-149657971D01*
X74483081Y-149657971D02*
X74554509Y-149515114D01*
X74554509Y-149515114D02*
X74554509Y-148300828D01*
X75197367Y-149729400D02*
X75411653Y-149800828D01*
X75411653Y-149800828D02*
X75768795Y-149800828D01*
X75768795Y-149800828D02*
X75911653Y-149729400D01*
X75911653Y-149729400D02*
X75983081Y-149657971D01*
X75983081Y-149657971D02*
X76054510Y-149515114D01*
X76054510Y-149515114D02*
X76054510Y-149372257D01*
X76054510Y-149372257D02*
X75983081Y-149229400D01*
X75983081Y-149229400D02*
X75911653Y-149157971D01*
X75911653Y-149157971D02*
X75768795Y-149086542D01*
X75768795Y-149086542D02*
X75483081Y-149015114D01*
X75483081Y-149015114D02*
X75340224Y-148943685D01*
X75340224Y-148943685D02*
X75268795Y-148872257D01*
X75268795Y-148872257D02*
X75197367Y-148729400D01*
X75197367Y-148729400D02*
X75197367Y-148586542D01*
X75197367Y-148586542D02*
X75268795Y-148443685D01*
X75268795Y-148443685D02*
X75340224Y-148372257D01*
X75340224Y-148372257D02*
X75483081Y-148300828D01*
X75483081Y-148300828D02*
X75840224Y-148300828D01*
X75840224Y-148300828D02*
X76054510Y-148372257D01*
X77197366Y-149015114D02*
X77411652Y-149086542D01*
X77411652Y-149086542D02*
X77483081Y-149157971D01*
X77483081Y-149157971D02*
X77554509Y-149300828D01*
X77554509Y-149300828D02*
X77554509Y-149515114D01*
X77554509Y-149515114D02*
X77483081Y-149657971D01*
X77483081Y-149657971D02*
X77411652Y-149729400D01*
X77411652Y-149729400D02*
X77268795Y-149800828D01*
X77268795Y-149800828D02*
X76697366Y-149800828D01*
X76697366Y-149800828D02*
X76697366Y-148300828D01*
X76697366Y-148300828D02*
X77197366Y-148300828D01*
X77197366Y-148300828D02*
X77340224Y-148372257D01*
X77340224Y-148372257D02*
X77411652Y-148443685D01*
X77411652Y-148443685D02*
X77483081Y-148586542D01*
X77483081Y-148586542D02*
X77483081Y-148729400D01*
X77483081Y-148729400D02*
X77411652Y-148872257D01*
X77411652Y-148872257D02*
X77340224Y-148943685D01*
X77340224Y-148943685D02*
X77197366Y-149015114D01*
X77197366Y-149015114D02*
X76697366Y-149015114D01*
X78197366Y-149229400D02*
X79340224Y-149229400D01*
X80911652Y-149657971D02*
X80840224Y-149729400D01*
X80840224Y-149729400D02*
X80625938Y-149800828D01*
X80625938Y-149800828D02*
X80483081Y-149800828D01*
X80483081Y-149800828D02*
X80268795Y-149729400D01*
X80268795Y-149729400D02*
X80125938Y-149586542D01*
X80125938Y-149586542D02*
X80054509Y-149443685D01*
X80054509Y-149443685D02*
X79983081Y-149157971D01*
X79983081Y-149157971D02*
X79983081Y-148943685D01*
X79983081Y-148943685D02*
X80054509Y-148657971D01*
X80054509Y-148657971D02*
X80125938Y-148515114D01*
X80125938Y-148515114D02*
X80268795Y-148372257D01*
X80268795Y-148372257D02*
X80483081Y-148300828D01*
X80483081Y-148300828D02*
X80625938Y-148300828D01*
X80625938Y-148300828D02*
X80840224Y-148372257D01*
X80840224Y-148372257D02*
X80911652Y-148443685D01*
X82697366Y-149800828D02*
X82697366Y-148300828D01*
X82697366Y-148300828D02*
X83268795Y-148300828D01*
X83268795Y-148300828D02*
X83411652Y-148372257D01*
X83411652Y-148372257D02*
X83483081Y-148443685D01*
X83483081Y-148443685D02*
X83554509Y-148586542D01*
X83554509Y-148586542D02*
X83554509Y-148800828D01*
X83554509Y-148800828D02*
X83483081Y-148943685D01*
X83483081Y-148943685D02*
X83411652Y-149015114D01*
X83411652Y-149015114D02*
X83268795Y-149086542D01*
X83268795Y-149086542D02*
X82697366Y-149086542D01*
X84197366Y-149800828D02*
X84197366Y-148300828D01*
X84197366Y-148300828D02*
X84554509Y-148300828D01*
X84554509Y-148300828D02*
X84768795Y-148372257D01*
X84768795Y-148372257D02*
X84911652Y-148515114D01*
X84911652Y-148515114D02*
X84983081Y-148657971D01*
X84983081Y-148657971D02*
X85054509Y-148943685D01*
X85054509Y-148943685D02*
X85054509Y-149157971D01*
X85054509Y-149157971D02*
X84983081Y-149443685D01*
X84983081Y-149443685D02*
X84911652Y-149586542D01*
X84911652Y-149586542D02*
X84768795Y-149729400D01*
X84768795Y-149729400D02*
X84554509Y-149800828D01*
X84554509Y-149800828D02*
X84197366Y-149800828D01*
X131540225Y-145985912D02*
X132040225Y-147485912D01*
X132040225Y-147485912D02*
X132540225Y-145985912D01*
X133825939Y-147485912D02*
X132968796Y-147485912D01*
X133397367Y-147485912D02*
X133397367Y-145985912D01*
X133397367Y-145985912D02*
X133254510Y-146200198D01*
X133254510Y-146200198D02*
X133111653Y-146343055D01*
X133111653Y-146343055D02*
X132968796Y-146414484D01*
X134468795Y-147343055D02*
X134540224Y-147414484D01*
X134540224Y-147414484D02*
X134468795Y-147485912D01*
X134468795Y-147485912D02*
X134397367Y-147414484D01*
X134397367Y-147414484D02*
X134468795Y-147343055D01*
X134468795Y-147343055D02*
X134468795Y-147485912D01*
X135468796Y-145985912D02*
X135611653Y-145985912D01*
X135611653Y-145985912D02*
X135754510Y-146057341D01*
X135754510Y-146057341D02*
X135825939Y-146128769D01*
X135825939Y-146128769D02*
X135897367Y-146271626D01*
X135897367Y-146271626D02*
X135968796Y-146557341D01*
X135968796Y-146557341D02*
X135968796Y-146914484D01*
X135968796Y-146914484D02*
X135897367Y-147200198D01*
X135897367Y-147200198D02*
X135825939Y-147343055D01*
X135825939Y-147343055D02*
X135754510Y-147414484D01*
X135754510Y-147414484D02*
X135611653Y-147485912D01*
X135611653Y-147485912D02*
X135468796Y-147485912D01*
X135468796Y-147485912D02*
X135325939Y-147414484D01*
X135325939Y-147414484D02*
X135254510Y-147343055D01*
X135254510Y-147343055D02*
X135183081Y-147200198D01*
X135183081Y-147200198D02*
X135111653Y-146914484D01*
X135111653Y-146914484D02*
X135111653Y-146557341D01*
X135111653Y-146557341D02*
X135183081Y-146271626D01*
X135183081Y-146271626D02*
X135254510Y-146128769D01*
X135254510Y-146128769D02*
X135325939Y-146057341D01*
X135325939Y-146057341D02*
X135468796Y-145985912D01*
X132397368Y-148400828D02*
X132111653Y-148400828D01*
X132111653Y-148400828D02*
X131968796Y-148472257D01*
X131968796Y-148472257D02*
X131897368Y-148543685D01*
X131897368Y-148543685D02*
X131754510Y-148757971D01*
X131754510Y-148757971D02*
X131683082Y-149043685D01*
X131683082Y-149043685D02*
X131683082Y-149615114D01*
X131683082Y-149615114D02*
X131754510Y-149757971D01*
X131754510Y-149757971D02*
X131825939Y-149829400D01*
X131825939Y-149829400D02*
X131968796Y-149900828D01*
X131968796Y-149900828D02*
X132254510Y-149900828D01*
X132254510Y-149900828D02*
X132397368Y-149829400D01*
X132397368Y-149829400D02*
X132468796Y-149757971D01*
X132468796Y-149757971D02*
X132540225Y-149615114D01*
X132540225Y-149615114D02*
X132540225Y-149257971D01*
X132540225Y-149257971D02*
X132468796Y-149115114D01*
X132468796Y-149115114D02*
X132397368Y-149043685D01*
X132397368Y-149043685D02*
X132254510Y-148972257D01*
X132254510Y-148972257D02*
X131968796Y-148972257D01*
X131968796Y-148972257D02*
X131825939Y-149043685D01*
X131825939Y-149043685D02*
X131754510Y-149115114D01*
X131754510Y-149115114D02*
X131683082Y-149257971D01*
X133183081Y-149757971D02*
X133254510Y-149829400D01*
X133254510Y-149829400D02*
X133183081Y-149900828D01*
X133183081Y-149900828D02*
X133111653Y-149829400D01*
X133111653Y-149829400D02*
X133183081Y-149757971D01*
X133183081Y-149757971D02*
X133183081Y-149900828D01*
X133825939Y-148543685D02*
X133897367Y-148472257D01*
X133897367Y-148472257D02*
X134040225Y-148400828D01*
X134040225Y-148400828D02*
X134397367Y-148400828D01*
X134397367Y-148400828D02*
X134540225Y-148472257D01*
X134540225Y-148472257D02*
X134611653Y-148543685D01*
X134611653Y-148543685D02*
X134683082Y-148686542D01*
X134683082Y-148686542D02*
X134683082Y-148829400D01*
X134683082Y-148829400D02*
X134611653Y-149043685D01*
X134611653Y-149043685D02*
X133754510Y-149900828D01*
X133754510Y-149900828D02*
X134683082Y-149900828D01*
X135611653Y-148400828D02*
X135754510Y-148400828D01*
X135754510Y-148400828D02*
X135897367Y-148472257D01*
X135897367Y-148472257D02*
X135968796Y-148543685D01*
X135968796Y-148543685D02*
X136040224Y-148686542D01*
X136040224Y-148686542D02*
X136111653Y-148972257D01*
X136111653Y-148972257D02*
X136111653Y-149329400D01*
X136111653Y-149329400D02*
X136040224Y-149615114D01*
X136040224Y-149615114D02*
X135968796Y-149757971D01*
X135968796Y-149757971D02*
X135897367Y-149829400D01*
X135897367Y-149829400D02*
X135754510Y-149900828D01*
X135754510Y-149900828D02*
X135611653Y-149900828D01*
X135611653Y-149900828D02*
X135468796Y-149829400D01*
X135468796Y-149829400D02*
X135397367Y-149757971D01*
X135397367Y-149757971D02*
X135325938Y-149615114D01*
X135325938Y-149615114D02*
X135254510Y-149329400D01*
X135254510Y-149329400D02*
X135254510Y-148972257D01*
X135254510Y-148972257D02*
X135325938Y-148686542D01*
X135325938Y-148686542D02*
X135397367Y-148543685D01*
X135397367Y-148543685D02*
X135468796Y-148472257D01*
X135468796Y-148472257D02*
X135611653Y-148400828D01*
X136683081Y-148543685D02*
X136754509Y-148472257D01*
X136754509Y-148472257D02*
X136897367Y-148400828D01*
X136897367Y-148400828D02*
X137254509Y-148400828D01*
X137254509Y-148400828D02*
X137397367Y-148472257D01*
X137397367Y-148472257D02*
X137468795Y-148543685D01*
X137468795Y-148543685D02*
X137540224Y-148686542D01*
X137540224Y-148686542D02*
X137540224Y-148829400D01*
X137540224Y-148829400D02*
X137468795Y-149043685D01*
X137468795Y-149043685D02*
X136611652Y-149900828D01*
X136611652Y-149900828D02*
X137540224Y-149900828D01*
X138897366Y-148400828D02*
X138183080Y-148400828D01*
X138183080Y-148400828D02*
X138111652Y-149115114D01*
X138111652Y-149115114D02*
X138183080Y-149043685D01*
X138183080Y-149043685D02*
X138325938Y-148972257D01*
X138325938Y-148972257D02*
X138683080Y-148972257D01*
X138683080Y-148972257D02*
X138825938Y-149043685D01*
X138825938Y-149043685D02*
X138897366Y-149115114D01*
X138897366Y-149115114D02*
X138968795Y-149257971D01*
X138968795Y-149257971D02*
X138968795Y-149615114D01*
X138968795Y-149615114D02*
X138897366Y-149757971D01*
X138897366Y-149757971D02*
X138825938Y-149829400D01*
X138825938Y-149829400D02*
X138683080Y-149900828D01*
X138683080Y-149900828D02*
X138325938Y-149900828D01*
X138325938Y-149900828D02*
X138183080Y-149829400D01*
X138183080Y-149829400D02*
X138111652Y-149757971D01*
D12*
X84233333Y-112679580D02*
X84185714Y-112727200D01*
X84185714Y-112727200D02*
X84042857Y-112774819D01*
X84042857Y-112774819D02*
X83947619Y-112774819D01*
X83947619Y-112774819D02*
X83804762Y-112727200D01*
X83804762Y-112727200D02*
X83709524Y-112631961D01*
X83709524Y-112631961D02*
X83661905Y-112536723D01*
X83661905Y-112536723D02*
X83614286Y-112346247D01*
X83614286Y-112346247D02*
X83614286Y-112203390D01*
X83614286Y-112203390D02*
X83661905Y-112012914D01*
X83661905Y-112012914D02*
X83709524Y-111917676D01*
X83709524Y-111917676D02*
X83804762Y-111822438D01*
X83804762Y-111822438D02*
X83947619Y-111774819D01*
X83947619Y-111774819D02*
X84042857Y-111774819D01*
X84042857Y-111774819D02*
X84185714Y-111822438D01*
X84185714Y-111822438D02*
X84233333Y-111870057D01*
X85090476Y-111774819D02*
X84900000Y-111774819D01*
X84900000Y-111774819D02*
X84804762Y-111822438D01*
X84804762Y-111822438D02*
X84757143Y-111870057D01*
X84757143Y-111870057D02*
X84661905Y-112012914D01*
X84661905Y-112012914D02*
X84614286Y-112203390D01*
X84614286Y-112203390D02*
X84614286Y-112584342D01*
X84614286Y-112584342D02*
X84661905Y-112679580D01*
X84661905Y-112679580D02*
X84709524Y-112727200D01*
X84709524Y-112727200D02*
X84804762Y-112774819D01*
X84804762Y-112774819D02*
X84995238Y-112774819D01*
X84995238Y-112774819D02*
X85090476Y-112727200D01*
X85090476Y-112727200D02*
X85138095Y-112679580D01*
X85138095Y-112679580D02*
X85185714Y-112584342D01*
X85185714Y-112584342D02*
X85185714Y-112346247D01*
X85185714Y-112346247D02*
X85138095Y-112251009D01*
X85138095Y-112251009D02*
X85090476Y-112203390D01*
X85090476Y-112203390D02*
X84995238Y-112155771D01*
X84995238Y-112155771D02*
X84804762Y-112155771D01*
X84804762Y-112155771D02*
X84709524Y-112203390D01*
X84709524Y-112203390D02*
X84661905Y-112251009D01*
X84661905Y-112251009D02*
X84614286Y-112346247D01*
X115557142Y-144854819D02*
X115223809Y-144378628D01*
X114985714Y-144854819D02*
X114985714Y-143854819D01*
X114985714Y-143854819D02*
X115366666Y-143854819D01*
X115366666Y-143854819D02*
X115461904Y-143902438D01*
X115461904Y-143902438D02*
X115509523Y-143950057D01*
X115509523Y-143950057D02*
X115557142Y-144045295D01*
X115557142Y-144045295D02*
X115557142Y-144188152D01*
X115557142Y-144188152D02*
X115509523Y-144283390D01*
X115509523Y-144283390D02*
X115461904Y-144331009D01*
X115461904Y-144331009D02*
X115366666Y-144378628D01*
X115366666Y-144378628D02*
X114985714Y-144378628D01*
X116509523Y-144854819D02*
X115938095Y-144854819D01*
X116223809Y-144854819D02*
X116223809Y-143854819D01*
X116223809Y-143854819D02*
X116128571Y-143997676D01*
X116128571Y-143997676D02*
X116033333Y-144092914D01*
X116033333Y-144092914D02*
X115938095Y-144140533D01*
X117080952Y-144283390D02*
X116985714Y-144235771D01*
X116985714Y-144235771D02*
X116938095Y-144188152D01*
X116938095Y-144188152D02*
X116890476Y-144092914D01*
X116890476Y-144092914D02*
X116890476Y-144045295D01*
X116890476Y-144045295D02*
X116938095Y-143950057D01*
X116938095Y-143950057D02*
X116985714Y-143902438D01*
X116985714Y-143902438D02*
X117080952Y-143854819D01*
X117080952Y-143854819D02*
X117271428Y-143854819D01*
X117271428Y-143854819D02*
X117366666Y-143902438D01*
X117366666Y-143902438D02*
X117414285Y-143950057D01*
X117414285Y-143950057D02*
X117461904Y-144045295D01*
X117461904Y-144045295D02*
X117461904Y-144092914D01*
X117461904Y-144092914D02*
X117414285Y-144188152D01*
X117414285Y-144188152D02*
X117366666Y-144235771D01*
X117366666Y-144235771D02*
X117271428Y-144283390D01*
X117271428Y-144283390D02*
X117080952Y-144283390D01*
X117080952Y-144283390D02*
X116985714Y-144331009D01*
X116985714Y-144331009D02*
X116938095Y-144378628D01*
X116938095Y-144378628D02*
X116890476Y-144473866D01*
X116890476Y-144473866D02*
X116890476Y-144664342D01*
X116890476Y-144664342D02*
X116938095Y-144759580D01*
X116938095Y-144759580D02*
X116985714Y-144807200D01*
X116985714Y-144807200D02*
X117080952Y-144854819D01*
X117080952Y-144854819D02*
X117271428Y-144854819D01*
X117271428Y-144854819D02*
X117366666Y-144807200D01*
X117366666Y-144807200D02*
X117414285Y-144759580D01*
X117414285Y-144759580D02*
X117461904Y-144664342D01*
X117461904Y-144664342D02*
X117461904Y-144473866D01*
X117461904Y-144473866D02*
X117414285Y-144378628D01*
X117414285Y-144378628D02*
X117366666Y-144331009D01*
X117366666Y-144331009D02*
X117271428Y-144283390D01*
X97504819Y-138166666D02*
X97028628Y-138499999D01*
X97504819Y-138738094D02*
X96504819Y-138738094D01*
X96504819Y-138738094D02*
X96504819Y-138357142D01*
X96504819Y-138357142D02*
X96552438Y-138261904D01*
X96552438Y-138261904D02*
X96600057Y-138214285D01*
X96600057Y-138214285D02*
X96695295Y-138166666D01*
X96695295Y-138166666D02*
X96838152Y-138166666D01*
X96838152Y-138166666D02*
X96933390Y-138214285D01*
X96933390Y-138214285D02*
X96981009Y-138261904D01*
X96981009Y-138261904D02*
X97028628Y-138357142D01*
X97028628Y-138357142D02*
X97028628Y-138738094D01*
X96838152Y-137309523D02*
X97504819Y-137309523D01*
X96457200Y-137547618D02*
X97171485Y-137785713D01*
X97171485Y-137785713D02*
X97171485Y-137166666D01*
X107859580Y-138642857D02*
X107907200Y-138690476D01*
X107907200Y-138690476D02*
X107954819Y-138833333D01*
X107954819Y-138833333D02*
X107954819Y-138928571D01*
X107954819Y-138928571D02*
X107907200Y-139071428D01*
X107907200Y-139071428D02*
X107811961Y-139166666D01*
X107811961Y-139166666D02*
X107716723Y-139214285D01*
X107716723Y-139214285D02*
X107526247Y-139261904D01*
X107526247Y-139261904D02*
X107383390Y-139261904D01*
X107383390Y-139261904D02*
X107192914Y-139214285D01*
X107192914Y-139214285D02*
X107097676Y-139166666D01*
X107097676Y-139166666D02*
X107002438Y-139071428D01*
X107002438Y-139071428D02*
X106954819Y-138928571D01*
X106954819Y-138928571D02*
X106954819Y-138833333D01*
X106954819Y-138833333D02*
X107002438Y-138690476D01*
X107002438Y-138690476D02*
X107050057Y-138642857D01*
X107050057Y-138261904D02*
X107002438Y-138214285D01*
X107002438Y-138214285D02*
X106954819Y-138119047D01*
X106954819Y-138119047D02*
X106954819Y-137880952D01*
X106954819Y-137880952D02*
X107002438Y-137785714D01*
X107002438Y-137785714D02*
X107050057Y-137738095D01*
X107050057Y-137738095D02*
X107145295Y-137690476D01*
X107145295Y-137690476D02*
X107240533Y-137690476D01*
X107240533Y-137690476D02*
X107383390Y-137738095D01*
X107383390Y-137738095D02*
X107954819Y-138309523D01*
X107954819Y-138309523D02*
X107954819Y-137690476D01*
X106954819Y-137071428D02*
X106954819Y-136976190D01*
X106954819Y-136976190D02*
X107002438Y-136880952D01*
X107002438Y-136880952D02*
X107050057Y-136833333D01*
X107050057Y-136833333D02*
X107145295Y-136785714D01*
X107145295Y-136785714D02*
X107335771Y-136738095D01*
X107335771Y-136738095D02*
X107573866Y-136738095D01*
X107573866Y-136738095D02*
X107764342Y-136785714D01*
X107764342Y-136785714D02*
X107859580Y-136833333D01*
X107859580Y-136833333D02*
X107907200Y-136880952D01*
X107907200Y-136880952D02*
X107954819Y-136976190D01*
X107954819Y-136976190D02*
X107954819Y-137071428D01*
X107954819Y-137071428D02*
X107907200Y-137166666D01*
X107907200Y-137166666D02*
X107859580Y-137214285D01*
X107859580Y-137214285D02*
X107764342Y-137261904D01*
X107764342Y-137261904D02*
X107573866Y-137309523D01*
X107573866Y-137309523D02*
X107335771Y-137309523D01*
X107335771Y-137309523D02*
X107145295Y-137261904D01*
X107145295Y-137261904D02*
X107050057Y-137214285D01*
X107050057Y-137214285D02*
X107002438Y-137166666D01*
X107002438Y-137166666D02*
X106954819Y-137071428D01*
X115654819Y-138642857D02*
X115178628Y-138976190D01*
X115654819Y-139214285D02*
X114654819Y-139214285D01*
X114654819Y-139214285D02*
X114654819Y-138833333D01*
X114654819Y-138833333D02*
X114702438Y-138738095D01*
X114702438Y-138738095D02*
X114750057Y-138690476D01*
X114750057Y-138690476D02*
X114845295Y-138642857D01*
X114845295Y-138642857D02*
X114988152Y-138642857D01*
X114988152Y-138642857D02*
X115083390Y-138690476D01*
X115083390Y-138690476D02*
X115131009Y-138738095D01*
X115131009Y-138738095D02*
X115178628Y-138833333D01*
X115178628Y-138833333D02*
X115178628Y-139214285D01*
X115654819Y-137690476D02*
X115654819Y-138261904D01*
X115654819Y-137976190D02*
X114654819Y-137976190D01*
X114654819Y-137976190D02*
X114797676Y-138071428D01*
X114797676Y-138071428D02*
X114892914Y-138166666D01*
X114892914Y-138166666D02*
X114940533Y-138261904D01*
X114654819Y-136785714D02*
X114654819Y-137261904D01*
X114654819Y-137261904D02*
X115131009Y-137309523D01*
X115131009Y-137309523D02*
X115083390Y-137261904D01*
X115083390Y-137261904D02*
X115035771Y-137166666D01*
X115035771Y-137166666D02*
X115035771Y-136928571D01*
X115035771Y-136928571D02*
X115083390Y-136833333D01*
X115083390Y-136833333D02*
X115131009Y-136785714D01*
X115131009Y-136785714D02*
X115226247Y-136738095D01*
X115226247Y-136738095D02*
X115464342Y-136738095D01*
X115464342Y-136738095D02*
X115559580Y-136785714D01*
X115559580Y-136785714D02*
X115607200Y-136833333D01*
X115607200Y-136833333D02*
X115654819Y-136928571D01*
X115654819Y-136928571D02*
X115654819Y-137166666D01*
X115654819Y-137166666D02*
X115607200Y-137261904D01*
X115607200Y-137261904D02*
X115559580Y-137309523D01*
X84233333Y-123839580D02*
X84185714Y-123887200D01*
X84185714Y-123887200D02*
X84042857Y-123934819D01*
X84042857Y-123934819D02*
X83947619Y-123934819D01*
X83947619Y-123934819D02*
X83804762Y-123887200D01*
X83804762Y-123887200D02*
X83709524Y-123791961D01*
X83709524Y-123791961D02*
X83661905Y-123696723D01*
X83661905Y-123696723D02*
X83614286Y-123506247D01*
X83614286Y-123506247D02*
X83614286Y-123363390D01*
X83614286Y-123363390D02*
X83661905Y-123172914D01*
X83661905Y-123172914D02*
X83709524Y-123077676D01*
X83709524Y-123077676D02*
X83804762Y-122982438D01*
X83804762Y-122982438D02*
X83947619Y-122934819D01*
X83947619Y-122934819D02*
X84042857Y-122934819D01*
X84042857Y-122934819D02*
X84185714Y-122982438D01*
X84185714Y-122982438D02*
X84233333Y-123030057D01*
X85185714Y-123934819D02*
X84614286Y-123934819D01*
X84900000Y-123934819D02*
X84900000Y-122934819D01*
X84900000Y-122934819D02*
X84804762Y-123077676D01*
X84804762Y-123077676D02*
X84709524Y-123172914D01*
X84709524Y-123172914D02*
X84614286Y-123220533D01*
D13*
X91388333Y-121774318D02*
X90783571Y-121774318D01*
X90783571Y-121774318D02*
X90783571Y-120504318D01*
X92476905Y-121774318D02*
X91751190Y-121774318D01*
X92114047Y-121774318D02*
X92114047Y-120504318D01*
X92114047Y-120504318D02*
X91993095Y-120685746D01*
X91993095Y-120685746D02*
X91872143Y-120806699D01*
X91872143Y-120806699D02*
X91751190Y-120867175D01*
D12*
X115557142Y-141854819D02*
X115223809Y-141378628D01*
X114985714Y-141854819D02*
X114985714Y-140854819D01*
X114985714Y-140854819D02*
X115366666Y-140854819D01*
X115366666Y-140854819D02*
X115461904Y-140902438D01*
X115461904Y-140902438D02*
X115509523Y-140950057D01*
X115509523Y-140950057D02*
X115557142Y-141045295D01*
X115557142Y-141045295D02*
X115557142Y-141188152D01*
X115557142Y-141188152D02*
X115509523Y-141283390D01*
X115509523Y-141283390D02*
X115461904Y-141331009D01*
X115461904Y-141331009D02*
X115366666Y-141378628D01*
X115366666Y-141378628D02*
X114985714Y-141378628D01*
X116509523Y-141854819D02*
X115938095Y-141854819D01*
X116223809Y-141854819D02*
X116223809Y-140854819D01*
X116223809Y-140854819D02*
X116128571Y-140997676D01*
X116128571Y-140997676D02*
X116033333Y-141092914D01*
X116033333Y-141092914D02*
X115938095Y-141140533D01*
X116842857Y-140854819D02*
X117509523Y-140854819D01*
X117509523Y-140854819D02*
X117080952Y-141854819D01*
X90254819Y-148142857D02*
X89778628Y-148476190D01*
X90254819Y-148714285D02*
X89254819Y-148714285D01*
X89254819Y-148714285D02*
X89254819Y-148333333D01*
X89254819Y-148333333D02*
X89302438Y-148238095D01*
X89302438Y-148238095D02*
X89350057Y-148190476D01*
X89350057Y-148190476D02*
X89445295Y-148142857D01*
X89445295Y-148142857D02*
X89588152Y-148142857D01*
X89588152Y-148142857D02*
X89683390Y-148190476D01*
X89683390Y-148190476D02*
X89731009Y-148238095D01*
X89731009Y-148238095D02*
X89778628Y-148333333D01*
X89778628Y-148333333D02*
X89778628Y-148714285D01*
X90254819Y-147190476D02*
X90254819Y-147761904D01*
X90254819Y-147476190D02*
X89254819Y-147476190D01*
X89254819Y-147476190D02*
X89397676Y-147571428D01*
X89397676Y-147571428D02*
X89492914Y-147666666D01*
X89492914Y-147666666D02*
X89540533Y-147761904D01*
X89254819Y-146571428D02*
X89254819Y-146476190D01*
X89254819Y-146476190D02*
X89302438Y-146380952D01*
X89302438Y-146380952D02*
X89350057Y-146333333D01*
X89350057Y-146333333D02*
X89445295Y-146285714D01*
X89445295Y-146285714D02*
X89635771Y-146238095D01*
X89635771Y-146238095D02*
X89873866Y-146238095D01*
X89873866Y-146238095D02*
X90064342Y-146285714D01*
X90064342Y-146285714D02*
X90159580Y-146333333D01*
X90159580Y-146333333D02*
X90207200Y-146380952D01*
X90207200Y-146380952D02*
X90254819Y-146476190D01*
X90254819Y-146476190D02*
X90254819Y-146571428D01*
X90254819Y-146571428D02*
X90207200Y-146666666D01*
X90207200Y-146666666D02*
X90159580Y-146714285D01*
X90159580Y-146714285D02*
X90064342Y-146761904D01*
X90064342Y-146761904D02*
X89873866Y-146809523D01*
X89873866Y-146809523D02*
X89635771Y-146809523D01*
X89635771Y-146809523D02*
X89445295Y-146761904D01*
X89445295Y-146761904D02*
X89350057Y-146714285D01*
X89350057Y-146714285D02*
X89302438Y-146666666D01*
X89302438Y-146666666D02*
X89254819Y-146571428D01*
X114679580Y-132642857D02*
X114727200Y-132690476D01*
X114727200Y-132690476D02*
X114774819Y-132833333D01*
X114774819Y-132833333D02*
X114774819Y-132928571D01*
X114774819Y-132928571D02*
X114727200Y-133071428D01*
X114727200Y-133071428D02*
X114631961Y-133166666D01*
X114631961Y-133166666D02*
X114536723Y-133214285D01*
X114536723Y-133214285D02*
X114346247Y-133261904D01*
X114346247Y-133261904D02*
X114203390Y-133261904D01*
X114203390Y-133261904D02*
X114012914Y-133214285D01*
X114012914Y-133214285D02*
X113917676Y-133166666D01*
X113917676Y-133166666D02*
X113822438Y-133071428D01*
X113822438Y-133071428D02*
X113774819Y-132928571D01*
X113774819Y-132928571D02*
X113774819Y-132833333D01*
X113774819Y-132833333D02*
X113822438Y-132690476D01*
X113822438Y-132690476D02*
X113870057Y-132642857D01*
X114774819Y-131690476D02*
X114774819Y-132261904D01*
X114774819Y-131976190D02*
X113774819Y-131976190D01*
X113774819Y-131976190D02*
X113917676Y-132071428D01*
X113917676Y-132071428D02*
X114012914Y-132166666D01*
X114012914Y-132166666D02*
X114060533Y-132261904D01*
X114108152Y-130833333D02*
X114774819Y-130833333D01*
X113727200Y-131071428D02*
X114441485Y-131309523D01*
X114441485Y-131309523D02*
X114441485Y-130690476D01*
X100909580Y-138166666D02*
X100957200Y-138214285D01*
X100957200Y-138214285D02*
X101004819Y-138357142D01*
X101004819Y-138357142D02*
X101004819Y-138452380D01*
X101004819Y-138452380D02*
X100957200Y-138595237D01*
X100957200Y-138595237D02*
X100861961Y-138690475D01*
X100861961Y-138690475D02*
X100766723Y-138738094D01*
X100766723Y-138738094D02*
X100576247Y-138785713D01*
X100576247Y-138785713D02*
X100433390Y-138785713D01*
X100433390Y-138785713D02*
X100242914Y-138738094D01*
X100242914Y-138738094D02*
X100147676Y-138690475D01*
X100147676Y-138690475D02*
X100052438Y-138595237D01*
X100052438Y-138595237D02*
X100004819Y-138452380D01*
X100004819Y-138452380D02*
X100004819Y-138357142D01*
X100004819Y-138357142D02*
X100052438Y-138214285D01*
X100052438Y-138214285D02*
X100100057Y-138166666D01*
X100004819Y-137261904D02*
X100004819Y-137738094D01*
X100004819Y-137738094D02*
X100481009Y-137785713D01*
X100481009Y-137785713D02*
X100433390Y-137738094D01*
X100433390Y-137738094D02*
X100385771Y-137642856D01*
X100385771Y-137642856D02*
X100385771Y-137404761D01*
X100385771Y-137404761D02*
X100433390Y-137309523D01*
X100433390Y-137309523D02*
X100481009Y-137261904D01*
X100481009Y-137261904D02*
X100576247Y-137214285D01*
X100576247Y-137214285D02*
X100814342Y-137214285D01*
X100814342Y-137214285D02*
X100909580Y-137261904D01*
X100909580Y-137261904D02*
X100957200Y-137309523D01*
X100957200Y-137309523D02*
X101004819Y-137404761D01*
X101004819Y-137404761D02*
X101004819Y-137642856D01*
X101004819Y-137642856D02*
X100957200Y-137738094D01*
X100957200Y-137738094D02*
X100909580Y-137785713D01*
X104559580Y-138642857D02*
X104607200Y-138690476D01*
X104607200Y-138690476D02*
X104654819Y-138833333D01*
X104654819Y-138833333D02*
X104654819Y-138928571D01*
X104654819Y-138928571D02*
X104607200Y-139071428D01*
X104607200Y-139071428D02*
X104511961Y-139166666D01*
X104511961Y-139166666D02*
X104416723Y-139214285D01*
X104416723Y-139214285D02*
X104226247Y-139261904D01*
X104226247Y-139261904D02*
X104083390Y-139261904D01*
X104083390Y-139261904D02*
X103892914Y-139214285D01*
X103892914Y-139214285D02*
X103797676Y-139166666D01*
X103797676Y-139166666D02*
X103702438Y-139071428D01*
X103702438Y-139071428D02*
X103654819Y-138928571D01*
X103654819Y-138928571D02*
X103654819Y-138833333D01*
X103654819Y-138833333D02*
X103702438Y-138690476D01*
X103702438Y-138690476D02*
X103750057Y-138642857D01*
X104654819Y-137690476D02*
X104654819Y-138261904D01*
X104654819Y-137976190D02*
X103654819Y-137976190D01*
X103654819Y-137976190D02*
X103797676Y-138071428D01*
X103797676Y-138071428D02*
X103892914Y-138166666D01*
X103892914Y-138166666D02*
X103940533Y-138261904D01*
X104083390Y-137119047D02*
X104035771Y-137214285D01*
X104035771Y-137214285D02*
X103988152Y-137261904D01*
X103988152Y-137261904D02*
X103892914Y-137309523D01*
X103892914Y-137309523D02*
X103845295Y-137309523D01*
X103845295Y-137309523D02*
X103750057Y-137261904D01*
X103750057Y-137261904D02*
X103702438Y-137214285D01*
X103702438Y-137214285D02*
X103654819Y-137119047D01*
X103654819Y-137119047D02*
X103654819Y-136928571D01*
X103654819Y-136928571D02*
X103702438Y-136833333D01*
X103702438Y-136833333D02*
X103750057Y-136785714D01*
X103750057Y-136785714D02*
X103845295Y-136738095D01*
X103845295Y-136738095D02*
X103892914Y-136738095D01*
X103892914Y-136738095D02*
X103988152Y-136785714D01*
X103988152Y-136785714D02*
X104035771Y-136833333D01*
X104035771Y-136833333D02*
X104083390Y-136928571D01*
X104083390Y-136928571D02*
X104083390Y-137119047D01*
X104083390Y-137119047D02*
X104131009Y-137214285D01*
X104131009Y-137214285D02*
X104178628Y-137261904D01*
X104178628Y-137261904D02*
X104273866Y-137309523D01*
X104273866Y-137309523D02*
X104464342Y-137309523D01*
X104464342Y-137309523D02*
X104559580Y-137261904D01*
X104559580Y-137261904D02*
X104607200Y-137214285D01*
X104607200Y-137214285D02*
X104654819Y-137119047D01*
X104654819Y-137119047D02*
X104654819Y-136928571D01*
X104654819Y-136928571D02*
X104607200Y-136833333D01*
X104607200Y-136833333D02*
X104559580Y-136785714D01*
X104559580Y-136785714D02*
X104464342Y-136738095D01*
X104464342Y-136738095D02*
X104273866Y-136738095D01*
X104273866Y-136738095D02*
X104178628Y-136785714D01*
X104178628Y-136785714D02*
X104131009Y-136833333D01*
X104131009Y-136833333D02*
X104083390Y-136928571D01*
X76054819Y-118166666D02*
X75578628Y-118499999D01*
X76054819Y-118738094D02*
X75054819Y-118738094D01*
X75054819Y-118738094D02*
X75054819Y-118357142D01*
X75054819Y-118357142D02*
X75102438Y-118261904D01*
X75102438Y-118261904D02*
X75150057Y-118214285D01*
X75150057Y-118214285D02*
X75245295Y-118166666D01*
X75245295Y-118166666D02*
X75388152Y-118166666D01*
X75388152Y-118166666D02*
X75483390Y-118214285D01*
X75483390Y-118214285D02*
X75531009Y-118261904D01*
X75531009Y-118261904D02*
X75578628Y-118357142D01*
X75578628Y-118357142D02*
X75578628Y-118738094D01*
X75150057Y-117785713D02*
X75102438Y-117738094D01*
X75102438Y-117738094D02*
X75054819Y-117642856D01*
X75054819Y-117642856D02*
X75054819Y-117404761D01*
X75054819Y-117404761D02*
X75102438Y-117309523D01*
X75102438Y-117309523D02*
X75150057Y-117261904D01*
X75150057Y-117261904D02*
X75245295Y-117214285D01*
X75245295Y-117214285D02*
X75340533Y-117214285D01*
X75340533Y-117214285D02*
X75483390Y-117261904D01*
X75483390Y-117261904D02*
X76054819Y-117833332D01*
X76054819Y-117833332D02*
X76054819Y-117214285D01*
X120504761Y-127750057D02*
X120409523Y-127702438D01*
X120409523Y-127702438D02*
X120314285Y-127607200D01*
X120314285Y-127607200D02*
X120171428Y-127464342D01*
X120171428Y-127464342D02*
X120076190Y-127416723D01*
X120076190Y-127416723D02*
X119980952Y-127416723D01*
X120028571Y-127654819D02*
X119933333Y-127607200D01*
X119933333Y-127607200D02*
X119838095Y-127511961D01*
X119838095Y-127511961D02*
X119790476Y-127321485D01*
X119790476Y-127321485D02*
X119790476Y-126988152D01*
X119790476Y-126988152D02*
X119838095Y-126797676D01*
X119838095Y-126797676D02*
X119933333Y-126702438D01*
X119933333Y-126702438D02*
X120028571Y-126654819D01*
X120028571Y-126654819D02*
X120219047Y-126654819D01*
X120219047Y-126654819D02*
X120314285Y-126702438D01*
X120314285Y-126702438D02*
X120409523Y-126797676D01*
X120409523Y-126797676D02*
X120457142Y-126988152D01*
X120457142Y-126988152D02*
X120457142Y-127321485D01*
X120457142Y-127321485D02*
X120409523Y-127511961D01*
X120409523Y-127511961D02*
X120314285Y-127607200D01*
X120314285Y-127607200D02*
X120219047Y-127654819D01*
X120219047Y-127654819D02*
X120028571Y-127654819D01*
X121409523Y-127654819D02*
X120838095Y-127654819D01*
X121123809Y-127654819D02*
X121123809Y-126654819D01*
X121123809Y-126654819D02*
X121028571Y-126797676D01*
X121028571Y-126797676D02*
X120933333Y-126892914D01*
X120933333Y-126892914D02*
X120838095Y-126940533D01*
X99809580Y-117766666D02*
X99857200Y-117814285D01*
X99857200Y-117814285D02*
X99904819Y-117957142D01*
X99904819Y-117957142D02*
X99904819Y-118052380D01*
X99904819Y-118052380D02*
X99857200Y-118195237D01*
X99857200Y-118195237D02*
X99761961Y-118290475D01*
X99761961Y-118290475D02*
X99666723Y-118338094D01*
X99666723Y-118338094D02*
X99476247Y-118385713D01*
X99476247Y-118385713D02*
X99333390Y-118385713D01*
X99333390Y-118385713D02*
X99142914Y-118338094D01*
X99142914Y-118338094D02*
X99047676Y-118290475D01*
X99047676Y-118290475D02*
X98952438Y-118195237D01*
X98952438Y-118195237D02*
X98904819Y-118052380D01*
X98904819Y-118052380D02*
X98904819Y-117957142D01*
X98904819Y-117957142D02*
X98952438Y-117814285D01*
X98952438Y-117814285D02*
X99000057Y-117766666D01*
X98904819Y-117433332D02*
X98904819Y-116766666D01*
X98904819Y-116766666D02*
X99904819Y-117195237D01*
X109234819Y-143511904D02*
X110044342Y-143511904D01*
X110044342Y-143511904D02*
X110139580Y-143464285D01*
X110139580Y-143464285D02*
X110187200Y-143416666D01*
X110187200Y-143416666D02*
X110234819Y-143321428D01*
X110234819Y-143321428D02*
X110234819Y-143130952D01*
X110234819Y-143130952D02*
X110187200Y-143035714D01*
X110187200Y-143035714D02*
X110139580Y-142988095D01*
X110139580Y-142988095D02*
X110044342Y-142940476D01*
X110044342Y-142940476D02*
X109234819Y-142940476D01*
X109568152Y-142035714D02*
X110234819Y-142035714D01*
X109187200Y-142273809D02*
X109901485Y-142511904D01*
X109901485Y-142511904D02*
X109901485Y-141892857D01*
X122259580Y-132705357D02*
X122307200Y-132752976D01*
X122307200Y-132752976D02*
X122354819Y-132895833D01*
X122354819Y-132895833D02*
X122354819Y-132991071D01*
X122354819Y-132991071D02*
X122307200Y-133133928D01*
X122307200Y-133133928D02*
X122211961Y-133229166D01*
X122211961Y-133229166D02*
X122116723Y-133276785D01*
X122116723Y-133276785D02*
X121926247Y-133324404D01*
X121926247Y-133324404D02*
X121783390Y-133324404D01*
X121783390Y-133324404D02*
X121592914Y-133276785D01*
X121592914Y-133276785D02*
X121497676Y-133229166D01*
X121497676Y-133229166D02*
X121402438Y-133133928D01*
X121402438Y-133133928D02*
X121354819Y-132991071D01*
X121354819Y-132991071D02*
X121354819Y-132895833D01*
X121354819Y-132895833D02*
X121402438Y-132752976D01*
X121402438Y-132752976D02*
X121450057Y-132705357D01*
X122354819Y-131752976D02*
X122354819Y-132324404D01*
X122354819Y-132038690D02*
X121354819Y-132038690D01*
X121354819Y-132038690D02*
X121497676Y-132133928D01*
X121497676Y-132133928D02*
X121592914Y-132229166D01*
X121592914Y-132229166D02*
X121640533Y-132324404D01*
X121354819Y-130895833D02*
X121354819Y-131086309D01*
X121354819Y-131086309D02*
X121402438Y-131181547D01*
X121402438Y-131181547D02*
X121450057Y-131229166D01*
X121450057Y-131229166D02*
X121592914Y-131324404D01*
X121592914Y-131324404D02*
X121783390Y-131372023D01*
X121783390Y-131372023D02*
X122164342Y-131372023D01*
X122164342Y-131372023D02*
X122259580Y-131324404D01*
X122259580Y-131324404D02*
X122307200Y-131276785D01*
X122307200Y-131276785D02*
X122354819Y-131181547D01*
X122354819Y-131181547D02*
X122354819Y-130991071D01*
X122354819Y-130991071D02*
X122307200Y-130895833D01*
X122307200Y-130895833D02*
X122259580Y-130848214D01*
X122259580Y-130848214D02*
X122164342Y-130800595D01*
X122164342Y-130800595D02*
X121926247Y-130800595D01*
X121926247Y-130800595D02*
X121831009Y-130848214D01*
X121831009Y-130848214D02*
X121783390Y-130895833D01*
X121783390Y-130895833D02*
X121735771Y-130991071D01*
X121735771Y-130991071D02*
X121735771Y-131181547D01*
X121735771Y-131181547D02*
X121783390Y-131276785D01*
X121783390Y-131276785D02*
X121831009Y-131324404D01*
X121831009Y-131324404D02*
X121926247Y-131372023D01*
X109604819Y-113342857D02*
X109128628Y-113676190D01*
X109604819Y-113914285D02*
X108604819Y-113914285D01*
X108604819Y-113914285D02*
X108604819Y-113533333D01*
X108604819Y-113533333D02*
X108652438Y-113438095D01*
X108652438Y-113438095D02*
X108700057Y-113390476D01*
X108700057Y-113390476D02*
X108795295Y-113342857D01*
X108795295Y-113342857D02*
X108938152Y-113342857D01*
X108938152Y-113342857D02*
X109033390Y-113390476D01*
X109033390Y-113390476D02*
X109081009Y-113438095D01*
X109081009Y-113438095D02*
X109128628Y-113533333D01*
X109128628Y-113533333D02*
X109128628Y-113914285D01*
X109604819Y-112390476D02*
X109604819Y-112961904D01*
X109604819Y-112676190D02*
X108604819Y-112676190D01*
X108604819Y-112676190D02*
X108747676Y-112771428D01*
X108747676Y-112771428D02*
X108842914Y-112866666D01*
X108842914Y-112866666D02*
X108890533Y-112961904D01*
X108604819Y-112057142D02*
X108604819Y-111438095D01*
X108604819Y-111438095D02*
X108985771Y-111771428D01*
X108985771Y-111771428D02*
X108985771Y-111628571D01*
X108985771Y-111628571D02*
X109033390Y-111533333D01*
X109033390Y-111533333D02*
X109081009Y-111485714D01*
X109081009Y-111485714D02*
X109176247Y-111438095D01*
X109176247Y-111438095D02*
X109414342Y-111438095D01*
X109414342Y-111438095D02*
X109509580Y-111485714D01*
X109509580Y-111485714D02*
X109557200Y-111533333D01*
X109557200Y-111533333D02*
X109604819Y-111628571D01*
X109604819Y-111628571D02*
X109604819Y-111914285D01*
X109604819Y-111914285D02*
X109557200Y-112009523D01*
X109557200Y-112009523D02*
X109509580Y-112057142D01*
X95609580Y-127166666D02*
X95657200Y-127214285D01*
X95657200Y-127214285D02*
X95704819Y-127357142D01*
X95704819Y-127357142D02*
X95704819Y-127452380D01*
X95704819Y-127452380D02*
X95657200Y-127595237D01*
X95657200Y-127595237D02*
X95561961Y-127690475D01*
X95561961Y-127690475D02*
X95466723Y-127738094D01*
X95466723Y-127738094D02*
X95276247Y-127785713D01*
X95276247Y-127785713D02*
X95133390Y-127785713D01*
X95133390Y-127785713D02*
X94942914Y-127738094D01*
X94942914Y-127738094D02*
X94847676Y-127690475D01*
X94847676Y-127690475D02*
X94752438Y-127595237D01*
X94752438Y-127595237D02*
X94704819Y-127452380D01*
X94704819Y-127452380D02*
X94704819Y-127357142D01*
X94704819Y-127357142D02*
X94752438Y-127214285D01*
X94752438Y-127214285D02*
X94800057Y-127166666D01*
X95133390Y-126595237D02*
X95085771Y-126690475D01*
X95085771Y-126690475D02*
X95038152Y-126738094D01*
X95038152Y-126738094D02*
X94942914Y-126785713D01*
X94942914Y-126785713D02*
X94895295Y-126785713D01*
X94895295Y-126785713D02*
X94800057Y-126738094D01*
X94800057Y-126738094D02*
X94752438Y-126690475D01*
X94752438Y-126690475D02*
X94704819Y-126595237D01*
X94704819Y-126595237D02*
X94704819Y-126404761D01*
X94704819Y-126404761D02*
X94752438Y-126309523D01*
X94752438Y-126309523D02*
X94800057Y-126261904D01*
X94800057Y-126261904D02*
X94895295Y-126214285D01*
X94895295Y-126214285D02*
X94942914Y-126214285D01*
X94942914Y-126214285D02*
X95038152Y-126261904D01*
X95038152Y-126261904D02*
X95085771Y-126309523D01*
X95085771Y-126309523D02*
X95133390Y-126404761D01*
X95133390Y-126404761D02*
X95133390Y-126595237D01*
X95133390Y-126595237D02*
X95181009Y-126690475D01*
X95181009Y-126690475D02*
X95228628Y-126738094D01*
X95228628Y-126738094D02*
X95323866Y-126785713D01*
X95323866Y-126785713D02*
X95514342Y-126785713D01*
X95514342Y-126785713D02*
X95609580Y-126738094D01*
X95609580Y-126738094D02*
X95657200Y-126690475D01*
X95657200Y-126690475D02*
X95704819Y-126595237D01*
X95704819Y-126595237D02*
X95704819Y-126404761D01*
X95704819Y-126404761D02*
X95657200Y-126309523D01*
X95657200Y-126309523D02*
X95609580Y-126261904D01*
X95609580Y-126261904D02*
X95514342Y-126214285D01*
X95514342Y-126214285D02*
X95323866Y-126214285D01*
X95323866Y-126214285D02*
X95228628Y-126261904D01*
X95228628Y-126261904D02*
X95181009Y-126309523D01*
X95181009Y-126309523D02*
X95133390Y-126404761D01*
X94004819Y-148142857D02*
X93528628Y-148476190D01*
X94004819Y-148714285D02*
X93004819Y-148714285D01*
X93004819Y-148714285D02*
X93004819Y-148333333D01*
X93004819Y-148333333D02*
X93052438Y-148238095D01*
X93052438Y-148238095D02*
X93100057Y-148190476D01*
X93100057Y-148190476D02*
X93195295Y-148142857D01*
X93195295Y-148142857D02*
X93338152Y-148142857D01*
X93338152Y-148142857D02*
X93433390Y-148190476D01*
X93433390Y-148190476D02*
X93481009Y-148238095D01*
X93481009Y-148238095D02*
X93528628Y-148333333D01*
X93528628Y-148333333D02*
X93528628Y-148714285D01*
X94004819Y-147190476D02*
X94004819Y-147761904D01*
X94004819Y-147476190D02*
X93004819Y-147476190D01*
X93004819Y-147476190D02*
X93147676Y-147571428D01*
X93147676Y-147571428D02*
X93242914Y-147666666D01*
X93242914Y-147666666D02*
X93290533Y-147761904D01*
X94004819Y-146238095D02*
X94004819Y-146809523D01*
X94004819Y-146523809D02*
X93004819Y-146523809D01*
X93004819Y-146523809D02*
X93147676Y-146619047D01*
X93147676Y-146619047D02*
X93242914Y-146714285D01*
X93242914Y-146714285D02*
X93290533Y-146809523D01*
X128361905Y-117654819D02*
X128361905Y-116654819D01*
X128361905Y-116654819D02*
X128600000Y-116654819D01*
X128600000Y-116654819D02*
X128742857Y-116702438D01*
X128742857Y-116702438D02*
X128838095Y-116797676D01*
X128838095Y-116797676D02*
X128885714Y-116892914D01*
X128885714Y-116892914D02*
X128933333Y-117083390D01*
X128933333Y-117083390D02*
X128933333Y-117226247D01*
X128933333Y-117226247D02*
X128885714Y-117416723D01*
X128885714Y-117416723D02*
X128838095Y-117511961D01*
X128838095Y-117511961D02*
X128742857Y-117607200D01*
X128742857Y-117607200D02*
X128600000Y-117654819D01*
X128600000Y-117654819D02*
X128361905Y-117654819D01*
X129885714Y-117654819D02*
X129314286Y-117654819D01*
X129600000Y-117654819D02*
X129600000Y-116654819D01*
X129600000Y-116654819D02*
X129504762Y-116797676D01*
X129504762Y-116797676D02*
X129409524Y-116892914D01*
X129409524Y-116892914D02*
X129314286Y-116940533D01*
X106404819Y-113342857D02*
X105928628Y-113676190D01*
X106404819Y-113914285D02*
X105404819Y-113914285D01*
X105404819Y-113914285D02*
X105404819Y-113533333D01*
X105404819Y-113533333D02*
X105452438Y-113438095D01*
X105452438Y-113438095D02*
X105500057Y-113390476D01*
X105500057Y-113390476D02*
X105595295Y-113342857D01*
X105595295Y-113342857D02*
X105738152Y-113342857D01*
X105738152Y-113342857D02*
X105833390Y-113390476D01*
X105833390Y-113390476D02*
X105881009Y-113438095D01*
X105881009Y-113438095D02*
X105928628Y-113533333D01*
X105928628Y-113533333D02*
X105928628Y-113914285D01*
X106404819Y-112390476D02*
X106404819Y-112961904D01*
X106404819Y-112676190D02*
X105404819Y-112676190D01*
X105404819Y-112676190D02*
X105547676Y-112771428D01*
X105547676Y-112771428D02*
X105642914Y-112866666D01*
X105642914Y-112866666D02*
X105690533Y-112961904D01*
X105500057Y-112009523D02*
X105452438Y-111961904D01*
X105452438Y-111961904D02*
X105404819Y-111866666D01*
X105404819Y-111866666D02*
X105404819Y-111628571D01*
X105404819Y-111628571D02*
X105452438Y-111533333D01*
X105452438Y-111533333D02*
X105500057Y-111485714D01*
X105500057Y-111485714D02*
X105595295Y-111438095D01*
X105595295Y-111438095D02*
X105690533Y-111438095D01*
X105690533Y-111438095D02*
X105833390Y-111485714D01*
X105833390Y-111485714D02*
X106404819Y-112057142D01*
X106404819Y-112057142D02*
X106404819Y-111438095D01*
X111659580Y-138642857D02*
X111707200Y-138690476D01*
X111707200Y-138690476D02*
X111754819Y-138833333D01*
X111754819Y-138833333D02*
X111754819Y-138928571D01*
X111754819Y-138928571D02*
X111707200Y-139071428D01*
X111707200Y-139071428D02*
X111611961Y-139166666D01*
X111611961Y-139166666D02*
X111516723Y-139214285D01*
X111516723Y-139214285D02*
X111326247Y-139261904D01*
X111326247Y-139261904D02*
X111183390Y-139261904D01*
X111183390Y-139261904D02*
X110992914Y-139214285D01*
X110992914Y-139214285D02*
X110897676Y-139166666D01*
X110897676Y-139166666D02*
X110802438Y-139071428D01*
X110802438Y-139071428D02*
X110754819Y-138928571D01*
X110754819Y-138928571D02*
X110754819Y-138833333D01*
X110754819Y-138833333D02*
X110802438Y-138690476D01*
X110802438Y-138690476D02*
X110850057Y-138642857D01*
X111754819Y-137690476D02*
X111754819Y-138261904D01*
X111754819Y-137976190D02*
X110754819Y-137976190D01*
X110754819Y-137976190D02*
X110897676Y-138071428D01*
X110897676Y-138071428D02*
X110992914Y-138166666D01*
X110992914Y-138166666D02*
X111040533Y-138261904D01*
X111754819Y-137214285D02*
X111754819Y-137023809D01*
X111754819Y-137023809D02*
X111707200Y-136928571D01*
X111707200Y-136928571D02*
X111659580Y-136880952D01*
X111659580Y-136880952D02*
X111516723Y-136785714D01*
X111516723Y-136785714D02*
X111326247Y-136738095D01*
X111326247Y-136738095D02*
X110945295Y-136738095D01*
X110945295Y-136738095D02*
X110850057Y-136785714D01*
X110850057Y-136785714D02*
X110802438Y-136833333D01*
X110802438Y-136833333D02*
X110754819Y-136928571D01*
X110754819Y-136928571D02*
X110754819Y-137119047D01*
X110754819Y-137119047D02*
X110802438Y-137214285D01*
X110802438Y-137214285D02*
X110850057Y-137261904D01*
X110850057Y-137261904D02*
X110945295Y-137309523D01*
X110945295Y-137309523D02*
X111183390Y-137309523D01*
X111183390Y-137309523D02*
X111278628Y-137261904D01*
X111278628Y-137261904D02*
X111326247Y-137214285D01*
X111326247Y-137214285D02*
X111373866Y-137119047D01*
X111373866Y-137119047D02*
X111373866Y-136928571D01*
X111373866Y-136928571D02*
X111326247Y-136833333D01*
X111326247Y-136833333D02*
X111278628Y-136785714D01*
X111278628Y-136785714D02*
X111183390Y-136738095D01*
X102957142Y-147854819D02*
X102623809Y-147378628D01*
X102385714Y-147854819D02*
X102385714Y-146854819D01*
X102385714Y-146854819D02*
X102766666Y-146854819D01*
X102766666Y-146854819D02*
X102861904Y-146902438D01*
X102861904Y-146902438D02*
X102909523Y-146950057D01*
X102909523Y-146950057D02*
X102957142Y-147045295D01*
X102957142Y-147045295D02*
X102957142Y-147188152D01*
X102957142Y-147188152D02*
X102909523Y-147283390D01*
X102909523Y-147283390D02*
X102861904Y-147331009D01*
X102861904Y-147331009D02*
X102766666Y-147378628D01*
X102766666Y-147378628D02*
X102385714Y-147378628D01*
X103909523Y-147854819D02*
X103338095Y-147854819D01*
X103623809Y-147854819D02*
X103623809Y-146854819D01*
X103623809Y-146854819D02*
X103528571Y-146997676D01*
X103528571Y-146997676D02*
X103433333Y-147092914D01*
X103433333Y-147092914D02*
X103338095Y-147140533D01*
X104766666Y-147188152D02*
X104766666Y-147854819D01*
X104528571Y-146807200D02*
X104290476Y-147521485D01*
X104290476Y-147521485D02*
X104909523Y-147521485D01*
X115739580Y-118167857D02*
X115787200Y-118215476D01*
X115787200Y-118215476D02*
X115834819Y-118358333D01*
X115834819Y-118358333D02*
X115834819Y-118453571D01*
X115834819Y-118453571D02*
X115787200Y-118596428D01*
X115787200Y-118596428D02*
X115691961Y-118691666D01*
X115691961Y-118691666D02*
X115596723Y-118739285D01*
X115596723Y-118739285D02*
X115406247Y-118786904D01*
X115406247Y-118786904D02*
X115263390Y-118786904D01*
X115263390Y-118786904D02*
X115072914Y-118739285D01*
X115072914Y-118739285D02*
X114977676Y-118691666D01*
X114977676Y-118691666D02*
X114882438Y-118596428D01*
X114882438Y-118596428D02*
X114834819Y-118453571D01*
X114834819Y-118453571D02*
X114834819Y-118358333D01*
X114834819Y-118358333D02*
X114882438Y-118215476D01*
X114882438Y-118215476D02*
X114930057Y-118167857D01*
X115834819Y-117215476D02*
X115834819Y-117786904D01*
X115834819Y-117501190D02*
X114834819Y-117501190D01*
X114834819Y-117501190D02*
X114977676Y-117596428D01*
X114977676Y-117596428D02*
X115072914Y-117691666D01*
X115072914Y-117691666D02*
X115120533Y-117786904D01*
X114834819Y-116882142D02*
X114834819Y-116263095D01*
X114834819Y-116263095D02*
X115215771Y-116596428D01*
X115215771Y-116596428D02*
X115215771Y-116453571D01*
X115215771Y-116453571D02*
X115263390Y-116358333D01*
X115263390Y-116358333D02*
X115311009Y-116310714D01*
X115311009Y-116310714D02*
X115406247Y-116263095D01*
X115406247Y-116263095D02*
X115644342Y-116263095D01*
X115644342Y-116263095D02*
X115739580Y-116310714D01*
X115739580Y-116310714D02*
X115787200Y-116358333D01*
X115787200Y-116358333D02*
X115834819Y-116453571D01*
X115834819Y-116453571D02*
X115834819Y-116739285D01*
X115834819Y-116739285D02*
X115787200Y-116834523D01*
X115787200Y-116834523D02*
X115739580Y-116882142D01*
X119375595Y-112754819D02*
X119375595Y-113564342D01*
X119375595Y-113564342D02*
X119423214Y-113659580D01*
X119423214Y-113659580D02*
X119470833Y-113707200D01*
X119470833Y-113707200D02*
X119566071Y-113754819D01*
X119566071Y-113754819D02*
X119756547Y-113754819D01*
X119756547Y-113754819D02*
X119851785Y-113707200D01*
X119851785Y-113707200D02*
X119899404Y-113659580D01*
X119899404Y-113659580D02*
X119947023Y-113564342D01*
X119947023Y-113564342D02*
X119947023Y-112754819D01*
X120327976Y-112754819D02*
X120947023Y-112754819D01*
X120947023Y-112754819D02*
X120613690Y-113135771D01*
X120613690Y-113135771D02*
X120756547Y-113135771D01*
X120756547Y-113135771D02*
X120851785Y-113183390D01*
X120851785Y-113183390D02*
X120899404Y-113231009D01*
X120899404Y-113231009D02*
X120947023Y-113326247D01*
X120947023Y-113326247D02*
X120947023Y-113564342D01*
X120947023Y-113564342D02*
X120899404Y-113659580D01*
X120899404Y-113659580D02*
X120851785Y-113707200D01*
X120851785Y-113707200D02*
X120756547Y-113754819D01*
X120756547Y-113754819D02*
X120470833Y-113754819D01*
X120470833Y-113754819D02*
X120375595Y-113707200D01*
X120375595Y-113707200D02*
X120327976Y-113659580D01*
X86754819Y-138166666D02*
X86278628Y-138499999D01*
X86754819Y-138738094D02*
X85754819Y-138738094D01*
X85754819Y-138738094D02*
X85754819Y-138357142D01*
X85754819Y-138357142D02*
X85802438Y-138261904D01*
X85802438Y-138261904D02*
X85850057Y-138214285D01*
X85850057Y-138214285D02*
X85945295Y-138166666D01*
X85945295Y-138166666D02*
X86088152Y-138166666D01*
X86088152Y-138166666D02*
X86183390Y-138214285D01*
X86183390Y-138214285D02*
X86231009Y-138261904D01*
X86231009Y-138261904D02*
X86278628Y-138357142D01*
X86278628Y-138357142D02*
X86278628Y-138738094D01*
X86754819Y-137214285D02*
X86754819Y-137785713D01*
X86754819Y-137499999D02*
X85754819Y-137499999D01*
X85754819Y-137499999D02*
X85897676Y-137595237D01*
X85897676Y-137595237D02*
X85992914Y-137690475D01*
X85992914Y-137690475D02*
X86040533Y-137785713D01*
X93954819Y-142916666D02*
X93478628Y-143249999D01*
X93954819Y-143488094D02*
X92954819Y-143488094D01*
X92954819Y-143488094D02*
X92954819Y-143107142D01*
X92954819Y-143107142D02*
X93002438Y-143011904D01*
X93002438Y-143011904D02*
X93050057Y-142964285D01*
X93050057Y-142964285D02*
X93145295Y-142916666D01*
X93145295Y-142916666D02*
X93288152Y-142916666D01*
X93288152Y-142916666D02*
X93383390Y-142964285D01*
X93383390Y-142964285D02*
X93431009Y-143011904D01*
X93431009Y-143011904D02*
X93478628Y-143107142D01*
X93478628Y-143107142D02*
X93478628Y-143488094D01*
X93383390Y-142345237D02*
X93335771Y-142440475D01*
X93335771Y-142440475D02*
X93288152Y-142488094D01*
X93288152Y-142488094D02*
X93192914Y-142535713D01*
X93192914Y-142535713D02*
X93145295Y-142535713D01*
X93145295Y-142535713D02*
X93050057Y-142488094D01*
X93050057Y-142488094D02*
X93002438Y-142440475D01*
X93002438Y-142440475D02*
X92954819Y-142345237D01*
X92954819Y-142345237D02*
X92954819Y-142154761D01*
X92954819Y-142154761D02*
X93002438Y-142059523D01*
X93002438Y-142059523D02*
X93050057Y-142011904D01*
X93050057Y-142011904D02*
X93145295Y-141964285D01*
X93145295Y-141964285D02*
X93192914Y-141964285D01*
X93192914Y-141964285D02*
X93288152Y-142011904D01*
X93288152Y-142011904D02*
X93335771Y-142059523D01*
X93335771Y-142059523D02*
X93383390Y-142154761D01*
X93383390Y-142154761D02*
X93383390Y-142345237D01*
X93383390Y-142345237D02*
X93431009Y-142440475D01*
X93431009Y-142440475D02*
X93478628Y-142488094D01*
X93478628Y-142488094D02*
X93573866Y-142535713D01*
X93573866Y-142535713D02*
X93764342Y-142535713D01*
X93764342Y-142535713D02*
X93859580Y-142488094D01*
X93859580Y-142488094D02*
X93907200Y-142440475D01*
X93907200Y-142440475D02*
X93954819Y-142345237D01*
X93954819Y-142345237D02*
X93954819Y-142154761D01*
X93954819Y-142154761D02*
X93907200Y-142059523D01*
X93907200Y-142059523D02*
X93859580Y-142011904D01*
X93859580Y-142011904D02*
X93764342Y-141964285D01*
X93764342Y-141964285D02*
X93573866Y-141964285D01*
X93573866Y-141964285D02*
X93478628Y-142011904D01*
X93478628Y-142011904D02*
X93431009Y-142059523D01*
X93431009Y-142059523D02*
X93383390Y-142154761D01*
X109439580Y-118205357D02*
X109487200Y-118252976D01*
X109487200Y-118252976D02*
X109534819Y-118395833D01*
X109534819Y-118395833D02*
X109534819Y-118491071D01*
X109534819Y-118491071D02*
X109487200Y-118633928D01*
X109487200Y-118633928D02*
X109391961Y-118729166D01*
X109391961Y-118729166D02*
X109296723Y-118776785D01*
X109296723Y-118776785D02*
X109106247Y-118824404D01*
X109106247Y-118824404D02*
X108963390Y-118824404D01*
X108963390Y-118824404D02*
X108772914Y-118776785D01*
X108772914Y-118776785D02*
X108677676Y-118729166D01*
X108677676Y-118729166D02*
X108582438Y-118633928D01*
X108582438Y-118633928D02*
X108534819Y-118491071D01*
X108534819Y-118491071D02*
X108534819Y-118395833D01*
X108534819Y-118395833D02*
X108582438Y-118252976D01*
X108582438Y-118252976D02*
X108630057Y-118205357D01*
X109534819Y-117252976D02*
X109534819Y-117824404D01*
X109534819Y-117538690D02*
X108534819Y-117538690D01*
X108534819Y-117538690D02*
X108677676Y-117633928D01*
X108677676Y-117633928D02*
X108772914Y-117729166D01*
X108772914Y-117729166D02*
X108820533Y-117824404D01*
X109534819Y-116300595D02*
X109534819Y-116872023D01*
X109534819Y-116586309D02*
X108534819Y-116586309D01*
X108534819Y-116586309D02*
X108677676Y-116681547D01*
X108677676Y-116681547D02*
X108772914Y-116776785D01*
X108772914Y-116776785D02*
X108820533Y-116872023D01*
X118379580Y-132705357D02*
X118427200Y-132752976D01*
X118427200Y-132752976D02*
X118474819Y-132895833D01*
X118474819Y-132895833D02*
X118474819Y-132991071D01*
X118474819Y-132991071D02*
X118427200Y-133133928D01*
X118427200Y-133133928D02*
X118331961Y-133229166D01*
X118331961Y-133229166D02*
X118236723Y-133276785D01*
X118236723Y-133276785D02*
X118046247Y-133324404D01*
X118046247Y-133324404D02*
X117903390Y-133324404D01*
X117903390Y-133324404D02*
X117712914Y-133276785D01*
X117712914Y-133276785D02*
X117617676Y-133229166D01*
X117617676Y-133229166D02*
X117522438Y-133133928D01*
X117522438Y-133133928D02*
X117474819Y-132991071D01*
X117474819Y-132991071D02*
X117474819Y-132895833D01*
X117474819Y-132895833D02*
X117522438Y-132752976D01*
X117522438Y-132752976D02*
X117570057Y-132705357D01*
X118474819Y-131752976D02*
X118474819Y-132324404D01*
X118474819Y-132038690D02*
X117474819Y-132038690D01*
X117474819Y-132038690D02*
X117617676Y-132133928D01*
X117617676Y-132133928D02*
X117712914Y-132229166D01*
X117712914Y-132229166D02*
X117760533Y-132324404D01*
X117474819Y-130848214D02*
X117474819Y-131324404D01*
X117474819Y-131324404D02*
X117951009Y-131372023D01*
X117951009Y-131372023D02*
X117903390Y-131324404D01*
X117903390Y-131324404D02*
X117855771Y-131229166D01*
X117855771Y-131229166D02*
X117855771Y-130991071D01*
X117855771Y-130991071D02*
X117903390Y-130895833D01*
X117903390Y-130895833D02*
X117951009Y-130848214D01*
X117951009Y-130848214D02*
X118046247Y-130800595D01*
X118046247Y-130800595D02*
X118284342Y-130800595D01*
X118284342Y-130800595D02*
X118379580Y-130848214D01*
X118379580Y-130848214D02*
X118427200Y-130895833D01*
X118427200Y-130895833D02*
X118474819Y-130991071D01*
X118474819Y-130991071D02*
X118474819Y-131229166D01*
X118474819Y-131229166D02*
X118427200Y-131324404D01*
X118427200Y-131324404D02*
X118379580Y-131372023D01*
X83638095Y-115054819D02*
X83638095Y-115864342D01*
X83638095Y-115864342D02*
X83685714Y-115959580D01*
X83685714Y-115959580D02*
X83733333Y-116007200D01*
X83733333Y-116007200D02*
X83828571Y-116054819D01*
X83828571Y-116054819D02*
X84019047Y-116054819D01*
X84019047Y-116054819D02*
X84114285Y-116007200D01*
X84114285Y-116007200D02*
X84161904Y-115959580D01*
X84161904Y-115959580D02*
X84209523Y-115864342D01*
X84209523Y-115864342D02*
X84209523Y-115054819D01*
X85209523Y-116054819D02*
X84638095Y-116054819D01*
X84923809Y-116054819D02*
X84923809Y-115054819D01*
X84923809Y-115054819D02*
X84828571Y-115197676D01*
X84828571Y-115197676D02*
X84733333Y-115292914D01*
X84733333Y-115292914D02*
X84638095Y-115340533D01*
X115557142Y-147814819D02*
X115223809Y-147338628D01*
X114985714Y-147814819D02*
X114985714Y-146814819D01*
X114985714Y-146814819D02*
X115366666Y-146814819D01*
X115366666Y-146814819D02*
X115461904Y-146862438D01*
X115461904Y-146862438D02*
X115509523Y-146910057D01*
X115509523Y-146910057D02*
X115557142Y-147005295D01*
X115557142Y-147005295D02*
X115557142Y-147148152D01*
X115557142Y-147148152D02*
X115509523Y-147243390D01*
X115509523Y-147243390D02*
X115461904Y-147291009D01*
X115461904Y-147291009D02*
X115366666Y-147338628D01*
X115366666Y-147338628D02*
X114985714Y-147338628D01*
X116509523Y-147814819D02*
X115938095Y-147814819D01*
X116223809Y-147814819D02*
X116223809Y-146814819D01*
X116223809Y-146814819D02*
X116128571Y-146957676D01*
X116128571Y-146957676D02*
X116033333Y-147052914D01*
X116033333Y-147052914D02*
X115938095Y-147100533D01*
X117366666Y-146814819D02*
X117176190Y-146814819D01*
X117176190Y-146814819D02*
X117080952Y-146862438D01*
X117080952Y-146862438D02*
X117033333Y-146910057D01*
X117033333Y-146910057D02*
X116938095Y-147052914D01*
X116938095Y-147052914D02*
X116890476Y-147243390D01*
X116890476Y-147243390D02*
X116890476Y-147624342D01*
X116890476Y-147624342D02*
X116938095Y-147719580D01*
X116938095Y-147719580D02*
X116985714Y-147767200D01*
X116985714Y-147767200D02*
X117080952Y-147814819D01*
X117080952Y-147814819D02*
X117271428Y-147814819D01*
X117271428Y-147814819D02*
X117366666Y-147767200D01*
X117366666Y-147767200D02*
X117414285Y-147719580D01*
X117414285Y-147719580D02*
X117461904Y-147624342D01*
X117461904Y-147624342D02*
X117461904Y-147386247D01*
X117461904Y-147386247D02*
X117414285Y-147291009D01*
X117414285Y-147291009D02*
X117366666Y-147243390D01*
X117366666Y-147243390D02*
X117271428Y-147195771D01*
X117271428Y-147195771D02*
X117080952Y-147195771D01*
X117080952Y-147195771D02*
X116985714Y-147243390D01*
X116985714Y-147243390D02*
X116938095Y-147291009D01*
X116938095Y-147291009D02*
X116890476Y-147386247D01*
X90254819Y-142916666D02*
X89778628Y-143249999D01*
X90254819Y-143488094D02*
X89254819Y-143488094D01*
X89254819Y-143488094D02*
X89254819Y-143107142D01*
X89254819Y-143107142D02*
X89302438Y-143011904D01*
X89302438Y-143011904D02*
X89350057Y-142964285D01*
X89350057Y-142964285D02*
X89445295Y-142916666D01*
X89445295Y-142916666D02*
X89588152Y-142916666D01*
X89588152Y-142916666D02*
X89683390Y-142964285D01*
X89683390Y-142964285D02*
X89731009Y-143011904D01*
X89731009Y-143011904D02*
X89778628Y-143107142D01*
X89778628Y-143107142D02*
X89778628Y-143488094D01*
X90254819Y-142440475D02*
X90254819Y-142249999D01*
X90254819Y-142249999D02*
X90207200Y-142154761D01*
X90207200Y-142154761D02*
X90159580Y-142107142D01*
X90159580Y-142107142D02*
X90016723Y-142011904D01*
X90016723Y-142011904D02*
X89826247Y-141964285D01*
X89826247Y-141964285D02*
X89445295Y-141964285D01*
X89445295Y-141964285D02*
X89350057Y-142011904D01*
X89350057Y-142011904D02*
X89302438Y-142059523D01*
X89302438Y-142059523D02*
X89254819Y-142154761D01*
X89254819Y-142154761D02*
X89254819Y-142345237D01*
X89254819Y-142345237D02*
X89302438Y-142440475D01*
X89302438Y-142440475D02*
X89350057Y-142488094D01*
X89350057Y-142488094D02*
X89445295Y-142535713D01*
X89445295Y-142535713D02*
X89683390Y-142535713D01*
X89683390Y-142535713D02*
X89778628Y-142488094D01*
X89778628Y-142488094D02*
X89826247Y-142440475D01*
X89826247Y-142440475D02*
X89873866Y-142345237D01*
X89873866Y-142345237D02*
X89873866Y-142154761D01*
X89873866Y-142154761D02*
X89826247Y-142059523D01*
X89826247Y-142059523D02*
X89778628Y-142011904D01*
X89778628Y-142011904D02*
X89683390Y-141964285D01*
X79504819Y-118166666D02*
X79028628Y-118499999D01*
X79504819Y-118738094D02*
X78504819Y-118738094D01*
X78504819Y-118738094D02*
X78504819Y-118357142D01*
X78504819Y-118357142D02*
X78552438Y-118261904D01*
X78552438Y-118261904D02*
X78600057Y-118214285D01*
X78600057Y-118214285D02*
X78695295Y-118166666D01*
X78695295Y-118166666D02*
X78838152Y-118166666D01*
X78838152Y-118166666D02*
X78933390Y-118214285D01*
X78933390Y-118214285D02*
X78981009Y-118261904D01*
X78981009Y-118261904D02*
X79028628Y-118357142D01*
X79028628Y-118357142D02*
X79028628Y-118738094D01*
X78504819Y-117833332D02*
X78504819Y-117214285D01*
X78504819Y-117214285D02*
X78885771Y-117547618D01*
X78885771Y-117547618D02*
X78885771Y-117404761D01*
X78885771Y-117404761D02*
X78933390Y-117309523D01*
X78933390Y-117309523D02*
X78981009Y-117261904D01*
X78981009Y-117261904D02*
X79076247Y-117214285D01*
X79076247Y-117214285D02*
X79314342Y-117214285D01*
X79314342Y-117214285D02*
X79409580Y-117261904D01*
X79409580Y-117261904D02*
X79457200Y-117309523D01*
X79457200Y-117309523D02*
X79504819Y-117404761D01*
X79504819Y-117404761D02*
X79504819Y-117690475D01*
X79504819Y-117690475D02*
X79457200Y-117785713D01*
X79457200Y-117785713D02*
X79409580Y-117833332D01*
X81109580Y-131416666D02*
X81157200Y-131464285D01*
X81157200Y-131464285D02*
X81204819Y-131607142D01*
X81204819Y-131607142D02*
X81204819Y-131702380D01*
X81204819Y-131702380D02*
X81157200Y-131845237D01*
X81157200Y-131845237D02*
X81061961Y-131940475D01*
X81061961Y-131940475D02*
X80966723Y-131988094D01*
X80966723Y-131988094D02*
X80776247Y-132035713D01*
X80776247Y-132035713D02*
X80633390Y-132035713D01*
X80633390Y-132035713D02*
X80442914Y-131988094D01*
X80442914Y-131988094D02*
X80347676Y-131940475D01*
X80347676Y-131940475D02*
X80252438Y-131845237D01*
X80252438Y-131845237D02*
X80204819Y-131702380D01*
X80204819Y-131702380D02*
X80204819Y-131607142D01*
X80204819Y-131607142D02*
X80252438Y-131464285D01*
X80252438Y-131464285D02*
X80300057Y-131416666D01*
X80538152Y-130559523D02*
X81204819Y-130559523D01*
X80157200Y-130797618D02*
X80871485Y-131035713D01*
X80871485Y-131035713D02*
X80871485Y-130416666D01*
D13*
X105738333Y-133524318D02*
X105133571Y-133524318D01*
X105133571Y-133524318D02*
X105133571Y-132254318D01*
X106101190Y-132375270D02*
X106161666Y-132314794D01*
X106161666Y-132314794D02*
X106282619Y-132254318D01*
X106282619Y-132254318D02*
X106585000Y-132254318D01*
X106585000Y-132254318D02*
X106705952Y-132314794D01*
X106705952Y-132314794D02*
X106766428Y-132375270D01*
X106766428Y-132375270D02*
X106826905Y-132496222D01*
X106826905Y-132496222D02*
X106826905Y-132617175D01*
X106826905Y-132617175D02*
X106766428Y-132798603D01*
X106766428Y-132798603D02*
X106040714Y-133524318D01*
X106040714Y-133524318D02*
X106826905Y-133524318D01*
D12*
X106239580Y-118267857D02*
X106287200Y-118315476D01*
X106287200Y-118315476D02*
X106334819Y-118458333D01*
X106334819Y-118458333D02*
X106334819Y-118553571D01*
X106334819Y-118553571D02*
X106287200Y-118696428D01*
X106287200Y-118696428D02*
X106191961Y-118791666D01*
X106191961Y-118791666D02*
X106096723Y-118839285D01*
X106096723Y-118839285D02*
X105906247Y-118886904D01*
X105906247Y-118886904D02*
X105763390Y-118886904D01*
X105763390Y-118886904D02*
X105572914Y-118839285D01*
X105572914Y-118839285D02*
X105477676Y-118791666D01*
X105477676Y-118791666D02*
X105382438Y-118696428D01*
X105382438Y-118696428D02*
X105334819Y-118553571D01*
X105334819Y-118553571D02*
X105334819Y-118458333D01*
X105334819Y-118458333D02*
X105382438Y-118315476D01*
X105382438Y-118315476D02*
X105430057Y-118267857D01*
X106334819Y-117315476D02*
X106334819Y-117886904D01*
X106334819Y-117601190D02*
X105334819Y-117601190D01*
X105334819Y-117601190D02*
X105477676Y-117696428D01*
X105477676Y-117696428D02*
X105572914Y-117791666D01*
X105572914Y-117791666D02*
X105620533Y-117886904D01*
X105334819Y-116696428D02*
X105334819Y-116601190D01*
X105334819Y-116601190D02*
X105382438Y-116505952D01*
X105382438Y-116505952D02*
X105430057Y-116458333D01*
X105430057Y-116458333D02*
X105525295Y-116410714D01*
X105525295Y-116410714D02*
X105715771Y-116363095D01*
X105715771Y-116363095D02*
X105953866Y-116363095D01*
X105953866Y-116363095D02*
X106144342Y-116410714D01*
X106144342Y-116410714D02*
X106239580Y-116458333D01*
X106239580Y-116458333D02*
X106287200Y-116505952D01*
X106287200Y-116505952D02*
X106334819Y-116601190D01*
X106334819Y-116601190D02*
X106334819Y-116696428D01*
X106334819Y-116696428D02*
X106287200Y-116791666D01*
X106287200Y-116791666D02*
X106239580Y-116839285D01*
X106239580Y-116839285D02*
X106144342Y-116886904D01*
X106144342Y-116886904D02*
X105953866Y-116934523D01*
X105953866Y-116934523D02*
X105715771Y-116934523D01*
X105715771Y-116934523D02*
X105525295Y-116886904D01*
X105525295Y-116886904D02*
X105430057Y-116839285D01*
X105430057Y-116839285D02*
X105382438Y-116791666D01*
X105382438Y-116791666D02*
X105334819Y-116696428D01*
X84859580Y-131416666D02*
X84907200Y-131464285D01*
X84907200Y-131464285D02*
X84954819Y-131607142D01*
X84954819Y-131607142D02*
X84954819Y-131702380D01*
X84954819Y-131702380D02*
X84907200Y-131845237D01*
X84907200Y-131845237D02*
X84811961Y-131940475D01*
X84811961Y-131940475D02*
X84716723Y-131988094D01*
X84716723Y-131988094D02*
X84526247Y-132035713D01*
X84526247Y-132035713D02*
X84383390Y-132035713D01*
X84383390Y-132035713D02*
X84192914Y-131988094D01*
X84192914Y-131988094D02*
X84097676Y-131940475D01*
X84097676Y-131940475D02*
X84002438Y-131845237D01*
X84002438Y-131845237D02*
X83954819Y-131702380D01*
X83954819Y-131702380D02*
X83954819Y-131607142D01*
X83954819Y-131607142D02*
X84002438Y-131464285D01*
X84002438Y-131464285D02*
X84050057Y-131416666D01*
X83954819Y-131083332D02*
X83954819Y-130464285D01*
X83954819Y-130464285D02*
X84335771Y-130797618D01*
X84335771Y-130797618D02*
X84335771Y-130654761D01*
X84335771Y-130654761D02*
X84383390Y-130559523D01*
X84383390Y-130559523D02*
X84431009Y-130511904D01*
X84431009Y-130511904D02*
X84526247Y-130464285D01*
X84526247Y-130464285D02*
X84764342Y-130464285D01*
X84764342Y-130464285D02*
X84859580Y-130511904D01*
X84859580Y-130511904D02*
X84907200Y-130559523D01*
X84907200Y-130559523D02*
X84954819Y-130654761D01*
X84954819Y-130654761D02*
X84954819Y-130940475D01*
X84954819Y-130940475D02*
X84907200Y-131035713D01*
X84907200Y-131035713D02*
X84859580Y-131083332D01*
X125904761Y-127950057D02*
X125809523Y-127902438D01*
X125809523Y-127902438D02*
X125714285Y-127807200D01*
X125714285Y-127807200D02*
X125571428Y-127664342D01*
X125571428Y-127664342D02*
X125476190Y-127616723D01*
X125476190Y-127616723D02*
X125380952Y-127616723D01*
X125428571Y-127854819D02*
X125333333Y-127807200D01*
X125333333Y-127807200D02*
X125238095Y-127711961D01*
X125238095Y-127711961D02*
X125190476Y-127521485D01*
X125190476Y-127521485D02*
X125190476Y-127188152D01*
X125190476Y-127188152D02*
X125238095Y-126997676D01*
X125238095Y-126997676D02*
X125333333Y-126902438D01*
X125333333Y-126902438D02*
X125428571Y-126854819D01*
X125428571Y-126854819D02*
X125619047Y-126854819D01*
X125619047Y-126854819D02*
X125714285Y-126902438D01*
X125714285Y-126902438D02*
X125809523Y-126997676D01*
X125809523Y-126997676D02*
X125857142Y-127188152D01*
X125857142Y-127188152D02*
X125857142Y-127521485D01*
X125857142Y-127521485D02*
X125809523Y-127711961D01*
X125809523Y-127711961D02*
X125714285Y-127807200D01*
X125714285Y-127807200D02*
X125619047Y-127854819D01*
X125619047Y-127854819D02*
X125428571Y-127854819D01*
X126238095Y-126950057D02*
X126285714Y-126902438D01*
X126285714Y-126902438D02*
X126380952Y-126854819D01*
X126380952Y-126854819D02*
X126619047Y-126854819D01*
X126619047Y-126854819D02*
X126714285Y-126902438D01*
X126714285Y-126902438D02*
X126761904Y-126950057D01*
X126761904Y-126950057D02*
X126809523Y-127045295D01*
X126809523Y-127045295D02*
X126809523Y-127140533D01*
X126809523Y-127140533D02*
X126761904Y-127283390D01*
X126761904Y-127283390D02*
X126190476Y-127854819D01*
X126190476Y-127854819D02*
X126809523Y-127854819D01*
X128933333Y-120454819D02*
X128600000Y-119978628D01*
X128361905Y-120454819D02*
X128361905Y-119454819D01*
X128361905Y-119454819D02*
X128742857Y-119454819D01*
X128742857Y-119454819D02*
X128838095Y-119502438D01*
X128838095Y-119502438D02*
X128885714Y-119550057D01*
X128885714Y-119550057D02*
X128933333Y-119645295D01*
X128933333Y-119645295D02*
X128933333Y-119788152D01*
X128933333Y-119788152D02*
X128885714Y-119883390D01*
X128885714Y-119883390D02*
X128838095Y-119931009D01*
X128838095Y-119931009D02*
X128742857Y-119978628D01*
X128742857Y-119978628D02*
X128361905Y-119978628D01*
X129838095Y-119454819D02*
X129361905Y-119454819D01*
X129361905Y-119454819D02*
X129314286Y-119931009D01*
X129314286Y-119931009D02*
X129361905Y-119883390D01*
X129361905Y-119883390D02*
X129457143Y-119835771D01*
X129457143Y-119835771D02*
X129695238Y-119835771D01*
X129695238Y-119835771D02*
X129790476Y-119883390D01*
X129790476Y-119883390D02*
X129838095Y-119931009D01*
X129838095Y-119931009D02*
X129885714Y-120026247D01*
X129885714Y-120026247D02*
X129885714Y-120264342D01*
X129885714Y-120264342D02*
X129838095Y-120359580D01*
X129838095Y-120359580D02*
X129790476Y-120407200D01*
X129790476Y-120407200D02*
X129695238Y-120454819D01*
X129695238Y-120454819D02*
X129457143Y-120454819D01*
X129457143Y-120454819D02*
X129361905Y-120407200D01*
X129361905Y-120407200D02*
X129314286Y-120359580D01*
X93954819Y-138166666D02*
X93478628Y-138499999D01*
X93954819Y-138738094D02*
X92954819Y-138738094D01*
X92954819Y-138738094D02*
X92954819Y-138357142D01*
X92954819Y-138357142D02*
X93002438Y-138261904D01*
X93002438Y-138261904D02*
X93050057Y-138214285D01*
X93050057Y-138214285D02*
X93145295Y-138166666D01*
X93145295Y-138166666D02*
X93288152Y-138166666D01*
X93288152Y-138166666D02*
X93383390Y-138214285D01*
X93383390Y-138214285D02*
X93431009Y-138261904D01*
X93431009Y-138261904D02*
X93478628Y-138357142D01*
X93478628Y-138357142D02*
X93478628Y-138738094D01*
X92954819Y-137833332D02*
X92954819Y-137166666D01*
X92954819Y-137166666D02*
X93954819Y-137595237D01*
X126259580Y-132705357D02*
X126307200Y-132752976D01*
X126307200Y-132752976D02*
X126354819Y-132895833D01*
X126354819Y-132895833D02*
X126354819Y-132991071D01*
X126354819Y-132991071D02*
X126307200Y-133133928D01*
X126307200Y-133133928D02*
X126211961Y-133229166D01*
X126211961Y-133229166D02*
X126116723Y-133276785D01*
X126116723Y-133276785D02*
X125926247Y-133324404D01*
X125926247Y-133324404D02*
X125783390Y-133324404D01*
X125783390Y-133324404D02*
X125592914Y-133276785D01*
X125592914Y-133276785D02*
X125497676Y-133229166D01*
X125497676Y-133229166D02*
X125402438Y-133133928D01*
X125402438Y-133133928D02*
X125354819Y-132991071D01*
X125354819Y-132991071D02*
X125354819Y-132895833D01*
X125354819Y-132895833D02*
X125402438Y-132752976D01*
X125402438Y-132752976D02*
X125450057Y-132705357D01*
X126354819Y-131752976D02*
X126354819Y-132324404D01*
X126354819Y-132038690D02*
X125354819Y-132038690D01*
X125354819Y-132038690D02*
X125497676Y-132133928D01*
X125497676Y-132133928D02*
X125592914Y-132229166D01*
X125592914Y-132229166D02*
X125640533Y-132324404D01*
X125354819Y-131419642D02*
X125354819Y-130752976D01*
X125354819Y-130752976D02*
X126354819Y-131181547D01*
X90254819Y-138166666D02*
X89778628Y-138499999D01*
X90254819Y-138738094D02*
X89254819Y-138738094D01*
X89254819Y-138738094D02*
X89254819Y-138357142D01*
X89254819Y-138357142D02*
X89302438Y-138261904D01*
X89302438Y-138261904D02*
X89350057Y-138214285D01*
X89350057Y-138214285D02*
X89445295Y-138166666D01*
X89445295Y-138166666D02*
X89588152Y-138166666D01*
X89588152Y-138166666D02*
X89683390Y-138214285D01*
X89683390Y-138214285D02*
X89731009Y-138261904D01*
X89731009Y-138261904D02*
X89778628Y-138357142D01*
X89778628Y-138357142D02*
X89778628Y-138738094D01*
X89254819Y-137309523D02*
X89254819Y-137499999D01*
X89254819Y-137499999D02*
X89302438Y-137595237D01*
X89302438Y-137595237D02*
X89350057Y-137642856D01*
X89350057Y-137642856D02*
X89492914Y-137738094D01*
X89492914Y-137738094D02*
X89683390Y-137785713D01*
X89683390Y-137785713D02*
X90064342Y-137785713D01*
X90064342Y-137785713D02*
X90159580Y-137738094D01*
X90159580Y-137738094D02*
X90207200Y-137690475D01*
X90207200Y-137690475D02*
X90254819Y-137595237D01*
X90254819Y-137595237D02*
X90254819Y-137404761D01*
X90254819Y-137404761D02*
X90207200Y-137309523D01*
X90207200Y-137309523D02*
X90159580Y-137261904D01*
X90159580Y-137261904D02*
X90064342Y-137214285D01*
X90064342Y-137214285D02*
X89826247Y-137214285D01*
X89826247Y-137214285D02*
X89731009Y-137261904D01*
X89731009Y-137261904D02*
X89683390Y-137309523D01*
X89683390Y-137309523D02*
X89635771Y-137404761D01*
X89635771Y-137404761D02*
X89635771Y-137595237D01*
X89635771Y-137595237D02*
X89683390Y-137690475D01*
X89683390Y-137690475D02*
X89731009Y-137738094D01*
X89731009Y-137738094D02*
X89826247Y-137785713D01*
X131104761Y-127950057D02*
X131009523Y-127902438D01*
X131009523Y-127902438D02*
X130914285Y-127807200D01*
X130914285Y-127807200D02*
X130771428Y-127664342D01*
X130771428Y-127664342D02*
X130676190Y-127616723D01*
X130676190Y-127616723D02*
X130580952Y-127616723D01*
X130628571Y-127854819D02*
X130533333Y-127807200D01*
X130533333Y-127807200D02*
X130438095Y-127711961D01*
X130438095Y-127711961D02*
X130390476Y-127521485D01*
X130390476Y-127521485D02*
X130390476Y-127188152D01*
X130390476Y-127188152D02*
X130438095Y-126997676D01*
X130438095Y-126997676D02*
X130533333Y-126902438D01*
X130533333Y-126902438D02*
X130628571Y-126854819D01*
X130628571Y-126854819D02*
X130819047Y-126854819D01*
X130819047Y-126854819D02*
X130914285Y-126902438D01*
X130914285Y-126902438D02*
X131009523Y-126997676D01*
X131009523Y-126997676D02*
X131057142Y-127188152D01*
X131057142Y-127188152D02*
X131057142Y-127521485D01*
X131057142Y-127521485D02*
X131009523Y-127711961D01*
X131009523Y-127711961D02*
X130914285Y-127807200D01*
X130914285Y-127807200D02*
X130819047Y-127854819D01*
X130819047Y-127854819D02*
X130628571Y-127854819D01*
X131390476Y-126854819D02*
X132009523Y-126854819D01*
X132009523Y-126854819D02*
X131676190Y-127235771D01*
X131676190Y-127235771D02*
X131819047Y-127235771D01*
X131819047Y-127235771D02*
X131914285Y-127283390D01*
X131914285Y-127283390D02*
X131961904Y-127331009D01*
X131961904Y-127331009D02*
X132009523Y-127426247D01*
X132009523Y-127426247D02*
X132009523Y-127664342D01*
X132009523Y-127664342D02*
X131961904Y-127759580D01*
X131961904Y-127759580D02*
X131914285Y-127807200D01*
X131914285Y-127807200D02*
X131819047Y-127854819D01*
X131819047Y-127854819D02*
X131533333Y-127854819D01*
X131533333Y-127854819D02*
X131438095Y-127807200D01*
X131438095Y-127807200D02*
X131390476Y-127759580D01*
X88609580Y-131454166D02*
X88657200Y-131501785D01*
X88657200Y-131501785D02*
X88704819Y-131644642D01*
X88704819Y-131644642D02*
X88704819Y-131739880D01*
X88704819Y-131739880D02*
X88657200Y-131882737D01*
X88657200Y-131882737D02*
X88561961Y-131977975D01*
X88561961Y-131977975D02*
X88466723Y-132025594D01*
X88466723Y-132025594D02*
X88276247Y-132073213D01*
X88276247Y-132073213D02*
X88133390Y-132073213D01*
X88133390Y-132073213D02*
X87942914Y-132025594D01*
X87942914Y-132025594D02*
X87847676Y-131977975D01*
X87847676Y-131977975D02*
X87752438Y-131882737D01*
X87752438Y-131882737D02*
X87704819Y-131739880D01*
X87704819Y-131739880D02*
X87704819Y-131644642D01*
X87704819Y-131644642D02*
X87752438Y-131501785D01*
X87752438Y-131501785D02*
X87800057Y-131454166D01*
X87800057Y-131073213D02*
X87752438Y-131025594D01*
X87752438Y-131025594D02*
X87704819Y-130930356D01*
X87704819Y-130930356D02*
X87704819Y-130692261D01*
X87704819Y-130692261D02*
X87752438Y-130597023D01*
X87752438Y-130597023D02*
X87800057Y-130549404D01*
X87800057Y-130549404D02*
X87895295Y-130501785D01*
X87895295Y-130501785D02*
X87990533Y-130501785D01*
X87990533Y-130501785D02*
X88133390Y-130549404D01*
X88133390Y-130549404D02*
X88704819Y-131120832D01*
X88704819Y-131120832D02*
X88704819Y-130501785D01*
X103089580Y-117766666D02*
X103137200Y-117814285D01*
X103137200Y-117814285D02*
X103184819Y-117957142D01*
X103184819Y-117957142D02*
X103184819Y-118052380D01*
X103184819Y-118052380D02*
X103137200Y-118195237D01*
X103137200Y-118195237D02*
X103041961Y-118290475D01*
X103041961Y-118290475D02*
X102946723Y-118338094D01*
X102946723Y-118338094D02*
X102756247Y-118385713D01*
X102756247Y-118385713D02*
X102613390Y-118385713D01*
X102613390Y-118385713D02*
X102422914Y-118338094D01*
X102422914Y-118338094D02*
X102327676Y-118290475D01*
X102327676Y-118290475D02*
X102232438Y-118195237D01*
X102232438Y-118195237D02*
X102184819Y-118052380D01*
X102184819Y-118052380D02*
X102184819Y-117957142D01*
X102184819Y-117957142D02*
X102232438Y-117814285D01*
X102232438Y-117814285D02*
X102280057Y-117766666D01*
X103184819Y-117290475D02*
X103184819Y-117099999D01*
X103184819Y-117099999D02*
X103137200Y-117004761D01*
X103137200Y-117004761D02*
X103089580Y-116957142D01*
X103089580Y-116957142D02*
X102946723Y-116861904D01*
X102946723Y-116861904D02*
X102756247Y-116814285D01*
X102756247Y-116814285D02*
X102375295Y-116814285D01*
X102375295Y-116814285D02*
X102280057Y-116861904D01*
X102280057Y-116861904D02*
X102232438Y-116909523D01*
X102232438Y-116909523D02*
X102184819Y-117004761D01*
X102184819Y-117004761D02*
X102184819Y-117195237D01*
X102184819Y-117195237D02*
X102232438Y-117290475D01*
X102232438Y-117290475D02*
X102280057Y-117338094D01*
X102280057Y-117338094D02*
X102375295Y-117385713D01*
X102375295Y-117385713D02*
X102613390Y-117385713D01*
X102613390Y-117385713D02*
X102708628Y-117338094D01*
X102708628Y-117338094D02*
X102756247Y-117290475D01*
X102756247Y-117290475D02*
X102803866Y-117195237D01*
X102803866Y-117195237D02*
X102803866Y-117004761D01*
X102803866Y-117004761D02*
X102756247Y-116909523D01*
X102756247Y-116909523D02*
X102708628Y-116861904D01*
X102708628Y-116861904D02*
X102613390Y-116814285D01*
X112639580Y-118167857D02*
X112687200Y-118215476D01*
X112687200Y-118215476D02*
X112734819Y-118358333D01*
X112734819Y-118358333D02*
X112734819Y-118453571D01*
X112734819Y-118453571D02*
X112687200Y-118596428D01*
X112687200Y-118596428D02*
X112591961Y-118691666D01*
X112591961Y-118691666D02*
X112496723Y-118739285D01*
X112496723Y-118739285D02*
X112306247Y-118786904D01*
X112306247Y-118786904D02*
X112163390Y-118786904D01*
X112163390Y-118786904D02*
X111972914Y-118739285D01*
X111972914Y-118739285D02*
X111877676Y-118691666D01*
X111877676Y-118691666D02*
X111782438Y-118596428D01*
X111782438Y-118596428D02*
X111734819Y-118453571D01*
X111734819Y-118453571D02*
X111734819Y-118358333D01*
X111734819Y-118358333D02*
X111782438Y-118215476D01*
X111782438Y-118215476D02*
X111830057Y-118167857D01*
X112734819Y-117215476D02*
X112734819Y-117786904D01*
X112734819Y-117501190D02*
X111734819Y-117501190D01*
X111734819Y-117501190D02*
X111877676Y-117596428D01*
X111877676Y-117596428D02*
X111972914Y-117691666D01*
X111972914Y-117691666D02*
X112020533Y-117786904D01*
X111830057Y-116834523D02*
X111782438Y-116786904D01*
X111782438Y-116786904D02*
X111734819Y-116691666D01*
X111734819Y-116691666D02*
X111734819Y-116453571D01*
X111734819Y-116453571D02*
X111782438Y-116358333D01*
X111782438Y-116358333D02*
X111830057Y-116310714D01*
X111830057Y-116310714D02*
X111925295Y-116263095D01*
X111925295Y-116263095D02*
X112020533Y-116263095D01*
X112020533Y-116263095D02*
X112163390Y-116310714D01*
X112163390Y-116310714D02*
X112734819Y-116882142D01*
X112734819Y-116882142D02*
X112734819Y-116263095D01*
D13*
X92032380Y-128504318D02*
X92032380Y-129532413D01*
X92032380Y-129532413D02*
X92092857Y-129653365D01*
X92092857Y-129653365D02*
X92153333Y-129713842D01*
X92153333Y-129713842D02*
X92274285Y-129774318D01*
X92274285Y-129774318D02*
X92516190Y-129774318D01*
X92516190Y-129774318D02*
X92637142Y-129713842D01*
X92637142Y-129713842D02*
X92697619Y-129653365D01*
X92697619Y-129653365D02*
X92758095Y-129532413D01*
X92758095Y-129532413D02*
X92758095Y-128504318D01*
X93302380Y-128625270D02*
X93362856Y-128564794D01*
X93362856Y-128564794D02*
X93483809Y-128504318D01*
X93483809Y-128504318D02*
X93786190Y-128504318D01*
X93786190Y-128504318D02*
X93907142Y-128564794D01*
X93907142Y-128564794D02*
X93967618Y-128625270D01*
X93967618Y-128625270D02*
X94028095Y-128746222D01*
X94028095Y-128746222D02*
X94028095Y-128867175D01*
X94028095Y-128867175D02*
X93967618Y-129048603D01*
X93967618Y-129048603D02*
X93241904Y-129774318D01*
X93241904Y-129774318D02*
X94028095Y-129774318D01*
D14*
%TO.C,C6*%
X84138748Y-113265000D02*
X84661252Y-113265000D01*
X84138748Y-114735000D02*
X84661252Y-114735000D01*
%TO.C,R18*%
X113227064Y-143665000D02*
X112772936Y-143665000D01*
X113227064Y-145135000D02*
X112772936Y-145135000D01*
%TO.C,R4*%
X98015000Y-137772936D02*
X98015000Y-138227064D01*
X99485000Y-137772936D02*
X99485000Y-138227064D01*
%TO.C,C20*%
X108465000Y-137738748D02*
X108465000Y-138261252D01*
X109935000Y-137738748D02*
X109935000Y-138261252D01*
%TO.C,R15*%
X116065000Y-138227064D02*
X116065000Y-137772936D01*
X117535000Y-138227064D02*
X117535000Y-137772936D01*
%TO.C,C1*%
X84661252Y-121065000D02*
X84138748Y-121065000D01*
X84661252Y-122535000D02*
X84138748Y-122535000D01*
D15*
%TO.C,L1*%
X87100000Y-116200000D02*
X87100000Y-116200000D01*
X87200000Y-116200000D02*
X87200000Y-116200000D01*
D10*
X87950000Y-112550000D02*
X95250000Y-112550000D01*
X87950000Y-114600000D02*
X87950000Y-112550000D01*
X87950000Y-117800000D02*
X87950000Y-119850000D01*
X87950000Y-119850000D02*
X95250000Y-119850000D01*
X95250000Y-112550000D02*
X95250000Y-114600000D01*
X95250000Y-119850000D02*
X95250000Y-117800000D01*
D15*
X87100000Y-116200000D02*
G75*
G02*
X87200000Y-116200000I50000J0D01*
G01*
X87200000Y-116200000D02*
G75*
G02*
X87100000Y-116200000I-50000J0D01*
G01*
D14*
%TO.C,R17*%
X113227064Y-140665000D02*
X112772936Y-140665000D01*
X113227064Y-142135000D02*
X112772936Y-142135000D01*
%TO.C,R10*%
X90765000Y-147272936D02*
X90765000Y-147727064D01*
X92235000Y-147272936D02*
X92235000Y-147727064D01*
%TO.C,J2*%
X65390000Y-136945000D02*
X65390000Y-145565000D01*
X65390000Y-145565000D02*
X74810000Y-145565000D01*
X68700000Y-136945000D02*
X68700000Y-145565000D01*
X74810000Y-136945000D02*
X65390000Y-136945000D01*
X74810000Y-136945000D02*
X74810000Y-138455000D01*
X74810000Y-140555000D02*
X74810000Y-141955000D01*
X74810000Y-145565000D02*
X74810000Y-144055000D01*
%TO.C,C14*%
X115265000Y-132261252D02*
X115265000Y-131738748D01*
X116735000Y-132261252D02*
X116735000Y-131738748D01*
%TO.C,C5*%
X101515000Y-137738748D02*
X101515000Y-138261252D01*
X102985000Y-137738748D02*
X102985000Y-138261252D01*
%TO.C,C18*%
X105065000Y-137738748D02*
X105065000Y-138261252D01*
X106535000Y-137738748D02*
X106535000Y-138261252D01*
%TO.C,R2*%
X76365000Y-117772936D02*
X76365000Y-118227064D01*
X77835000Y-117772936D02*
X77835000Y-118227064D01*
%TO.C,Q1*%
X118865000Y-122650000D02*
X118865000Y-125860000D01*
X118865000Y-122650000D02*
X119235000Y-122650000D01*
X122405000Y-122650000D02*
X122035000Y-122650000D01*
X122405000Y-126190000D02*
X122035000Y-126190000D01*
X122405000Y-126190000D02*
X122405000Y-122650000D01*
X119185000Y-126660000D02*
X118705000Y-126180000D01*
X119185000Y-126180000D01*
X119185000Y-126660000D01*
G36*
X119185000Y-126660000D02*
G01*
X118705000Y-126180000D01*
X119185000Y-126180000D01*
X119185000Y-126660000D01*
G37*
%TO.C,C7*%
X97115000Y-117861252D02*
X97115000Y-117338748D01*
X98585000Y-117861252D02*
X98585000Y-117338748D01*
%TO.C,U4*%
X105340000Y-141140000D02*
X105815000Y-141140000D01*
X105340000Y-141615000D02*
X105340000Y-141140000D01*
X105340000Y-143885000D02*
X105340000Y-144360000D01*
X105340000Y-144360000D02*
X105815000Y-144360000D01*
X108085000Y-141140000D02*
X108320000Y-141140000D01*
X108560000Y-141615000D02*
X108560000Y-141440000D01*
X108560000Y-143885000D02*
X108560000Y-144360000D01*
X108560000Y-144360000D02*
X108085000Y-144360000D01*
X108890000Y-141380000D02*
X108560000Y-141140000D01*
X108890000Y-140900000D01*
X108890000Y-141380000D01*
G36*
X108890000Y-141380000D02*
G01*
X108560000Y-141140000D01*
X108890000Y-140900000D01*
X108890000Y-141380000D01*
G37*
%TO.C,C16*%
X122965000Y-132323752D02*
X122965000Y-131801248D01*
X124435000Y-132323752D02*
X124435000Y-131801248D01*
%TO.C,R13*%
X109915000Y-112472936D02*
X109915000Y-112927064D01*
X111385000Y-112472936D02*
X111385000Y-112927064D01*
%TO.C,C8*%
X96265000Y-126776248D02*
X96265000Y-127298752D01*
X97735000Y-126776248D02*
X97735000Y-127298752D01*
%TO.C,R11*%
X94515000Y-147272936D02*
X94515000Y-147727064D01*
X95985000Y-147272936D02*
X95985000Y-147727064D01*
%TO.C,D1*%
X125450000Y-118160000D02*
X128135000Y-118160000D01*
X128135000Y-116240000D02*
X125450000Y-116240000D01*
X128135000Y-118160000D02*
X128135000Y-116240000D01*
%TO.C,R12*%
X106715000Y-112472936D02*
X106715000Y-112927064D01*
X108185000Y-112472936D02*
X108185000Y-112927064D01*
%TO.C,C19*%
X112265000Y-137738748D02*
X112265000Y-138261252D01*
X113735000Y-137738748D02*
X113735000Y-138261252D01*
%TO.C,R14*%
X106772936Y-146665000D02*
X107227064Y-146665000D01*
X106772936Y-148135000D02*
X107227064Y-148135000D01*
%TO.C,C13*%
X112965000Y-117263748D02*
X112965000Y-117786252D01*
X114435000Y-117263748D02*
X114435000Y-117786252D01*
%TO.C,U3*%
X120137500Y-114115000D02*
X117937500Y-114115000D01*
X120137500Y-114115000D02*
X122337500Y-114115000D01*
X120137500Y-120885000D02*
X117937500Y-120885000D01*
X120137500Y-120885000D02*
X122337500Y-120885000D01*
X116277500Y-114575000D02*
X115947500Y-114815000D01*
X115947500Y-114335000D01*
X116277500Y-114575000D01*
G36*
X116277500Y-114575000D02*
G01*
X115947500Y-114815000D01*
X115947500Y-114335000D01*
X116277500Y-114575000D01*
G37*
%TO.C,R1*%
X87265000Y-137772936D02*
X87265000Y-138227064D01*
X88735000Y-137772936D02*
X88735000Y-138227064D01*
%TO.C,R8*%
X94465000Y-142522936D02*
X94465000Y-142977064D01*
X95935000Y-142522936D02*
X95935000Y-142977064D01*
D10*
%TO.C,J1*%
X65450000Y-123800000D02*
X65450000Y-133800000D01*
X65450000Y-133800000D02*
X68850000Y-133800000D01*
X68850000Y-123800000D02*
X65450000Y-123800000D01*
X78450000Y-123800000D02*
X77650000Y-123800000D01*
X78450000Y-127400000D02*
X78450000Y-123800000D01*
X78450000Y-130200000D02*
X78450000Y-133800000D01*
X78450000Y-133800000D02*
X77650000Y-133800000D01*
D15*
X79050000Y-128800000D02*
X79050000Y-128800000D01*
X79150000Y-128800000D02*
X79150000Y-128800000D01*
X79050000Y-128800000D02*
G75*
G02*
X79150000Y-128800000I50000J0D01*
G01*
X79150000Y-128800000D02*
G75*
G02*
X79050000Y-128800000I-50000J0D01*
G01*
D14*
%TO.C,C11*%
X106665000Y-117301248D02*
X106665000Y-117823752D01*
X108135000Y-117301248D02*
X108135000Y-117823752D01*
%TO.C,C15*%
X118965000Y-132323752D02*
X118965000Y-131801248D01*
X120435000Y-132323752D02*
X120435000Y-131801248D01*
%TO.C,U1*%
X84400000Y-116540000D02*
X83600000Y-116540000D01*
X84400000Y-116540000D02*
X85200000Y-116540000D01*
X84400000Y-119660000D02*
X83600000Y-119660000D01*
X84400000Y-119660000D02*
X85200000Y-119660000D01*
X83100000Y-116590000D02*
X82860000Y-116260000D01*
X83340000Y-116260000D01*
X83100000Y-116590000D01*
G36*
X83100000Y-116590000D02*
G01*
X82860000Y-116260000D01*
X83340000Y-116260000D01*
X83100000Y-116590000D01*
G37*
%TO.C,R16*%
X113227064Y-146665000D02*
X112772936Y-146665000D01*
X113227064Y-148135000D02*
X112772936Y-148135000D01*
%TO.C,R9*%
X90765000Y-142522936D02*
X90765000Y-142977064D01*
X92235000Y-142522936D02*
X92235000Y-142977064D01*
%TO.C,R3*%
X79765000Y-118227064D02*
X79765000Y-117772936D01*
X81235000Y-118227064D02*
X81235000Y-117772936D01*
%TO.C,C4*%
X81765000Y-130988748D02*
X81765000Y-131511252D01*
X83235000Y-130988748D02*
X83235000Y-131511252D01*
D10*
%TO.C,L2*%
X100425000Y-131500000D02*
X111575000Y-131500000D01*
X111575000Y-121500000D02*
X100425000Y-121500000D01*
D14*
%TO.C,C10*%
X103465000Y-117363748D02*
X103465000Y-117886252D01*
X104935000Y-117363748D02*
X104935000Y-117886252D01*
%TO.C,C3*%
X85515000Y-130988748D02*
X85515000Y-131511252D01*
X86985000Y-130988748D02*
X86985000Y-131511252D01*
%TO.C,Q2*%
X124255000Y-122630000D02*
X124255000Y-126170000D01*
X124255000Y-122630000D02*
X124625000Y-122630000D01*
X124255000Y-126170000D02*
X124625000Y-126170000D01*
X127795000Y-126170000D02*
X127425000Y-126170000D01*
X127795000Y-126170000D02*
X127795000Y-122960000D01*
X127955000Y-122640000D02*
X127475000Y-122640000D01*
X127475000Y-122160000D01*
X127955000Y-122640000D01*
G36*
X127955000Y-122640000D02*
G01*
X127475000Y-122640000D01*
X127475000Y-122160000D01*
X127955000Y-122640000D01*
G37*
%TO.C,R5*%
X126627064Y-119065000D02*
X126172936Y-119065000D01*
X126627064Y-120535000D02*
X126172936Y-120535000D01*
%TO.C,R7*%
X94465000Y-137772936D02*
X94465000Y-138227064D01*
X95935000Y-137772936D02*
X95935000Y-138227064D01*
%TO.C,C17*%
X126965000Y-132323752D02*
X126965000Y-131801248D01*
X128435000Y-132323752D02*
X128435000Y-131801248D01*
%TO.C,R6*%
X90765000Y-138227064D02*
X90765000Y-137772936D01*
X92235000Y-138227064D02*
X92235000Y-137772936D01*
%TO.C,Q3*%
X129415000Y-122550000D02*
X129415000Y-126090000D01*
X129415000Y-122550000D02*
X129785000Y-122550000D01*
X129415000Y-126090000D02*
X129785000Y-126090000D01*
X132955000Y-126090000D02*
X132585000Y-126090000D01*
X132955000Y-126090000D02*
X132955000Y-122880000D01*
X133115000Y-122560000D02*
X132635000Y-122560000D01*
X132635000Y-122080000D01*
X133115000Y-122560000D01*
G36*
X133115000Y-122560000D02*
G01*
X132635000Y-122560000D01*
X132635000Y-122080000D01*
X133115000Y-122560000D01*
G37*
%TO.C,C2*%
X89265000Y-130988748D02*
X89265000Y-131511252D01*
X90735000Y-130988748D02*
X90735000Y-131511252D01*
%TO.C,C9*%
X100315000Y-117338748D02*
X100315000Y-117861252D01*
X101785000Y-117338748D02*
X101785000Y-117861252D01*
%TO.C,J3*%
X135270000Y-110150000D02*
X136600000Y-110150000D01*
X135270000Y-111480000D02*
X135270000Y-110150000D01*
X135270000Y-112750000D02*
X135270000Y-122970000D01*
X135270000Y-112750000D02*
X137930000Y-112750000D01*
X135270000Y-122970000D02*
X137930000Y-122970000D01*
X137930000Y-112750000D02*
X137930000Y-122970000D01*
%TO.C,C12*%
X109865000Y-117263748D02*
X109865000Y-117786252D01*
X111335000Y-117263748D02*
X111335000Y-117786252D01*
D15*
%TO.C,U2*%
X94050000Y-130460000D02*
X94300000Y-130460000D01*
X94050000Y-131460000D02*
X94050000Y-131710000D01*
X94050000Y-133460000D02*
X94050000Y-133210000D01*
X94150000Y-133460000D02*
X94050000Y-133460000D01*
X94300000Y-133460000D02*
X94150000Y-133460000D01*
X94800000Y-133960000D02*
X94800000Y-133960000D01*
X94800000Y-134060000D02*
X94800000Y-134060000D01*
X96800000Y-133460000D02*
X97050000Y-133460000D01*
X97050000Y-130460000D02*
X96400000Y-130460000D01*
X97050000Y-132460000D02*
X97050000Y-131960000D01*
X97050000Y-133460000D02*
X97050000Y-133210000D01*
X94800000Y-133960000D02*
G75*
G02*
X94800000Y-134060000I0J-50000D01*
G01*
X94800000Y-134060000D02*
G75*
G02*
X94800000Y-133960000I0J50000D01*
G01*
%TO.C,J4*%
X134075000Y-135950000D02*
X134075000Y-135950000D01*
X134075000Y-136050000D02*
X134075000Y-136050000D01*
D10*
X134475000Y-142050000D02*
X134475000Y-143180000D01*
X134475000Y-143180000D02*
X134875000Y-143180000D01*
X137275000Y-134520000D02*
X136800000Y-134520000D01*
X137275000Y-135650000D02*
X137275000Y-134520000D01*
D15*
X134075000Y-135950000D02*
G75*
G02*
X134075000Y-136050000I0J-50000D01*
G01*
X134075000Y-136050000D02*
G75*
G02*
X134075000Y-135950000I0J50000D01*
G01*
%TD*%
M02*
