%TF.GenerationSoftware,KiCad,Pcbnew,9.0.0*%
%TF.CreationDate,2025-06-04T14:10:33+02:00*%
%TF.ProjectId,usb_c_pd_source,7573625f-635f-4706-945f-736f75726365,rev?*%
%TF.SameCoordinates,Original*%
%TF.FileFunction,Copper,L2,Bot*%
%TF.FilePolarity,Positive*%
%FSLAX46Y46*%
G04 Gerber Fmt 4.6, Leading zero omitted, Abs format (unit mm)*
G04 Created by KiCad (PCBNEW 9.0.0) date 2025-06-04 14:10:33*
%MOMM*%
%LPD*%
G01*
G04 APERTURE LIST*
G04 Aperture macros list*
%AMRoundRect*
0 Rectangle with rounded corners*
0 $1 Rounding radius*
0 $2 $3 $4 $5 $6 $7 $8 $9 X,Y pos of 4 corners*
0 Add a 4 corners polygon primitive as box body*
4,1,4,$2,$3,$4,$5,$6,$7,$8,$9,$2,$3,0*
0 Add four circle primitives for the rounded corners*
1,1,$1+$1,$2,$3*
1,1,$1+$1,$4,$5*
1,1,$1+$1,$6,$7*
1,1,$1+$1,$8,$9*
0 Add four rect primitives between the rounded corners*
20,1,$1+$1,$2,$3,$4,$5,0*
20,1,$1+$1,$4,$5,$6,$7,0*
20,1,$1+$1,$6,$7,$8,$9,0*
20,1,$1+$1,$8,$9,$2,$3,0*%
G04 Aperture macros list end*
%TA.AperFunction,ComponentPad*%
%ADD10RoundRect,0.250000X-1.550000X0.650000X-1.550000X-0.650000X1.550000X-0.650000X1.550000X0.650000X0*%
%TD*%
%TA.AperFunction,ComponentPad*%
%ADD11O,3.600000X1.800000*%
%TD*%
%TA.AperFunction,ComponentPad*%
%ADD12R,2.250000X2.250000*%
%TD*%
%TA.AperFunction,ComponentPad*%
%ADD13C,3.225000*%
%TD*%
%TA.AperFunction,ComponentPad*%
%ADD14O,3.500000X4.650000*%
%TD*%
%TA.AperFunction,ComponentPad*%
%ADD15R,1.700000X1.700000*%
%TD*%
%TA.AperFunction,ComponentPad*%
%ADD16O,1.700000X1.700000*%
%TD*%
%TA.AperFunction,ComponentPad*%
%ADD17O,0.800000X1.100000*%
%TD*%
%TA.AperFunction,ComponentPad*%
%ADD18O,1.000000X2.000000*%
%TD*%
%TA.AperFunction,ComponentPad*%
%ADD19O,1.000000X2.500000*%
%TD*%
%TA.AperFunction,ViaPad*%
%ADD20C,0.600000*%
%TD*%
%TA.AperFunction,Conductor*%
%ADD21C,0.250000*%
%TD*%
G04 APERTURE END LIST*
D10*
%TO.P,J2,1,Pin_1*%
%TO.N,/PWR_IN*%
X73500000Y-139505000D03*
D11*
%TO.P,J2,2,Pin_2*%
%TO.N,GND*%
X73500000Y-143005000D03*
%TD*%
D12*
%TO.P,J1,1*%
%TO.N,/PWR_IN*%
X77450000Y-128800000D03*
D13*
%TO.P,J1,2*%
%TO.N,GND*%
X75650000Y-124000000D03*
X70950000Y-124000000D03*
D14*
X71450000Y-128800000D03*
D13*
X75650000Y-133600000D03*
X70950000Y-133600000D03*
%TD*%
D15*
%TO.P,J3,1,Pin_1*%
%TO.N,+3V3*%
X136600000Y-111480000D03*
D16*
%TO.P,J3,2,Pin_2*%
%TO.N,/SW_CLK*%
X136600000Y-114020000D03*
%TO.P,J3,3,Pin_3*%
%TO.N,GND*%
X136600000Y-116560000D03*
%TO.P,J3,4,Pin_4*%
%TO.N,/SWD_IO*%
X136600000Y-119100000D03*
%TO.P,J3,5,Pin_5*%
%TO.N,/NRST*%
X136600000Y-121640000D03*
%TD*%
D17*
%TO.P,J4,S1,SHIELD*%
%TO.N,GND*%
X135875000Y-142860000D03*
D18*
X133075000Y-140600000D03*
D19*
X138675000Y-138850000D03*
D18*
X133075000Y-137100000D03*
D17*
X135875000Y-134840000D03*
%TD*%
D20*
%TO.N,+3V3*%
X97100000Y-136300000D03*
X94750000Y-116200000D03*
X77100000Y-115600000D03*
%TO.N,/BUCK_OUT*%
X122400000Y-134500000D03*
X91500000Y-140300000D03*
X103700000Y-140300000D03*
X122900000Y-129700000D03*
%TO.N,Net-(D1-A)*%
X118650000Y-118529442D03*
X124350000Y-117200000D03*
%TO.N,/NRST*%
X120850000Y-121100000D03*
X125400000Y-121100000D03*
%TO.N,Net-(Q1-D)*%
X118000000Y-123000000D03*
X118000000Y-134500000D03*
%TO.N,Net-(Q1-G)*%
X121478137Y-134500000D03*
X121600000Y-127000000D03*
%TO.N,Net-(Q2-G)*%
X129160000Y-124220000D03*
X119100000Y-140100000D03*
X123560000Y-122920000D03*
%TO.N,/CMN_SRC*%
X130700000Y-121900000D03*
X119100000Y-141400000D03*
%TO.N,Net-(U4-SEL_PDO5)*%
X107450000Y-142950000D03*
X97000000Y-142000000D03*
%TO.N,Net-(U4-SEL_PDO4)*%
X106450000Y-142950000D03*
X97000000Y-143750000D03*
%TO.N,/CC1*%
X132400000Y-138900000D03*
X107700000Y-140300000D03*
%TO.N,/CC2*%
X138700000Y-141100000D03*
X106675972Y-140284382D03*
%TO.N,/SDA*%
X115350000Y-115400000D03*
X104600000Y-140300000D03*
X112350000Y-112700000D03*
%TO.N,/SCL*%
X115350000Y-114500000D03*
X112350000Y-111700000D03*
X105600000Y-140300000D03*
%TO.N,GND*%
X89100000Y-134500000D03*
X110250000Y-120000000D03*
X125000000Y-135300000D03*
X113550000Y-120000000D03*
X127400000Y-134500000D03*
X82700000Y-133700000D03*
X110300000Y-133600000D03*
X128200000Y-134500000D03*
X83500000Y-133700000D03*
X107850000Y-120000000D03*
X86700000Y-133700000D03*
X83500000Y-134500000D03*
X126600000Y-134500000D03*
X126600000Y-135300000D03*
X128200000Y-135300000D03*
X96150000Y-132350000D03*
X111850000Y-120000000D03*
X90700000Y-134500000D03*
X104650000Y-120000000D03*
X112650000Y-120000000D03*
X127400000Y-135300000D03*
X112800000Y-134400000D03*
X118900000Y-134500000D03*
X111050000Y-120000000D03*
X116300000Y-134500000D03*
X89900000Y-134500000D03*
X93700000Y-132150000D03*
X98150000Y-120000000D03*
X111100000Y-133600000D03*
X92900000Y-132150000D03*
X123400000Y-135300000D03*
X82700000Y-134500000D03*
X84300000Y-133700000D03*
X111100000Y-132800000D03*
X94450000Y-132150000D03*
X114450000Y-120000000D03*
X125800000Y-135300000D03*
X103850000Y-120000000D03*
X109500000Y-134400000D03*
X109500000Y-132800000D03*
X88300000Y-133700000D03*
X87500000Y-133700000D03*
X109500000Y-133600000D03*
X108650000Y-120000000D03*
X105450000Y-120000000D03*
X87600000Y-140300000D03*
X92100000Y-132150000D03*
X88300000Y-134500000D03*
X95250000Y-132150000D03*
X100550000Y-120000000D03*
X103600000Y-142175000D03*
X89900000Y-133700000D03*
X101350000Y-120000000D03*
X85100000Y-133700000D03*
X120500000Y-134500000D03*
X84300000Y-134500000D03*
X86700000Y-134500000D03*
X125000000Y-134500000D03*
X90700000Y-133700000D03*
X110300000Y-132800000D03*
X112000000Y-132800000D03*
X81900000Y-134500000D03*
X87500000Y-134500000D03*
X88400000Y-140300000D03*
X125800000Y-134500000D03*
X115500000Y-134500000D03*
X97350000Y-120000000D03*
X110300000Y-134400000D03*
X111100000Y-134400000D03*
X109450000Y-120000000D03*
X116300000Y-135300000D03*
X85900000Y-133700000D03*
X106250000Y-120000000D03*
X85100000Y-134500000D03*
X115500000Y-135300000D03*
X81900000Y-133700000D03*
X120500000Y-135300000D03*
X123400000Y-134500000D03*
X119700000Y-135300000D03*
X89100000Y-133700000D03*
X102250000Y-120000000D03*
X124200000Y-135300000D03*
X85900000Y-134500000D03*
X118900000Y-135300000D03*
X98950000Y-120000000D03*
X112800000Y-133600000D03*
X117100000Y-134500000D03*
X99750000Y-120000000D03*
X119700000Y-134500000D03*
X117100000Y-135300000D03*
X124200000Y-134500000D03*
X103050000Y-120000000D03*
X112000000Y-134400000D03*
X107050000Y-120000000D03*
X112800000Y-132800000D03*
X112000000Y-133600000D03*
%TD*%
D21*
%TO.N,+3V3*%
X94150000Y-115600000D02*
X77100000Y-115600000D01*
X97100000Y-122000000D02*
X94750000Y-119650000D01*
X97100000Y-136300000D02*
X97100000Y-122000000D01*
X94750000Y-119650000D02*
X94750000Y-116200000D01*
X94750000Y-116200000D02*
X94150000Y-115600000D01*
%TO.N,/BUCK_OUT*%
X122103137Y-130496863D02*
X122900000Y-129700000D01*
X122103137Y-133700000D02*
X122103137Y-130496863D01*
X122103137Y-133700000D02*
X122103137Y-134203137D01*
X122103137Y-134203137D02*
X122400000Y-134500000D01*
X91500000Y-140300000D02*
X103700000Y-140300000D01*
%TO.N,Net-(D1-A)*%
X118650000Y-118529442D02*
X119120558Y-118529442D01*
X120450000Y-117200000D02*
X124350000Y-117200000D01*
X119120558Y-118529442D02*
X120450000Y-117200000D01*
%TO.N,/NRST*%
X125400000Y-121100000D02*
X120850000Y-121100000D01*
%TO.N,Net-(Q1-D)*%
X118000000Y-134500000D02*
X118000000Y-134600000D01*
X118000000Y-123000000D02*
X118000000Y-134500000D01*
%TO.N,Net-(Q1-G)*%
X121478137Y-134321863D02*
X121600000Y-134200000D01*
X121478137Y-134500000D02*
X121478137Y-134321863D01*
X121600000Y-134200000D02*
X121600000Y-127000000D01*
X121600000Y-127000000D02*
X121700000Y-127100000D01*
%TO.N,Net-(Q2-G)*%
X119100000Y-140100000D02*
X127800000Y-140100000D01*
X129160000Y-138740000D02*
X129160000Y-124220000D01*
X123560000Y-123920000D02*
X123860000Y-124220000D01*
X127800000Y-140100000D02*
X129160000Y-138740000D01*
X123560000Y-122920000D02*
X123560000Y-123920000D01*
X123860000Y-124220000D02*
X129160000Y-124220000D01*
%TO.N,/CMN_SRC*%
X128800000Y-141400000D02*
X130700000Y-139500000D01*
X119100000Y-141400000D02*
X128800000Y-141400000D01*
X130700000Y-139500000D02*
X130700000Y-121900000D01*
%TO.N,Net-(U4-SEL_PDO5)*%
X97500000Y-141500000D02*
X106550000Y-141500000D01*
X106550000Y-141500000D02*
X107450000Y-142400000D01*
X97000000Y-142000000D02*
X97500000Y-141500000D01*
X107450000Y-142400000D02*
X107450000Y-142950000D01*
%TO.N,Net-(U4-SEL_PDO4)*%
X106300000Y-142800000D02*
X106450000Y-142950000D01*
X97000000Y-143750000D02*
X97950000Y-142800000D01*
X97950000Y-142800000D02*
X106300000Y-142800000D01*
X106400000Y-143000000D02*
X106450000Y-142950000D01*
%TO.N,/CC1*%
X109900000Y-142800000D02*
X107700000Y-140600000D01*
X107700000Y-140600000D02*
X107700000Y-140300000D01*
X131631500Y-139668500D02*
X131631500Y-140368500D01*
X132400000Y-138900000D02*
X131631500Y-139668500D01*
X129200000Y-142800000D02*
X109900000Y-142800000D01*
X131631500Y-140368500D02*
X129200000Y-142800000D01*
%TO.N,/CC2*%
X106700000Y-140308410D02*
X106700000Y-140900000D01*
X106675972Y-140284382D02*
X106700000Y-140308410D01*
X109800000Y-144000000D02*
X137900000Y-144000000D01*
X138700000Y-143200000D02*
X138700000Y-141100000D01*
X137900000Y-144000000D02*
X138700000Y-143200000D01*
X106700000Y-140900000D02*
X109800000Y-144000000D01*
%TO.N,/SDA*%
X104600000Y-122700000D02*
X105800000Y-121500000D01*
X114450000Y-115000000D02*
X114850000Y-115400000D01*
X114450000Y-113600000D02*
X114450000Y-115000000D01*
X104600000Y-140300000D02*
X104600000Y-122700000D01*
X105800000Y-121500000D02*
X114150000Y-121500000D01*
X115350000Y-120300000D02*
X115350000Y-115400000D01*
X113650000Y-112800000D02*
X114450000Y-113600000D01*
X114150000Y-121500000D02*
X115350000Y-120300000D01*
X112350000Y-112800000D02*
X113650000Y-112800000D01*
X112350000Y-112700000D02*
X112450000Y-112800000D01*
X114850000Y-115400000D02*
X115350000Y-115400000D01*
%TO.N,/SCL*%
X106200000Y-122600000D02*
X114550000Y-122600000D01*
X116550000Y-115000000D02*
X116050000Y-114500000D01*
X115350000Y-112400000D02*
X115350000Y-114500000D01*
X112250000Y-111700000D02*
X114650000Y-111700000D01*
X114550000Y-122600000D02*
X115050000Y-122100000D01*
X116550000Y-120600000D02*
X116550000Y-115000000D01*
X105725000Y-140300000D02*
X105600000Y-140175000D01*
X105600000Y-140175000D02*
X105600000Y-123200000D01*
X114650000Y-111700000D02*
X115350000Y-112400000D01*
X105600000Y-123200000D02*
X106200000Y-122600000D01*
X116050000Y-114500000D02*
X115350000Y-114500000D01*
X115050000Y-122100000D02*
X116550000Y-120600000D01*
%TD*%
%TA.AperFunction,Conductor*%
%TO.N,GND*%
G36*
X139858691Y-109469407D02*
G01*
X139894655Y-109518907D01*
X139899500Y-109549500D01*
X139899500Y-150750500D01*
X139880593Y-150808691D01*
X139831093Y-150844655D01*
X139800500Y-150849500D01*
X65299500Y-150849500D01*
X65241309Y-150830593D01*
X65205345Y-150781093D01*
X65200500Y-150750500D01*
X65200500Y-138807128D01*
X71449500Y-138807128D01*
X71449500Y-140202866D01*
X71449501Y-140202870D01*
X71455908Y-140262480D01*
X71455909Y-140262485D01*
X71506202Y-140397329D01*
X71592087Y-140512056D01*
X71592454Y-140512546D01*
X71592457Y-140512548D01*
X71592458Y-140512549D01*
X71707670Y-140598797D01*
X71842511Y-140649089D01*
X71842512Y-140649089D01*
X71842517Y-140649091D01*
X71902127Y-140655500D01*
X75097872Y-140655499D01*
X75157483Y-140649091D01*
X75254291Y-140612984D01*
X75292329Y-140598797D01*
X75292329Y-140598796D01*
X75292331Y-140598796D01*
X75407546Y-140512546D01*
X75493796Y-140397331D01*
X75544091Y-140262483D01*
X75547850Y-140227525D01*
X90949500Y-140227525D01*
X90949500Y-140372475D01*
X90961681Y-140417933D01*
X90987017Y-140512489D01*
X91059487Y-140638010D01*
X91059489Y-140638012D01*
X91059491Y-140638015D01*
X91161985Y-140740509D01*
X91161987Y-140740510D01*
X91161989Y-140740512D01*
X91287511Y-140812982D01*
X91287512Y-140812982D01*
X91287515Y-140812984D01*
X91427525Y-140850500D01*
X91427526Y-140850500D01*
X91572474Y-140850500D01*
X91572475Y-140850500D01*
X91712485Y-140812984D01*
X91712487Y-140812982D01*
X91712489Y-140812982D01*
X91838010Y-140740512D01*
X91838010Y-140740511D01*
X91838015Y-140740509D01*
X91856022Y-140722501D01*
X91874029Y-140704496D01*
X91928546Y-140676719D01*
X91944032Y-140675500D01*
X103255968Y-140675500D01*
X103314159Y-140694407D01*
X103325971Y-140704496D01*
X103361983Y-140740507D01*
X103361989Y-140740512D01*
X103487511Y-140812982D01*
X103487512Y-140812982D01*
X103487515Y-140812984D01*
X103627525Y-140850500D01*
X103627526Y-140850500D01*
X103772474Y-140850500D01*
X103772475Y-140850500D01*
X103912485Y-140812984D01*
X103912487Y-140812982D01*
X103912489Y-140812982D01*
X104038010Y-140740512D01*
X104038010Y-140740511D01*
X104038015Y-140740509D01*
X104079998Y-140698525D01*
X104134513Y-140670750D01*
X104194945Y-140680321D01*
X104220000Y-140698524D01*
X104261985Y-140740509D01*
X104261987Y-140740510D01*
X104261989Y-140740512D01*
X104387511Y-140812982D01*
X104387512Y-140812982D01*
X104387515Y-140812984D01*
X104527525Y-140850500D01*
X104527526Y-140850500D01*
X104672474Y-140850500D01*
X104672475Y-140850500D01*
X104812485Y-140812984D01*
X104812487Y-140812982D01*
X104812489Y-140812982D01*
X104938010Y-140740512D01*
X104938010Y-140740511D01*
X104938015Y-140740509D01*
X105029998Y-140648525D01*
X105084513Y-140620750D01*
X105144945Y-140630321D01*
X105170000Y-140648524D01*
X105261985Y-140740509D01*
X105261987Y-140740510D01*
X105261989Y-140740512D01*
X105387511Y-140812982D01*
X105387512Y-140812982D01*
X105387515Y-140812984D01*
X105527525Y-140850500D01*
X105527526Y-140850500D01*
X105672474Y-140850500D01*
X105672475Y-140850500D01*
X105812485Y-140812984D01*
X105812487Y-140812982D01*
X105812489Y-140812982D01*
X105938010Y-140740512D01*
X105938010Y-140740511D01*
X105938015Y-140740509D01*
X106040509Y-140638015D01*
X106056757Y-140609871D01*
X106102226Y-140568931D01*
X106163076Y-140562534D01*
X106216064Y-140593126D01*
X106216378Y-140593476D01*
X106223147Y-140601066D01*
X106235463Y-140622397D01*
X106297503Y-140684437D01*
X106299384Y-140686546D01*
X106310612Y-140712090D01*
X106323281Y-140736954D01*
X106323660Y-140741772D01*
X106324006Y-140742559D01*
X106323797Y-140743517D01*
X106324500Y-140752441D01*
X106324500Y-140850564D01*
X106324500Y-140949436D01*
X106331484Y-140975499D01*
X106338016Y-140999877D01*
X106336584Y-141027194D01*
X106334814Y-141060978D01*
X106334812Y-141060979D01*
X106334813Y-141060979D01*
X106296308Y-141108529D01*
X106296283Y-141108535D01*
X106242389Y-141124500D01*
X97549436Y-141124500D01*
X97450564Y-141124500D01*
X97386896Y-141141559D01*
X97355062Y-141150089D01*
X97269434Y-141199527D01*
X97048457Y-141420504D01*
X96993941Y-141448281D01*
X96978454Y-141449500D01*
X96927525Y-141449500D01*
X96865790Y-141466041D01*
X96787510Y-141487017D01*
X96661989Y-141559487D01*
X96559487Y-141661989D01*
X96487017Y-141787510D01*
X96458374Y-141894407D01*
X96449500Y-141927525D01*
X96449500Y-142072475D01*
X96469474Y-142147017D01*
X96487017Y-142212489D01*
X96559487Y-142338010D01*
X96559489Y-142338012D01*
X96559491Y-142338015D01*
X96661985Y-142440509D01*
X96661987Y-142440510D01*
X96661989Y-142440512D01*
X96787511Y-142512982D01*
X96787512Y-142512982D01*
X96787515Y-142512984D01*
X96927525Y-142550500D01*
X96927526Y-142550500D01*
X97072474Y-142550500D01*
X97072475Y-142550500D01*
X97212485Y-142512984D01*
X97212487Y-142512982D01*
X97212489Y-142512982D01*
X97338010Y-142440512D01*
X97338010Y-142440511D01*
X97338015Y-142440509D01*
X97440509Y-142338015D01*
X97508939Y-142219491D01*
X97512982Y-142212489D01*
X97512982Y-142212487D01*
X97512984Y-142212485D01*
X97550500Y-142072475D01*
X97550500Y-142021544D01*
X97552968Y-142013946D01*
X97551719Y-142006056D01*
X97562242Y-141985402D01*
X97569407Y-141963353D01*
X97579497Y-141951540D01*
X97626542Y-141904496D01*
X97681059Y-141876719D01*
X97696545Y-141875500D01*
X106353455Y-141875500D01*
X106411646Y-141894407D01*
X106423459Y-141904496D01*
X106825167Y-142306204D01*
X106852944Y-142360721D01*
X106843373Y-142421153D01*
X106800108Y-142464418D01*
X106739676Y-142473989D01*
X106705663Y-142461944D01*
X106662489Y-142437017D01*
X106603187Y-142421127D01*
X106522475Y-142399500D01*
X106377525Y-142399500D01*
X106299617Y-142420375D01*
X106296813Y-142421127D01*
X106271190Y-142424500D01*
X97999436Y-142424500D01*
X97900564Y-142424500D01*
X97853855Y-142437016D01*
X97853854Y-142437015D01*
X97805065Y-142450088D01*
X97805057Y-142450092D01*
X97762250Y-142474805D01*
X97762251Y-142474806D01*
X97719438Y-142499524D01*
X97048459Y-143170504D01*
X96993942Y-143198281D01*
X96978455Y-143199500D01*
X96927525Y-143199500D01*
X96886473Y-143210500D01*
X96787510Y-143237017D01*
X96661989Y-143309487D01*
X96559487Y-143411989D01*
X96487017Y-143537510D01*
X96449500Y-143677525D01*
X96449500Y-143822474D01*
X96487017Y-143962489D01*
X96559487Y-144088010D01*
X96559489Y-144088012D01*
X96559491Y-144088015D01*
X96661985Y-144190509D01*
X96661987Y-144190510D01*
X96661989Y-144190512D01*
X96787511Y-144262982D01*
X96787512Y-144262982D01*
X96787515Y-144262984D01*
X96927525Y-144300500D01*
X96927526Y-144300500D01*
X97072474Y-144300500D01*
X97072475Y-144300500D01*
X97212485Y-144262984D01*
X97212487Y-144262982D01*
X97212489Y-144262982D01*
X97338010Y-144190512D01*
X97338010Y-144190511D01*
X97338015Y-144190509D01*
X97440509Y-144088015D01*
X97512984Y-143962485D01*
X97550500Y-143822475D01*
X97550500Y-143771545D01*
X97569407Y-143713354D01*
X97579496Y-143701541D01*
X98076542Y-143204496D01*
X98131059Y-143176719D01*
X98146546Y-143175500D01*
X105887373Y-143175500D01*
X105945564Y-143194407D01*
X105973107Y-143224996D01*
X106009491Y-143288015D01*
X106111985Y-143390509D01*
X106111987Y-143390510D01*
X106111989Y-143390512D01*
X106237511Y-143462982D01*
X106237512Y-143462982D01*
X106237515Y-143462984D01*
X106377525Y-143500500D01*
X106377526Y-143500500D01*
X106522474Y-143500500D01*
X106522475Y-143500500D01*
X106662485Y-143462984D01*
X106662487Y-143462982D01*
X106662489Y-143462982D01*
X106788010Y-143390512D01*
X106788010Y-143390511D01*
X106788015Y-143390509D01*
X106879998Y-143298525D01*
X106934513Y-143270750D01*
X106994945Y-143280321D01*
X107020000Y-143298524D01*
X107111985Y-143390509D01*
X107111987Y-143390510D01*
X107111989Y-143390512D01*
X107237511Y-143462982D01*
X107237512Y-143462982D01*
X107237515Y-143462984D01*
X107377525Y-143500500D01*
X107377526Y-143500500D01*
X107522474Y-143500500D01*
X107522475Y-143500500D01*
X107662485Y-143462984D01*
X107662487Y-143462982D01*
X107662489Y-143462982D01*
X107788010Y-143390512D01*
X107788010Y-143390511D01*
X107788015Y-143390509D01*
X107890509Y-143288015D01*
X107903589Y-143265360D01*
X107962982Y-143162489D01*
X107962982Y-143162487D01*
X107962984Y-143162485D01*
X108000500Y-143022475D01*
X108000500Y-142970545D01*
X108019407Y-142912354D01*
X108068907Y-142876390D01*
X108130093Y-142876390D01*
X108169504Y-142900541D01*
X109499525Y-144230562D01*
X109499524Y-144230562D01*
X109569438Y-144300475D01*
X109655058Y-144349908D01*
X109655062Y-144349910D01*
X109702812Y-144362705D01*
X109702813Y-144362705D01*
X109750564Y-144375500D01*
X109750565Y-144375500D01*
X137949436Y-144375500D01*
X137997186Y-144362705D01*
X137997187Y-144362705D01*
X138044934Y-144349911D01*
X138044933Y-144349911D01*
X138044938Y-144349910D01*
X138130562Y-144300475D01*
X138200475Y-144230562D01*
X138200474Y-144230562D01*
X139000475Y-143430563D01*
X139025192Y-143387750D01*
X139049910Y-143344938D01*
X139069861Y-143270480D01*
X139075500Y-143249436D01*
X139075500Y-143150564D01*
X139075500Y-141544031D01*
X139094407Y-141485840D01*
X139104490Y-141474033D01*
X139140509Y-141438015D01*
X139212984Y-141312485D01*
X139250500Y-141172475D01*
X139250500Y-141027525D01*
X139212984Y-140887515D01*
X139212982Y-140887512D01*
X139212982Y-140887510D01*
X139140512Y-140761989D01*
X139140510Y-140761987D01*
X139140509Y-140761985D01*
X139038015Y-140659491D01*
X139038012Y-140659489D01*
X139038010Y-140659487D01*
X138912488Y-140587017D01*
X138912489Y-140587017D01*
X138882896Y-140579087D01*
X138772475Y-140549500D01*
X138627525Y-140549500D01*
X138601319Y-140556522D01*
X138487510Y-140587017D01*
X138361989Y-140659487D01*
X138259487Y-140761989D01*
X138187017Y-140887510D01*
X138149500Y-141027525D01*
X138149500Y-141172474D01*
X138187017Y-141312489D01*
X138259487Y-141438010D01*
X138259489Y-141438012D01*
X138259491Y-141438015D01*
X138295505Y-141474029D01*
X138323281Y-141528544D01*
X138324500Y-141544031D01*
X138324500Y-143003454D01*
X138305593Y-143061645D01*
X138295504Y-143073458D01*
X137773459Y-143595504D01*
X137718942Y-143623281D01*
X137703455Y-143624500D01*
X109996545Y-143624500D01*
X109938354Y-143605593D01*
X109926541Y-143595504D01*
X109638231Y-143307194D01*
X109610454Y-143252677D01*
X109620025Y-143192245D01*
X109663290Y-143148980D01*
X109723722Y-143139409D01*
X109748718Y-143148260D01*
X109749064Y-143147426D01*
X109755062Y-143149910D01*
X109801991Y-143162485D01*
X109801992Y-143162485D01*
X109850564Y-143175500D01*
X109850565Y-143175500D01*
X129249435Y-143175500D01*
X129249436Y-143175500D01*
X129298008Y-143162485D01*
X129344938Y-143149910D01*
X129430562Y-143100475D01*
X129500475Y-143030562D01*
X129943512Y-142587525D01*
X136274500Y-142587525D01*
X136274500Y-142732475D01*
X136304087Y-142842896D01*
X136312017Y-142872489D01*
X136384487Y-142998010D01*
X136384489Y-142998012D01*
X136384491Y-142998015D01*
X136486985Y-143100509D01*
X136486987Y-143100510D01*
X136486989Y-143100512D01*
X136612511Y-143172982D01*
X136612512Y-143172982D01*
X136612515Y-143172984D01*
X136752525Y-143210500D01*
X136752526Y-143210500D01*
X136897474Y-143210500D01*
X136897475Y-143210500D01*
X137037485Y-143172984D01*
X137037487Y-143172982D01*
X137037489Y-143172982D01*
X137163010Y-143100512D01*
X137163010Y-143100511D01*
X137163015Y-143100509D01*
X137265509Y-142998015D01*
X137335074Y-142877525D01*
X137337982Y-142872489D01*
X137337982Y-142872487D01*
X137337984Y-142872485D01*
X137375500Y-142732475D01*
X137375500Y-142587525D01*
X137337984Y-142447515D01*
X137337982Y-142447512D01*
X137337982Y-142447510D01*
X137265512Y-142321989D01*
X137265510Y-142321987D01*
X137265509Y-142321985D01*
X137163015Y-142219491D01*
X137163012Y-142219489D01*
X137163010Y-142219487D01*
X137037488Y-142147017D01*
X137037489Y-142147017D01*
X137007896Y-142139087D01*
X136897475Y-142109500D01*
X136752525Y-142109500D01*
X136690790Y-142126041D01*
X136612510Y-142147017D01*
X136486989Y-142219487D01*
X136384487Y-142321989D01*
X136312017Y-142447510D01*
X136304703Y-142474806D01*
X136274500Y-142587525D01*
X129943512Y-142587525D01*
X131931974Y-140599063D01*
X131931975Y-140599062D01*
X131981410Y-140513438D01*
X132007000Y-140417935D01*
X132007000Y-139865045D01*
X132025907Y-139806854D01*
X132035996Y-139795041D01*
X132351541Y-139479496D01*
X132406058Y-139451719D01*
X132421545Y-139450500D01*
X132472474Y-139450500D01*
X132472475Y-139450500D01*
X132612485Y-139412984D01*
X132612487Y-139412982D01*
X132612489Y-139412982D01*
X132738010Y-139340512D01*
X132738010Y-139340511D01*
X132738015Y-139340509D01*
X132840509Y-139238015D01*
X132912984Y-139112485D01*
X132950500Y-138972475D01*
X132950500Y-138827525D01*
X132912984Y-138687515D01*
X132912982Y-138687512D01*
X132912982Y-138687510D01*
X132840512Y-138561989D01*
X132840510Y-138561987D01*
X132840509Y-138561985D01*
X132738015Y-138459491D01*
X132738012Y-138459489D01*
X132738010Y-138459487D01*
X132612488Y-138387017D01*
X132612489Y-138387017D01*
X132515053Y-138360909D01*
X132472475Y-138349500D01*
X132327525Y-138349500D01*
X132284947Y-138360909D01*
X132187510Y-138387017D01*
X132061989Y-138459487D01*
X131959487Y-138561989D01*
X131887017Y-138687510D01*
X131849500Y-138827525D01*
X131849500Y-138878455D01*
X131830593Y-138936646D01*
X131820504Y-138948459D01*
X131400938Y-139368025D01*
X131400937Y-139368024D01*
X131331024Y-139437938D01*
X131281589Y-139523561D01*
X131281589Y-139523562D01*
X131281590Y-139523563D01*
X131270940Y-139563307D01*
X131270937Y-139563318D01*
X131264588Y-139587016D01*
X131256000Y-139619065D01*
X131256000Y-139637633D01*
X131256000Y-140171955D01*
X131237093Y-140230146D01*
X131227004Y-140241959D01*
X129073459Y-142395504D01*
X129018942Y-142423281D01*
X129003455Y-142424500D01*
X110096546Y-142424500D01*
X110038355Y-142405593D01*
X110026542Y-142395504D01*
X108958562Y-141327525D01*
X118549500Y-141327525D01*
X118549500Y-141472475D01*
X118553397Y-141487017D01*
X118587017Y-141612489D01*
X118659487Y-141738010D01*
X118659489Y-141738012D01*
X118659491Y-141738015D01*
X118761985Y-141840509D01*
X118761987Y-141840510D01*
X118761989Y-141840512D01*
X118887511Y-141912982D01*
X118887512Y-141912982D01*
X118887515Y-141912984D01*
X119027525Y-141950500D01*
X119027526Y-141950500D01*
X119172474Y-141950500D01*
X119172475Y-141950500D01*
X119312485Y-141912984D01*
X119312487Y-141912982D01*
X119312489Y-141912982D01*
X119438010Y-141840512D01*
X119438010Y-141840511D01*
X119438015Y-141840509D01*
X119456022Y-141822501D01*
X119474029Y-141804496D01*
X119528546Y-141776719D01*
X119544032Y-141775500D01*
X128849435Y-141775500D01*
X128849436Y-141775500D01*
X128929349Y-141754087D01*
X128944938Y-141749910D01*
X129030562Y-141700475D01*
X129100475Y-141630562D01*
X129100474Y-141630562D01*
X131000475Y-139730563D01*
X131049911Y-139644937D01*
X131075500Y-139549436D01*
X131075500Y-139450564D01*
X131075500Y-134967525D01*
X134374500Y-134967525D01*
X134374500Y-135112474D01*
X134412017Y-135252489D01*
X134484487Y-135378010D01*
X134484489Y-135378012D01*
X134484491Y-135378015D01*
X134586985Y-135480509D01*
X134586987Y-135480510D01*
X134586989Y-135480512D01*
X134712511Y-135552982D01*
X134712512Y-135552982D01*
X134712515Y-135552984D01*
X134852525Y-135590500D01*
X134852526Y-135590500D01*
X134997474Y-135590500D01*
X134997475Y-135590500D01*
X135137485Y-135552984D01*
X135137487Y-135552982D01*
X135137489Y-135552982D01*
X135263010Y-135480512D01*
X135263010Y-135480511D01*
X135263015Y-135480509D01*
X135365509Y-135378015D01*
X135437984Y-135252485D01*
X135475500Y-135112475D01*
X135475500Y-134967525D01*
X135437984Y-134827515D01*
X135437982Y-134827512D01*
X135437982Y-134827510D01*
X135365512Y-134701989D01*
X135365510Y-134701987D01*
X135365509Y-134701985D01*
X135263015Y-134599491D01*
X135263012Y-134599489D01*
X135263010Y-134599487D01*
X135137488Y-134527017D01*
X135137489Y-134527017D01*
X135107896Y-134519087D01*
X134997475Y-134489500D01*
X134852525Y-134489500D01*
X134790790Y-134506041D01*
X134712510Y-134527017D01*
X134586989Y-134599487D01*
X134484487Y-134701989D01*
X134412017Y-134827510D01*
X134374500Y-134967525D01*
X131075500Y-134967525D01*
X131075500Y-122344031D01*
X131094407Y-122285840D01*
X131104490Y-122274033D01*
X131140509Y-122238015D01*
X131149016Y-122223281D01*
X131212982Y-122112489D01*
X131212982Y-122112487D01*
X131212984Y-122112485D01*
X131250500Y-121972475D01*
X131250500Y-121827525D01*
X131212984Y-121687515D01*
X131212982Y-121687512D01*
X131212982Y-121687510D01*
X131161880Y-121598999D01*
X131140512Y-121561989D01*
X131140510Y-121561987D01*
X131140509Y-121561985D01*
X131131909Y-121553385D01*
X135499500Y-121553385D01*
X135499500Y-121726614D01*
X135526597Y-121897702D01*
X135526598Y-121897706D01*
X135580123Y-122062438D01*
X135580125Y-122062441D01*
X135647922Y-122195503D01*
X135658768Y-122216788D01*
X135760586Y-122356928D01*
X135883072Y-122479414D01*
X136023212Y-122581232D01*
X136177555Y-122659873D01*
X136177557Y-122659873D01*
X136177558Y-122659874D01*
X136177561Y-122659876D01*
X136342293Y-122713401D01*
X136342297Y-122713402D01*
X136513386Y-122740500D01*
X136513389Y-122740500D01*
X136686614Y-122740500D01*
X136857702Y-122713402D01*
X136857706Y-122713401D01*
X137022438Y-122659876D01*
X137022440Y-122659874D01*
X137022445Y-122659873D01*
X137176788Y-122581232D01*
X137316928Y-122479414D01*
X137439414Y-122356928D01*
X137541232Y-122216788D01*
X137619873Y-122062445D01*
X137619874Y-122062440D01*
X137619876Y-122062438D01*
X137673401Y-121897706D01*
X137673402Y-121897702D01*
X137700500Y-121726614D01*
X137700500Y-121553385D01*
X137673402Y-121382297D01*
X137673401Y-121382293D01*
X137619876Y-121217561D01*
X137619874Y-121217558D01*
X137619873Y-121217557D01*
X137619873Y-121217555D01*
X137541232Y-121063212D01*
X137439414Y-120923072D01*
X137316928Y-120800586D01*
X137176788Y-120698768D01*
X137176787Y-120698767D01*
X137176785Y-120698766D01*
X137022441Y-120620125D01*
X137022438Y-120620123D01*
X136857706Y-120566598D01*
X136857702Y-120566597D01*
X136686614Y-120539500D01*
X136686611Y-120539500D01*
X136513389Y-120539500D01*
X136513386Y-120539500D01*
X136342297Y-120566597D01*
X136342293Y-120566598D01*
X136177561Y-120620123D01*
X136177558Y-120620125D01*
X136023214Y-120698766D01*
X135883073Y-120800585D01*
X135760585Y-120923073D01*
X135658766Y-121063214D01*
X135580125Y-121217558D01*
X135580123Y-121217561D01*
X135526598Y-121382293D01*
X135526597Y-121382297D01*
X135499500Y-121553385D01*
X131131909Y-121553385D01*
X131038015Y-121459491D01*
X131038012Y-121459489D01*
X131038010Y-121459487D01*
X130912488Y-121387017D01*
X130912489Y-121387017D01*
X130882896Y-121379087D01*
X130772475Y-121349500D01*
X130627525Y-121349500D01*
X130565790Y-121366041D01*
X130487510Y-121387017D01*
X130361989Y-121459487D01*
X130259487Y-121561989D01*
X130187017Y-121687510D01*
X130149500Y-121827525D01*
X130149500Y-121972474D01*
X130187017Y-122112489D01*
X130259487Y-122238010D01*
X130259489Y-122238012D01*
X130259491Y-122238015D01*
X130295505Y-122274029D01*
X130323281Y-122328544D01*
X130324500Y-122344031D01*
X130324500Y-139303454D01*
X130305593Y-139361645D01*
X130295504Y-139373458D01*
X128673459Y-140995504D01*
X128618942Y-141023281D01*
X128603455Y-141024500D01*
X119544032Y-141024500D01*
X119485841Y-141005593D01*
X119474029Y-140995504D01*
X119438016Y-140959492D01*
X119438010Y-140959487D01*
X119312488Y-140887017D01*
X119312489Y-140887017D01*
X119282896Y-140879087D01*
X119172475Y-140849500D01*
X119027525Y-140849500D01*
X118965790Y-140866041D01*
X118887510Y-140887017D01*
X118761989Y-140959487D01*
X118659487Y-141061989D01*
X118587017Y-141187510D01*
X118587016Y-141187515D01*
X118549500Y-141327525D01*
X108958562Y-141327525D01*
X108238721Y-140607684D01*
X108210944Y-140553167D01*
X108213097Y-140512060D01*
X108250500Y-140372475D01*
X108250500Y-140227525D01*
X108212984Y-140087515D01*
X108212982Y-140087512D01*
X108212982Y-140087510D01*
X108203182Y-140070536D01*
X108178349Y-140027525D01*
X118549500Y-140027525D01*
X118549500Y-140172475D01*
X118557645Y-140202872D01*
X118587017Y-140312489D01*
X118659487Y-140438010D01*
X118659489Y-140438012D01*
X118659491Y-140438015D01*
X118761985Y-140540509D01*
X118761987Y-140540510D01*
X118761989Y-140540512D01*
X118887511Y-140612982D01*
X118887512Y-140612982D01*
X118887515Y-140612984D01*
X119027525Y-140650500D01*
X119027526Y-140650500D01*
X119172474Y-140650500D01*
X119172475Y-140650500D01*
X119312485Y-140612984D01*
X119312487Y-140612982D01*
X119312489Y-140612982D01*
X119438010Y-140540512D01*
X119438010Y-140540511D01*
X119438015Y-140540509D01*
X119456022Y-140522501D01*
X119474029Y-140504496D01*
X119528546Y-140476719D01*
X119544032Y-140475500D01*
X127849436Y-140475500D01*
X127897186Y-140462705D01*
X127897187Y-140462705D01*
X127944934Y-140449911D01*
X127944933Y-140449911D01*
X127944938Y-140449910D01*
X128030562Y-140400475D01*
X128100475Y-140330562D01*
X129460474Y-138970563D01*
X129460477Y-138970558D01*
X129472672Y-138949437D01*
X129509908Y-138884942D01*
X129509908Y-138884940D01*
X129509910Y-138884938D01*
X129530759Y-138807128D01*
X129535500Y-138789436D01*
X129535500Y-138690564D01*
X129535500Y-124664031D01*
X129554407Y-124605840D01*
X129564490Y-124594033D01*
X129600509Y-124558015D01*
X129672984Y-124432485D01*
X129710500Y-124292475D01*
X129710500Y-124147525D01*
X129672984Y-124007515D01*
X129672982Y-124007512D01*
X129672982Y-124007510D01*
X129600512Y-123881989D01*
X129600510Y-123881987D01*
X129600509Y-123881985D01*
X129498015Y-123779491D01*
X129498012Y-123779489D01*
X129498010Y-123779487D01*
X129372488Y-123707017D01*
X129372489Y-123707017D01*
X129342896Y-123699087D01*
X129232475Y-123669500D01*
X129087525Y-123669500D01*
X129025790Y-123686041D01*
X128947510Y-123707017D01*
X128821989Y-123779487D01*
X128821983Y-123779492D01*
X128785971Y-123815504D01*
X128731454Y-123843281D01*
X128715968Y-123844500D01*
X124056545Y-123844500D01*
X124048947Y-123842031D01*
X124041058Y-123843281D01*
X124020402Y-123832756D01*
X123998354Y-123825593D01*
X123986541Y-123815504D01*
X123964496Y-123793459D01*
X123936719Y-123738942D01*
X123935500Y-123723455D01*
X123935500Y-123364031D01*
X123954407Y-123305840D01*
X123964490Y-123294033D01*
X124000509Y-123258015D01*
X124072984Y-123132485D01*
X124110500Y-122992475D01*
X124110500Y-122847525D01*
X124072984Y-122707515D01*
X124072982Y-122707512D01*
X124072982Y-122707510D01*
X124000512Y-122581989D01*
X124000510Y-122581987D01*
X124000509Y-122581985D01*
X123898015Y-122479491D01*
X123898012Y-122479489D01*
X123898010Y-122479487D01*
X123772488Y-122407017D01*
X123772489Y-122407017D01*
X123742896Y-122399087D01*
X123632475Y-122369500D01*
X123487525Y-122369500D01*
X123425790Y-122386041D01*
X123347510Y-122407017D01*
X123221989Y-122479487D01*
X123119487Y-122581989D01*
X123047017Y-122707510D01*
X123026579Y-122783785D01*
X123009500Y-122847525D01*
X123009500Y-122992475D01*
X123047015Y-123132482D01*
X123047017Y-123132487D01*
X123047017Y-123132488D01*
X123119487Y-123258010D01*
X123119489Y-123258012D01*
X123119491Y-123258015D01*
X123155505Y-123294029D01*
X123183281Y-123348544D01*
X123184500Y-123364031D01*
X123184500Y-123969438D01*
X123196345Y-124013643D01*
X123196347Y-124013650D01*
X123197295Y-124017186D01*
X123210090Y-124064938D01*
X123215936Y-124075063D01*
X123220598Y-124083137D01*
X123259526Y-124150563D01*
X123559524Y-124450562D01*
X123629438Y-124520475D01*
X123715058Y-124569908D01*
X123715062Y-124569910D01*
X123762812Y-124582705D01*
X123762813Y-124582705D01*
X123810564Y-124595500D01*
X123810565Y-124595500D01*
X128685500Y-124595500D01*
X128743691Y-124614407D01*
X128779655Y-124663907D01*
X128784500Y-124694500D01*
X128784500Y-138543455D01*
X128765593Y-138601646D01*
X128755504Y-138613459D01*
X127673459Y-139695504D01*
X127618942Y-139723281D01*
X127603455Y-139724500D01*
X119544032Y-139724500D01*
X119485841Y-139705593D01*
X119474029Y-139695504D01*
X119438016Y-139659492D01*
X119438010Y-139659487D01*
X119312488Y-139587017D01*
X119312489Y-139587017D01*
X119282896Y-139579087D01*
X119172475Y-139549500D01*
X119027525Y-139549500D01*
X118975997Y-139563307D01*
X118887510Y-139587017D01*
X118761989Y-139659487D01*
X118659487Y-139761989D01*
X118587017Y-139887510D01*
X118559219Y-139991252D01*
X118549500Y-140027525D01*
X108178349Y-140027525D01*
X108140512Y-139961989D01*
X108140510Y-139961987D01*
X108140509Y-139961985D01*
X108038015Y-139859491D01*
X108038012Y-139859489D01*
X108038010Y-139859487D01*
X107912488Y-139787017D01*
X107912489Y-139787017D01*
X107854202Y-139771399D01*
X107772475Y-139749500D01*
X107627525Y-139749500D01*
X107580931Y-139761985D01*
X107487510Y-139787017D01*
X107361989Y-139859487D01*
X107361984Y-139859491D01*
X107265176Y-139956299D01*
X107210660Y-139984076D01*
X107150228Y-139974504D01*
X107121452Y-139950572D01*
X107121069Y-139950956D01*
X107116899Y-139946786D01*
X107116632Y-139946564D01*
X107116483Y-139946370D01*
X107116482Y-139946369D01*
X107116481Y-139946367D01*
X107013987Y-139843873D01*
X107013984Y-139843871D01*
X107013982Y-139843869D01*
X106888460Y-139771399D01*
X106888461Y-139771399D01*
X106858868Y-139763469D01*
X106748447Y-139733882D01*
X106603497Y-139733882D01*
X106545211Y-139749500D01*
X106463482Y-139771399D01*
X106337961Y-139843869D01*
X106235462Y-139946368D01*
X106219213Y-139974512D01*
X106173742Y-140015452D01*
X106112892Y-140021846D01*
X106059904Y-139991252D01*
X106058202Y-139989311D01*
X106052289Y-139982389D01*
X106040509Y-139961985D01*
X106001756Y-139923232D01*
X105999225Y-139920269D01*
X105988929Y-139895420D01*
X105976719Y-139871454D01*
X105976183Y-139864654D01*
X105975806Y-139863743D01*
X105976036Y-139862782D01*
X105975500Y-139855968D01*
X105975500Y-123396545D01*
X105994407Y-123338354D01*
X106004496Y-123326541D01*
X106326541Y-123004496D01*
X106381058Y-122976719D01*
X106396545Y-122975500D01*
X114599436Y-122975500D01*
X114647186Y-122962705D01*
X114647187Y-122962705D01*
X114694934Y-122949911D01*
X114694933Y-122949911D01*
X114694938Y-122949910D01*
X114733710Y-122927525D01*
X117449500Y-122927525D01*
X117449500Y-123072474D01*
X117487017Y-123212489D01*
X117559487Y-123338010D01*
X117559489Y-123338012D01*
X117559491Y-123338015D01*
X117595505Y-123374029D01*
X117623281Y-123428544D01*
X117624500Y-123444031D01*
X117624500Y-134055968D01*
X117605593Y-134114159D01*
X117595504Y-134125971D01*
X117559492Y-134161983D01*
X117559487Y-134161989D01*
X117487017Y-134287510D01*
X117449500Y-134427525D01*
X117449500Y-134572474D01*
X117487017Y-134712489D01*
X117559487Y-134838010D01*
X117559489Y-134838012D01*
X117559491Y-134838015D01*
X117661985Y-134940509D01*
X117661987Y-134940510D01*
X117661989Y-134940512D01*
X117787511Y-135012982D01*
X117787512Y-135012982D01*
X117787515Y-135012984D01*
X117927525Y-135050500D01*
X117927526Y-135050500D01*
X118072474Y-135050500D01*
X118072475Y-135050500D01*
X118212485Y-135012984D01*
X118212487Y-135012982D01*
X118212489Y-135012982D01*
X118338010Y-134940512D01*
X118338010Y-134940511D01*
X118338015Y-134940509D01*
X118440509Y-134838015D01*
X118512984Y-134712485D01*
X118550500Y-134572475D01*
X118550500Y-134427525D01*
X120927637Y-134427525D01*
X120927637Y-134572474D01*
X120965154Y-134712489D01*
X121037624Y-134838010D01*
X121037626Y-134838012D01*
X121037628Y-134838015D01*
X121140122Y-134940509D01*
X121140124Y-134940510D01*
X121140126Y-134940512D01*
X121265648Y-135012982D01*
X121265649Y-135012982D01*
X121265652Y-135012984D01*
X121405662Y-135050500D01*
X121405663Y-135050500D01*
X121550611Y-135050500D01*
X121550612Y-135050500D01*
X121690622Y-135012984D01*
X121690624Y-135012982D01*
X121690626Y-135012982D01*
X121816147Y-134940512D01*
X121816147Y-134940511D01*
X121816152Y-134940509D01*
X121869066Y-134887594D01*
X121923580Y-134859818D01*
X121984012Y-134869389D01*
X122009068Y-134887592D01*
X122061985Y-134940509D01*
X122061987Y-134940510D01*
X122061989Y-134940512D01*
X122187511Y-135012982D01*
X122187512Y-135012982D01*
X122187515Y-135012984D01*
X122327525Y-135050500D01*
X122327526Y-135050500D01*
X122472474Y-135050500D01*
X122472475Y-135050500D01*
X122612485Y-135012984D01*
X122612487Y-135012982D01*
X122612489Y-135012982D01*
X122738010Y-134940512D01*
X122738010Y-134940511D01*
X122738015Y-134940509D01*
X122840509Y-134838015D01*
X122912984Y-134712485D01*
X122950500Y-134572475D01*
X122950500Y-134427525D01*
X122912984Y-134287515D01*
X122912982Y-134287512D01*
X122912982Y-134287510D01*
X122840512Y-134161989D01*
X122840510Y-134161987D01*
X122840509Y-134161985D01*
X122738015Y-134059491D01*
X122738012Y-134059489D01*
X122738010Y-134059487D01*
X122612488Y-133987017D01*
X122612486Y-133987016D01*
X122552012Y-133970811D01*
X122500698Y-133937486D01*
X122478773Y-133880364D01*
X122478637Y-133875185D01*
X122478637Y-130693408D01*
X122497544Y-130635217D01*
X122507633Y-130623404D01*
X122851541Y-130279496D01*
X122906058Y-130251719D01*
X122921545Y-130250500D01*
X122972474Y-130250500D01*
X122972475Y-130250500D01*
X123112485Y-130212984D01*
X123112487Y-130212982D01*
X123112489Y-130212982D01*
X123238010Y-130140512D01*
X123238010Y-130140511D01*
X123238015Y-130140509D01*
X123340509Y-130038015D01*
X123412984Y-129912485D01*
X123450500Y-129772475D01*
X123450500Y-129627525D01*
X123412984Y-129487515D01*
X123412982Y-129487512D01*
X123412982Y-129487510D01*
X123340512Y-129361989D01*
X123340510Y-129361987D01*
X123340509Y-129361985D01*
X123238015Y-129259491D01*
X123238012Y-129259489D01*
X123238010Y-129259487D01*
X123112488Y-129187017D01*
X123112489Y-129187017D01*
X123082896Y-129179087D01*
X122972475Y-129149500D01*
X122827525Y-129149500D01*
X122765790Y-129166041D01*
X122687510Y-129187017D01*
X122561989Y-129259487D01*
X122459487Y-129361989D01*
X122387017Y-129487510D01*
X122349500Y-129627525D01*
X122349500Y-129678455D01*
X122330593Y-129736646D01*
X122320504Y-129748459D01*
X122144504Y-129924459D01*
X122089987Y-129952236D01*
X122029555Y-129942665D01*
X121986290Y-129899400D01*
X121975500Y-129854455D01*
X121975500Y-127444031D01*
X121994407Y-127385840D01*
X122004490Y-127374033D01*
X122040509Y-127338015D01*
X122112984Y-127212485D01*
X122150500Y-127072475D01*
X122150500Y-126927525D01*
X122112984Y-126787515D01*
X122112982Y-126787512D01*
X122112982Y-126787510D01*
X122040512Y-126661989D01*
X122040510Y-126661987D01*
X122040509Y-126661985D01*
X121938015Y-126559491D01*
X121938012Y-126559489D01*
X121938010Y-126559487D01*
X121812488Y-126487017D01*
X121812489Y-126487017D01*
X121782896Y-126479087D01*
X121672475Y-126449500D01*
X121527525Y-126449500D01*
X121465790Y-126466041D01*
X121387510Y-126487017D01*
X121261989Y-126559487D01*
X121159487Y-126661989D01*
X121087017Y-126787510D01*
X121049500Y-126927525D01*
X121049500Y-127072474D01*
X121087017Y-127212489D01*
X121159487Y-127338010D01*
X121159489Y-127338012D01*
X121159491Y-127338015D01*
X121195505Y-127374029D01*
X121223281Y-127428544D01*
X121224500Y-127444031D01*
X121224500Y-133953617D01*
X121205593Y-134011808D01*
X121175001Y-134039353D01*
X121140124Y-134059489D01*
X121037624Y-134161989D01*
X120965154Y-134287510D01*
X120927637Y-134427525D01*
X118550500Y-134427525D01*
X118512984Y-134287515D01*
X118512982Y-134287512D01*
X118512982Y-134287510D01*
X118440512Y-134161989D01*
X118440507Y-134161983D01*
X118404496Y-134125971D01*
X118376719Y-134071454D01*
X118375500Y-134055968D01*
X118375500Y-123444031D01*
X118394407Y-123385840D01*
X118404490Y-123374033D01*
X118440509Y-123338015D01*
X118486697Y-123258015D01*
X118512982Y-123212489D01*
X118512982Y-123212487D01*
X118512984Y-123212485D01*
X118550500Y-123072475D01*
X118550500Y-122927525D01*
X118512984Y-122787515D01*
X118512982Y-122787512D01*
X118512982Y-122787510D01*
X118440512Y-122661989D01*
X118440510Y-122661987D01*
X118440509Y-122661985D01*
X118338015Y-122559491D01*
X118338012Y-122559489D01*
X118338010Y-122559487D01*
X118212488Y-122487017D01*
X118212489Y-122487017D01*
X118182896Y-122479087D01*
X118072475Y-122449500D01*
X117927525Y-122449500D01*
X117865790Y-122466041D01*
X117787510Y-122487017D01*
X117661989Y-122559487D01*
X117559487Y-122661989D01*
X117487017Y-122787510D01*
X117449500Y-122927525D01*
X114733710Y-122927525D01*
X114780562Y-122900475D01*
X114850475Y-122830562D01*
X114850474Y-122830562D01*
X115350475Y-122330563D01*
X115350475Y-122330561D01*
X115358621Y-122322416D01*
X115358623Y-122322412D01*
X116653512Y-121027525D01*
X120299500Y-121027525D01*
X120299500Y-121172475D01*
X120311579Y-121217555D01*
X120337017Y-121312489D01*
X120409487Y-121438010D01*
X120409489Y-121438012D01*
X120409491Y-121438015D01*
X120511985Y-121540509D01*
X120511987Y-121540510D01*
X120511989Y-121540512D01*
X120637511Y-121612982D01*
X120637512Y-121612982D01*
X120637515Y-121612984D01*
X120777525Y-121650500D01*
X120777526Y-121650500D01*
X120922474Y-121650500D01*
X120922475Y-121650500D01*
X121062485Y-121612984D01*
X121062487Y-121612982D01*
X121062489Y-121612982D01*
X121188010Y-121540512D01*
X121188010Y-121540511D01*
X121188015Y-121540509D01*
X121206022Y-121522501D01*
X121224029Y-121504496D01*
X121278546Y-121476719D01*
X121294032Y-121475500D01*
X124955968Y-121475500D01*
X125014159Y-121494407D01*
X125025971Y-121504496D01*
X125061983Y-121540507D01*
X125061989Y-121540512D01*
X125187511Y-121612982D01*
X125187512Y-121612982D01*
X125187515Y-121612984D01*
X125327525Y-121650500D01*
X125327526Y-121650500D01*
X125472474Y-121650500D01*
X125472475Y-121650500D01*
X125612485Y-121612984D01*
X125612487Y-121612982D01*
X125612489Y-121612982D01*
X125738010Y-121540512D01*
X125738010Y-121540511D01*
X125738015Y-121540509D01*
X125840509Y-121438015D01*
X125869953Y-121387017D01*
X125912982Y-121312489D01*
X125912982Y-121312487D01*
X125912984Y-121312485D01*
X125950500Y-121172475D01*
X125950500Y-121027525D01*
X125912984Y-120887515D01*
X125912982Y-120887512D01*
X125912982Y-120887510D01*
X125840512Y-120761989D01*
X125840510Y-120761987D01*
X125840509Y-120761985D01*
X125738015Y-120659491D01*
X125738012Y-120659489D01*
X125738010Y-120659487D01*
X125612488Y-120587017D01*
X125612489Y-120587017D01*
X125582896Y-120579087D01*
X125472475Y-120549500D01*
X125327525Y-120549500D01*
X125265790Y-120566041D01*
X125187510Y-120587017D01*
X125061989Y-120659487D01*
X125061983Y-120659492D01*
X125025971Y-120695504D01*
X124971454Y-120723281D01*
X124955968Y-120724500D01*
X121294032Y-120724500D01*
X121235841Y-120705593D01*
X121224029Y-120695504D01*
X121188016Y-120659492D01*
X121188010Y-120659487D01*
X121062488Y-120587017D01*
X121062489Y-120587017D01*
X121032896Y-120579087D01*
X120922475Y-120549500D01*
X120777525Y-120549500D01*
X120715790Y-120566041D01*
X120637510Y-120587017D01*
X120511989Y-120659487D01*
X120409487Y-120761989D01*
X120337017Y-120887510D01*
X120337016Y-120887515D01*
X120299500Y-121027525D01*
X116653512Y-121027525D01*
X116850474Y-120830563D01*
X116850475Y-120830562D01*
X116899910Y-120744938D01*
X116918516Y-120675500D01*
X116925500Y-120649436D01*
X116925500Y-120550564D01*
X116925500Y-118456967D01*
X118099500Y-118456967D01*
X118099500Y-118601916D01*
X118137017Y-118741931D01*
X118209487Y-118867452D01*
X118209489Y-118867454D01*
X118209491Y-118867457D01*
X118311985Y-118969951D01*
X118311987Y-118969952D01*
X118311989Y-118969954D01*
X118437511Y-119042424D01*
X118437512Y-119042424D01*
X118437515Y-119042426D01*
X118577525Y-119079942D01*
X118577526Y-119079942D01*
X118722474Y-119079942D01*
X118722475Y-119079942D01*
X118862485Y-119042426D01*
X118862487Y-119042424D01*
X118862489Y-119042424D01*
X118912786Y-119013385D01*
X135499500Y-119013385D01*
X135499500Y-119186614D01*
X135526597Y-119357702D01*
X135526598Y-119357706D01*
X135580123Y-119522438D01*
X135580125Y-119522441D01*
X135580126Y-119522444D01*
X135580127Y-119522445D01*
X135658768Y-119676788D01*
X135760586Y-119816928D01*
X135883072Y-119939414D01*
X136023212Y-120041232D01*
X136177555Y-120119873D01*
X136177557Y-120119873D01*
X136177558Y-120119874D01*
X136177561Y-120119876D01*
X136342293Y-120173401D01*
X136342297Y-120173402D01*
X136513386Y-120200500D01*
X136513389Y-120200500D01*
X136686614Y-120200500D01*
X136857702Y-120173402D01*
X136857706Y-120173401D01*
X137022438Y-120119876D01*
X137022440Y-120119874D01*
X137022445Y-120119873D01*
X137176788Y-120041232D01*
X137316928Y-119939414D01*
X137439414Y-119816928D01*
X137541232Y-119676788D01*
X137619873Y-119522445D01*
X137619874Y-119522440D01*
X137619876Y-119522438D01*
X137673401Y-119357706D01*
X137673402Y-119357702D01*
X137700500Y-119186614D01*
X137700500Y-119013385D01*
X137673402Y-118842297D01*
X137673401Y-118842293D01*
X137619876Y-118677561D01*
X137619874Y-118677558D01*
X137619873Y-118677557D01*
X137619873Y-118677555D01*
X137541232Y-118523212D01*
X137439414Y-118383072D01*
X137316928Y-118260586D01*
X137176788Y-118158768D01*
X137176787Y-118158767D01*
X137176785Y-118158766D01*
X137022441Y-118080125D01*
X137022438Y-118080123D01*
X136857706Y-118026598D01*
X136857702Y-118026597D01*
X136686614Y-117999500D01*
X136686611Y-117999500D01*
X136513389Y-117999500D01*
X136513386Y-117999500D01*
X136342297Y-118026597D01*
X136342293Y-118026598D01*
X136177561Y-118080123D01*
X136177558Y-118080125D01*
X136023214Y-118158766D01*
X135883073Y-118260585D01*
X135760585Y-118383073D01*
X135658766Y-118523214D01*
X135580125Y-118677558D01*
X135580123Y-118677561D01*
X135526598Y-118842293D01*
X135526597Y-118842297D01*
X135499500Y-119013385D01*
X118912786Y-119013385D01*
X118988010Y-118969954D01*
X118988010Y-118969953D01*
X118988015Y-118969951D01*
X119024028Y-118933938D01*
X119078545Y-118906161D01*
X119094032Y-118904942D01*
X119169994Y-118904942D01*
X119217744Y-118892147D01*
X119217745Y-118892147D01*
X119265492Y-118879353D01*
X119265491Y-118879353D01*
X119265496Y-118879352D01*
X119351120Y-118829917D01*
X119421033Y-118760004D01*
X120576541Y-117604496D01*
X120631058Y-117576719D01*
X120646545Y-117575500D01*
X123905968Y-117575500D01*
X123964159Y-117594407D01*
X123975971Y-117604496D01*
X124011983Y-117640507D01*
X124011989Y-117640512D01*
X124137511Y-117712982D01*
X124137512Y-117712982D01*
X124137515Y-117712984D01*
X124277525Y-117750500D01*
X124277526Y-117750500D01*
X124422474Y-117750500D01*
X124422475Y-117750500D01*
X124562485Y-117712984D01*
X124562487Y-117712982D01*
X124562489Y-117712982D01*
X124688010Y-117640512D01*
X124688010Y-117640511D01*
X124688015Y-117640509D01*
X124790509Y-117538015D01*
X124862984Y-117412485D01*
X124900500Y-117272475D01*
X124900500Y-117127525D01*
X124862984Y-116987515D01*
X124862982Y-116987512D01*
X124862982Y-116987510D01*
X124790512Y-116861989D01*
X124790510Y-116861987D01*
X124790509Y-116861985D01*
X124688015Y-116759491D01*
X124688012Y-116759489D01*
X124688010Y-116759487D01*
X124562488Y-116687017D01*
X124562489Y-116687017D01*
X124532896Y-116679087D01*
X124422475Y-116649500D01*
X124277525Y-116649500D01*
X124215790Y-116666041D01*
X124137510Y-116687017D01*
X124011989Y-116759487D01*
X124011983Y-116759492D01*
X123975971Y-116795504D01*
X123921454Y-116823281D01*
X123905968Y-116824500D01*
X120400560Y-116824500D01*
X120392008Y-116826792D01*
X120305062Y-116850089D01*
X120305058Y-116850091D01*
X120219436Y-116899525D01*
X120219437Y-116899526D01*
X119068366Y-118050595D01*
X119013849Y-118078372D01*
X118953417Y-118068801D01*
X118948862Y-118066327D01*
X118862488Y-118016459D01*
X118862489Y-118016459D01*
X118832896Y-118008529D01*
X118722475Y-117978942D01*
X118577525Y-117978942D01*
X118515790Y-117995483D01*
X118437510Y-118016459D01*
X118311989Y-118088929D01*
X118209487Y-118191431D01*
X118137017Y-118316952D01*
X118099500Y-118456967D01*
X116925500Y-118456967D01*
X116925500Y-114950565D01*
X116925500Y-114950564D01*
X116899911Y-114855063D01*
X116850475Y-114769437D01*
X116280563Y-114199526D01*
X116280563Y-114199525D01*
X116194941Y-114150091D01*
X116194937Y-114150089D01*
X116107994Y-114126792D01*
X116107989Y-114126792D01*
X116099436Y-114124500D01*
X116099435Y-114124500D01*
X115824500Y-114124500D01*
X115809588Y-114119655D01*
X115793907Y-114119655D01*
X115781221Y-114110438D01*
X115766309Y-114105593D01*
X115757092Y-114092907D01*
X115744407Y-114083691D01*
X115739561Y-114068778D01*
X115730345Y-114056093D01*
X115725500Y-114025500D01*
X115725500Y-113933385D01*
X135499500Y-113933385D01*
X135499500Y-114106614D01*
X135526597Y-114277702D01*
X135526598Y-114277706D01*
X135580123Y-114442438D01*
X135580125Y-114442441D01*
X135580126Y-114442444D01*
X135580127Y-114442445D01*
X135658768Y-114596788D01*
X135760586Y-114736928D01*
X135883072Y-114859414D01*
X136023212Y-114961232D01*
X136177555Y-115039873D01*
X136177557Y-115039873D01*
X136177558Y-115039874D01*
X136177561Y-115039876D01*
X136342293Y-115093401D01*
X136342297Y-115093402D01*
X136513386Y-115120500D01*
X136513389Y-115120500D01*
X136686614Y-115120500D01*
X136857702Y-115093402D01*
X136857706Y-115093401D01*
X137022438Y-115039876D01*
X137022440Y-115039874D01*
X137022445Y-115039873D01*
X137176788Y-114961232D01*
X137316928Y-114859414D01*
X137439414Y-114736928D01*
X137541232Y-114596788D01*
X137619873Y-114442445D01*
X137619874Y-114442440D01*
X137619876Y-114442438D01*
X137673401Y-114277706D01*
X137673402Y-114277702D01*
X137700500Y-114106614D01*
X137700500Y-113933385D01*
X137673402Y-113762297D01*
X137673401Y-113762293D01*
X137619876Y-113597561D01*
X137619874Y-113597558D01*
X137619873Y-113597557D01*
X137619873Y-113597555D01*
X137541232Y-113443212D01*
X137439414Y-113303072D01*
X137316928Y-113180586D01*
X137176788Y-113078768D01*
X137176787Y-113078767D01*
X137176785Y-113078766D01*
X137022441Y-113000125D01*
X137022438Y-113000123D01*
X136857706Y-112946598D01*
X136857702Y-112946597D01*
X136686614Y-112919500D01*
X136686611Y-112919500D01*
X136513389Y-112919500D01*
X136513386Y-112919500D01*
X136342297Y-112946597D01*
X136342293Y-112946598D01*
X136177561Y-113000123D01*
X136177558Y-113000125D01*
X136023214Y-113078766D01*
X135883073Y-113180585D01*
X135760585Y-113303073D01*
X135658766Y-113443214D01*
X135580125Y-113597558D01*
X135580123Y-113597561D01*
X135526598Y-113762293D01*
X135526597Y-113762297D01*
X135499500Y-113933385D01*
X115725500Y-113933385D01*
X115725500Y-112350566D01*
X115725500Y-112350565D01*
X115699910Y-112255062D01*
X115699908Y-112255059D01*
X115699908Y-112255057D01*
X115650475Y-112169438D01*
X115580562Y-112099524D01*
X115580562Y-112099525D01*
X114880563Y-111399526D01*
X114880563Y-111399525D01*
X114794941Y-111350091D01*
X114794937Y-111350089D01*
X114707994Y-111326792D01*
X114707989Y-111326792D01*
X114699436Y-111324500D01*
X114699435Y-111324500D01*
X112794032Y-111324500D01*
X112735841Y-111305593D01*
X112724029Y-111295504D01*
X112688016Y-111259492D01*
X112688010Y-111259487D01*
X112562488Y-111187017D01*
X112562489Y-111187017D01*
X112532896Y-111179087D01*
X112422475Y-111149500D01*
X112277525Y-111149500D01*
X112215790Y-111166041D01*
X112137510Y-111187017D01*
X112011989Y-111259487D01*
X111909487Y-111361989D01*
X111837017Y-111487510D01*
X111799500Y-111627525D01*
X111799500Y-111772474D01*
X111837017Y-111912489D01*
X111909487Y-112038010D01*
X111909489Y-112038012D01*
X111909491Y-112038015D01*
X112001474Y-112129998D01*
X112029250Y-112184513D01*
X112019679Y-112244945D01*
X112001475Y-112270000D01*
X111920911Y-112350565D01*
X111909488Y-112361988D01*
X111909487Y-112361989D01*
X111837017Y-112487510D01*
X111799500Y-112627525D01*
X111799500Y-112772474D01*
X111837017Y-112912489D01*
X111909487Y-113038010D01*
X111909489Y-113038012D01*
X111909491Y-113038015D01*
X112011985Y-113140509D01*
X112011987Y-113140510D01*
X112011989Y-113140512D01*
X112137511Y-113212982D01*
X112137512Y-113212982D01*
X112137515Y-113212984D01*
X112277525Y-113250500D01*
X112277526Y-113250500D01*
X112422474Y-113250500D01*
X112422475Y-113250500D01*
X112562485Y-113212984D01*
X112604435Y-113188763D01*
X112653936Y-113175500D01*
X113453455Y-113175500D01*
X113511646Y-113194407D01*
X113523459Y-113204496D01*
X114045504Y-113726541D01*
X114073281Y-113781058D01*
X114074500Y-113796545D01*
X114074500Y-115049438D01*
X114074783Y-115050495D01*
X114100089Y-115144937D01*
X114100091Y-115144941D01*
X114147345Y-115226788D01*
X114147346Y-115226788D01*
X114149523Y-115230559D01*
X114149528Y-115230565D01*
X114549524Y-115630562D01*
X114619438Y-115700475D01*
X114705058Y-115749908D01*
X114705059Y-115749908D01*
X114705062Y-115749910D01*
X114722517Y-115754587D01*
X114800564Y-115775500D01*
X114800565Y-115775500D01*
X114882198Y-115775500D01*
X114888839Y-115776403D01*
X114910653Y-115786921D01*
X114933691Y-115794407D01*
X114937742Y-115799984D01*
X114943952Y-115802978D01*
X114955417Y-115824310D01*
X114969655Y-115843907D01*
X114971203Y-115853682D01*
X114972918Y-115856873D01*
X114972359Y-115860982D01*
X114974500Y-115874500D01*
X114974500Y-120103455D01*
X114955593Y-120161646D01*
X114945504Y-120173459D01*
X114023459Y-121095504D01*
X113968942Y-121123281D01*
X113953455Y-121124500D01*
X105849436Y-121124500D01*
X105750564Y-121124500D01*
X105702813Y-121137295D01*
X105702812Y-121137294D01*
X105655062Y-121150089D01*
X105655058Y-121150091D01*
X105569436Y-121199525D01*
X105569437Y-121199526D01*
X104369438Y-122399525D01*
X104369437Y-122399524D01*
X104299524Y-122469438D01*
X104250091Y-122555058D01*
X104250089Y-122555062D01*
X104237294Y-122602810D01*
X104237295Y-122602811D01*
X104224803Y-122649435D01*
X104224792Y-122649477D01*
X104224500Y-122650562D01*
X104224500Y-139806969D01*
X104205593Y-139865160D01*
X104156093Y-139901124D01*
X104094907Y-139901124D01*
X104055498Y-139876974D01*
X104038015Y-139859491D01*
X104038012Y-139859489D01*
X104038010Y-139859487D01*
X103912488Y-139787017D01*
X103912489Y-139787017D01*
X103854202Y-139771399D01*
X103772475Y-139749500D01*
X103627525Y-139749500D01*
X103580931Y-139761985D01*
X103487510Y-139787017D01*
X103361989Y-139859487D01*
X103361983Y-139859492D01*
X103325971Y-139895504D01*
X103271454Y-139923281D01*
X103255968Y-139924500D01*
X91944032Y-139924500D01*
X91885841Y-139905593D01*
X91874029Y-139895504D01*
X91838016Y-139859492D01*
X91838010Y-139859487D01*
X91712488Y-139787017D01*
X91712489Y-139787017D01*
X91654202Y-139771399D01*
X91572475Y-139749500D01*
X91427525Y-139749500D01*
X91380931Y-139761985D01*
X91287510Y-139787017D01*
X91161989Y-139859487D01*
X91059487Y-139961989D01*
X90987017Y-140087510D01*
X90956107Y-140202866D01*
X90949500Y-140227525D01*
X75547850Y-140227525D01*
X75550500Y-140202873D01*
X75550499Y-138807128D01*
X75544091Y-138747517D01*
X75494091Y-138613459D01*
X75493797Y-138612670D01*
X75407549Y-138497458D01*
X75407548Y-138497457D01*
X75407546Y-138497454D01*
X75407541Y-138497450D01*
X75292329Y-138411202D01*
X75157488Y-138360910D01*
X75157483Y-138360909D01*
X75157481Y-138360908D01*
X75157477Y-138360908D01*
X75126249Y-138357550D01*
X75097873Y-138354500D01*
X75097870Y-138354500D01*
X71902133Y-138354500D01*
X71902129Y-138354500D01*
X71902128Y-138354501D01*
X71894949Y-138355272D01*
X71842519Y-138360908D01*
X71842514Y-138360909D01*
X71707670Y-138411202D01*
X71592458Y-138497450D01*
X71592450Y-138497458D01*
X71506202Y-138612670D01*
X71455910Y-138747511D01*
X71455908Y-138747522D01*
X71449500Y-138807128D01*
X65200500Y-138807128D01*
X65200500Y-128701456D01*
X67199500Y-128701456D01*
X67199500Y-128898543D01*
X67237949Y-129091834D01*
X67237949Y-129091836D01*
X67313367Y-129273913D01*
X67313368Y-129273914D01*
X67422861Y-129437782D01*
X67562218Y-129577139D01*
X67726086Y-129686632D01*
X67908165Y-129762051D01*
X68101459Y-129800500D01*
X68101460Y-129800500D01*
X68298540Y-129800500D01*
X68298541Y-129800500D01*
X68491835Y-129762051D01*
X68673914Y-129686632D01*
X68837782Y-129577139D01*
X68977139Y-129437782D01*
X69086632Y-129273914D01*
X69162051Y-129091835D01*
X69200500Y-128898541D01*
X69200500Y-128701459D01*
X69162051Y-128508165D01*
X69086632Y-128326086D01*
X68977139Y-128162218D01*
X68837782Y-128022861D01*
X68673914Y-127913368D01*
X68673915Y-127913368D01*
X68673913Y-127913367D01*
X68491835Y-127837949D01*
X68298543Y-127799500D01*
X68298541Y-127799500D01*
X68101459Y-127799500D01*
X68101456Y-127799500D01*
X67908165Y-127837949D01*
X67908163Y-127837949D01*
X67726086Y-127913367D01*
X67562218Y-128022861D01*
X67562214Y-128022864D01*
X67422864Y-128162214D01*
X67422861Y-128162218D01*
X67313367Y-128326086D01*
X67237949Y-128508163D01*
X67237949Y-128508165D01*
X67199500Y-128701456D01*
X65200500Y-128701456D01*
X65200500Y-127650327D01*
X76074500Y-127650327D01*
X76074500Y-129949672D01*
X76074501Y-129949684D01*
X76089033Y-130022736D01*
X76089035Y-130022742D01*
X76144397Y-130105599D01*
X76144399Y-130105601D01*
X76227260Y-130160966D01*
X76282808Y-130172015D01*
X76300315Y-130175498D01*
X76300320Y-130175498D01*
X76300326Y-130175500D01*
X76300327Y-130175500D01*
X78599673Y-130175500D01*
X78599674Y-130175500D01*
X78672740Y-130160966D01*
X78755601Y-130105601D01*
X78810966Y-130022740D01*
X78825500Y-129949674D01*
X78825500Y-127650326D01*
X78810966Y-127577260D01*
X78755601Y-127494399D01*
X78755599Y-127494397D01*
X78672742Y-127439035D01*
X78672740Y-127439034D01*
X78672737Y-127439033D01*
X78672736Y-127439033D01*
X78599684Y-127424501D01*
X78599674Y-127424500D01*
X76300326Y-127424500D01*
X76300325Y-127424500D01*
X76300315Y-127424501D01*
X76227263Y-127439033D01*
X76227257Y-127439035D01*
X76144400Y-127494397D01*
X76144397Y-127494400D01*
X76089035Y-127577257D01*
X76089033Y-127577263D01*
X76074501Y-127650315D01*
X76074500Y-127650327D01*
X65200500Y-127650327D01*
X65200500Y-115527525D01*
X76549500Y-115527525D01*
X76549500Y-115672475D01*
X76553397Y-115687017D01*
X76587017Y-115812489D01*
X76659487Y-115938010D01*
X76659489Y-115938012D01*
X76659491Y-115938015D01*
X76761985Y-116040509D01*
X76761987Y-116040510D01*
X76761989Y-116040512D01*
X76887511Y-116112982D01*
X76887512Y-116112982D01*
X76887515Y-116112984D01*
X77027525Y-116150500D01*
X77027526Y-116150500D01*
X77172474Y-116150500D01*
X77172475Y-116150500D01*
X77312485Y-116112984D01*
X77312487Y-116112982D01*
X77312489Y-116112982D01*
X77438010Y-116040512D01*
X77438010Y-116040511D01*
X77438015Y-116040509D01*
X77456022Y-116022501D01*
X77474029Y-116004496D01*
X77528546Y-115976719D01*
X77544032Y-115975500D01*
X93953455Y-115975500D01*
X94011646Y-115994407D01*
X94023459Y-116004496D01*
X94170504Y-116151541D01*
X94198281Y-116206058D01*
X94199500Y-116221545D01*
X94199500Y-116272474D01*
X94237017Y-116412489D01*
X94309487Y-116538010D01*
X94309489Y-116538012D01*
X94309491Y-116538015D01*
X94345505Y-116574029D01*
X94373281Y-116628544D01*
X94374500Y-116644031D01*
X94374500Y-119699435D01*
X94400090Y-119794938D01*
X94400091Y-119794941D01*
X94410570Y-119813090D01*
X94412786Y-119816928D01*
X94449526Y-119880563D01*
X96695505Y-122126542D01*
X96723281Y-122181057D01*
X96724500Y-122196544D01*
X96724500Y-135855968D01*
X96705593Y-135914159D01*
X96695504Y-135925971D01*
X96659492Y-135961983D01*
X96659487Y-135961989D01*
X96587017Y-136087510D01*
X96549500Y-136227525D01*
X96549500Y-136372474D01*
X96587017Y-136512489D01*
X96659487Y-136638010D01*
X96659489Y-136638012D01*
X96659491Y-136638015D01*
X96761985Y-136740509D01*
X96761987Y-136740510D01*
X96761989Y-136740512D01*
X96887511Y-136812982D01*
X96887512Y-136812982D01*
X96887515Y-136812984D01*
X97027525Y-136850500D01*
X97027526Y-136850500D01*
X97172474Y-136850500D01*
X97172475Y-136850500D01*
X97312485Y-136812984D01*
X97312487Y-136812982D01*
X97312489Y-136812982D01*
X97438010Y-136740512D01*
X97438010Y-136740511D01*
X97438015Y-136740509D01*
X97540509Y-136638015D01*
X97612984Y-136512485D01*
X97650500Y-136372475D01*
X97650500Y-136227525D01*
X97612984Y-136087515D01*
X97612982Y-136087512D01*
X97612982Y-136087510D01*
X97540512Y-135961989D01*
X97540507Y-135961983D01*
X97504496Y-135925971D01*
X97476719Y-135871454D01*
X97475500Y-135855968D01*
X97475500Y-121950566D01*
X97475500Y-121950565D01*
X97449910Y-121855062D01*
X97417846Y-121799525D01*
X97400475Y-121769437D01*
X95154496Y-119523458D01*
X95126719Y-119468941D01*
X95125500Y-119453454D01*
X95125500Y-116644031D01*
X95144407Y-116585840D01*
X95154490Y-116574033D01*
X95190509Y-116538015D01*
X95262984Y-116412485D01*
X95300500Y-116272475D01*
X95300500Y-116127525D01*
X95262984Y-115987515D01*
X95262982Y-115987512D01*
X95262982Y-115987510D01*
X95190512Y-115861989D01*
X95190510Y-115861987D01*
X95190509Y-115861985D01*
X95088015Y-115759491D01*
X95088012Y-115759489D01*
X95088010Y-115759487D01*
X94962488Y-115687017D01*
X94962489Y-115687017D01*
X94908214Y-115672474D01*
X94822475Y-115649500D01*
X94822474Y-115649500D01*
X94771545Y-115649500D01*
X94713354Y-115630593D01*
X94701541Y-115620504D01*
X94380563Y-115299526D01*
X94380563Y-115299525D01*
X94294941Y-115250091D01*
X94294934Y-115250088D01*
X94247185Y-115237294D01*
X94247184Y-115237294D01*
X94199438Y-115224500D01*
X94199436Y-115224500D01*
X94199435Y-115224500D01*
X77544032Y-115224500D01*
X77485841Y-115205593D01*
X77474029Y-115195504D01*
X77438016Y-115159492D01*
X77438010Y-115159487D01*
X77312488Y-115087017D01*
X77312489Y-115087017D01*
X77282896Y-115079087D01*
X77172475Y-115049500D01*
X77027525Y-115049500D01*
X76980931Y-115061985D01*
X76887510Y-115087017D01*
X76761989Y-115159487D01*
X76659487Y-115261989D01*
X76587017Y-115387510D01*
X76587016Y-115387515D01*
X76549500Y-115527525D01*
X65200500Y-115527525D01*
X65200500Y-110605327D01*
X135499500Y-110605327D01*
X135499500Y-112354672D01*
X135499501Y-112354684D01*
X135514033Y-112427736D01*
X135514035Y-112427742D01*
X135569397Y-112510599D01*
X135569399Y-112510601D01*
X135652260Y-112565966D01*
X135707808Y-112577015D01*
X135725315Y-112580498D01*
X135725320Y-112580498D01*
X135725326Y-112580500D01*
X135725327Y-112580500D01*
X137474673Y-112580500D01*
X137474674Y-112580500D01*
X137547740Y-112565966D01*
X137630601Y-112510601D01*
X137685966Y-112427740D01*
X137700500Y-112354674D01*
X137700500Y-110605326D01*
X137685966Y-110532260D01*
X137630601Y-110449399D01*
X137630599Y-110449397D01*
X137547742Y-110394035D01*
X137547740Y-110394034D01*
X137547737Y-110394033D01*
X137547736Y-110394033D01*
X137474684Y-110379501D01*
X137474674Y-110379500D01*
X135725326Y-110379500D01*
X135725325Y-110379500D01*
X135725315Y-110379501D01*
X135652263Y-110394033D01*
X135652257Y-110394035D01*
X135569400Y-110449397D01*
X135569397Y-110449400D01*
X135514035Y-110532257D01*
X135514033Y-110532263D01*
X135499501Y-110605315D01*
X135499500Y-110605327D01*
X65200500Y-110605327D01*
X65200500Y-109549500D01*
X65219407Y-109491309D01*
X65268907Y-109455345D01*
X65299500Y-109450500D01*
X139800500Y-109450500D01*
X139858691Y-109469407D01*
G37*
%TD.AperFunction*%
%TD*%
M02*
