M48
; DRILL file {KiCad 9.0.0} date 2025-06-04T14:11:12+0200
; FORMAT={-:-/ absolute / metric / decimal}
; #@! TF.CreationDate,2025-06-04T14:11:12+02:00
; #@! TF.GenerationSoftware,Kicad,Pcbnew,9.0.0
; #@! TF.FileFunction,Plated,1,2,PTH
FMAT,2
METRIC
; #@! TA.AperFunction,Plated,PTH,ViaDrill
T1C0.300
; #@! TA.AperFunction,Plated,PTH,ComponentDrill
T2C0.500
; #@! TA.AperFunction,Plated,PTH,ComponentDrill
T3C0.600
; #@! TA.AperFunction,Plated,PTH,ComponentDrill
T4C1.000
; #@! TA.AperFunction,Plated,PTH,ComponentDrill
T5C1.200
; #@! TA.AperFunction,Plated,PTH,ComponentDrill
T6C1.500
; #@! TA.AperFunction,Plated,PTH,ComponentDrill
T7C2.000
; #@! TA.AperFunction,Plated,PTH,ComponentDrill
T8C2.150
%
G90
G05
T1
X77.1Y-115.6
X81.9Y-133.7
X81.9Y-134.5
X82.7Y-133.7
X82.7Y-134.5
X83.5Y-133.7
X83.5Y-134.5
X84.3Y-133.7
X84.3Y-134.5
X85.1Y-133.7
X85.1Y-134.5
X85.9Y-133.7
X85.9Y-134.5
X86.7Y-133.7
X86.7Y-134.5
X87.5Y-133.7
X87.5Y-134.5
X87.6Y-140.3
X88.3Y-133.7
X88.3Y-134.5
X88.4Y-140.3
X89.1Y-133.7
X89.1Y-134.5
X89.9Y-133.7
X89.9Y-134.5
X90.7Y-133.7
X90.7Y-134.5
X91.5Y-140.3
X92.1Y-132.15
X92.9Y-132.15
X93.7Y-132.15
X94.45Y-132.15
X94.75Y-116.2
X95.25Y-132.15
X96.15Y-132.35
X97.0Y-142.0
X97.0Y-143.75
X97.1Y-136.3
X97.35Y-120.0
X98.15Y-120.0
X98.95Y-120.0
X99.75Y-120.0
X100.55Y-120.0
X101.35Y-120.0
X102.25Y-120.0
X103.05Y-120.0
X103.6Y-142.175
X103.7Y-140.3
X103.85Y-120.0
X104.6Y-140.3
X104.65Y-120.0
X105.45Y-120.0
X105.6Y-140.3
X106.25Y-120.0
X106.45Y-142.95
X106.676Y-140.284
X107.05Y-120.0
X107.45Y-142.95
X107.7Y-140.3
X107.85Y-120.0
X108.65Y-120.0
X109.45Y-120.0
X109.5Y-132.8
X109.5Y-133.6
X109.5Y-134.4
X110.25Y-120.0
X110.3Y-132.8
X110.3Y-133.6
X110.3Y-134.4
X111.05Y-120.0
X111.1Y-132.8
X111.1Y-133.6
X111.1Y-134.4
X111.85Y-120.0
X112.0Y-132.8
X112.0Y-133.6
X112.0Y-134.4
X112.35Y-111.7
X112.35Y-112.7
X112.65Y-120.0
X112.8Y-132.8
X112.8Y-133.6
X112.8Y-134.4
X113.55Y-120.0
X114.45Y-120.0
X115.35Y-114.5
X115.35Y-115.4
X115.5Y-134.5
X115.5Y-135.3
X116.3Y-134.5
X116.3Y-135.3
X117.1Y-134.5
X117.1Y-135.3
X118.0Y-123.0
X118.0Y-134.5
X118.65Y-118.529
X118.9Y-134.5
X118.9Y-135.3
X119.1Y-140.1
X119.1Y-141.4
X119.7Y-134.5
X119.7Y-135.3
X120.5Y-134.5
X120.5Y-135.3
X120.85Y-121.1
X121.478Y-134.5
X121.6Y-127.0
X122.4Y-134.5
X122.9Y-129.7
X123.4Y-134.5
X123.4Y-135.3
X123.56Y-122.92
X124.2Y-134.5
X124.2Y-135.3
X124.35Y-117.2
X125.0Y-134.5
X125.0Y-135.3
X125.4Y-121.1
X125.8Y-134.5
X125.8Y-135.3
X126.6Y-134.5
X126.6Y-135.3
X127.4Y-134.5
X127.4Y-135.3
X128.2Y-134.5
X128.2Y-135.3
X129.16Y-124.22
X130.7Y-121.9
X132.4Y-138.9
X138.7Y-141.1
T4
X136.6Y-111.48
X136.6Y-114.02
X136.6Y-116.56
X136.6Y-119.1
X136.6Y-121.64
T5
X73.5Y-139.505
X73.5Y-143.005
T6
X77.45Y-128.8
T8
X70.95Y-124.0
X70.95Y-133.6
X75.65Y-124.0
X75.65Y-133.6
T2
G00X135.875Y-134.99
M15
G01X135.875Y-134.69
M16
G05
G00X135.875Y-143.01
M15
G01X135.875Y-142.71
M16
G05
T3
G00X133.075Y-137.545
M15
G01X133.075Y-136.655
M16
G05
G00X133.075Y-141.045
M15
G01X133.075Y-140.155
M16
G05
G00X138.675Y-139.5
M15
G01X138.675Y-138.2
M16
G05
T7
G00X71.45Y-128.25
M15
G01X71.45Y-129.35
M16
G05
M30
