%TF.GenerationSoftware,KiCad,Pcbnew,9.0.4*%
%TF.CreationDate,2026-06-19T10:04:36+02:00*%
%TF.ProjectId,usb_c_pd_source,7573625f-635f-4706-945f-736f75726365,rev?*%
%TF.SameCoordinates,Original*%
%TF.FileFunction,Copper,L2,Inr*%
%TF.FilePolarity,Positive*%
%FSLAX46Y46*%
G04 Gerber Fmt 4.6, Leading zero omitted, Abs format (unit mm)*
G04 Created by KiCad (PCBNEW 9.0.4) date 2026-06-19 10:04:36*
%MOMM*%
%LPD*%
G01*
G04 APERTURE LIST*
G04 Aperture macros list*
%AMRoundRect*
0 Rectangle with rounded corners*
0 $1 Rounding radius*
0 $2 $3 $4 $5 $6 $7 $8 $9 X,Y pos of 4 corners*
0 Add a 4 corners polygon primitive as box body*
4,1,4,$2,$3,$4,$5,$6,$7,$8,$9,$2,$3,0*
0 Add four circle primitives for the rounded corners*
1,1,$1+$1,$2,$3*
1,1,$1+$1,$4,$5*
1,1,$1+$1,$6,$7*
1,1,$1+$1,$8,$9*
0 Add four rect primitives between the rounded corners*
20,1,$1+$1,$2,$3,$4,$5,0*
20,1,$1+$1,$4,$5,$6,$7,0*
20,1,$1+$1,$6,$7,$8,$9,0*
20,1,$1+$1,$8,$9,$2,$3,0*%
G04 Aperture macros list end*
%TA.AperFunction,ComponentPad*%
%ADD10R,1.700000X1.700000*%
%TD*%
%TA.AperFunction,ComponentPad*%
%ADD11C,1.700000*%
%TD*%
%TA.AperFunction,ComponentPad*%
%ADD12RoundRect,0.250000X-1.550000X0.650000X-1.550000X-0.650000X1.550000X-0.650000X1.550000X0.650000X0*%
%TD*%
%TA.AperFunction,ComponentPad*%
%ADD13O,3.600000X1.800000*%
%TD*%
%TA.AperFunction,ComponentPad*%
%ADD14O,0.800000X1.100000*%
%TD*%
%TA.AperFunction,ComponentPad*%
%ADD15O,1.000000X2.000000*%
%TD*%
%TA.AperFunction,ComponentPad*%
%ADD16O,1.000000X2.500000*%
%TD*%
%TA.AperFunction,ViaPad*%
%ADD17C,0.500000*%
%TD*%
%TA.AperFunction,ViaPad*%
%ADD18C,0.700000*%
%TD*%
%TA.AperFunction,ViaPad*%
%ADD19C,0.600000*%
%TD*%
G04 APERTURE END LIST*
D10*
%TO.N,+3V3*%
%TO.C,J3*%
X238100000Y-119880000D03*
D11*
%TO.N,/SW_CLK*%
X238100000Y-122420000D03*
%TO.N,GND*%
X238100000Y-124960000D03*
%TO.N,/SWD_IO*%
X238100000Y-127500000D03*
%TO.N,/NRST*%
X238100000Y-130040000D03*
%TD*%
D12*
%TO.N,/PWR_IN*%
%TO.C,J2*%
X182932500Y-114305000D03*
D13*
%TO.N,GND*%
X182932500Y-117805000D03*
%TD*%
D14*
%TO.N,GND*%
%TO.C,J4*%
X235200000Y-103840000D03*
D15*
X238000000Y-106100000D03*
D16*
X232400000Y-107850000D03*
D15*
X238000000Y-109600000D03*
D14*
X235200000Y-111860000D03*
%TD*%
D17*
%TO.N,AGND*%
X204750000Y-117150000D03*
X204750000Y-117850000D03*
X192300000Y-122400000D03*
X195450000Y-127100000D03*
X192650000Y-121000000D03*
X200700000Y-120400000D03*
X195450000Y-127750000D03*
D18*
%TO.N,+3V3*%
X196600000Y-103887500D03*
X227300000Y-117700000D03*
X234800000Y-115200000D03*
X225700000Y-131800000D03*
D19*
X203800000Y-120600000D03*
D18*
X226600000Y-131800000D03*
D19*
X194400000Y-111400000D03*
D18*
X197600000Y-104800000D03*
D19*
%TO.N,/BUCK_OUT*%
X219940380Y-115640380D03*
X218400000Y-109600000D03*
X208000000Y-111200000D03*
X217500000Y-127800000D03*
X220700000Y-119900000D03*
X201600000Y-120600000D03*
%TO.N,Net-(Q1-G)*%
X219000000Y-119900000D03*
X212700000Y-128400000D03*
%TO.N,Net-(Q2-G)*%
X224400000Y-105750000D03*
X227301511Y-110780000D03*
X218075000Y-116600000D03*
X225500000Y-110100000D03*
D17*
%TO.N,Net-(U4-SEL_PDO5)*%
X200000000Y-123200000D03*
X209400000Y-126000000D03*
%TO.N,Net-(U4-SEL_PDO4)*%
X208300000Y-126000000D03*
X200100000Y-124000000D03*
%TO.N,/CC1*%
X208400000Y-119200000D03*
D19*
X237101211Y-108661619D03*
D17*
%TO.N,/CC2*%
X207300000Y-119200000D03*
X233200001Y-106500001D03*
%TO.N,/SDA*%
X205800000Y-120300000D03*
D19*
X225825000Y-119225000D03*
%TO.N,/SCL*%
X225700000Y-117900000D03*
D17*
X206514529Y-120064802D03*
%TO.N,/VBUS*%
X210700000Y-125600000D03*
D19*
X219900038Y-119891860D03*
D18*
%TO.N,GND*%
X222700000Y-126000000D03*
D19*
X195200000Y-111200000D03*
D18*
X194800000Y-118700000D03*
X211600000Y-114600000D03*
X194100000Y-117800000D03*
D19*
X208800000Y-127400000D03*
D17*
X197200000Y-116700000D03*
D18*
X209100000Y-114600000D03*
X222700000Y-121300000D03*
X210300000Y-114600000D03*
X214200000Y-114600000D03*
D19*
X224000000Y-117500000D03*
D18*
X189400000Y-117800000D03*
X222700000Y-120300000D03*
D19*
X197200000Y-109800000D03*
D18*
X214200000Y-115700000D03*
X191800000Y-117800000D03*
D19*
X221400000Y-114100000D03*
D18*
X222700000Y-122700000D03*
D19*
X215250000Y-128450000D03*
X206000000Y-115900000D03*
X237800000Y-114800000D03*
D18*
X218000000Y-115700000D03*
D19*
X198000000Y-109800000D03*
D18*
X222700000Y-130900000D03*
D19*
X233000000Y-130500000D03*
D18*
X215400000Y-115700000D03*
X222700000Y-123700000D03*
X222700000Y-127500000D03*
D19*
X196600000Y-110400000D03*
D18*
X191300000Y-118700000D03*
X212800000Y-115700000D03*
D19*
X203200000Y-126600000D03*
D18*
X193600000Y-118700000D03*
X195300000Y-117800000D03*
X216800000Y-114600000D03*
D19*
X201600000Y-103300000D03*
D18*
X216800000Y-115700000D03*
D19*
X215100000Y-120600000D03*
X235000000Y-128100000D03*
D18*
X222700000Y-128500000D03*
X190100000Y-118700000D03*
D19*
X212500000Y-116601000D03*
X210100000Y-116600000D03*
D18*
X209100000Y-115700000D03*
D19*
X204800000Y-122200000D03*
X209200000Y-103300000D03*
X201600000Y-106800000D03*
D18*
X215400000Y-114600000D03*
X218000000Y-114600000D03*
X190600000Y-117800000D03*
D19*
X187000000Y-111000000D03*
D18*
X192500000Y-118700000D03*
D19*
X215800000Y-103300000D03*
D18*
X222700000Y-125000000D03*
D19*
X188700000Y-126400000D03*
D17*
X197887500Y-116700000D03*
D18*
X222700000Y-129900000D03*
D19*
X227500000Y-125250000D03*
X221800000Y-103300000D03*
D18*
X188900000Y-118700000D03*
X210300000Y-115700000D03*
D19*
X228900000Y-103300000D03*
X214300000Y-120600000D03*
X188800000Y-121400000D03*
D18*
X211600000Y-115700000D03*
X193000000Y-117800000D03*
D17*
X198600000Y-116725002D03*
D18*
X212800000Y-114600000D03*
%TD*%
%TA.AperFunction,Conductor*%
%TO.N,GND*%
G36*
X240442539Y-99520185D02*
G01*
X240488294Y-99572989D01*
X240499500Y-99624500D01*
X240499500Y-132375500D01*
X240479815Y-132442539D01*
X240427011Y-132488294D01*
X240375500Y-132499500D01*
X227048628Y-132499500D01*
X226981589Y-132479815D01*
X226935834Y-132427011D01*
X226925890Y-132357853D01*
X226954915Y-132294297D01*
X226963195Y-132286493D01*
X226962969Y-132286267D01*
X226968716Y-132280520D01*
X227080520Y-132168716D01*
X227159577Y-132031784D01*
X227200500Y-131879057D01*
X227200500Y-131720943D01*
X227159577Y-131568216D01*
X227159573Y-131568209D01*
X227080524Y-131431290D01*
X227080518Y-131431282D01*
X226968717Y-131319481D01*
X226968709Y-131319475D01*
X226831790Y-131240426D01*
X226831786Y-131240424D01*
X226831784Y-131240423D01*
X226679057Y-131199500D01*
X226520943Y-131199500D01*
X226368216Y-131240423D01*
X226368209Y-131240426D01*
X226231291Y-131319475D01*
X226225488Y-131323928D01*
X226160319Y-131349123D01*
X226091874Y-131335086D01*
X226074512Y-131323928D01*
X226068720Y-131319484D01*
X226068716Y-131319480D01*
X226068710Y-131319476D01*
X226068708Y-131319475D01*
X225931790Y-131240426D01*
X225931786Y-131240424D01*
X225931784Y-131240423D01*
X225779057Y-131199500D01*
X225620943Y-131199500D01*
X225468216Y-131240423D01*
X225468209Y-131240426D01*
X225331290Y-131319475D01*
X225331282Y-131319481D01*
X225219481Y-131431282D01*
X225219475Y-131431290D01*
X225140426Y-131568209D01*
X225140423Y-131568216D01*
X225099500Y-131720943D01*
X225099500Y-131879056D01*
X225140423Y-132031783D01*
X225140426Y-132031790D01*
X225219475Y-132168709D01*
X225219481Y-132168717D01*
X225337031Y-132286267D01*
X225335012Y-132288285D01*
X225368067Y-132333569D01*
X225372212Y-132403316D01*
X225337991Y-132464231D01*
X225276269Y-132496975D01*
X225251372Y-132499500D01*
X174624500Y-132499500D01*
X174557461Y-132479815D01*
X174511706Y-132427011D01*
X174500500Y-132375500D01*
X174500500Y-129953389D01*
X236999500Y-129953389D01*
X236999500Y-130126611D01*
X237026598Y-130297701D01*
X237080127Y-130462445D01*
X237158768Y-130616788D01*
X237260586Y-130756928D01*
X237383072Y-130879414D01*
X237523212Y-130981232D01*
X237677555Y-131059873D01*
X237842299Y-131113402D01*
X238013389Y-131140500D01*
X238013390Y-131140500D01*
X238186610Y-131140500D01*
X238186611Y-131140500D01*
X238357701Y-131113402D01*
X238522445Y-131059873D01*
X238676788Y-130981232D01*
X238816928Y-130879414D01*
X238939414Y-130756928D01*
X239041232Y-130616788D01*
X239119873Y-130462445D01*
X239173402Y-130297701D01*
X239200500Y-130126611D01*
X239200500Y-129953389D01*
X239173402Y-129782299D01*
X239119873Y-129617555D01*
X239041232Y-129463212D01*
X238939414Y-129323072D01*
X238816928Y-129200586D01*
X238676788Y-129098768D01*
X238522445Y-129020127D01*
X238357701Y-128966598D01*
X238357699Y-128966597D01*
X238357698Y-128966597D01*
X238226271Y-128945781D01*
X238186611Y-128939500D01*
X238013389Y-128939500D01*
X237973728Y-128945781D01*
X237842302Y-128966597D01*
X237677552Y-129020128D01*
X237523211Y-129098768D01*
X237443256Y-129156859D01*
X237383072Y-129200586D01*
X237383070Y-129200588D01*
X237383069Y-129200588D01*
X237260588Y-129323069D01*
X237260588Y-129323070D01*
X237260586Y-129323072D01*
X237216859Y-129383256D01*
X237158768Y-129463211D01*
X237080128Y-129617552D01*
X237026597Y-129782302D01*
X236999500Y-129953389D01*
X174500500Y-129953389D01*
X174500500Y-119851359D01*
X191544500Y-119851359D01*
X191544500Y-127590981D01*
X191547708Y-127631344D01*
X191553901Y-127670051D01*
X191556311Y-127682971D01*
X191595731Y-127774538D01*
X191595732Y-127774539D01*
X191635348Y-127832089D01*
X191684688Y-127885513D01*
X192404725Y-128470544D01*
X192404746Y-128470560D01*
X192415996Y-128479193D01*
X192427144Y-128487264D01*
X192427146Y-128487266D01*
X192504991Y-128525461D01*
X192504994Y-128525462D01*
X192505000Y-128525465D01*
X192572039Y-128545150D01*
X192572043Y-128545150D01*
X192572045Y-128545151D01*
X192583676Y-128546823D01*
X192644024Y-128555500D01*
X192644025Y-128555500D01*
X201259875Y-128555500D01*
X201259904Y-128555500D01*
X201266851Y-128555406D01*
X201273579Y-128555223D01*
X201351810Y-128540701D01*
X201417683Y-128517408D01*
X201417686Y-128517406D01*
X201417690Y-128517405D01*
X201482092Y-128483656D01*
X201482098Y-128483653D01*
X201698275Y-128327525D01*
X212149500Y-128327525D01*
X212149500Y-128472475D01*
X212171747Y-128555500D01*
X212187017Y-128612488D01*
X212259488Y-128738011D01*
X212259490Y-128738013D01*
X212259491Y-128738015D01*
X212361985Y-128840509D01*
X212361986Y-128840510D01*
X212361988Y-128840511D01*
X212487511Y-128912982D01*
X212487512Y-128912982D01*
X212487515Y-128912984D01*
X212627525Y-128950500D01*
X212627528Y-128950500D01*
X212772472Y-128950500D01*
X212772475Y-128950500D01*
X212912485Y-128912984D01*
X213038015Y-128840509D01*
X213140509Y-128738015D01*
X213212984Y-128612485D01*
X213250500Y-128472475D01*
X213250500Y-128327525D01*
X213212984Y-128187515D01*
X213184406Y-128138017D01*
X213140511Y-128061988D01*
X213140506Y-128061982D01*
X213038017Y-127959493D01*
X213038011Y-127959488D01*
X212912488Y-127887017D01*
X212912489Y-127887017D01*
X212901006Y-127883940D01*
X212772475Y-127849500D01*
X212627525Y-127849500D01*
X212498993Y-127883940D01*
X212487511Y-127887017D01*
X212361988Y-127959488D01*
X212361982Y-127959493D01*
X212259493Y-128061982D01*
X212259488Y-128061988D01*
X212187017Y-128187511D01*
X212187016Y-128187515D01*
X212149500Y-128327525D01*
X201698275Y-128327525D01*
X201848715Y-128218874D01*
X201892141Y-128187511D01*
X202298194Y-127894250D01*
X202334106Y-127862815D01*
X202365820Y-127829330D01*
X202379257Y-127813956D01*
X202424469Y-127727525D01*
X216949500Y-127727525D01*
X216949500Y-127872475D01*
X216972817Y-127959493D01*
X216987017Y-128012488D01*
X217059488Y-128138011D01*
X217059490Y-128138013D01*
X217059491Y-128138015D01*
X217161985Y-128240509D01*
X217161986Y-128240510D01*
X217161988Y-128240511D01*
X217287511Y-128312982D01*
X217287512Y-128312982D01*
X217287515Y-128312984D01*
X217427525Y-128350500D01*
X217427528Y-128350500D01*
X217572472Y-128350500D01*
X217572475Y-128350500D01*
X217712485Y-128312984D01*
X217838015Y-128240509D01*
X217940509Y-128138015D01*
X218012984Y-128012485D01*
X218050500Y-127872475D01*
X218050500Y-127727525D01*
X218012984Y-127587515D01*
X217940509Y-127461985D01*
X217838015Y-127359491D01*
X217838013Y-127359490D01*
X217838011Y-127359488D01*
X217712488Y-127287017D01*
X217712489Y-127287017D01*
X217701006Y-127283940D01*
X217572475Y-127249500D01*
X217427525Y-127249500D01*
X217298993Y-127283940D01*
X217287511Y-127287017D01*
X217161988Y-127359488D01*
X217161982Y-127359493D01*
X217059493Y-127461982D01*
X217059488Y-127461988D01*
X216987017Y-127587511D01*
X216986087Y-127590981D01*
X216949500Y-127727525D01*
X202424469Y-127727525D01*
X202425465Y-127725621D01*
X202445150Y-127658582D01*
X202455500Y-127586597D01*
X202455500Y-125934108D01*
X207799500Y-125934108D01*
X207799500Y-126065891D01*
X207833608Y-126193187D01*
X207843948Y-126211096D01*
X207899500Y-126307314D01*
X207992686Y-126400500D01*
X208106814Y-126466392D01*
X208234108Y-126500500D01*
X208234110Y-126500500D01*
X208365890Y-126500500D01*
X208365892Y-126500500D01*
X208493186Y-126466392D01*
X208607314Y-126400500D01*
X208700500Y-126307314D01*
X208742613Y-126234371D01*
X208793180Y-126186156D01*
X208861787Y-126172933D01*
X208926652Y-126198901D01*
X208957386Y-126234371D01*
X208999500Y-126307314D01*
X209092686Y-126400500D01*
X209206814Y-126466392D01*
X209334108Y-126500500D01*
X209334110Y-126500500D01*
X209465890Y-126500500D01*
X209465892Y-126500500D01*
X209593186Y-126466392D01*
X209707314Y-126400500D01*
X209800500Y-126307314D01*
X209866392Y-126193186D01*
X209900500Y-126065892D01*
X209900500Y-125934108D01*
X209866392Y-125806814D01*
X209800500Y-125692686D01*
X209707314Y-125599500D01*
X209650250Y-125566554D01*
X209594053Y-125534108D01*
X210199500Y-125534108D01*
X210199500Y-125665892D01*
X210214458Y-125721716D01*
X210233608Y-125793187D01*
X210238175Y-125801097D01*
X210299500Y-125907314D01*
X210392686Y-126000500D01*
X210491521Y-126057563D01*
X210505944Y-126065890D01*
X210506814Y-126066392D01*
X210634108Y-126100500D01*
X210634110Y-126100500D01*
X210765890Y-126100500D01*
X210765892Y-126100500D01*
X210893186Y-126066392D01*
X211007314Y-126000500D01*
X211100500Y-125907314D01*
X211166392Y-125793186D01*
X211200500Y-125665892D01*
X211200500Y-125534108D01*
X211166392Y-125406814D01*
X211100500Y-125292686D01*
X211007314Y-125199500D01*
X210926762Y-125152993D01*
X210893187Y-125133608D01*
X210829539Y-125116554D01*
X210765892Y-125099500D01*
X210634108Y-125099500D01*
X210506812Y-125133608D01*
X210392686Y-125199500D01*
X210392683Y-125199502D01*
X210299502Y-125292683D01*
X210299500Y-125292686D01*
X210233608Y-125406812D01*
X210228487Y-125425925D01*
X210199500Y-125534108D01*
X209594053Y-125534108D01*
X209593187Y-125533608D01*
X209529539Y-125516554D01*
X209465892Y-125499500D01*
X209334108Y-125499500D01*
X209206812Y-125533608D01*
X209092686Y-125599500D01*
X209092683Y-125599502D01*
X208999502Y-125692683D01*
X208999500Y-125692686D01*
X208982740Y-125721716D01*
X208957387Y-125765628D01*
X208906820Y-125813843D01*
X208838212Y-125827065D01*
X208773348Y-125801097D01*
X208742613Y-125765628D01*
X208700500Y-125692686D01*
X208607314Y-125599500D01*
X208550250Y-125566554D01*
X208493187Y-125533608D01*
X208429539Y-125516554D01*
X208365892Y-125499500D01*
X208234108Y-125499500D01*
X208106812Y-125533608D01*
X207992686Y-125599500D01*
X207992683Y-125599502D01*
X207899502Y-125692683D01*
X207899500Y-125692686D01*
X207833608Y-125806812D01*
X207799500Y-125934108D01*
X202455500Y-125934108D01*
X202455500Y-124853753D01*
X236750000Y-124853753D01*
X236750000Y-125066246D01*
X236783242Y-125276127D01*
X236783242Y-125276130D01*
X236848904Y-125478217D01*
X236945375Y-125667550D01*
X236984728Y-125721716D01*
X237617037Y-125089408D01*
X237634075Y-125152993D01*
X237699901Y-125267007D01*
X237792993Y-125360099D01*
X237907007Y-125425925D01*
X237970590Y-125442962D01*
X237338282Y-126075269D01*
X237338282Y-126075270D01*
X237392449Y-126114624D01*
X237581784Y-126211096D01*
X237680711Y-126243239D01*
X237738387Y-126282676D01*
X237765586Y-126347034D01*
X237753672Y-126415881D01*
X237706428Y-126467357D01*
X237680722Y-126479097D01*
X237679522Y-126479487D01*
X237677550Y-126480128D01*
X237523211Y-126558768D01*
X237443256Y-126616859D01*
X237383072Y-126660586D01*
X237383070Y-126660588D01*
X237383069Y-126660588D01*
X237260588Y-126783069D01*
X237260588Y-126783070D01*
X237260586Y-126783072D01*
X237216859Y-126843256D01*
X237158768Y-126923211D01*
X237080128Y-127077552D01*
X237026597Y-127242302D01*
X236999500Y-127413389D01*
X236999500Y-127586610D01*
X237021818Y-127727525D01*
X237026598Y-127757701D01*
X237080127Y-127922445D01*
X237158768Y-128076788D01*
X237260586Y-128216928D01*
X237383072Y-128339414D01*
X237523212Y-128441232D01*
X237677555Y-128519873D01*
X237842299Y-128573402D01*
X238013389Y-128600500D01*
X238013390Y-128600500D01*
X238186610Y-128600500D01*
X238186611Y-128600500D01*
X238357701Y-128573402D01*
X238522445Y-128519873D01*
X238676788Y-128441232D01*
X238816928Y-128339414D01*
X238939414Y-128216928D01*
X239041232Y-128076788D01*
X239119873Y-127922445D01*
X239173402Y-127757701D01*
X239200500Y-127586611D01*
X239200500Y-127413389D01*
X239173402Y-127242299D01*
X239119873Y-127077555D01*
X239041232Y-126923212D01*
X238939414Y-126783072D01*
X238816928Y-126660586D01*
X238676788Y-126558768D01*
X238562428Y-126500499D01*
X238522446Y-126480127D01*
X238519284Y-126479100D01*
X238518236Y-126478383D01*
X238517952Y-126478266D01*
X238517976Y-126478206D01*
X238461609Y-126439661D01*
X238434413Y-126375302D01*
X238446329Y-126306456D01*
X238493574Y-126254981D01*
X238519288Y-126243239D01*
X238618215Y-126211096D01*
X238807554Y-126114622D01*
X238861716Y-126075270D01*
X238861717Y-126075270D01*
X238229408Y-125442962D01*
X238292993Y-125425925D01*
X238407007Y-125360099D01*
X238500099Y-125267007D01*
X238565925Y-125152993D01*
X238582962Y-125089408D01*
X239215270Y-125721717D01*
X239215270Y-125721716D01*
X239254622Y-125667554D01*
X239351095Y-125478217D01*
X239416757Y-125276130D01*
X239416757Y-125276127D01*
X239450000Y-125066246D01*
X239450000Y-124853753D01*
X239416757Y-124643872D01*
X239416757Y-124643869D01*
X239351095Y-124441782D01*
X239254624Y-124252449D01*
X239215270Y-124198282D01*
X239215269Y-124198282D01*
X238582962Y-124830590D01*
X238565925Y-124767007D01*
X238500099Y-124652993D01*
X238407007Y-124559901D01*
X238292993Y-124494075D01*
X238229409Y-124477037D01*
X238861716Y-123844728D01*
X238807550Y-123805375D01*
X238618217Y-123708904D01*
X238519287Y-123676760D01*
X238461611Y-123637323D01*
X238434413Y-123572964D01*
X238446328Y-123504118D01*
X238493572Y-123452642D01*
X238519290Y-123440897D01*
X238522445Y-123439873D01*
X238676788Y-123361232D01*
X238816928Y-123259414D01*
X238939414Y-123136928D01*
X239041232Y-122996788D01*
X239119873Y-122842445D01*
X239173402Y-122677701D01*
X239200500Y-122506611D01*
X239200500Y-122333389D01*
X239173402Y-122162299D01*
X239119873Y-121997555D01*
X239041232Y-121843212D01*
X238939414Y-121703072D01*
X238816928Y-121580586D01*
X238676788Y-121478768D01*
X238522445Y-121400127D01*
X238357701Y-121346598D01*
X238357699Y-121346597D01*
X238357698Y-121346597D01*
X238226271Y-121325781D01*
X238186611Y-121319500D01*
X238013389Y-121319500D01*
X237973728Y-121325781D01*
X237842302Y-121346597D01*
X237677552Y-121400128D01*
X237523211Y-121478768D01*
X237443256Y-121536859D01*
X237383072Y-121580586D01*
X237383070Y-121580588D01*
X237383069Y-121580588D01*
X237260588Y-121703069D01*
X237260588Y-121703070D01*
X237260586Y-121703072D01*
X237216859Y-121763256D01*
X237158768Y-121843211D01*
X237080128Y-121997552D01*
X237026597Y-122162302D01*
X236999500Y-122333389D01*
X236999500Y-122506611D01*
X237026598Y-122677701D01*
X237080127Y-122842445D01*
X237158768Y-122996788D01*
X237260586Y-123136928D01*
X237383072Y-123259414D01*
X237523212Y-123361232D01*
X237677555Y-123439873D01*
X237680708Y-123440897D01*
X237681752Y-123441611D01*
X237682048Y-123441734D01*
X237682022Y-123441795D01*
X237738383Y-123480330D01*
X237765585Y-123544688D01*
X237753674Y-123613535D01*
X237706433Y-123665013D01*
X237680712Y-123676760D01*
X237581783Y-123708904D01*
X237392439Y-123805380D01*
X237338282Y-123844727D01*
X237338282Y-123844728D01*
X237970591Y-124477037D01*
X237907007Y-124494075D01*
X237792993Y-124559901D01*
X237699901Y-124652993D01*
X237634075Y-124767007D01*
X237617037Y-124830591D01*
X236984728Y-124198282D01*
X236984727Y-124198282D01*
X236945380Y-124252439D01*
X236848904Y-124441782D01*
X236783242Y-124643869D01*
X236783242Y-124643872D01*
X236750000Y-124853753D01*
X202455500Y-124853753D01*
X202455500Y-122007193D01*
X202475185Y-121940154D01*
X202491819Y-121919512D01*
X202719512Y-121691819D01*
X202780835Y-121658334D01*
X202807193Y-121655500D01*
X204656371Y-121655500D01*
X204656374Y-121655500D01*
X204669832Y-121655145D01*
X204682876Y-121654457D01*
X204766788Y-121635531D01*
X204831385Y-121608904D01*
X204893992Y-121571902D01*
X205563618Y-121034172D01*
X205593576Y-121005849D01*
X205620250Y-120976203D01*
X205629257Y-120965629D01*
X205675465Y-120877294D01*
X205678289Y-120871896D01*
X205679527Y-120872543D01*
X205718500Y-120823283D01*
X205784593Y-120800624D01*
X205790131Y-120800500D01*
X205865890Y-120800500D01*
X205865892Y-120800500D01*
X205993186Y-120766392D01*
X206107314Y-120700500D01*
X206200500Y-120607314D01*
X206207175Y-120595751D01*
X206257742Y-120547536D01*
X206326348Y-120534312D01*
X206346649Y-120537974D01*
X206448637Y-120565302D01*
X206448639Y-120565302D01*
X206580419Y-120565302D01*
X206580421Y-120565302D01*
X206707715Y-120531194D01*
X206821843Y-120465302D01*
X206915029Y-120372116D01*
X206980921Y-120257988D01*
X207015029Y-120130694D01*
X207015029Y-119998910D01*
X206980921Y-119871616D01*
X206967391Y-119848181D01*
X206962379Y-119827525D01*
X218449500Y-119827525D01*
X218449500Y-119972475D01*
X218487016Y-120112485D01*
X218487017Y-120112488D01*
X218559488Y-120238011D01*
X218559490Y-120238013D01*
X218559491Y-120238015D01*
X218661985Y-120340509D01*
X218661986Y-120340510D01*
X218661988Y-120340511D01*
X218787511Y-120412982D01*
X218787512Y-120412982D01*
X218787515Y-120412984D01*
X218927525Y-120450500D01*
X218927528Y-120450500D01*
X219072472Y-120450500D01*
X219072475Y-120450500D01*
X219212485Y-120412984D01*
X219338015Y-120340509D01*
X219366408Y-120312116D01*
X219427731Y-120278631D01*
X219497423Y-120283615D01*
X219541770Y-120312116D01*
X219562023Y-120332369D01*
X219562024Y-120332370D01*
X219562026Y-120332371D01*
X219687549Y-120404842D01*
X219687550Y-120404842D01*
X219687553Y-120404844D01*
X219827563Y-120442360D01*
X219827566Y-120442360D01*
X219972510Y-120442360D01*
X219972513Y-120442360D01*
X220112523Y-120404844D01*
X220112525Y-120404842D01*
X220112527Y-120404842D01*
X220112528Y-120404841D01*
X220230969Y-120336458D01*
X220298868Y-120319985D01*
X220354970Y-120336458D01*
X220361982Y-120340506D01*
X220361985Y-120340509D01*
X220487515Y-120412984D01*
X220627525Y-120450500D01*
X220627528Y-120450500D01*
X220772472Y-120450500D01*
X220772475Y-120450500D01*
X220912485Y-120412984D01*
X221038015Y-120340509D01*
X221140509Y-120238015D01*
X221212984Y-120112485D01*
X221250500Y-119972475D01*
X221250500Y-119827525D01*
X221212984Y-119687515D01*
X221200797Y-119666407D01*
X221140511Y-119561988D01*
X221140506Y-119561982D01*
X221038017Y-119459493D01*
X221038011Y-119459488D01*
X220912488Y-119387017D01*
X220912489Y-119387017D01*
X220882106Y-119378876D01*
X220772475Y-119349500D01*
X220627525Y-119349500D01*
X220517894Y-119378876D01*
X220487511Y-119387017D01*
X220369068Y-119455401D01*
X220301168Y-119471874D01*
X220245068Y-119455401D01*
X220112526Y-119378877D01*
X220112527Y-119378877D01*
X220101044Y-119375800D01*
X219972513Y-119341360D01*
X219827563Y-119341360D01*
X219699031Y-119375800D01*
X219687549Y-119378877D01*
X219562026Y-119451348D01*
X219562023Y-119451351D01*
X219533627Y-119479746D01*
X219472303Y-119513229D01*
X219402611Y-119508242D01*
X219358267Y-119479743D01*
X219338017Y-119459493D01*
X219338011Y-119459488D01*
X219212488Y-119387017D01*
X219212489Y-119387017D01*
X219182106Y-119378876D01*
X219072475Y-119349500D01*
X218927525Y-119349500D01*
X218817894Y-119378876D01*
X218787511Y-119387017D01*
X218661988Y-119459488D01*
X218661982Y-119459493D01*
X218559493Y-119561982D01*
X218559488Y-119561988D01*
X218487017Y-119687511D01*
X218487016Y-119687515D01*
X218449500Y-119827525D01*
X206962379Y-119827525D01*
X206950918Y-119780285D01*
X206973769Y-119714257D01*
X207028689Y-119671065D01*
X207098242Y-119664422D01*
X207106863Y-119666405D01*
X207234108Y-119700500D01*
X207234110Y-119700500D01*
X207365890Y-119700500D01*
X207365892Y-119700500D01*
X207493186Y-119666392D01*
X207607314Y-119600500D01*
X207700500Y-119507314D01*
X207742613Y-119434371D01*
X207793180Y-119386156D01*
X207861787Y-119372933D01*
X207926652Y-119398901D01*
X207957386Y-119434371D01*
X207999500Y-119507314D01*
X208092686Y-119600500D01*
X208191521Y-119657563D01*
X208205284Y-119665509D01*
X208206814Y-119666392D01*
X208334108Y-119700500D01*
X208334110Y-119700500D01*
X208465890Y-119700500D01*
X208465892Y-119700500D01*
X208593186Y-119666392D01*
X208707314Y-119600500D01*
X208800500Y-119507314D01*
X208866392Y-119393186D01*
X208900500Y-119265892D01*
X208900500Y-119152525D01*
X225274500Y-119152525D01*
X225274500Y-119297475D01*
X225306425Y-119416618D01*
X225312017Y-119437488D01*
X225384488Y-119563011D01*
X225384490Y-119563013D01*
X225384491Y-119563015D01*
X225486985Y-119665509D01*
X225486986Y-119665510D01*
X225486988Y-119665511D01*
X225612511Y-119737982D01*
X225612512Y-119737982D01*
X225612515Y-119737984D01*
X225752525Y-119775500D01*
X225752528Y-119775500D01*
X225897472Y-119775500D01*
X225897475Y-119775500D01*
X226037485Y-119737984D01*
X226163015Y-119665509D01*
X226265509Y-119563015D01*
X226337984Y-119437485D01*
X226375500Y-119297475D01*
X226375500Y-119152525D01*
X226337984Y-119012515D01*
X226334691Y-119006812D01*
X226333830Y-119005321D01*
X236999500Y-119005321D01*
X236999500Y-120754678D01*
X237014032Y-120827735D01*
X237014033Y-120827739D01*
X237014034Y-120827740D01*
X237069399Y-120910601D01*
X237151748Y-120965624D01*
X237152260Y-120965966D01*
X237152264Y-120965967D01*
X237225321Y-120980499D01*
X237225324Y-120980500D01*
X237225326Y-120980500D01*
X238974676Y-120980500D01*
X238974677Y-120980499D01*
X239047740Y-120965966D01*
X239130601Y-120910601D01*
X239185966Y-120827740D01*
X239200500Y-120754674D01*
X239200500Y-119005326D01*
X239200500Y-119005323D01*
X239200499Y-119005321D01*
X239185967Y-118932264D01*
X239185966Y-118932260D01*
X239175989Y-118917328D01*
X239130601Y-118849399D01*
X239047740Y-118794034D01*
X239047739Y-118794033D01*
X239047735Y-118794032D01*
X238974677Y-118779500D01*
X238974674Y-118779500D01*
X237225326Y-118779500D01*
X237225323Y-118779500D01*
X237152264Y-118794032D01*
X237152260Y-118794033D01*
X237069399Y-118849399D01*
X237014033Y-118932260D01*
X237014032Y-118932264D01*
X236999500Y-119005321D01*
X226333830Y-119005321D01*
X226265511Y-118886988D01*
X226265506Y-118886982D01*
X226163017Y-118784493D01*
X226163011Y-118784488D01*
X226037488Y-118712017D01*
X226037489Y-118712017D01*
X226026006Y-118708940D01*
X225897475Y-118674500D01*
X225752525Y-118674500D01*
X225669212Y-118696824D01*
X225612511Y-118712017D01*
X225486988Y-118784488D01*
X225486982Y-118784493D01*
X225384493Y-118886982D01*
X225384488Y-118886988D01*
X225312017Y-119012511D01*
X225312016Y-119012515D01*
X225274500Y-119152525D01*
X208900500Y-119152525D01*
X208900500Y-119134108D01*
X208866392Y-119006814D01*
X208863835Y-119002386D01*
X208845032Y-118969818D01*
X208800500Y-118892686D01*
X208707314Y-118799500D01*
X208650250Y-118766554D01*
X208593187Y-118733608D01*
X208529539Y-118716554D01*
X208465892Y-118699500D01*
X208334108Y-118699500D01*
X208206812Y-118733608D01*
X208092686Y-118799500D01*
X208092683Y-118799502D01*
X207999502Y-118892683D01*
X207999500Y-118892686D01*
X207969969Y-118943836D01*
X207957387Y-118965628D01*
X207906820Y-119013843D01*
X207838212Y-119027065D01*
X207773348Y-119001097D01*
X207742613Y-118965628D01*
X207735442Y-118953207D01*
X207700500Y-118892686D01*
X207607314Y-118799500D01*
X207550250Y-118766554D01*
X207493187Y-118733608D01*
X207429539Y-118716554D01*
X207365892Y-118699500D01*
X207234108Y-118699500D01*
X207106812Y-118733608D01*
X206992686Y-118799500D01*
X206992683Y-118799502D01*
X206899502Y-118892683D01*
X206899500Y-118892686D01*
X206833608Y-119006812D01*
X206817287Y-119067725D01*
X206799500Y-119134108D01*
X206799500Y-119265892D01*
X206831724Y-119386156D01*
X206833609Y-119393188D01*
X206833610Y-119393191D01*
X206847136Y-119416618D01*
X206863610Y-119484517D01*
X206840758Y-119550545D01*
X206785838Y-119593736D01*
X206716285Y-119600378D01*
X206707657Y-119598394D01*
X206618055Y-119574386D01*
X206580421Y-119564302D01*
X206448637Y-119564302D01*
X206321341Y-119598410D01*
X206207215Y-119664302D01*
X206207212Y-119664304D01*
X206114031Y-119757485D01*
X206114024Y-119757494D01*
X206107351Y-119769053D01*
X206090613Y-119785010D01*
X206077336Y-119803952D01*
X206065800Y-119808669D01*
X206056783Y-119817267D01*
X206034074Y-119821643D01*
X206012665Y-119830398D01*
X205995675Y-119829042D01*
X205988176Y-119830488D01*
X205977399Y-119828979D01*
X205972584Y-119828087D01*
X205865892Y-119799500D01*
X205818123Y-119799500D01*
X205806933Y-119797429D01*
X205785503Y-119786581D01*
X205762461Y-119779815D01*
X205754899Y-119771088D01*
X205744596Y-119765873D01*
X205732432Y-119745160D01*
X205716706Y-119727011D01*
X205713723Y-119713301D01*
X205709215Y-119705624D01*
X205709657Y-119694612D01*
X205705500Y-119675500D01*
X205705500Y-117827525D01*
X225149500Y-117827525D01*
X225149500Y-117972475D01*
X225187016Y-118112485D01*
X225187017Y-118112488D01*
X225259488Y-118238011D01*
X225259490Y-118238013D01*
X225259491Y-118238015D01*
X225361985Y-118340509D01*
X225361986Y-118340510D01*
X225361988Y-118340511D01*
X225487511Y-118412982D01*
X225487512Y-118412982D01*
X225487515Y-118412984D01*
X225627525Y-118450500D01*
X225627528Y-118450500D01*
X225640232Y-118450500D01*
X225772475Y-118450500D01*
X225912485Y-118412984D01*
X226038015Y-118340509D01*
X226140509Y-118238015D01*
X226212984Y-118112485D01*
X226250500Y-117972475D01*
X226250500Y-117827525D01*
X226212984Y-117687515D01*
X226174549Y-117620943D01*
X226699500Y-117620943D01*
X226699500Y-117779057D01*
X226712488Y-117827527D01*
X226740423Y-117931783D01*
X226740426Y-117931790D01*
X226819475Y-118068709D01*
X226819479Y-118068714D01*
X226819480Y-118068716D01*
X226931284Y-118180520D01*
X226931286Y-118180521D01*
X226931290Y-118180524D01*
X227068209Y-118259573D01*
X227068216Y-118259577D01*
X227220943Y-118300500D01*
X227220945Y-118300500D01*
X227379055Y-118300500D01*
X227379057Y-118300500D01*
X227531784Y-118259577D01*
X227668716Y-118180520D01*
X227780520Y-118068716D01*
X227859577Y-117931784D01*
X227900500Y-117779057D01*
X227900500Y-117620943D01*
X227859577Y-117468216D01*
X227835976Y-117427338D01*
X227780524Y-117331290D01*
X227780518Y-117331282D01*
X227668717Y-117219481D01*
X227668709Y-117219475D01*
X227531790Y-117140426D01*
X227531786Y-117140424D01*
X227531784Y-117140423D01*
X227379057Y-117099500D01*
X227220943Y-117099500D01*
X227068216Y-117140423D01*
X227068209Y-117140426D01*
X226931290Y-117219475D01*
X226931282Y-117219481D01*
X226819481Y-117331282D01*
X226819475Y-117331290D01*
X226740426Y-117468209D01*
X226740423Y-117468216D01*
X226699500Y-117620943D01*
X226174549Y-117620943D01*
X226140509Y-117561985D01*
X226038015Y-117459491D01*
X226038013Y-117459490D01*
X226038011Y-117459488D01*
X225912488Y-117387017D01*
X225912489Y-117387017D01*
X225901006Y-117383940D01*
X225772475Y-117349500D01*
X225627525Y-117349500D01*
X225498993Y-117383940D01*
X225487511Y-117387017D01*
X225361988Y-117459488D01*
X225361982Y-117459493D01*
X225259493Y-117561982D01*
X225259488Y-117561988D01*
X225187017Y-117687511D01*
X225187016Y-117687515D01*
X225149500Y-117827525D01*
X205705500Y-117827525D01*
X205705500Y-117051360D01*
X205704918Y-117040506D01*
X205704036Y-117024048D01*
X205701202Y-116997690D01*
X205671413Y-116902556D01*
X205654862Y-116872246D01*
X205637931Y-116841238D01*
X205637926Y-116841230D01*
X205594350Y-116783019D01*
X205594349Y-116783018D01*
X205594347Y-116783015D01*
X205594342Y-116783010D01*
X205594334Y-116783001D01*
X205418412Y-116607079D01*
X205338858Y-116527525D01*
X217524500Y-116527525D01*
X217524500Y-116672475D01*
X217554121Y-116783019D01*
X217562017Y-116812488D01*
X217634488Y-116938011D01*
X217634490Y-116938013D01*
X217634491Y-116938015D01*
X217736985Y-117040509D01*
X217736986Y-117040510D01*
X217736988Y-117040511D01*
X217862511Y-117112982D01*
X217862512Y-117112982D01*
X217862515Y-117112984D01*
X218002525Y-117150500D01*
X218002528Y-117150500D01*
X218147472Y-117150500D01*
X218147475Y-117150500D01*
X218287485Y-117112984D01*
X218413015Y-117040509D01*
X218515509Y-116938015D01*
X218587984Y-116812485D01*
X218625500Y-116672475D01*
X218625500Y-116527525D01*
X218587984Y-116387515D01*
X218585396Y-116383033D01*
X218515511Y-116261988D01*
X218515506Y-116261982D01*
X218413017Y-116159493D01*
X218413011Y-116159488D01*
X218287488Y-116087017D01*
X218287489Y-116087017D01*
X218264608Y-116080886D01*
X218147475Y-116049500D01*
X218002525Y-116049500D01*
X217885392Y-116080886D01*
X217862511Y-116087017D01*
X217736988Y-116159488D01*
X217736982Y-116159493D01*
X217634493Y-116261982D01*
X217634488Y-116261988D01*
X217562017Y-116387511D01*
X217562016Y-116387515D01*
X217524500Y-116527525D01*
X205338858Y-116527525D01*
X205066998Y-116255666D01*
X205066985Y-116255653D01*
X205046635Y-116237374D01*
X205046629Y-116237369D01*
X205046620Y-116237361D01*
X205025999Y-116220744D01*
X205025996Y-116220742D01*
X205025993Y-116220740D01*
X204937662Y-116174535D01*
X204937659Y-116174534D01*
X204870624Y-116154850D01*
X204870616Y-116154848D01*
X204798639Y-116144500D01*
X204798638Y-116144500D01*
X201551362Y-116144500D01*
X201551361Y-116144500D01*
X201524065Y-116145963D01*
X201524060Y-116145963D01*
X201524048Y-116145964D01*
X201524040Y-116145964D01*
X201524011Y-116145967D01*
X201497689Y-116148797D01*
X201497687Y-116148798D01*
X201402558Y-116178586D01*
X201402548Y-116178590D01*
X201341238Y-116212068D01*
X201341230Y-116212073D01*
X201283019Y-116255649D01*
X201283009Y-116255658D01*
X201155648Y-116383020D01*
X201155636Y-116383033D01*
X201140795Y-116399555D01*
X201140776Y-116399576D01*
X201137374Y-116403365D01*
X201132279Y-116409686D01*
X201132219Y-116409759D01*
X201120744Y-116424000D01*
X201117404Y-116429097D01*
X201117157Y-116428935D01*
X201112510Y-116436307D01*
X201110615Y-116438838D01*
X201105300Y-116446208D01*
X201105299Y-116446211D01*
X201086373Y-116489687D01*
X201074554Y-116512276D01*
X201073791Y-116514872D01*
X201075226Y-116515293D01*
X201067335Y-116533421D01*
X201067333Y-116533422D01*
X201065511Y-116537608D01*
X201065510Y-116537613D01*
X201061899Y-116554206D01*
X201060016Y-116561719D01*
X201059624Y-116563099D01*
X201059609Y-116563122D01*
X201059341Y-116564035D01*
X201059321Y-116564147D01*
X201054849Y-116579375D01*
X201054847Y-116579387D01*
X201044500Y-116651359D01*
X201044500Y-116842806D01*
X201035855Y-116872246D01*
X201029332Y-116902233D01*
X201025577Y-116907248D01*
X201024815Y-116909845D01*
X201008181Y-116930487D01*
X200930487Y-117008181D01*
X200869164Y-117041666D01*
X200842806Y-117044500D01*
X197737544Y-117044500D01*
X197737079Y-117044502D01*
X197735216Y-117044510D01*
X197733260Y-117044527D01*
X197733253Y-117044527D01*
X197733253Y-117044528D01*
X197704938Y-117048967D01*
X197659370Y-117056111D01*
X197592673Y-117076918D01*
X197592670Y-117076919D01*
X197527031Y-117108238D01*
X197313503Y-117250589D01*
X197313493Y-117250597D01*
X197273033Y-117284051D01*
X197273023Y-117284060D01*
X197237504Y-117320183D01*
X197220744Y-117339001D01*
X197220742Y-117339004D01*
X197174534Y-117427339D01*
X197174533Y-117427339D01*
X197154851Y-117494371D01*
X197154848Y-117494383D01*
X197144500Y-117566360D01*
X197144500Y-118517602D01*
X197124815Y-118584641D01*
X197097962Y-118614430D01*
X196719340Y-118917328D01*
X196654694Y-118943836D01*
X196641878Y-118944500D01*
X195168199Y-118944500D01*
X195102079Y-118953204D01*
X195102065Y-118953207D01*
X195040075Y-118969817D01*
X195040071Y-118969818D01*
X194978443Y-118995346D01*
X194978441Y-118995347D01*
X194947301Y-119013326D01*
X194917398Y-119025712D01*
X194861190Y-119040774D01*
X194829094Y-119045000D01*
X194770906Y-119045000D01*
X194738811Y-119040774D01*
X194682602Y-119025712D01*
X194652697Y-119013325D01*
X194621557Y-118995346D01*
X194621546Y-118995341D01*
X194559934Y-118969820D01*
X194559927Y-118969818D01*
X194559925Y-118969817D01*
X194528925Y-118961511D01*
X194497927Y-118953205D01*
X194497911Y-118953202D01*
X194431803Y-118944500D01*
X194431800Y-118944500D01*
X193968200Y-118944500D01*
X193968199Y-118944500D01*
X193902079Y-118953204D01*
X193902065Y-118953207D01*
X193840075Y-118969817D01*
X193840071Y-118969818D01*
X193778443Y-118995346D01*
X193778441Y-118995347D01*
X193747301Y-119013326D01*
X193717398Y-119025712D01*
X193661190Y-119040774D01*
X193629094Y-119045000D01*
X193570906Y-119045000D01*
X193538811Y-119040774D01*
X193482602Y-119025712D01*
X193452697Y-119013325D01*
X193421557Y-118995346D01*
X193421546Y-118995341D01*
X193359934Y-118969820D01*
X193359927Y-118969818D01*
X193359925Y-118969817D01*
X193328925Y-118961511D01*
X193297927Y-118953205D01*
X193297911Y-118953202D01*
X193231803Y-118944500D01*
X193231800Y-118944500D01*
X192868200Y-118944500D01*
X192868199Y-118944500D01*
X192802079Y-118953204D01*
X192802065Y-118953207D01*
X192740075Y-118969817D01*
X192740071Y-118969818D01*
X192678443Y-118995346D01*
X192678441Y-118995347D01*
X192647301Y-119013326D01*
X192617398Y-119025712D01*
X192561190Y-119040774D01*
X192529094Y-119045000D01*
X192458391Y-119045000D01*
X192440743Y-119043738D01*
X192400393Y-119037936D01*
X192341942Y-119036545D01*
X192341938Y-119036545D01*
X192341931Y-119036545D01*
X192341929Y-119036545D01*
X192308558Y-119037936D01*
X192308553Y-119037937D01*
X192213422Y-119067723D01*
X192213420Y-119067723D01*
X192152093Y-119101209D01*
X192093887Y-119144781D01*
X192093872Y-119144794D01*
X191655649Y-119583018D01*
X191655641Y-119583025D01*
X191637379Y-119603358D01*
X191637364Y-119603375D01*
X191620736Y-119624011D01*
X191574534Y-119712337D01*
X191554850Y-119779374D01*
X191554848Y-119779382D01*
X191544500Y-119851359D01*
X174500500Y-119851359D01*
X174500500Y-117555000D01*
X180654645Y-117555000D01*
X182384018Y-117555000D01*
X182373389Y-117573409D01*
X182332500Y-117726009D01*
X182332500Y-117883991D01*
X182373389Y-118036591D01*
X182384018Y-118055000D01*
X180654645Y-118055000D01*
X180666973Y-118132835D01*
X180666973Y-118132838D01*
X180735067Y-118342410D01*
X180835113Y-118538760D01*
X180964642Y-118717041D01*
X181120458Y-118872857D01*
X181298739Y-119002386D01*
X181495089Y-119102432D01*
X181704664Y-119170526D01*
X181922319Y-119205000D01*
X182682500Y-119205000D01*
X182682500Y-118353482D01*
X182700909Y-118364111D01*
X182853509Y-118405000D01*
X183011491Y-118405000D01*
X183164091Y-118364111D01*
X183182500Y-118353482D01*
X183182500Y-119205000D01*
X183942681Y-119205000D01*
X184160335Y-119170526D01*
X184369910Y-119102432D01*
X184566260Y-119002386D01*
X184744541Y-118872857D01*
X184900357Y-118717041D01*
X185029886Y-118538760D01*
X185129932Y-118342410D01*
X185198026Y-118132838D01*
X185198026Y-118132835D01*
X185210355Y-118055000D01*
X183480982Y-118055000D01*
X183491611Y-118036591D01*
X183532500Y-117883991D01*
X183532500Y-117726009D01*
X183491611Y-117573409D01*
X183480982Y-117555000D01*
X185210355Y-117555000D01*
X185198026Y-117477164D01*
X185198026Y-117477161D01*
X185129932Y-117267589D01*
X185029886Y-117071239D01*
X184900357Y-116892958D01*
X184744541Y-116737142D01*
X184566260Y-116607613D01*
X184369910Y-116507567D01*
X184160335Y-116439473D01*
X183942681Y-116405000D01*
X183182500Y-116405000D01*
X183182500Y-117256517D01*
X183164091Y-117245889D01*
X183011491Y-117205000D01*
X182853509Y-117205000D01*
X182700909Y-117245889D01*
X182682500Y-117256517D01*
X182682500Y-116405000D01*
X181922319Y-116405000D01*
X181704664Y-116439473D01*
X181495089Y-116507567D01*
X181298739Y-116607613D01*
X181120458Y-116737142D01*
X180964642Y-116892958D01*
X180835113Y-117071239D01*
X180735067Y-117267589D01*
X180666973Y-117477161D01*
X180666973Y-117477164D01*
X180654645Y-117555000D01*
X174500500Y-117555000D01*
X174500500Y-115567905D01*
X219389880Y-115567905D01*
X219389880Y-115712855D01*
X219413365Y-115800500D01*
X219427397Y-115852868D01*
X219499868Y-115978391D01*
X219499870Y-115978393D01*
X219499871Y-115978395D01*
X219602365Y-116080889D01*
X219602366Y-116080890D01*
X219602368Y-116080891D01*
X219727891Y-116153362D01*
X219727892Y-116153362D01*
X219727895Y-116153364D01*
X219867905Y-116190880D01*
X219867908Y-116190880D01*
X220012852Y-116190880D01*
X220012855Y-116190880D01*
X220152865Y-116153364D01*
X220278395Y-116080889D01*
X220380889Y-115978395D01*
X220453364Y-115852865D01*
X220490880Y-115712855D01*
X220490880Y-115567905D01*
X220453364Y-115427895D01*
X220436564Y-115398797D01*
X220380891Y-115302368D01*
X220380886Y-115302362D01*
X220278397Y-115199873D01*
X220278391Y-115199868D01*
X220152868Y-115127397D01*
X220152869Y-115127397D01*
X220128782Y-115120943D01*
X234199500Y-115120943D01*
X234199500Y-115279057D01*
X234208474Y-115312546D01*
X234240423Y-115431783D01*
X234240426Y-115431790D01*
X234319475Y-115568709D01*
X234319479Y-115568714D01*
X234319480Y-115568716D01*
X234431284Y-115680520D01*
X234431286Y-115680521D01*
X234431290Y-115680524D01*
X234487285Y-115712852D01*
X234568216Y-115759577D01*
X234720943Y-115800500D01*
X234720945Y-115800500D01*
X234879055Y-115800500D01*
X234879057Y-115800500D01*
X235031784Y-115759577D01*
X235168716Y-115680520D01*
X235280520Y-115568716D01*
X235359577Y-115431784D01*
X235400500Y-115279057D01*
X235400500Y-115120943D01*
X235359577Y-114968216D01*
X235359573Y-114968209D01*
X235280524Y-114831290D01*
X235280518Y-114831282D01*
X235168717Y-114719481D01*
X235168709Y-114719475D01*
X235031790Y-114640426D01*
X235031786Y-114640424D01*
X235031784Y-114640423D01*
X234879057Y-114599500D01*
X234720943Y-114599500D01*
X234568216Y-114640423D01*
X234568209Y-114640426D01*
X234431290Y-114719475D01*
X234431282Y-114719481D01*
X234319481Y-114831282D01*
X234319475Y-114831290D01*
X234240426Y-114968209D01*
X234240423Y-114968216D01*
X234199500Y-115120943D01*
X220128782Y-115120943D01*
X220012855Y-115089880D01*
X219867905Y-115089880D01*
X219751978Y-115120943D01*
X219727891Y-115127397D01*
X219602368Y-115199868D01*
X219602362Y-115199873D01*
X219499873Y-115302362D01*
X219499868Y-115302368D01*
X219427397Y-115427891D01*
X219427396Y-115427895D01*
X219389880Y-115567905D01*
X174500500Y-115567905D01*
X174500500Y-113607135D01*
X180882000Y-113607135D01*
X180882000Y-115002870D01*
X180882001Y-115002876D01*
X180888408Y-115062483D01*
X180938702Y-115197328D01*
X180938706Y-115197335D01*
X181024952Y-115312544D01*
X181024955Y-115312547D01*
X181140164Y-115398793D01*
X181140171Y-115398797D01*
X181275017Y-115449091D01*
X181275016Y-115449091D01*
X181281944Y-115449835D01*
X181334627Y-115455500D01*
X184530372Y-115455499D01*
X184589983Y-115449091D01*
X184604716Y-115443596D01*
X184604717Y-115443596D01*
X184724828Y-115398797D01*
X184724827Y-115398797D01*
X184724831Y-115398796D01*
X184840046Y-115312546D01*
X184926296Y-115197331D01*
X184976591Y-115062483D01*
X184983000Y-115002873D01*
X184982999Y-113607128D01*
X184976591Y-113547517D01*
X184926296Y-113412669D01*
X184926295Y-113412668D01*
X184926293Y-113412664D01*
X184840047Y-113297455D01*
X184840044Y-113297452D01*
X184724835Y-113211206D01*
X184724828Y-113211202D01*
X184589982Y-113160908D01*
X184589983Y-113160908D01*
X184530383Y-113154501D01*
X184530381Y-113154500D01*
X184530373Y-113154500D01*
X184530364Y-113154500D01*
X181334629Y-113154500D01*
X181334623Y-113154501D01*
X181275016Y-113160908D01*
X181140171Y-113211202D01*
X181140164Y-113211206D01*
X181024955Y-113297452D01*
X181024952Y-113297455D01*
X180938706Y-113412664D01*
X180938702Y-113412671D01*
X180888408Y-113547517D01*
X180882001Y-113607116D01*
X180882001Y-113607123D01*
X180882000Y-113607135D01*
X174500500Y-113607135D01*
X174500500Y-112110000D01*
X234302259Y-112110000D01*
X234334584Y-112272512D01*
X234334586Y-112272520D01*
X234402428Y-112436307D01*
X234402433Y-112436316D01*
X234500923Y-112583716D01*
X234500926Y-112583720D01*
X234626279Y-112709073D01*
X234626283Y-112709076D01*
X234773683Y-112807566D01*
X234773693Y-112807571D01*
X234937476Y-112875412D01*
X234937483Y-112875415D01*
X234950000Y-112877904D01*
X234950000Y-112110000D01*
X234302259Y-112110000D01*
X174500500Y-112110000D01*
X174500500Y-111327525D01*
X193849500Y-111327525D01*
X193849500Y-111472475D01*
X193886350Y-111610000D01*
X193887017Y-111612488D01*
X193959488Y-111738011D01*
X193959490Y-111738013D01*
X193959491Y-111738015D01*
X194061985Y-111840509D01*
X194061986Y-111840510D01*
X194061988Y-111840511D01*
X194187511Y-111912982D01*
X194187512Y-111912982D01*
X194187515Y-111912984D01*
X194327525Y-111950500D01*
X194327528Y-111950500D01*
X194472472Y-111950500D01*
X194472475Y-111950500D01*
X194612485Y-111912984D01*
X194738015Y-111840509D01*
X194840509Y-111738015D01*
X194912984Y-111612485D01*
X194950500Y-111472475D01*
X194950500Y-111327525D01*
X194912984Y-111187515D01*
X194912982Y-111187511D01*
X194909454Y-111181400D01*
X194909453Y-111181399D01*
X194883405Y-111136283D01*
X194878349Y-111127525D01*
X207449500Y-111127525D01*
X207449500Y-111272475D01*
X207465048Y-111330500D01*
X207487017Y-111412488D01*
X207559488Y-111538011D01*
X207559490Y-111538013D01*
X207559491Y-111538015D01*
X207661985Y-111640509D01*
X207661986Y-111640510D01*
X207661988Y-111640511D01*
X207787511Y-111712982D01*
X207787512Y-111712982D01*
X207787515Y-111712984D01*
X207927525Y-111750500D01*
X207927528Y-111750500D01*
X208072472Y-111750500D01*
X208072475Y-111750500D01*
X208212485Y-111712984D01*
X208303785Y-111660272D01*
X234950000Y-111660272D01*
X234950000Y-112059728D01*
X234988060Y-112151614D01*
X235058386Y-112221940D01*
X235150272Y-112260000D01*
X235249728Y-112260000D01*
X235341614Y-112221940D01*
X235411940Y-112151614D01*
X235450000Y-112059728D01*
X235450000Y-112877903D01*
X235462516Y-112875415D01*
X235462523Y-112875412D01*
X235626306Y-112807571D01*
X235626316Y-112807566D01*
X235773716Y-112709076D01*
X235773720Y-112709073D01*
X235899073Y-112583720D01*
X235899076Y-112583716D01*
X235997566Y-112436316D01*
X235997573Y-112436303D01*
X236059396Y-112287048D01*
X236103236Y-112232644D01*
X236169530Y-112210579D01*
X236173957Y-112210500D01*
X236222472Y-112210500D01*
X236222475Y-112210500D01*
X236362485Y-112172984D01*
X236488015Y-112100509D01*
X236590509Y-111998015D01*
X236662984Y-111872485D01*
X236700500Y-111732475D01*
X236700500Y-111587525D01*
X236662984Y-111447515D01*
X236662963Y-111447479D01*
X236590511Y-111321988D01*
X236590506Y-111321982D01*
X236488017Y-111219493D01*
X236488011Y-111219488D01*
X236362488Y-111147017D01*
X236362489Y-111147017D01*
X236322414Y-111136279D01*
X236222475Y-111109500D01*
X236077525Y-111109500D01*
X236077523Y-111109500D01*
X235984814Y-111134341D01*
X235914965Y-111132678D01*
X235865041Y-111102247D01*
X235773720Y-111010926D01*
X235773716Y-111010923D01*
X235626316Y-110912433D01*
X235626307Y-110912428D01*
X235462519Y-110844585D01*
X235450000Y-110842094D01*
X235450000Y-111660272D01*
X235411940Y-111568386D01*
X235341614Y-111498060D01*
X235249728Y-111460000D01*
X235150272Y-111460000D01*
X235058386Y-111498060D01*
X234988060Y-111568386D01*
X234950000Y-111660272D01*
X208303785Y-111660272D01*
X208338015Y-111640509D01*
X208368524Y-111610000D01*
X234302259Y-111610000D01*
X234950000Y-111610000D01*
X234950000Y-110842095D01*
X234949999Y-110842094D01*
X234937480Y-110844585D01*
X234773692Y-110912428D01*
X234773683Y-110912433D01*
X234626283Y-111010923D01*
X234626279Y-111010926D01*
X234500926Y-111136279D01*
X234500923Y-111136283D01*
X234402433Y-111283683D01*
X234402428Y-111283692D01*
X234334586Y-111447479D01*
X234334584Y-111447487D01*
X234302259Y-111610000D01*
X208368524Y-111610000D01*
X208440509Y-111538015D01*
X208512984Y-111412485D01*
X208550500Y-111272475D01*
X208550500Y-111127525D01*
X208512984Y-110987515D01*
X208496805Y-110959493D01*
X208440511Y-110861988D01*
X208440506Y-110861982D01*
X208338017Y-110759493D01*
X208338011Y-110759488D01*
X208248009Y-110707525D01*
X226751011Y-110707525D01*
X226751011Y-110852475D01*
X226779687Y-110959493D01*
X226788528Y-110992488D01*
X226860999Y-111118011D01*
X226861001Y-111118013D01*
X226861002Y-111118015D01*
X226963496Y-111220509D01*
X226963497Y-111220510D01*
X226963499Y-111220511D01*
X227089022Y-111292982D01*
X227089023Y-111292982D01*
X227089026Y-111292984D01*
X227229036Y-111330500D01*
X227229039Y-111330500D01*
X227373983Y-111330500D01*
X227373986Y-111330500D01*
X227513996Y-111292984D01*
X227639526Y-111220509D01*
X227742020Y-111118015D01*
X227814495Y-110992485D01*
X227852011Y-110852475D01*
X227852011Y-110707525D01*
X227814495Y-110567515D01*
X227798902Y-110540508D01*
X227742022Y-110441988D01*
X227742017Y-110441982D01*
X227639528Y-110339493D01*
X227639522Y-110339488D01*
X227513999Y-110267017D01*
X227514000Y-110267017D01*
X227502517Y-110263940D01*
X227373986Y-110229500D01*
X227229036Y-110229500D01*
X227100504Y-110263940D01*
X227089022Y-110267017D01*
X226963499Y-110339488D01*
X226963493Y-110339493D01*
X226861004Y-110441982D01*
X226860999Y-110441988D01*
X226788528Y-110567511D01*
X226788527Y-110567515D01*
X226751011Y-110707525D01*
X208248009Y-110707525D01*
X208212488Y-110687017D01*
X208212489Y-110687017D01*
X208201006Y-110683940D01*
X208072475Y-110649500D01*
X207927525Y-110649500D01*
X207798993Y-110683940D01*
X207787511Y-110687017D01*
X207661988Y-110759488D01*
X207661982Y-110759493D01*
X207559493Y-110861982D01*
X207559488Y-110861988D01*
X207487017Y-110987511D01*
X207487016Y-110987515D01*
X207449500Y-111127525D01*
X194878349Y-111127525D01*
X194840509Y-111061985D01*
X194738015Y-110959491D01*
X194738013Y-110959490D01*
X194738011Y-110959488D01*
X194612488Y-110887017D01*
X194612489Y-110887017D01*
X194601006Y-110883940D01*
X194472475Y-110849500D01*
X194327525Y-110849500D01*
X194198993Y-110883940D01*
X194187511Y-110887017D01*
X194061988Y-110959488D01*
X194061982Y-110959493D01*
X193959493Y-111061982D01*
X193959488Y-111061988D01*
X193887017Y-111187511D01*
X193887016Y-111187515D01*
X193849500Y-111327525D01*
X174500500Y-111327525D01*
X174500500Y-109527525D01*
X217849500Y-109527525D01*
X217849500Y-109672475D01*
X217887016Y-109812485D01*
X217887017Y-109812488D01*
X217959488Y-109938011D01*
X217959490Y-109938013D01*
X217959491Y-109938015D01*
X218061985Y-110040509D01*
X218061986Y-110040510D01*
X218061988Y-110040511D01*
X218187511Y-110112982D01*
X218187512Y-110112982D01*
X218187515Y-110112984D01*
X218327525Y-110150500D01*
X218327528Y-110150500D01*
X218472472Y-110150500D01*
X218472475Y-110150500D01*
X218612485Y-110112984D01*
X218738015Y-110040509D01*
X218750999Y-110027525D01*
X224949500Y-110027525D01*
X224949500Y-110172475D01*
X224987016Y-110312485D01*
X224987017Y-110312488D01*
X225059488Y-110438011D01*
X225059490Y-110438013D01*
X225059491Y-110438015D01*
X225161985Y-110540509D01*
X225161986Y-110540510D01*
X225161988Y-110540511D01*
X225287511Y-110612982D01*
X225287512Y-110612982D01*
X225287515Y-110612984D01*
X225427525Y-110650500D01*
X225427528Y-110650500D01*
X225572472Y-110650500D01*
X225572475Y-110650500D01*
X225712485Y-110612984D01*
X225838015Y-110540509D01*
X225940509Y-110438015D01*
X226012984Y-110312485D01*
X226050500Y-110172475D01*
X226050500Y-110027525D01*
X226012984Y-109887515D01*
X225940509Y-109761985D01*
X225838015Y-109659491D01*
X225838013Y-109659490D01*
X225838011Y-109659488D01*
X225712488Y-109587017D01*
X225712489Y-109587017D01*
X225701006Y-109583940D01*
X225572475Y-109549500D01*
X225427525Y-109549500D01*
X225298993Y-109583940D01*
X225287511Y-109587017D01*
X225161988Y-109659488D01*
X225161982Y-109659493D01*
X225059493Y-109761982D01*
X225059488Y-109761988D01*
X224987017Y-109887511D01*
X224987016Y-109887515D01*
X224949500Y-110027525D01*
X218750999Y-110027525D01*
X218840509Y-109938015D01*
X218912984Y-109812485D01*
X218950500Y-109672475D01*
X218950500Y-109527525D01*
X218912984Y-109387515D01*
X218906769Y-109376751D01*
X218840511Y-109261988D01*
X218840506Y-109261982D01*
X218738017Y-109159493D01*
X218738011Y-109159488D01*
X218612488Y-109087017D01*
X218612489Y-109087017D01*
X218601006Y-109083940D01*
X218472475Y-109049500D01*
X218327525Y-109049500D01*
X218198993Y-109083940D01*
X218187511Y-109087017D01*
X218061988Y-109159488D01*
X218061982Y-109159493D01*
X217959493Y-109261982D01*
X217959488Y-109261988D01*
X217887017Y-109387511D01*
X217887016Y-109387515D01*
X217849500Y-109527525D01*
X174500500Y-109527525D01*
X174500500Y-107001504D01*
X231400000Y-107001504D01*
X231400000Y-107600000D01*
X232100000Y-107600000D01*
X232100000Y-108100000D01*
X231400000Y-108100000D01*
X231400000Y-108698495D01*
X231438427Y-108891681D01*
X231438430Y-108891693D01*
X231513807Y-109073671D01*
X231513814Y-109073684D01*
X231623248Y-109237462D01*
X231623251Y-109237466D01*
X231762533Y-109376748D01*
X231762537Y-109376751D01*
X231926315Y-109486185D01*
X231926328Y-109486192D01*
X232108308Y-109561569D01*
X232150000Y-109569862D01*
X232150000Y-108666988D01*
X232159940Y-108684205D01*
X232215795Y-108740060D01*
X232284204Y-108779556D01*
X232360504Y-108800000D01*
X232439496Y-108800000D01*
X232515796Y-108779556D01*
X232584205Y-108740060D01*
X232640060Y-108684205D01*
X232650000Y-108666988D01*
X232650000Y-109569862D01*
X232691690Y-109561569D01*
X232691692Y-109561569D01*
X232873671Y-109486192D01*
X232873684Y-109486185D01*
X233037462Y-109376751D01*
X233037466Y-109376748D01*
X233176748Y-109237466D01*
X233176751Y-109237462D01*
X233286185Y-109073684D01*
X233286192Y-109073671D01*
X233361569Y-108891693D01*
X233361572Y-108891681D01*
X233399999Y-108698495D01*
X233400000Y-108698492D01*
X233400000Y-108589144D01*
X236550711Y-108589144D01*
X236550711Y-108734094D01*
X236583108Y-108855000D01*
X236588228Y-108874107D01*
X236660699Y-108999630D01*
X236660701Y-108999632D01*
X236660702Y-108999634D01*
X236763196Y-109102128D01*
X236888726Y-109174603D01*
X236908094Y-109179792D01*
X236967754Y-109216157D01*
X236998283Y-109279004D01*
X237000000Y-109299567D01*
X237000000Y-109350000D01*
X237700000Y-109350000D01*
X237700000Y-109850000D01*
X237000000Y-109850000D01*
X237000000Y-110198495D01*
X237038427Y-110391681D01*
X237038430Y-110391693D01*
X237113807Y-110573671D01*
X237113814Y-110573684D01*
X237223248Y-110737462D01*
X237223251Y-110737466D01*
X237362533Y-110876748D01*
X237362537Y-110876751D01*
X237526315Y-110986185D01*
X237526328Y-110986192D01*
X237708308Y-111061569D01*
X237750000Y-111069862D01*
X237750000Y-110211988D01*
X237759940Y-110229205D01*
X237815795Y-110285060D01*
X237884204Y-110324556D01*
X237960504Y-110345000D01*
X238039496Y-110345000D01*
X238115796Y-110324556D01*
X238184205Y-110285060D01*
X238240060Y-110229205D01*
X238250000Y-110211988D01*
X238250000Y-111069862D01*
X238291690Y-111061569D01*
X238291692Y-111061569D01*
X238473671Y-110986192D01*
X238473684Y-110986185D01*
X238637462Y-110876751D01*
X238637466Y-110876748D01*
X238776748Y-110737466D01*
X238776751Y-110737462D01*
X238886185Y-110573684D01*
X238886192Y-110573671D01*
X238961569Y-110391693D01*
X238961572Y-110391681D01*
X238999999Y-110198495D01*
X239000000Y-110198492D01*
X239000000Y-109850000D01*
X238300000Y-109850000D01*
X238300000Y-109350000D01*
X239000000Y-109350000D01*
X239000000Y-109001508D01*
X238999999Y-109001504D01*
X238961572Y-108808318D01*
X238961569Y-108808306D01*
X238886192Y-108626328D01*
X238886185Y-108626315D01*
X238776751Y-108462537D01*
X238776748Y-108462533D01*
X238637466Y-108323251D01*
X238637462Y-108323248D01*
X238473684Y-108213814D01*
X238473671Y-108213807D01*
X238291691Y-108138429D01*
X238291683Y-108138427D01*
X238250000Y-108130135D01*
X238250000Y-108988011D01*
X238240060Y-108970795D01*
X238184205Y-108914940D01*
X238115796Y-108875444D01*
X238039496Y-108855000D01*
X237960504Y-108855000D01*
X237884204Y-108875444D01*
X237815795Y-108914940D01*
X237759940Y-108970795D01*
X237750000Y-108988011D01*
X237750000Y-108130136D01*
X237749999Y-108130135D01*
X237708316Y-108138427D01*
X237708308Y-108138429D01*
X237524742Y-108214464D01*
X237455273Y-108221933D01*
X237415290Y-108207290D01*
X237313699Y-108148636D01*
X237313700Y-108148636D01*
X237275607Y-108138429D01*
X237173686Y-108111119D01*
X237028736Y-108111119D01*
X236926815Y-108138429D01*
X236888722Y-108148636D01*
X236763199Y-108221107D01*
X236763193Y-108221112D01*
X236660704Y-108323601D01*
X236660699Y-108323607D01*
X236588228Y-108449130D01*
X236588227Y-108449134D01*
X236550711Y-108589144D01*
X233400000Y-108589144D01*
X233400000Y-108100000D01*
X232700000Y-108100000D01*
X232700000Y-107600000D01*
X233400000Y-107600000D01*
X233400000Y-107034050D01*
X233419685Y-106967011D01*
X233461998Y-106926664D01*
X233507315Y-106900501D01*
X233600501Y-106807315D01*
X233666393Y-106693187D01*
X233700501Y-106565893D01*
X233700501Y-106434109D01*
X233666393Y-106306815D01*
X233600501Y-106192687D01*
X233507315Y-106099501D01*
X233450251Y-106066555D01*
X233393188Y-106033609D01*
X233329540Y-106016555D01*
X233265893Y-105999501D01*
X233134109Y-105999501D01*
X233006814Y-106033609D01*
X232940922Y-106071652D01*
X232892687Y-106099501D01*
X232892686Y-106099502D01*
X232864875Y-106127313D01*
X232803551Y-106160797D01*
X232733860Y-106155811D01*
X232729743Y-106154191D01*
X232691691Y-106138429D01*
X232691683Y-106138427D01*
X232650000Y-106130135D01*
X232650000Y-107033011D01*
X232640060Y-107015795D01*
X232584205Y-106959940D01*
X232515796Y-106920444D01*
X232439496Y-106900000D01*
X232360504Y-106900000D01*
X232284204Y-106920444D01*
X232215795Y-106959940D01*
X232159940Y-107015795D01*
X232150000Y-107033011D01*
X232150000Y-106130136D01*
X232149999Y-106130135D01*
X232108316Y-106138427D01*
X232108308Y-106138429D01*
X231926328Y-106213807D01*
X231926315Y-106213814D01*
X231762537Y-106323248D01*
X231762533Y-106323251D01*
X231623251Y-106462533D01*
X231623248Y-106462537D01*
X231513814Y-106626315D01*
X231513807Y-106626328D01*
X231438430Y-106808306D01*
X231438427Y-106808318D01*
X231400000Y-107001504D01*
X174500500Y-107001504D01*
X174500500Y-105677525D01*
X223849500Y-105677525D01*
X223849500Y-105822475D01*
X223887016Y-105962485D01*
X223887017Y-105962488D01*
X223959488Y-106088011D01*
X223959490Y-106088013D01*
X223959491Y-106088015D01*
X224061985Y-106190509D01*
X224061986Y-106190510D01*
X224061988Y-106190511D01*
X224187511Y-106262982D01*
X224187512Y-106262982D01*
X224187515Y-106262984D01*
X224327525Y-106300500D01*
X224327528Y-106300500D01*
X224472472Y-106300500D01*
X224472475Y-106300500D01*
X224612485Y-106262984D01*
X224738015Y-106190509D01*
X224840509Y-106088015D01*
X224912984Y-105962485D01*
X224950500Y-105822475D01*
X224950500Y-105677525D01*
X224912984Y-105537515D01*
X224892195Y-105501508D01*
X224892193Y-105501504D01*
X237000000Y-105501504D01*
X237000000Y-105850000D01*
X237700000Y-105850000D01*
X237700000Y-106350000D01*
X237000000Y-106350000D01*
X237000000Y-106698495D01*
X237038427Y-106891681D01*
X237038430Y-106891693D01*
X237113807Y-107073671D01*
X237113814Y-107073684D01*
X237223248Y-107237462D01*
X237223251Y-107237466D01*
X237362533Y-107376748D01*
X237362537Y-107376751D01*
X237526315Y-107486185D01*
X237526328Y-107486192D01*
X237708308Y-107561569D01*
X237750000Y-107569862D01*
X237750000Y-106711988D01*
X237759940Y-106729205D01*
X237815795Y-106785060D01*
X237884204Y-106824556D01*
X237960504Y-106845000D01*
X238039496Y-106845000D01*
X238115796Y-106824556D01*
X238184205Y-106785060D01*
X238240060Y-106729205D01*
X238250000Y-106711988D01*
X238250000Y-107569862D01*
X238291690Y-107561569D01*
X238291692Y-107561569D01*
X238473671Y-107486192D01*
X238473684Y-107486185D01*
X238637462Y-107376751D01*
X238637466Y-107376748D01*
X238776748Y-107237466D01*
X238776751Y-107237462D01*
X238886185Y-107073684D01*
X238886192Y-107073671D01*
X238961569Y-106891693D01*
X238961572Y-106891681D01*
X238999999Y-106698495D01*
X239000000Y-106698492D01*
X239000000Y-106350000D01*
X238300000Y-106350000D01*
X238300000Y-105850000D01*
X239000000Y-105850000D01*
X239000000Y-105501508D01*
X238999999Y-105501504D01*
X238961572Y-105308318D01*
X238961569Y-105308306D01*
X238886192Y-105126328D01*
X238886185Y-105126315D01*
X238776751Y-104962537D01*
X238776748Y-104962533D01*
X238637466Y-104823251D01*
X238637462Y-104823248D01*
X238473684Y-104713814D01*
X238473671Y-104713807D01*
X238291691Y-104638429D01*
X238291683Y-104638427D01*
X238250000Y-104630135D01*
X238250000Y-105488011D01*
X238240060Y-105470795D01*
X238184205Y-105414940D01*
X238115796Y-105375444D01*
X238039496Y-105355000D01*
X237960504Y-105355000D01*
X237884204Y-105375444D01*
X237815795Y-105414940D01*
X237759940Y-105470795D01*
X237750000Y-105488011D01*
X237750000Y-104630136D01*
X237749999Y-104630135D01*
X237708316Y-104638427D01*
X237708308Y-104638429D01*
X237526328Y-104713807D01*
X237526315Y-104713814D01*
X237362537Y-104823248D01*
X237362533Y-104823251D01*
X237223251Y-104962533D01*
X237223248Y-104962537D01*
X237113814Y-105126315D01*
X237113807Y-105126328D01*
X237038430Y-105308306D01*
X237038427Y-105308318D01*
X237000000Y-105501504D01*
X224892193Y-105501504D01*
X224840511Y-105411988D01*
X224840506Y-105411982D01*
X224738017Y-105309493D01*
X224738011Y-105309488D01*
X224612488Y-105237017D01*
X224612489Y-105237017D01*
X224601006Y-105233940D01*
X224472475Y-105199500D01*
X224327525Y-105199500D01*
X224198993Y-105233940D01*
X224187511Y-105237017D01*
X224061988Y-105309488D01*
X224061982Y-105309493D01*
X223959493Y-105411982D01*
X223959488Y-105411988D01*
X223887017Y-105537511D01*
X223887016Y-105537515D01*
X223849500Y-105677525D01*
X174500500Y-105677525D01*
X174500500Y-103808443D01*
X195999500Y-103808443D01*
X195999500Y-103966557D01*
X196032577Y-104090000D01*
X196040423Y-104119283D01*
X196040426Y-104119290D01*
X196119475Y-104256209D01*
X196119479Y-104256214D01*
X196119480Y-104256216D01*
X196231284Y-104368020D01*
X196231286Y-104368021D01*
X196231290Y-104368024D01*
X196353298Y-104438464D01*
X196368216Y-104447077D01*
X196520943Y-104488000D01*
X196520945Y-104488000D01*
X196679055Y-104488000D01*
X196679057Y-104488000D01*
X196831784Y-104447077D01*
X196857749Y-104432085D01*
X196925649Y-104415612D01*
X196991676Y-104438464D01*
X197034867Y-104493384D01*
X197041509Y-104562938D01*
X197039525Y-104571565D01*
X197008039Y-104689076D01*
X196999500Y-104720943D01*
X196999500Y-104879057D01*
X197021869Y-104962537D01*
X197040423Y-105031783D01*
X197040426Y-105031790D01*
X197119475Y-105168709D01*
X197119479Y-105168714D01*
X197119480Y-105168716D01*
X197231284Y-105280520D01*
X197231286Y-105280521D01*
X197231290Y-105280524D01*
X197281467Y-105309493D01*
X197368216Y-105359577D01*
X197520943Y-105400500D01*
X197520945Y-105400500D01*
X197679055Y-105400500D01*
X197679057Y-105400500D01*
X197831784Y-105359577D01*
X197968716Y-105280520D01*
X198080520Y-105168716D01*
X198159577Y-105031784D01*
X198200500Y-104879057D01*
X198200500Y-104720943D01*
X198159577Y-104568216D01*
X198089638Y-104447077D01*
X198080524Y-104431290D01*
X198080518Y-104431282D01*
X197968717Y-104319481D01*
X197968709Y-104319475D01*
X197831790Y-104240426D01*
X197831786Y-104240424D01*
X197831784Y-104240423D01*
X197679057Y-104199500D01*
X197520943Y-104199500D01*
X197368216Y-104240423D01*
X197342247Y-104255416D01*
X197322565Y-104260189D01*
X197304638Y-104269605D01*
X197289303Y-104268257D01*
X197274346Y-104271886D01*
X197255209Y-104265262D01*
X197235036Y-104263490D01*
X197222865Y-104254067D01*
X197208320Y-104249033D01*
X197195802Y-104233114D01*
X197179789Y-104220717D01*
X197174644Y-104206209D01*
X197165130Y-104194110D01*
X197163205Y-104173949D01*
X197156438Y-104154865D01*
X197159012Y-104130030D01*
X197158490Y-104124557D01*
X197159526Y-104119706D01*
X197159962Y-104117845D01*
X197200241Y-103967525D01*
X233699500Y-103967525D01*
X233699500Y-104112475D01*
X233733671Y-104240000D01*
X233737017Y-104252488D01*
X233809488Y-104378011D01*
X233809490Y-104378013D01*
X233809491Y-104378015D01*
X233911985Y-104480509D01*
X233911986Y-104480510D01*
X233911988Y-104480511D01*
X234037511Y-104552982D01*
X234037512Y-104552982D01*
X234037515Y-104552984D01*
X234177525Y-104590500D01*
X234177528Y-104590500D01*
X234322472Y-104590500D01*
X234322475Y-104590500D01*
X234415185Y-104565658D01*
X234485033Y-104567321D01*
X234534958Y-104597752D01*
X234626279Y-104689073D01*
X234626283Y-104689076D01*
X234773683Y-104787566D01*
X234773693Y-104787571D01*
X234937476Y-104855412D01*
X234937483Y-104855415D01*
X234950000Y-104857904D01*
X234950000Y-104857903D01*
X235450000Y-104857903D01*
X235462516Y-104855415D01*
X235462523Y-104855412D01*
X235626306Y-104787571D01*
X235626316Y-104787566D01*
X235773716Y-104689076D01*
X235773720Y-104689073D01*
X235899073Y-104563720D01*
X235899076Y-104563716D01*
X235997566Y-104416316D01*
X235997571Y-104416307D01*
X236065413Y-104252520D01*
X236065415Y-104252512D01*
X236097741Y-104090000D01*
X235450000Y-104090000D01*
X235450000Y-104857903D01*
X234950000Y-104857903D01*
X234950000Y-104039728D01*
X234988060Y-104131614D01*
X235058386Y-104201940D01*
X235150272Y-104240000D01*
X235249728Y-104240000D01*
X235341614Y-104201940D01*
X235411940Y-104131614D01*
X235450000Y-104039728D01*
X235450000Y-103640272D01*
X235429177Y-103590000D01*
X235450000Y-103590000D01*
X236097741Y-103590000D01*
X236065415Y-103427487D01*
X236065413Y-103427479D01*
X235997571Y-103263692D01*
X235997566Y-103263683D01*
X235899076Y-103116283D01*
X235899073Y-103116279D01*
X235773720Y-102990926D01*
X235773716Y-102990923D01*
X235626316Y-102892433D01*
X235626307Y-102892428D01*
X235462519Y-102824585D01*
X235450000Y-102822094D01*
X235450000Y-103590000D01*
X235429177Y-103590000D01*
X235411940Y-103548386D01*
X235341614Y-103478060D01*
X235249728Y-103440000D01*
X235150272Y-103440000D01*
X235058386Y-103478060D01*
X234988060Y-103548386D01*
X234950000Y-103640272D01*
X234950000Y-102822095D01*
X234949999Y-102822094D01*
X234937480Y-102824585D01*
X234773692Y-102892428D01*
X234773683Y-102892433D01*
X234626283Y-102990923D01*
X234626279Y-102990926D01*
X234500926Y-103116279D01*
X234500923Y-103116283D01*
X234402433Y-103263683D01*
X234402426Y-103263696D01*
X234340604Y-103412952D01*
X234296764Y-103467356D01*
X234230470Y-103489421D01*
X234226043Y-103489500D01*
X234177525Y-103489500D01*
X234048993Y-103523940D01*
X234037511Y-103527017D01*
X233911988Y-103599488D01*
X233911982Y-103599493D01*
X233809493Y-103701982D01*
X233809488Y-103701988D01*
X233737017Y-103827511D01*
X233737016Y-103827515D01*
X233699500Y-103967525D01*
X197200241Y-103967525D01*
X197200500Y-103966557D01*
X197200500Y-103808443D01*
X197159577Y-103655716D01*
X197159573Y-103655709D01*
X197080524Y-103518790D01*
X197080518Y-103518782D01*
X196968717Y-103406981D01*
X196968709Y-103406975D01*
X196831790Y-103327926D01*
X196831786Y-103327924D01*
X196831784Y-103327923D01*
X196679057Y-103287000D01*
X196520943Y-103287000D01*
X196368216Y-103327923D01*
X196368209Y-103327926D01*
X196231290Y-103406975D01*
X196231282Y-103406981D01*
X196119481Y-103518782D01*
X196119475Y-103518790D01*
X196040426Y-103655709D01*
X196040423Y-103655716D01*
X195999500Y-103808443D01*
X174500500Y-103808443D01*
X174500500Y-99624500D01*
X174520185Y-99557461D01*
X174572989Y-99511706D01*
X174624500Y-99500500D01*
X240375500Y-99500500D01*
X240442539Y-99520185D01*
G37*
%TD.AperFunction*%
%TD*%
%TA.AperFunction,Conductor*%
%TO.N,AGND*%
G36*
X204865677Y-116419685D02*
G01*
X204886319Y-116436319D01*
X205413681Y-116963681D01*
X205447166Y-117025004D01*
X205450000Y-117051362D01*
X205450000Y-119890824D01*
X205430315Y-119957863D01*
X205413681Y-119978505D01*
X205399502Y-119992683D01*
X205399500Y-119992686D01*
X205333608Y-120106812D01*
X205299500Y-120234108D01*
X205299500Y-120365891D01*
X205333608Y-120493187D01*
X205353435Y-120527527D01*
X205399500Y-120607314D01*
X205399502Y-120607316D01*
X205413681Y-120621495D01*
X205428384Y-120648422D01*
X205444977Y-120674241D01*
X205445868Y-120680441D01*
X205447166Y-120682818D01*
X205450000Y-120709176D01*
X205450000Y-120738270D01*
X205430315Y-120805309D01*
X205403641Y-120834955D01*
X204734015Y-121372685D01*
X204669418Y-121399312D01*
X204656374Y-121400000D01*
X202649999Y-121400000D01*
X202200000Y-121849999D01*
X202200000Y-127586597D01*
X202180315Y-127653636D01*
X202148601Y-127687121D01*
X201332505Y-128276524D01*
X201266632Y-128299817D01*
X201259904Y-128300000D01*
X192644024Y-128300000D01*
X192576985Y-128280315D01*
X192565842Y-128272247D01*
X191845805Y-127687216D01*
X191806189Y-127629666D01*
X191800000Y-127590980D01*
X191800000Y-123134108D01*
X199499500Y-123134108D01*
X199499500Y-123265891D01*
X199533608Y-123393187D01*
X199533609Y-123393188D01*
X199599500Y-123507314D01*
X199599502Y-123507316D01*
X199663467Y-123571281D01*
X199696952Y-123632604D01*
X199691968Y-123702296D01*
X199683174Y-123720961D01*
X199633608Y-123806811D01*
X199599500Y-123934108D01*
X199599500Y-124065891D01*
X199633608Y-124193187D01*
X199666554Y-124250250D01*
X199699500Y-124307314D01*
X199792686Y-124400500D01*
X199906814Y-124466392D01*
X200034108Y-124500500D01*
X200034110Y-124500500D01*
X200165890Y-124500500D01*
X200165892Y-124500500D01*
X200293186Y-124466392D01*
X200407314Y-124400500D01*
X200500500Y-124307314D01*
X200566392Y-124193186D01*
X200600500Y-124065892D01*
X200600500Y-123934108D01*
X200566392Y-123806814D01*
X200500500Y-123692686D01*
X200436531Y-123628717D01*
X200403046Y-123567394D01*
X200408030Y-123497702D01*
X200416819Y-123479048D01*
X200466392Y-123393186D01*
X200500500Y-123265892D01*
X200500500Y-123134108D01*
X200466392Y-123006814D01*
X200400500Y-122892686D01*
X200307314Y-122799500D01*
X200222444Y-122750500D01*
X200193187Y-122733608D01*
X200116215Y-122712984D01*
X200065892Y-122699500D01*
X199934108Y-122699500D01*
X199806812Y-122733608D01*
X199692686Y-122799500D01*
X199692683Y-122799502D01*
X199599502Y-122892683D01*
X199599500Y-122892686D01*
X199533608Y-123006812D01*
X199499500Y-123134108D01*
X191800000Y-123134108D01*
X191800000Y-120527525D01*
X201049500Y-120527525D01*
X201049500Y-120672475D01*
X201083805Y-120800500D01*
X201087017Y-120812488D01*
X201159488Y-120938011D01*
X201159490Y-120938013D01*
X201159491Y-120938015D01*
X201261985Y-121040509D01*
X201261986Y-121040510D01*
X201261988Y-121040511D01*
X201387511Y-121112982D01*
X201387512Y-121112982D01*
X201387515Y-121112984D01*
X201527525Y-121150500D01*
X201527528Y-121150500D01*
X201672472Y-121150500D01*
X201672475Y-121150500D01*
X201812485Y-121112984D01*
X201938015Y-121040509D01*
X202040509Y-120938015D01*
X202112984Y-120812485D01*
X202150500Y-120672475D01*
X202150500Y-120527525D01*
X203249500Y-120527525D01*
X203249500Y-120672475D01*
X203283805Y-120800500D01*
X203287017Y-120812488D01*
X203359488Y-120938011D01*
X203359490Y-120938013D01*
X203359491Y-120938015D01*
X203461985Y-121040509D01*
X203461986Y-121040510D01*
X203461988Y-121040511D01*
X203587511Y-121112982D01*
X203587512Y-121112982D01*
X203587515Y-121112984D01*
X203727525Y-121150500D01*
X203727528Y-121150500D01*
X203872472Y-121150500D01*
X203872475Y-121150500D01*
X204012485Y-121112984D01*
X204138015Y-121040509D01*
X204240509Y-120938015D01*
X204312984Y-120812485D01*
X204350500Y-120672475D01*
X204350500Y-120527525D01*
X204312984Y-120387515D01*
X204300499Y-120365891D01*
X204240511Y-120261988D01*
X204240506Y-120261982D01*
X204138017Y-120159493D01*
X204138011Y-120159488D01*
X204012488Y-120087017D01*
X204012489Y-120087017D01*
X204001006Y-120083940D01*
X203872475Y-120049500D01*
X203727525Y-120049500D01*
X203598993Y-120083940D01*
X203587511Y-120087017D01*
X203461988Y-120159488D01*
X203461982Y-120159493D01*
X203359493Y-120261982D01*
X203359488Y-120261988D01*
X203287017Y-120387511D01*
X203287016Y-120387515D01*
X203249500Y-120527525D01*
X202150500Y-120527525D01*
X202112984Y-120387515D01*
X202100499Y-120365891D01*
X202040511Y-120261988D01*
X202040506Y-120261982D01*
X201938017Y-120159493D01*
X201938011Y-120159488D01*
X201812488Y-120087017D01*
X201812489Y-120087017D01*
X201801006Y-120083940D01*
X201672475Y-120049500D01*
X201527525Y-120049500D01*
X201398993Y-120083940D01*
X201387511Y-120087017D01*
X201261988Y-120159488D01*
X201261982Y-120159493D01*
X201159493Y-120261982D01*
X201159488Y-120261988D01*
X201087017Y-120387511D01*
X201087016Y-120387515D01*
X201049500Y-120527525D01*
X191800000Y-120527525D01*
X191800000Y-119851361D01*
X191819685Y-119784322D01*
X191836314Y-119763685D01*
X192274544Y-119325455D01*
X192335863Y-119291973D01*
X192394314Y-119293364D01*
X192420943Y-119300500D01*
X192420945Y-119300500D01*
X192579055Y-119300500D01*
X192579057Y-119300500D01*
X192731784Y-119259577D01*
X192806200Y-119216612D01*
X192868200Y-119200000D01*
X193231800Y-119200000D01*
X193293799Y-119216612D01*
X193368216Y-119259577D01*
X193520943Y-119300500D01*
X193520945Y-119300500D01*
X193679055Y-119300500D01*
X193679057Y-119300500D01*
X193831784Y-119259577D01*
X193906200Y-119216612D01*
X193968200Y-119200000D01*
X194431800Y-119200000D01*
X194493799Y-119216612D01*
X194568216Y-119259577D01*
X194720943Y-119300500D01*
X194720945Y-119300500D01*
X194879055Y-119300500D01*
X194879057Y-119300500D01*
X195031784Y-119259577D01*
X195106200Y-119216612D01*
X195168200Y-119200000D01*
X196774999Y-119200000D01*
X196775000Y-119200000D01*
X197400000Y-118700000D01*
X197400000Y-117566362D01*
X197419685Y-117499323D01*
X197455215Y-117463189D01*
X197668761Y-117320826D01*
X197735461Y-117300018D01*
X197737544Y-117300000D01*
X201000000Y-117300000D01*
X201300000Y-117000000D01*
X201300000Y-116651362D01*
X201308644Y-116621921D01*
X201315168Y-116591935D01*
X201318922Y-116586919D01*
X201319685Y-116584323D01*
X201336319Y-116563681D01*
X201463681Y-116436319D01*
X201525004Y-116402834D01*
X201551362Y-116400000D01*
X204798638Y-116400000D01*
X204865677Y-116419685D01*
G37*
%TD.AperFunction*%
%TD*%
M02*
