%TF.GenerationSoftware,KiCad,Pcbnew,9.0.4*%
%TF.CreationDate,2026-06-19T10:04:36+02:00*%
%TF.ProjectId,usb_c_pd_source,7573625f-635f-4706-945f-736f75726365,rev?*%
%TF.SameCoordinates,Original*%
%TF.FileFunction,Paste,Top*%
%TF.FilePolarity,Positive*%
%FSLAX46Y46*%
G04 Gerber Fmt 4.6, Leading zero omitted, Abs format (unit mm)*
G04 Created by KiCad (PCBNEW 9.0.4) date 2026-06-19 10:04:36*
%MOMM*%
%LPD*%
G01*
G04 APERTURE LIST*
G04 Aperture macros list*
%AMRoundRect*
0 Rectangle with rounded corners*
0 $1 Rounding radius*
0 $2 $3 $4 $5 $6 $7 $8 $9 X,Y pos of 4 corners*
0 Add a 4 corners polygon primitive as box body*
4,1,4,$2,$3,$4,$5,$6,$7,$8,$9,$2,$3,0*
0 Add four circle primitives for the rounded corners*
1,1,$1+$1,$2,$3*
1,1,$1+$1,$4,$5*
1,1,$1+$1,$6,$7*
1,1,$1+$1,$8,$9*
0 Add four rect primitives between the rounded corners*
20,1,$1+$1,$2,$3,$4,$5,0*
20,1,$1+$1,$4,$5,$6,$7,0*
20,1,$1+$1,$6,$7,$8,$9,0*
20,1,$1+$1,$8,$9,$2,$3,0*%
G04 Aperture macros list end*
%ADD10RoundRect,0.250000X0.337500X0.475000X-0.337500X0.475000X-0.337500X-0.475000X0.337500X-0.475000X0*%
%ADD11R,1.500000X4.200000*%
%ADD12RoundRect,0.200000X0.200000X0.275000X-0.200000X0.275000X-0.200000X-0.275000X0.200000X-0.275000X0*%
%ADD13RoundRect,0.250000X0.350000X0.450000X-0.350000X0.450000X-0.350000X-0.450000X0.350000X-0.450000X0*%
%ADD14RoundRect,0.250000X-0.475000X0.337500X-0.475000X-0.337500X0.475000X-0.337500X0.475000X0.337500X0*%
%ADD15RoundRect,0.250000X0.475000X-0.337500X0.475000X0.337500X-0.475000X0.337500X-0.475000X-0.337500X0*%
%ADD16RoundRect,0.172500X-0.172500X0.172500X-0.172500X-0.172500X0.172500X-0.172500X0.172500X0.172500X0*%
%ADD17RoundRect,0.062500X-0.062500X0.350000X-0.062500X-0.350000X0.062500X-0.350000X0.062500X0.350000X0*%
%ADD18RoundRect,0.062500X-0.350000X0.062500X-0.350000X-0.062500X0.350000X-0.062500X0.350000X0.062500X0*%
%ADD19RoundRect,0.150000X-0.350000X0.150000X-0.350000X-0.150000X0.350000X-0.150000X0.350000X0.150000X0*%
%ADD20RoundRect,0.105000X-0.105000X0.245000X-0.105000X-0.245000X0.105000X-0.245000X0.105000X0.245000X0*%
%ADD21R,1.050000X0.280000*%
%ADD22RoundRect,0.250000X-0.450000X0.350000X-0.450000X-0.350000X0.450000X-0.350000X0.450000X0.350000X0*%
%ADD23RoundRect,0.150000X-0.150000X-0.350000X0.150000X-0.350000X0.150000X0.350000X-0.150000X0.350000X0*%
%ADD24RoundRect,0.105000X-0.245000X-0.105000X0.245000X-0.105000X0.245000X0.105000X-0.245000X0.105000X0*%
%ADD25RoundRect,0.200000X-0.200000X-0.275000X0.200000X-0.275000X0.200000X0.275000X-0.200000X0.275000X0*%
%ADD26RoundRect,0.150000X0.150000X0.350000X-0.150000X0.350000X-0.150000X-0.350000X0.150000X-0.350000X0*%
%ADD27RoundRect,0.105000X0.245000X0.105000X-0.245000X0.105000X-0.245000X-0.105000X0.245000X-0.105000X0*%
%ADD28RoundRect,0.225000X-0.250000X0.225000X-0.250000X-0.225000X0.250000X-0.225000X0.250000X0.225000X0*%
%ADD29RoundRect,0.100000X-0.637500X-0.100000X0.637500X-0.100000X0.637500X0.100000X-0.637500X0.100000X0*%
%ADD30R,0.250000X0.600000*%
%ADD31R,0.600000X0.250000*%
%ADD32R,1.700000X0.250000*%
%ADD33R,2.100000X0.400000*%
%ADD34R,0.250000X0.560000*%
%ADD35RoundRect,0.243750X0.456250X-0.243750X0.456250X0.243750X-0.456250X0.243750X-0.456250X-0.243750X0*%
%ADD36RoundRect,0.150000X-0.512500X-0.150000X0.512500X-0.150000X0.512500X0.150000X-0.512500X0.150000X0*%
%ADD37RoundRect,0.250000X0.450000X-0.350000X0.450000X0.350000X-0.450000X0.350000X-0.450000X-0.350000X0*%
%ADD38RoundRect,0.250000X-0.350000X-0.450000X0.350000X-0.450000X0.350000X0.450000X-0.350000X0.450000X0*%
%ADD39RoundRect,0.250000X-0.375000X-0.850000X0.375000X-0.850000X0.375000X0.850000X-0.375000X0.850000X0*%
%ADD40RoundRect,0.225000X-0.225000X-0.250000X0.225000X-0.250000X0.225000X0.250000X-0.225000X0.250000X0*%
G04 APERTURE END LIST*
D10*
%TO.C,C9*%
X226137500Y-130400000D03*
X224062500Y-130400000D03*
%TD*%
%TO.C,C13*%
X226137500Y-120700000D03*
X224062500Y-120700000D03*
%TD*%
D11*
%TO.C,L2*%
X202800000Y-111300000D03*
X206400000Y-111300000D03*
%TD*%
D12*
%TO.C,R8*%
X198000000Y-121800000D03*
X196350000Y-121800000D03*
%TD*%
%TO.C,R10*%
X198025000Y-125400000D03*
X196375000Y-125400000D03*
%TD*%
D13*
%TO.C,R17*%
X225480000Y-104400000D03*
X223480000Y-104400000D03*
%TD*%
D14*
%TO.C,C2*%
X189900000Y-114412500D03*
X189900000Y-116487500D03*
%TD*%
%TO.C,C20*%
X212500000Y-117762500D03*
X212500000Y-119837500D03*
%TD*%
D15*
%TO.C,C16*%
X212200000Y-113137500D03*
X212200000Y-111062500D03*
%TD*%
%TO.C,C15*%
X209600000Y-113137500D03*
X209600000Y-111062500D03*
%TD*%
%TO.C,C6*%
X188200000Y-105837500D03*
X188200000Y-103762500D03*
%TD*%
D13*
%TO.C,R16*%
X214700000Y-126800000D03*
X212700000Y-126800000D03*
%TD*%
D10*
%TO.C,C12*%
X226137500Y-123100000D03*
X224062500Y-123100000D03*
%TD*%
D14*
%TO.C,C18*%
X210100000Y-117762500D03*
X210100000Y-119837500D03*
%TD*%
D10*
%TO.C,C11*%
X226137500Y-125500000D03*
X224062500Y-125500000D03*
%TD*%
D15*
%TO.C,C14*%
X217400000Y-113137500D03*
X217400000Y-111062500D03*
%TD*%
D12*
%TO.C,R1*%
X194325000Y-120000000D03*
X192675000Y-120000000D03*
%TD*%
D16*
%TO.C,U4*%
X209325000Y-122775000D03*
X208475000Y-122775000D03*
X209325000Y-123625000D03*
X208475000Y-123625000D03*
D17*
X209650000Y-121737500D03*
X209150000Y-121737500D03*
X208650000Y-121737500D03*
X208150000Y-121737500D03*
D18*
X207437500Y-122450000D03*
X207437500Y-122950000D03*
X207437500Y-123450000D03*
X207437500Y-123950000D03*
D17*
X208150000Y-124662500D03*
X208650000Y-124662500D03*
X209150000Y-124662500D03*
X209650000Y-124662500D03*
D18*
X210362500Y-123950000D03*
X210362500Y-123450000D03*
X210362500Y-122950000D03*
X210362500Y-122450000D03*
%TD*%
D10*
%TO.C,C10*%
X226137500Y-127900000D03*
X224062500Y-127900000D03*
%TD*%
D19*
%TO.C,Q1*%
X225000000Y-112700000D03*
X223870000Y-112700000D03*
X225000000Y-113410000D03*
X223870000Y-113410000D03*
D20*
X225410000Y-114180000D03*
X224760000Y-114180000D03*
X224110000Y-114180000D03*
X223460000Y-114180000D03*
X225410000Y-111180000D03*
X224760000Y-111180000D03*
X224110000Y-111180000D03*
X223460000Y-111180000D03*
%TD*%
D21*
%TO.C,J4*%
X236175000Y-110600000D03*
X236175000Y-110100000D03*
X236175000Y-109600000D03*
X236175000Y-109100000D03*
X236175000Y-108600000D03*
X236175000Y-108100000D03*
X236175000Y-107600000D03*
X236175000Y-107100000D03*
X236175000Y-106600000D03*
X236175000Y-106100000D03*
X236175000Y-105600000D03*
X236175000Y-105100000D03*
X234225000Y-105100000D03*
X234225000Y-105600000D03*
X234225000Y-106100000D03*
X234225000Y-106600000D03*
X234225000Y-107100000D03*
X234225000Y-107600000D03*
X234225000Y-108100000D03*
X234225000Y-108600000D03*
X234225000Y-109100000D03*
X234225000Y-109600000D03*
X234225000Y-110100000D03*
X234225000Y-110600000D03*
%TD*%
D22*
%TO.C,R14*%
X206500000Y-126800000D03*
X206500000Y-128800000D03*
%TD*%
D23*
%TO.C,Q3*%
X227000000Y-107470000D03*
X227000000Y-108600000D03*
X227710000Y-107470000D03*
X227710000Y-108600000D03*
D24*
X228480000Y-107060000D03*
X228480000Y-107710000D03*
X228480000Y-108360000D03*
X228480000Y-109010000D03*
X225480000Y-107060000D03*
X225480000Y-107710000D03*
X225480000Y-108360000D03*
X225480000Y-109010000D03*
%TD*%
D12*
%TO.C,R9*%
X198000000Y-123600000D03*
X196350000Y-123600000D03*
%TD*%
D15*
%TO.C,C7*%
X197637500Y-108625000D03*
X197637500Y-106550000D03*
%TD*%
D12*
%TO.C,R6*%
X201600000Y-121800000D03*
X199950000Y-121800000D03*
%TD*%
D25*
%TO.C,R4*%
X202112500Y-119250000D03*
X203762500Y-119250000D03*
%TD*%
D26*
%TO.C,Q2*%
X221960000Y-108590000D03*
X221960000Y-107460000D03*
X221250000Y-108590000D03*
X221250000Y-107460000D03*
D27*
X220480000Y-109000000D03*
X220480000Y-108350000D03*
X220480000Y-107700000D03*
X220480000Y-107050000D03*
X223480000Y-109000000D03*
X223480000Y-108350000D03*
X223480000Y-107700000D03*
X223480000Y-107050000D03*
%TD*%
D28*
%TO.C,C8*%
X199900000Y-111475000D03*
X199900000Y-113025000D03*
%TD*%
D13*
%TO.C,R13*%
X230700000Y-116600000D03*
X228700000Y-116600000D03*
%TD*%
D29*
%TO.C,U3*%
X228725000Y-118575000D03*
X228725000Y-119225000D03*
X228725000Y-119875000D03*
X228725000Y-120525000D03*
X228725000Y-121175000D03*
X228725000Y-121825000D03*
X228725000Y-122475000D03*
X228725000Y-123125000D03*
X228725000Y-123775000D03*
X228725000Y-124425000D03*
X234450000Y-124425000D03*
X234450000Y-123775000D03*
X234450000Y-123125000D03*
X234450000Y-122475000D03*
X234450000Y-121825000D03*
X234450000Y-121175000D03*
X234450000Y-120525000D03*
X234450000Y-119875000D03*
X234450000Y-119225000D03*
X234450000Y-118575000D03*
%TD*%
D14*
%TO.C,C1*%
X195200000Y-108000000D03*
X195200000Y-110075000D03*
%TD*%
D30*
%TO.C,U2*%
X197787500Y-117920000D03*
X198287500Y-117920000D03*
X198787500Y-117920000D03*
X199287500Y-117920000D03*
D31*
X199937500Y-117450000D03*
D32*
X199387500Y-116150000D03*
D31*
X199937500Y-115650000D03*
D33*
X197887500Y-115570000D03*
D34*
X197787500Y-115100000D03*
X198287500Y-115100000D03*
X198787500Y-115100000D03*
D33*
X197887500Y-116730000D03*
D31*
X197137500Y-117450000D03*
%TD*%
D35*
%TO.C,D1*%
X228787500Y-128300000D03*
X228787500Y-126425000D03*
%TD*%
D13*
%TO.C,R18*%
X214700000Y-124400000D03*
X212700000Y-124400000D03*
%TD*%
D36*
%TO.C,U1*%
X190462500Y-106487500D03*
X190462500Y-107437500D03*
X190462500Y-108387500D03*
X192737500Y-108387500D03*
X192737500Y-107437500D03*
X192737500Y-106487500D03*
%TD*%
D13*
%TO.C,R3*%
X188200000Y-108400000D03*
X186200000Y-108400000D03*
%TD*%
D15*
%TO.C,C17*%
X214800000Y-113137500D03*
X214800000Y-111062500D03*
%TD*%
D37*
%TO.C,R15*%
X227660000Y-113880000D03*
X227660000Y-111880000D03*
%TD*%
D14*
%TO.C,C4*%
X194737500Y-114412500D03*
X194737500Y-116487500D03*
%TD*%
D38*
%TO.C,R12*%
X232800000Y-116600000D03*
X234800000Y-116600000D03*
%TD*%
D10*
%TO.C,C19*%
X214737500Y-122000000D03*
X212662500Y-122000000D03*
%TD*%
D12*
%TO.C,R7*%
X197962500Y-120050000D03*
X196312500Y-120050000D03*
%TD*%
%TO.C,R11*%
X198025000Y-127400000D03*
X196375000Y-127400000D03*
%TD*%
D14*
%TO.C,C3*%
X192337500Y-114412500D03*
X192337500Y-116487500D03*
%TD*%
D39*
%TO.C,L1*%
X192762500Y-103887500D03*
X194912500Y-103887500D03*
%TD*%
D37*
%TO.C,R5*%
X231187500Y-128500000D03*
X231187500Y-126500000D03*
%TD*%
D13*
%TO.C,R2*%
X192737500Y-110687500D03*
X190737500Y-110687500D03*
%TD*%
D40*
%TO.C,C5*%
X202162500Y-117450000D03*
X203712500Y-117450000D03*
%TD*%
M02*
