M48
; DRILL file {KiCad 9.0.4} date 2026-06-19T10:04:38+0200
; FORMAT={-:-/ absolute / metric / decimal}
; #@! TF.CreationDate,2026-06-19T10:04:38+02:00
; #@! TF.GenerationSoftware,Kicad,Pcbnew,9.0.4
; #@! TF.FileFunction,Plated,1,4,PTH
FMAT,2
METRIC
; #@! TA.AperFunction,Plated,PTH,ViaDrill
T1C0.200
; #@! TA.AperFunction,Plated,PTH,ViaDrill
T2C0.250
; #@! TA.AperFunction,Plated,PTH,ViaDrill
T3C0.300
; #@! TA.AperFunction,Plated,PTH,ComponentDrill
T4C0.500
; #@! TA.AperFunction,Plated,PTH,ComponentDrill
T5C0.600
; #@! TA.AperFunction,Plated,PTH,ComponentDrill
T6C1.000
; #@! TA.AperFunction,Plated,PTH,ComponentDrill
T7C1.200
%
G90
G05
T1
X192.3Y-122.4
X192.65Y-121.0
X195.45Y-127.1
X195.45Y-127.75
X197.2Y-116.7
X197.887Y-116.7
X198.6Y-116.725
X200.0Y-123.2
X200.1Y-124.0
X200.7Y-120.4
X204.75Y-117.15
X204.75Y-117.85
X205.8Y-120.3
X206.515Y-120.065
X207.3Y-119.2
X208.3Y-126.0
X208.4Y-119.2
X209.4Y-126.0
X210.7Y-125.6
X233.2Y-106.5
T2
X187.0Y-111.0
X188.7Y-126.4
X188.8Y-121.4
X194.4Y-111.4
X195.2Y-111.2
X196.6Y-110.4
X197.2Y-109.8
X198.0Y-109.8
X201.6Y-103.3
X201.6Y-106.8
X201.6Y-120.6
X203.2Y-126.6
X203.8Y-120.6
X204.8Y-122.2
X206.0Y-115.9
X208.8Y-127.4
X209.2Y-103.3
X210.1Y-116.6
X212.5Y-116.601
X212.7Y-128.4
X214.3Y-120.6
X215.1Y-120.6
X215.25Y-128.45
X215.8Y-103.3
X217.5Y-127.8
X218.075Y-116.6
X218.4Y-109.6
X219.0Y-119.9
X219.9Y-119.892
X219.94Y-115.64
X220.7Y-119.9
X221.4Y-114.1
X221.8Y-103.3
X224.0Y-117.5
X224.4Y-105.75
X225.5Y-110.1
X225.7Y-117.9
X225.825Y-119.225
X227.302Y-110.78
X227.5Y-125.25
X228.9Y-103.3
X233.0Y-130.5
X235.0Y-128.1
X237.101Y-108.662
X237.8Y-114.8
T3
X188.9Y-118.7
X189.4Y-117.8
X190.1Y-118.7
X190.6Y-117.8
X191.3Y-118.7
X191.8Y-117.8
X192.5Y-118.7
X193.0Y-117.8
X193.6Y-118.7
X194.1Y-117.8
X194.8Y-118.7
X195.3Y-117.8
X196.6Y-103.887
X197.6Y-104.8
X208.0Y-111.2
X209.1Y-114.6
X209.1Y-115.7
X210.3Y-114.6
X210.3Y-115.7
X211.6Y-114.6
X211.6Y-115.7
X212.8Y-114.6
X212.8Y-115.7
X214.2Y-114.6
X214.2Y-115.7
X215.4Y-114.6
X215.4Y-115.7
X216.8Y-114.6
X216.8Y-115.7
X218.0Y-114.6
X218.0Y-115.7
X222.7Y-120.3
X222.7Y-121.3
X222.7Y-122.7
X222.7Y-123.7
X222.7Y-125.0
X222.7Y-126.0
X222.7Y-127.5
X222.7Y-128.5
X222.7Y-129.9
X222.7Y-130.9
X225.7Y-131.8
X226.6Y-131.8
X227.3Y-117.7
X234.8Y-115.2
T6
X238.1Y-119.88
X238.1Y-122.42
X238.1Y-124.96
X238.1Y-127.5
X238.1Y-130.04
T7
X182.933Y-114.305
X182.933Y-117.805
T4
G00X235.2Y-103.69
M15
G01X235.2Y-103.99
M16
G05
G00X235.2Y-111.71
M15
G01X235.2Y-112.01
M16
G05
T5
G00X232.4Y-107.2
M15
G01X232.4Y-108.5
M16
G05
G00X238.0Y-105.655
M15
G01X238.0Y-106.545
M16
G05
G00X238.0Y-109.155
M15
G01X238.0Y-110.045
M16
G05
M30
