%TF.GenerationSoftware,KiCad,Pcbnew,9.0.4*%
%TF.CreationDate,2026-06-19T10:04:36+02:00*%
%TF.ProjectId,usb_c_pd_source,7573625f-635f-4706-945f-736f75726365,rev?*%
%TF.SameCoordinates,Original*%
%TF.FileFunction,Copper,L3,Inr*%
%TF.FilePolarity,Positive*%
%FSLAX46Y46*%
G04 Gerber Fmt 4.6, Leading zero omitted, Abs format (unit mm)*
G04 Created by KiCad (PCBNEW 9.0.4) date 2026-06-19 10:04:36*
%MOMM*%
%LPD*%
G01*
G04 APERTURE LIST*
G04 Aperture macros list*
%AMRoundRect*
0 Rectangle with rounded corners*
0 $1 Rounding radius*
0 $2 $3 $4 $5 $6 $7 $8 $9 X,Y pos of 4 corners*
0 Add a 4 corners polygon primitive as box body*
4,1,4,$2,$3,$4,$5,$6,$7,$8,$9,$2,$3,0*
0 Add four circle primitives for the rounded corners*
1,1,$1+$1,$2,$3*
1,1,$1+$1,$4,$5*
1,1,$1+$1,$6,$7*
1,1,$1+$1,$8,$9*
0 Add four rect primitives between the rounded corners*
20,1,$1+$1,$2,$3,$4,$5,0*
20,1,$1+$1,$4,$5,$6,$7,0*
20,1,$1+$1,$6,$7,$8,$9,0*
20,1,$1+$1,$8,$9,$2,$3,0*%
G04 Aperture macros list end*
%TA.AperFunction,ComponentPad*%
%ADD10R,1.700000X1.700000*%
%TD*%
%TA.AperFunction,ComponentPad*%
%ADD11C,1.700000*%
%TD*%
%TA.AperFunction,ComponentPad*%
%ADD12RoundRect,0.250000X-1.550000X0.650000X-1.550000X-0.650000X1.550000X-0.650000X1.550000X0.650000X0*%
%TD*%
%TA.AperFunction,ComponentPad*%
%ADD13O,3.600000X1.800000*%
%TD*%
%TA.AperFunction,ComponentPad*%
%ADD14O,0.800000X1.100000*%
%TD*%
%TA.AperFunction,ComponentPad*%
%ADD15O,1.000000X2.000000*%
%TD*%
%TA.AperFunction,ComponentPad*%
%ADD16O,1.000000X2.500000*%
%TD*%
%TA.AperFunction,ViaPad*%
%ADD17C,0.500000*%
%TD*%
%TA.AperFunction,ViaPad*%
%ADD18C,0.700000*%
%TD*%
%TA.AperFunction,ViaPad*%
%ADD19C,0.600000*%
%TD*%
G04 APERTURE END LIST*
D10*
%TO.N,+3V3*%
%TO.C,J3*%
X238100000Y-119880000D03*
D11*
%TO.N,/SW_CLK*%
X238100000Y-122420000D03*
%TO.N,GND*%
X238100000Y-124960000D03*
%TO.N,/SWD_IO*%
X238100000Y-127500000D03*
%TO.N,/NRST*%
X238100000Y-130040000D03*
%TD*%
D12*
%TO.N,/PWR_IN*%
%TO.C,J2*%
X182932500Y-114305000D03*
D13*
%TO.N,GND*%
X182932500Y-117805000D03*
%TD*%
D14*
%TO.N,GND*%
%TO.C,J4*%
X235200000Y-103840000D03*
D15*
X238000000Y-106100000D03*
D16*
X232400000Y-107850000D03*
D15*
X238000000Y-109600000D03*
D14*
X235200000Y-111860000D03*
%TD*%
D17*
%TO.N,AGND*%
X204750000Y-117150000D03*
X204750000Y-117850000D03*
X192300000Y-122400000D03*
X195450000Y-127100000D03*
X192650000Y-121000000D03*
X200700000Y-120400000D03*
X195450000Y-127750000D03*
D18*
%TO.N,+3V3*%
X196600000Y-103887500D03*
X227300000Y-117700000D03*
X234800000Y-115200000D03*
X225700000Y-131800000D03*
D19*
X203800000Y-120600000D03*
D18*
X226600000Y-131800000D03*
D19*
X194400000Y-111400000D03*
D18*
X197600000Y-104800000D03*
D19*
%TO.N,/BUCK_OUT*%
X219940380Y-115640380D03*
X218400000Y-109600000D03*
X208000000Y-111200000D03*
X217500000Y-127800000D03*
X220700000Y-119900000D03*
X201600000Y-120600000D03*
%TO.N,Net-(Q1-G)*%
X219000000Y-119900000D03*
X212700000Y-128400000D03*
%TO.N,Net-(Q2-G)*%
X224400000Y-105750000D03*
X227301511Y-110780000D03*
X218075000Y-116600000D03*
X225500000Y-110100000D03*
D17*
%TO.N,Net-(U4-SEL_PDO5)*%
X200000000Y-123200000D03*
X209400000Y-126000000D03*
%TO.N,Net-(U4-SEL_PDO4)*%
X208300000Y-126000000D03*
X200100000Y-124000000D03*
%TO.N,/CC1*%
X208400000Y-119200000D03*
D19*
X237101211Y-108661619D03*
D17*
%TO.N,/CC2*%
X207300000Y-119200000D03*
X233200001Y-106500001D03*
%TO.N,/SDA*%
X205800000Y-120300000D03*
D19*
X225825000Y-119225000D03*
%TO.N,/SCL*%
X225700000Y-117900000D03*
D17*
X206514529Y-120064802D03*
%TO.N,/VBUS*%
X210700000Y-125600000D03*
D19*
X219900038Y-119891860D03*
D18*
%TO.N,GND*%
X222700000Y-126000000D03*
D19*
X195200000Y-111200000D03*
D18*
X194800000Y-118700000D03*
X211600000Y-114600000D03*
X194100000Y-117800000D03*
D19*
X208800000Y-127400000D03*
D17*
X197200000Y-116700000D03*
D18*
X209100000Y-114600000D03*
X222700000Y-121300000D03*
X210300000Y-114600000D03*
X214200000Y-114600000D03*
D19*
X224000000Y-117500000D03*
D18*
X189400000Y-117800000D03*
X222700000Y-120300000D03*
D19*
X197200000Y-109800000D03*
D18*
X214200000Y-115700000D03*
X191800000Y-117800000D03*
D19*
X221400000Y-114100000D03*
D18*
X222700000Y-122700000D03*
D19*
X215250000Y-128450000D03*
X206000000Y-115900000D03*
X237800000Y-114800000D03*
D18*
X218000000Y-115700000D03*
D19*
X198000000Y-109800000D03*
D18*
X222700000Y-130900000D03*
D19*
X233000000Y-130500000D03*
D18*
X215400000Y-115700000D03*
X222700000Y-123700000D03*
X222700000Y-127500000D03*
D19*
X196600000Y-110400000D03*
D18*
X191300000Y-118700000D03*
X212800000Y-115700000D03*
D19*
X203200000Y-126600000D03*
D18*
X193600000Y-118700000D03*
X195300000Y-117800000D03*
X216800000Y-114600000D03*
D19*
X201600000Y-103300000D03*
D18*
X216800000Y-115700000D03*
D19*
X215100000Y-120600000D03*
X235000000Y-128100000D03*
D18*
X222700000Y-128500000D03*
X190100000Y-118700000D03*
D19*
X212500000Y-116601000D03*
X210100000Y-116600000D03*
D18*
X209100000Y-115700000D03*
D19*
X204800000Y-122200000D03*
X209200000Y-103300000D03*
X201600000Y-106800000D03*
D18*
X215400000Y-114600000D03*
X218000000Y-114600000D03*
X190600000Y-117800000D03*
D19*
X187000000Y-111000000D03*
D18*
X192500000Y-118700000D03*
D19*
X215800000Y-103300000D03*
D18*
X222700000Y-125000000D03*
D19*
X188700000Y-126400000D03*
D17*
X197887500Y-116700000D03*
D18*
X222700000Y-129900000D03*
D19*
X227500000Y-125250000D03*
X221800000Y-103300000D03*
D18*
X188900000Y-118700000D03*
X210300000Y-115700000D03*
D19*
X228900000Y-103300000D03*
X214300000Y-120600000D03*
X188800000Y-121400000D03*
D18*
X211600000Y-115700000D03*
X193000000Y-117800000D03*
D17*
X198600000Y-116725002D03*
D18*
X212800000Y-114600000D03*
%TD*%
%TA.AperFunction,Conductor*%
%TO.N,+3V3*%
G36*
X240442539Y-99520185D02*
G01*
X240488294Y-99572989D01*
X240499500Y-99624500D01*
X240499500Y-132375500D01*
X240479815Y-132442539D01*
X240427011Y-132488294D01*
X240375500Y-132499500D01*
X174624500Y-132499500D01*
X174557461Y-132479815D01*
X174511706Y-132427011D01*
X174500500Y-132375500D01*
X174500500Y-128327525D01*
X212149500Y-128327525D01*
X212149500Y-128472475D01*
X212178059Y-128579056D01*
X212187017Y-128612488D01*
X212259488Y-128738011D01*
X212259490Y-128738013D01*
X212259491Y-128738015D01*
X212361985Y-128840509D01*
X212361986Y-128840510D01*
X212361988Y-128840511D01*
X212487511Y-128912982D01*
X212487512Y-128912982D01*
X212487515Y-128912984D01*
X212627525Y-128950500D01*
X212627528Y-128950500D01*
X212772472Y-128950500D01*
X212772475Y-128950500D01*
X212912485Y-128912984D01*
X213038015Y-128840509D01*
X213140509Y-128738015D01*
X213212984Y-128612485D01*
X213250500Y-128472475D01*
X213250500Y-128377525D01*
X214699500Y-128377525D01*
X214699500Y-128522475D01*
X214733805Y-128650500D01*
X214737017Y-128662488D01*
X214809488Y-128788011D01*
X214809490Y-128788013D01*
X214809491Y-128788015D01*
X214911985Y-128890509D01*
X214911986Y-128890510D01*
X214911988Y-128890511D01*
X215037511Y-128962982D01*
X215037512Y-128962982D01*
X215037515Y-128962984D01*
X215177525Y-129000500D01*
X215177528Y-129000500D01*
X215322472Y-129000500D01*
X215322475Y-129000500D01*
X215462485Y-128962984D01*
X215588015Y-128890509D01*
X215690509Y-128788015D01*
X215762984Y-128662485D01*
X215800500Y-128522475D01*
X215800500Y-128377525D01*
X215762984Y-128237515D01*
X215751099Y-128216930D01*
X215690511Y-128111988D01*
X215690506Y-128111982D01*
X215588017Y-128009493D01*
X215588011Y-128009488D01*
X215462488Y-127937017D01*
X215462489Y-127937017D01*
X215451006Y-127933940D01*
X215322475Y-127899500D01*
X215177525Y-127899500D01*
X215048993Y-127933940D01*
X215037511Y-127937017D01*
X214911988Y-128009488D01*
X214911982Y-128009493D01*
X214809493Y-128111982D01*
X214809488Y-128111988D01*
X214737017Y-128237511D01*
X214736214Y-128240509D01*
X214699500Y-128377525D01*
X213250500Y-128377525D01*
X213250500Y-128327525D01*
X213212984Y-128187515D01*
X213191613Y-128150500D01*
X213140511Y-128061988D01*
X213140506Y-128061982D01*
X213038017Y-127959493D01*
X213038011Y-127959488D01*
X212912488Y-127887017D01*
X212912489Y-127887017D01*
X212901006Y-127883940D01*
X212772475Y-127849500D01*
X212627525Y-127849500D01*
X212498993Y-127883940D01*
X212487511Y-127887017D01*
X212361988Y-127959488D01*
X212361982Y-127959493D01*
X212259493Y-128061982D01*
X212259488Y-128061988D01*
X212187017Y-128187511D01*
X212187016Y-128187515D01*
X212149500Y-128327525D01*
X174500500Y-128327525D01*
X174500500Y-127034108D01*
X194949500Y-127034108D01*
X194949500Y-127165891D01*
X194983608Y-127293187D01*
X195003434Y-127327525D01*
X195021890Y-127359493D01*
X195023915Y-127362999D01*
X195040388Y-127430900D01*
X195023915Y-127487001D01*
X194983608Y-127556812D01*
X194949500Y-127684108D01*
X194949500Y-127815891D01*
X194983608Y-127943187D01*
X195001192Y-127973642D01*
X195049500Y-128057314D01*
X195142686Y-128150500D01*
X195256814Y-128216392D01*
X195384108Y-128250500D01*
X195384110Y-128250500D01*
X195515890Y-128250500D01*
X195515892Y-128250500D01*
X195643186Y-128216392D01*
X195757314Y-128150500D01*
X195850500Y-128057314D01*
X195916392Y-127943186D01*
X195950500Y-127815892D01*
X195950500Y-127684108D01*
X195916392Y-127556814D01*
X195916391Y-127556812D01*
X195916391Y-127556811D01*
X195898530Y-127525876D01*
X195876084Y-127486999D01*
X195873969Y-127478280D01*
X195868412Y-127471233D01*
X195865859Y-127444855D01*
X195859611Y-127419102D01*
X195862368Y-127408783D01*
X195861682Y-127401688D01*
X195870840Y-127377086D01*
X195873183Y-127368321D01*
X195874562Y-127365636D01*
X195896566Y-127327525D01*
X208249500Y-127327525D01*
X208249500Y-127472475D01*
X208287016Y-127612485D01*
X208287017Y-127612488D01*
X208359488Y-127738011D01*
X208359490Y-127738013D01*
X208359491Y-127738015D01*
X208461985Y-127840509D01*
X208461986Y-127840510D01*
X208461988Y-127840511D01*
X208587511Y-127912982D01*
X208587512Y-127912982D01*
X208587515Y-127912984D01*
X208727525Y-127950500D01*
X208727528Y-127950500D01*
X208872472Y-127950500D01*
X208872475Y-127950500D01*
X209012485Y-127912984D01*
X209138015Y-127840509D01*
X209240509Y-127738015D01*
X209246565Y-127727525D01*
X216949500Y-127727525D01*
X216949500Y-127872475D01*
X216972817Y-127959493D01*
X216987017Y-128012488D01*
X217059488Y-128138011D01*
X217059490Y-128138013D01*
X217059491Y-128138015D01*
X217161985Y-128240509D01*
X217161986Y-128240510D01*
X217161988Y-128240511D01*
X217287511Y-128312982D01*
X217287512Y-128312982D01*
X217287515Y-128312984D01*
X217427525Y-128350500D01*
X217427528Y-128350500D01*
X217572472Y-128350500D01*
X217572475Y-128350500D01*
X217712485Y-128312984D01*
X217838015Y-128240509D01*
X217940509Y-128138015D01*
X218012984Y-128012485D01*
X218050500Y-127872475D01*
X218050500Y-127727525D01*
X218012984Y-127587515D01*
X217940509Y-127461985D01*
X217899467Y-127420943D01*
X222099500Y-127420943D01*
X222099500Y-127579057D01*
X222139283Y-127727527D01*
X222140423Y-127731783D01*
X222140426Y-127731790D01*
X222219475Y-127868709D01*
X222219481Y-127868717D01*
X222263083Y-127912319D01*
X222296568Y-127973642D01*
X222291584Y-128043334D01*
X222263083Y-128087681D01*
X222219481Y-128131282D01*
X222219475Y-128131290D01*
X222140426Y-128268209D01*
X222140423Y-128268216D01*
X222099500Y-128420943D01*
X222099500Y-128579057D01*
X222121855Y-128662485D01*
X222140423Y-128731783D01*
X222140426Y-128731790D01*
X222219475Y-128868709D01*
X222219479Y-128868714D01*
X222219480Y-128868716D01*
X222331284Y-128980520D01*
X222331286Y-128980521D01*
X222331290Y-128980524D01*
X222468209Y-129059573D01*
X222468216Y-129059577D01*
X222545278Y-129080225D01*
X222604937Y-129116590D01*
X222635466Y-129179437D01*
X222627171Y-129248813D01*
X222582686Y-129302691D01*
X222545279Y-129319774D01*
X222512615Y-129328526D01*
X222468214Y-129340423D01*
X222468209Y-129340426D01*
X222331290Y-129419475D01*
X222331282Y-129419481D01*
X222219481Y-129531282D01*
X222219475Y-129531290D01*
X222140426Y-129668209D01*
X222140423Y-129668216D01*
X222099500Y-129820943D01*
X222099500Y-129979057D01*
X222121052Y-130059488D01*
X222140423Y-130131783D01*
X222140426Y-130131790D01*
X222219475Y-130268709D01*
X222219481Y-130268717D01*
X222263083Y-130312319D01*
X222296568Y-130373642D01*
X222291584Y-130443334D01*
X222263083Y-130487681D01*
X222219481Y-130531282D01*
X222219475Y-130531290D01*
X222140426Y-130668209D01*
X222140423Y-130668216D01*
X222099500Y-130820943D01*
X222099500Y-130979056D01*
X222140423Y-131131783D01*
X222140426Y-131131790D01*
X222219475Y-131268709D01*
X222219479Y-131268714D01*
X222219480Y-131268716D01*
X222331284Y-131380520D01*
X222331286Y-131380521D01*
X222331290Y-131380524D01*
X222468209Y-131459573D01*
X222468216Y-131459577D01*
X222620943Y-131500500D01*
X222620945Y-131500500D01*
X222779055Y-131500500D01*
X222779057Y-131500500D01*
X222931784Y-131459577D01*
X223068716Y-131380520D01*
X223180520Y-131268716D01*
X223259577Y-131131784D01*
X223300500Y-130979057D01*
X223300500Y-130820943D01*
X223259577Y-130668216D01*
X223259573Y-130668209D01*
X223180524Y-130531290D01*
X223180518Y-130531282D01*
X223136917Y-130487681D01*
X223104069Y-130427525D01*
X232449500Y-130427525D01*
X232449500Y-130572475D01*
X232475154Y-130668216D01*
X232487017Y-130712488D01*
X232559488Y-130838011D01*
X232559490Y-130838013D01*
X232559491Y-130838015D01*
X232661985Y-130940509D01*
X232661986Y-130940510D01*
X232661988Y-130940511D01*
X232787511Y-131012982D01*
X232787512Y-131012982D01*
X232787515Y-131012984D01*
X232927525Y-131050500D01*
X232927528Y-131050500D01*
X233072472Y-131050500D01*
X233072475Y-131050500D01*
X233212485Y-131012984D01*
X233338015Y-130940509D01*
X233440509Y-130838015D01*
X233512984Y-130712485D01*
X233550500Y-130572475D01*
X233550500Y-130427525D01*
X233512984Y-130287515D01*
X233502130Y-130268716D01*
X233440511Y-130161988D01*
X233440506Y-130161982D01*
X233338017Y-130059493D01*
X233338015Y-130059491D01*
X233212485Y-129987016D01*
X233086989Y-129953389D01*
X236999500Y-129953389D01*
X236999500Y-130126610D01*
X237024984Y-130287515D01*
X237026598Y-130297701D01*
X237080127Y-130462445D01*
X237158768Y-130616788D01*
X237260586Y-130756928D01*
X237383072Y-130879414D01*
X237523212Y-130981232D01*
X237677555Y-131059873D01*
X237842299Y-131113402D01*
X238013389Y-131140500D01*
X238013390Y-131140500D01*
X238186610Y-131140500D01*
X238186611Y-131140500D01*
X238357701Y-131113402D01*
X238522445Y-131059873D01*
X238676788Y-130981232D01*
X238816928Y-130879414D01*
X238939414Y-130756928D01*
X239041232Y-130616788D01*
X239119873Y-130462445D01*
X239173402Y-130297701D01*
X239200500Y-130126611D01*
X239200500Y-129953389D01*
X239173402Y-129782299D01*
X239119873Y-129617555D01*
X239041232Y-129463212D01*
X238939414Y-129323072D01*
X238816928Y-129200586D01*
X238676788Y-129098768D01*
X238522445Y-129020127D01*
X238357701Y-128966598D01*
X238357699Y-128966597D01*
X238357698Y-128966597D01*
X238226271Y-128945781D01*
X238186611Y-128939500D01*
X238013389Y-128939500D01*
X237973728Y-128945781D01*
X237842302Y-128966597D01*
X237677552Y-129020128D01*
X237523211Y-129098768D01*
X237498682Y-129116590D01*
X237383072Y-129200586D01*
X237383070Y-129200588D01*
X237383069Y-129200588D01*
X237260588Y-129323069D01*
X237260588Y-129323070D01*
X237260586Y-129323072D01*
X237247980Y-129340423D01*
X237158768Y-129463211D01*
X237080128Y-129617552D01*
X237026597Y-129782302D01*
X236999500Y-129953389D01*
X233086989Y-129953389D01*
X233072475Y-129949500D01*
X232927525Y-129949500D01*
X232817226Y-129979055D01*
X232787511Y-129987017D01*
X232661988Y-130059488D01*
X232661982Y-130059493D01*
X232559493Y-130161982D01*
X232559488Y-130161988D01*
X232487017Y-130287511D01*
X232487016Y-130287515D01*
X232449500Y-130427525D01*
X223104069Y-130427525D01*
X223103432Y-130426358D01*
X223108416Y-130356666D01*
X223136917Y-130312319D01*
X223151539Y-130297697D01*
X223180520Y-130268716D01*
X223259577Y-130131784D01*
X223300500Y-129979057D01*
X223300500Y-129820943D01*
X223259577Y-129668216D01*
X223230328Y-129617555D01*
X223180524Y-129531290D01*
X223180518Y-129531282D01*
X223068717Y-129419481D01*
X223068709Y-129419475D01*
X222931790Y-129340426D01*
X222931786Y-129340424D01*
X222931784Y-129340423D01*
X222854721Y-129319774D01*
X222795062Y-129283410D01*
X222764533Y-129220563D01*
X222772828Y-129151188D01*
X222817313Y-129097310D01*
X222854720Y-129080225D01*
X222931784Y-129059577D01*
X223068716Y-128980520D01*
X223180520Y-128868716D01*
X223259577Y-128731784D01*
X223300500Y-128579057D01*
X223300500Y-128420943D01*
X223259577Y-128268216D01*
X223241850Y-128237511D01*
X223180524Y-128131290D01*
X223180518Y-128131282D01*
X223136917Y-128087681D01*
X223104069Y-128027525D01*
X234449500Y-128027525D01*
X234449500Y-128172475D01*
X234475154Y-128268216D01*
X234487017Y-128312488D01*
X234559488Y-128438011D01*
X234559490Y-128438013D01*
X234559491Y-128438015D01*
X234661985Y-128540509D01*
X234661986Y-128540510D01*
X234661988Y-128540511D01*
X234787511Y-128612982D01*
X234787512Y-128612982D01*
X234787515Y-128612984D01*
X234927525Y-128650500D01*
X234927528Y-128650500D01*
X235072472Y-128650500D01*
X235072475Y-128650500D01*
X235212485Y-128612984D01*
X235338015Y-128540509D01*
X235440509Y-128438015D01*
X235512984Y-128312485D01*
X235550500Y-128172475D01*
X235550500Y-128027525D01*
X235512984Y-127887515D01*
X235512696Y-127887017D01*
X235440511Y-127761988D01*
X235440506Y-127761982D01*
X235338017Y-127659493D01*
X235338011Y-127659488D01*
X235212488Y-127587017D01*
X235212489Y-127587017D01*
X235182774Y-127579055D01*
X235072475Y-127549500D01*
X234927525Y-127549500D01*
X234817226Y-127579055D01*
X234787511Y-127587017D01*
X234661988Y-127659488D01*
X234661982Y-127659493D01*
X234559493Y-127761982D01*
X234559488Y-127761988D01*
X234487017Y-127887511D01*
X234487016Y-127887515D01*
X234449500Y-128027525D01*
X223104069Y-128027525D01*
X223103432Y-128026358D01*
X223108416Y-127956666D01*
X223136917Y-127912319D01*
X223149736Y-127899500D01*
X223180520Y-127868716D01*
X223259577Y-127731784D01*
X223300500Y-127579057D01*
X223300500Y-127420943D01*
X223298476Y-127413389D01*
X236999500Y-127413389D01*
X236999500Y-127586610D01*
X237021818Y-127727525D01*
X237026598Y-127757701D01*
X237080127Y-127922445D01*
X237158768Y-128076788D01*
X237260586Y-128216928D01*
X237383072Y-128339414D01*
X237523212Y-128441232D01*
X237677555Y-128519873D01*
X237842299Y-128573402D01*
X238013389Y-128600500D01*
X238013390Y-128600500D01*
X238186610Y-128600500D01*
X238186611Y-128600500D01*
X238357701Y-128573402D01*
X238522445Y-128519873D01*
X238676788Y-128441232D01*
X238816928Y-128339414D01*
X238939414Y-128216928D01*
X239041232Y-128076788D01*
X239119873Y-127922445D01*
X239173402Y-127757701D01*
X239200500Y-127586611D01*
X239200500Y-127413389D01*
X239173402Y-127242299D01*
X239119873Y-127077555D01*
X239041232Y-126923212D01*
X238939414Y-126783072D01*
X238816928Y-126660586D01*
X238676788Y-126558768D01*
X238522445Y-126480127D01*
X238357701Y-126426598D01*
X238357699Y-126426597D01*
X238357698Y-126426597D01*
X238226271Y-126405781D01*
X238186611Y-126399500D01*
X238013389Y-126399500D01*
X237973728Y-126405781D01*
X237842302Y-126426597D01*
X237842299Y-126426598D01*
X237701115Y-126472472D01*
X237677552Y-126480128D01*
X237523211Y-126558768D01*
X237467149Y-126599500D01*
X237383072Y-126660586D01*
X237383070Y-126660588D01*
X237383069Y-126660588D01*
X237260588Y-126783069D01*
X237260588Y-126783070D01*
X237260586Y-126783072D01*
X237253601Y-126792686D01*
X237158768Y-126923211D01*
X237080128Y-127077552D01*
X237026597Y-127242302D01*
X236999500Y-127413389D01*
X223298476Y-127413389D01*
X223259577Y-127268216D01*
X223259573Y-127268209D01*
X223180524Y-127131290D01*
X223180518Y-127131282D01*
X223068717Y-127019481D01*
X223068709Y-127019475D01*
X222931790Y-126940426D01*
X222931786Y-126940424D01*
X222931784Y-126940423D01*
X222779057Y-126899500D01*
X222620943Y-126899500D01*
X222468216Y-126940423D01*
X222468209Y-126940426D01*
X222331290Y-127019475D01*
X222331282Y-127019481D01*
X222219481Y-127131282D01*
X222219475Y-127131290D01*
X222140426Y-127268209D01*
X222140423Y-127268216D01*
X222099500Y-127420943D01*
X217899467Y-127420943D01*
X217838015Y-127359491D01*
X217838013Y-127359490D01*
X217838011Y-127359488D01*
X217712488Y-127287017D01*
X217712489Y-127287017D01*
X217701006Y-127283940D01*
X217572475Y-127249500D01*
X217427525Y-127249500D01*
X217298993Y-127283940D01*
X217287511Y-127287017D01*
X217161988Y-127359488D01*
X217161982Y-127359493D01*
X217059493Y-127461982D01*
X217059488Y-127461988D01*
X216987017Y-127587511D01*
X216987016Y-127587515D01*
X216949500Y-127727525D01*
X209246565Y-127727525D01*
X209312984Y-127612485D01*
X209350500Y-127472475D01*
X209350500Y-127327525D01*
X209312984Y-127187515D01*
X209300499Y-127165891D01*
X209240511Y-127061988D01*
X209240506Y-127061982D01*
X209138017Y-126959493D01*
X209138011Y-126959488D01*
X209012488Y-126887017D01*
X209012489Y-126887017D01*
X209001006Y-126883940D01*
X208872475Y-126849500D01*
X208727525Y-126849500D01*
X208598993Y-126883940D01*
X208587511Y-126887017D01*
X208461988Y-126959488D01*
X208461982Y-126959493D01*
X208359493Y-127061982D01*
X208359488Y-127061988D01*
X208287017Y-127187511D01*
X208287016Y-127187515D01*
X208249500Y-127327525D01*
X195896566Y-127327525D01*
X195916392Y-127293186D01*
X195950500Y-127165892D01*
X195950500Y-127034108D01*
X195916392Y-126906814D01*
X195850500Y-126792686D01*
X195757314Y-126699500D01*
X195643186Y-126633608D01*
X195515892Y-126599500D01*
X195384108Y-126599500D01*
X195256812Y-126633608D01*
X195142686Y-126699500D01*
X195142683Y-126699502D01*
X195049502Y-126792683D01*
X195049500Y-126792686D01*
X194983608Y-126906812D01*
X194949500Y-127034108D01*
X174500500Y-127034108D01*
X174500500Y-126327525D01*
X188149500Y-126327525D01*
X188149500Y-126472475D01*
X188183805Y-126600500D01*
X188187017Y-126612488D01*
X188259488Y-126738011D01*
X188259490Y-126738013D01*
X188259491Y-126738015D01*
X188361985Y-126840509D01*
X188361986Y-126840510D01*
X188361988Y-126840511D01*
X188487511Y-126912982D01*
X188487512Y-126912982D01*
X188487515Y-126912984D01*
X188627525Y-126950500D01*
X188627528Y-126950500D01*
X188772472Y-126950500D01*
X188772475Y-126950500D01*
X188912485Y-126912984D01*
X189038015Y-126840509D01*
X189140509Y-126738015D01*
X189212984Y-126612485D01*
X189235749Y-126527525D01*
X202649500Y-126527525D01*
X202649500Y-126672475D01*
X202679135Y-126783072D01*
X202687017Y-126812488D01*
X202759488Y-126938011D01*
X202759490Y-126938013D01*
X202759491Y-126938015D01*
X202861985Y-127040509D01*
X202861986Y-127040510D01*
X202861988Y-127040511D01*
X202987511Y-127112982D01*
X202987512Y-127112982D01*
X202987515Y-127112984D01*
X203127525Y-127150500D01*
X203127528Y-127150500D01*
X203272472Y-127150500D01*
X203272475Y-127150500D01*
X203412485Y-127112984D01*
X203538015Y-127040509D01*
X203640509Y-126938015D01*
X203712984Y-126812485D01*
X203750500Y-126672475D01*
X203750500Y-126527525D01*
X203712984Y-126387515D01*
X203702130Y-126368716D01*
X203640511Y-126261988D01*
X203640506Y-126261982D01*
X203538017Y-126159493D01*
X203538011Y-126159488D01*
X203412488Y-126087017D01*
X203412489Y-126087017D01*
X203382774Y-126079055D01*
X203272475Y-126049500D01*
X203127525Y-126049500D01*
X203017226Y-126079055D01*
X202987511Y-126087017D01*
X202861988Y-126159488D01*
X202861982Y-126159493D01*
X202759493Y-126261982D01*
X202759488Y-126261988D01*
X202687017Y-126387511D01*
X202687016Y-126387515D01*
X202649500Y-126527525D01*
X189235749Y-126527525D01*
X189250500Y-126472475D01*
X189250500Y-126327525D01*
X189212984Y-126187515D01*
X189212199Y-126186156D01*
X189140511Y-126061988D01*
X189140506Y-126061982D01*
X189038017Y-125959493D01*
X189038011Y-125959488D01*
X188994052Y-125934108D01*
X207799500Y-125934108D01*
X207799500Y-126065892D01*
X207808773Y-126100499D01*
X207833608Y-126193187D01*
X207855896Y-126231790D01*
X207899500Y-126307314D01*
X207992686Y-126400500D01*
X208106814Y-126466392D01*
X208234108Y-126500500D01*
X208234110Y-126500500D01*
X208365890Y-126500500D01*
X208365892Y-126500500D01*
X208493186Y-126466392D01*
X208607314Y-126400500D01*
X208700500Y-126307314D01*
X208742613Y-126234371D01*
X208793180Y-126186156D01*
X208861787Y-126172933D01*
X208926652Y-126198901D01*
X208957386Y-126234371D01*
X208999500Y-126307314D01*
X209092686Y-126400500D01*
X209206814Y-126466392D01*
X209334108Y-126500500D01*
X209334110Y-126500500D01*
X209465890Y-126500500D01*
X209465892Y-126500500D01*
X209593186Y-126466392D01*
X209707314Y-126400500D01*
X209800500Y-126307314D01*
X209866392Y-126193186D01*
X209900500Y-126065892D01*
X209900500Y-125934108D01*
X209866392Y-125806814D01*
X209800500Y-125692686D01*
X209707314Y-125599500D01*
X209650250Y-125566554D01*
X209594053Y-125534108D01*
X210199500Y-125534108D01*
X210199500Y-125665892D01*
X210216554Y-125729539D01*
X210233608Y-125793187D01*
X210238175Y-125801097D01*
X210299500Y-125907314D01*
X210392686Y-126000500D01*
X210491521Y-126057563D01*
X210505944Y-126065890D01*
X210506814Y-126066392D01*
X210634108Y-126100500D01*
X210634110Y-126100500D01*
X210765890Y-126100500D01*
X210765892Y-126100500D01*
X210893186Y-126066392D01*
X211007314Y-126000500D01*
X211100500Y-125907314D01*
X211166392Y-125793186D01*
X211200500Y-125665892D01*
X211200500Y-125534108D01*
X211166392Y-125406814D01*
X211100500Y-125292686D01*
X211007314Y-125199500D01*
X210950250Y-125166554D01*
X210893187Y-125133608D01*
X210829539Y-125116554D01*
X210765892Y-125099500D01*
X210634108Y-125099500D01*
X210506812Y-125133608D01*
X210392686Y-125199500D01*
X210392683Y-125199502D01*
X210299502Y-125292683D01*
X210299500Y-125292686D01*
X210233608Y-125406812D01*
X210201577Y-125526358D01*
X210199500Y-125534108D01*
X209594053Y-125534108D01*
X209593187Y-125533608D01*
X209529539Y-125516554D01*
X209465892Y-125499500D01*
X209334108Y-125499500D01*
X209206812Y-125533608D01*
X209092686Y-125599500D01*
X209092683Y-125599502D01*
X208999502Y-125692683D01*
X208999500Y-125692686D01*
X208958914Y-125762984D01*
X208957387Y-125765628D01*
X208906820Y-125813843D01*
X208838212Y-125827065D01*
X208773348Y-125801097D01*
X208742613Y-125765628D01*
X208700500Y-125692686D01*
X208607314Y-125599500D01*
X208550250Y-125566554D01*
X208493187Y-125533608D01*
X208429539Y-125516554D01*
X208365892Y-125499500D01*
X208234108Y-125499500D01*
X208106812Y-125533608D01*
X207992686Y-125599500D01*
X207992683Y-125599502D01*
X207899502Y-125692683D01*
X207899500Y-125692686D01*
X207833608Y-125806812D01*
X207803027Y-125920945D01*
X207799500Y-125934108D01*
X188994052Y-125934108D01*
X188912488Y-125887017D01*
X188912489Y-125887017D01*
X188901006Y-125883940D01*
X188772475Y-125849500D01*
X188627525Y-125849500D01*
X188498993Y-125883940D01*
X188487511Y-125887017D01*
X188361988Y-125959488D01*
X188361982Y-125959493D01*
X188259493Y-126061982D01*
X188259488Y-126061988D01*
X188187017Y-126187511D01*
X188187016Y-126187515D01*
X188149500Y-126327525D01*
X174500500Y-126327525D01*
X174500500Y-123134108D01*
X199499500Y-123134108D01*
X199499500Y-123265891D01*
X199533608Y-123393187D01*
X199533609Y-123393188D01*
X199599500Y-123507314D01*
X199599502Y-123507316D01*
X199663467Y-123571281D01*
X199696952Y-123632604D01*
X199691968Y-123702296D01*
X199683174Y-123720961D01*
X199633608Y-123806811D01*
X199599500Y-123934108D01*
X199599500Y-124065891D01*
X199633608Y-124193187D01*
X199662145Y-124242613D01*
X199699500Y-124307314D01*
X199792686Y-124400500D01*
X199906814Y-124466392D01*
X200034108Y-124500500D01*
X200034110Y-124500500D01*
X200165890Y-124500500D01*
X200165892Y-124500500D01*
X200293186Y-124466392D01*
X200407314Y-124400500D01*
X200500500Y-124307314D01*
X200566392Y-124193186D01*
X200600500Y-124065892D01*
X200600500Y-123934108D01*
X200566392Y-123806814D01*
X200500500Y-123692686D01*
X200436531Y-123628717D01*
X200403046Y-123567394D01*
X200408030Y-123497702D01*
X200416819Y-123479048D01*
X200466392Y-123393186D01*
X200500500Y-123265892D01*
X200500500Y-123134108D01*
X200466392Y-123006814D01*
X200460603Y-122996788D01*
X200457563Y-122991521D01*
X200400500Y-122892686D01*
X200307314Y-122799500D01*
X200222444Y-122750500D01*
X200193187Y-122733608D01*
X200116208Y-122712982D01*
X200065892Y-122699500D01*
X199934108Y-122699500D01*
X199806812Y-122733608D01*
X199692686Y-122799500D01*
X199692683Y-122799502D01*
X199599502Y-122892683D01*
X199599500Y-122892686D01*
X199533608Y-123006812D01*
X199499500Y-123134108D01*
X174500500Y-123134108D01*
X174500500Y-122334108D01*
X191799500Y-122334108D01*
X191799500Y-122465891D01*
X191833608Y-122593187D01*
X191860928Y-122640506D01*
X191899500Y-122707314D01*
X191992686Y-122800500D01*
X192106814Y-122866392D01*
X192234108Y-122900500D01*
X192234110Y-122900500D01*
X192365890Y-122900500D01*
X192365892Y-122900500D01*
X192493186Y-122866392D01*
X192607314Y-122800500D01*
X192700500Y-122707314D01*
X192766392Y-122593186D01*
X192800500Y-122465892D01*
X192800500Y-122334108D01*
X192766392Y-122206814D01*
X192766391Y-122206812D01*
X192766391Y-122206811D01*
X192751719Y-122181400D01*
X192751718Y-122181398D01*
X192740691Y-122162299D01*
X192720614Y-122127525D01*
X204249500Y-122127525D01*
X204249500Y-122272475D01*
X204287016Y-122412485D01*
X204287017Y-122412488D01*
X204359488Y-122538011D01*
X204359490Y-122538013D01*
X204359491Y-122538015D01*
X204461985Y-122640509D01*
X204461986Y-122640510D01*
X204461988Y-122640511D01*
X204587511Y-122712982D01*
X204587512Y-122712982D01*
X204587515Y-122712984D01*
X204727525Y-122750500D01*
X204727528Y-122750500D01*
X204872472Y-122750500D01*
X204872475Y-122750500D01*
X205012485Y-122712984D01*
X205138015Y-122640509D01*
X205240509Y-122538015D01*
X205312984Y-122412485D01*
X205350500Y-122272475D01*
X205350500Y-122127525D01*
X205312984Y-121987515D01*
X205291613Y-121950500D01*
X205240511Y-121861988D01*
X205240506Y-121861982D01*
X205138017Y-121759493D01*
X205138011Y-121759488D01*
X205012488Y-121687017D01*
X205012489Y-121687017D01*
X205001006Y-121683940D01*
X204872475Y-121649500D01*
X204727525Y-121649500D01*
X204598993Y-121683940D01*
X204587511Y-121687017D01*
X204461988Y-121759488D01*
X204461982Y-121759493D01*
X204359493Y-121861982D01*
X204359488Y-121861988D01*
X204287017Y-121987511D01*
X204287016Y-121987515D01*
X204249500Y-122127525D01*
X192720614Y-122127525D01*
X192700500Y-122092686D01*
X192607314Y-121999500D01*
X192550250Y-121966554D01*
X192493187Y-121933608D01*
X192416208Y-121912982D01*
X192365892Y-121899500D01*
X192234108Y-121899500D01*
X192106812Y-121933608D01*
X191992686Y-121999500D01*
X191992683Y-121999502D01*
X191899502Y-122092683D01*
X191899500Y-122092686D01*
X191833608Y-122206812D01*
X191799500Y-122334108D01*
X174500500Y-122334108D01*
X174500500Y-121327525D01*
X188249500Y-121327525D01*
X188249500Y-121472475D01*
X188265394Y-121531790D01*
X188287017Y-121612488D01*
X188359488Y-121738011D01*
X188359490Y-121738013D01*
X188359491Y-121738015D01*
X188461985Y-121840509D01*
X188461986Y-121840510D01*
X188461988Y-121840511D01*
X188587511Y-121912982D01*
X188587512Y-121912982D01*
X188587515Y-121912984D01*
X188727525Y-121950500D01*
X188727528Y-121950500D01*
X188872472Y-121950500D01*
X188872475Y-121950500D01*
X189012485Y-121912984D01*
X189138015Y-121840509D01*
X189240509Y-121738015D01*
X189312984Y-121612485D01*
X189350500Y-121472475D01*
X189350500Y-121327525D01*
X189312984Y-121187515D01*
X189291613Y-121150500D01*
X189240511Y-121061988D01*
X189240506Y-121061982D01*
X189138017Y-120959493D01*
X189138011Y-120959488D01*
X189094052Y-120934108D01*
X192149500Y-120934108D01*
X192149500Y-121065891D01*
X192183608Y-121193187D01*
X192210118Y-121239103D01*
X192249500Y-121307314D01*
X192342686Y-121400500D01*
X192456814Y-121466392D01*
X192584108Y-121500500D01*
X192584110Y-121500500D01*
X192715890Y-121500500D01*
X192715892Y-121500500D01*
X192843186Y-121466392D01*
X192957314Y-121400500D01*
X193050500Y-121307314D01*
X193116392Y-121193186D01*
X193150500Y-121065892D01*
X193150500Y-120934108D01*
X193116392Y-120806814D01*
X193050500Y-120692686D01*
X192957314Y-120599500D01*
X192900250Y-120566554D01*
X192843187Y-120533608D01*
X192779539Y-120516554D01*
X192715892Y-120499500D01*
X192584108Y-120499500D01*
X192456812Y-120533608D01*
X192342686Y-120599500D01*
X192342683Y-120599502D01*
X192249502Y-120692683D01*
X192249500Y-120692686D01*
X192183608Y-120806812D01*
X192149500Y-120934108D01*
X189094052Y-120934108D01*
X189012488Y-120887017D01*
X189012489Y-120887017D01*
X189001006Y-120883940D01*
X188872475Y-120849500D01*
X188727525Y-120849500D01*
X188598993Y-120883940D01*
X188587511Y-120887017D01*
X188461988Y-120959488D01*
X188461982Y-120959493D01*
X188359493Y-121061982D01*
X188359488Y-121061988D01*
X188287017Y-121187511D01*
X188287016Y-121187515D01*
X188249500Y-121327525D01*
X174500500Y-121327525D01*
X174500500Y-120334108D01*
X200199500Y-120334108D01*
X200199500Y-120465891D01*
X200233608Y-120593187D01*
X200241766Y-120607316D01*
X200299500Y-120707314D01*
X200392686Y-120800500D01*
X200506814Y-120866392D01*
X200634108Y-120900500D01*
X200634110Y-120900500D01*
X200765890Y-120900500D01*
X200765892Y-120900500D01*
X200893186Y-120866392D01*
X200954513Y-120830984D01*
X201022411Y-120814511D01*
X201088438Y-120837362D01*
X201123900Y-120876370D01*
X201159491Y-120938015D01*
X201261985Y-121040509D01*
X201261986Y-121040510D01*
X201261988Y-121040511D01*
X201387511Y-121112982D01*
X201387512Y-121112982D01*
X201387515Y-121112984D01*
X201527525Y-121150500D01*
X201527528Y-121150500D01*
X201672472Y-121150500D01*
X201672475Y-121150500D01*
X201812485Y-121112984D01*
X201938015Y-121040509D01*
X202040509Y-120938015D01*
X202112984Y-120812485D01*
X202150500Y-120672475D01*
X202150500Y-120527525D01*
X202112984Y-120387515D01*
X202104093Y-120372116D01*
X202055519Y-120287983D01*
X202055518Y-120287982D01*
X202050967Y-120280099D01*
X202040509Y-120261985D01*
X202012632Y-120234108D01*
X205299500Y-120234108D01*
X205299500Y-120365892D01*
X205301168Y-120372116D01*
X205333608Y-120493187D01*
X205364987Y-120547536D01*
X205399500Y-120607314D01*
X205492686Y-120700500D01*
X205606814Y-120766392D01*
X205734108Y-120800500D01*
X205734110Y-120800500D01*
X205865890Y-120800500D01*
X205865892Y-120800500D01*
X205993186Y-120766392D01*
X206107314Y-120700500D01*
X206200500Y-120607314D01*
X206207175Y-120595751D01*
X206257742Y-120547536D01*
X206326348Y-120534312D01*
X206346649Y-120537974D01*
X206448637Y-120565302D01*
X206448639Y-120565302D01*
X206580419Y-120565302D01*
X206580421Y-120565302D01*
X206707715Y-120531194D01*
X206714070Y-120527525D01*
X213749500Y-120527525D01*
X213749500Y-120672475D01*
X213787016Y-120812485D01*
X213787017Y-120812488D01*
X213859488Y-120938011D01*
X213859490Y-120938013D01*
X213859491Y-120938015D01*
X213961985Y-121040509D01*
X213961986Y-121040510D01*
X213961988Y-121040511D01*
X214087511Y-121112982D01*
X214087512Y-121112982D01*
X214087515Y-121112984D01*
X214227525Y-121150500D01*
X214227528Y-121150500D01*
X214372472Y-121150500D01*
X214372475Y-121150500D01*
X214512485Y-121112984D01*
X214638002Y-121040516D01*
X214705899Y-121024044D01*
X214761996Y-121040515D01*
X214887515Y-121112984D01*
X215027525Y-121150500D01*
X215027528Y-121150500D01*
X215172472Y-121150500D01*
X215172475Y-121150500D01*
X215312485Y-121112984D01*
X215438015Y-121040509D01*
X215540509Y-120938015D01*
X215612984Y-120812485D01*
X215650500Y-120672475D01*
X215650500Y-120527525D01*
X215612984Y-120387515D01*
X215608645Y-120380000D01*
X215540511Y-120261988D01*
X215540506Y-120261982D01*
X215438017Y-120159493D01*
X215438011Y-120159488D01*
X215312488Y-120087017D01*
X215312489Y-120087017D01*
X215301006Y-120083940D01*
X215172475Y-120049500D01*
X215027525Y-120049500D01*
X214898993Y-120083940D01*
X214887511Y-120087017D01*
X214762000Y-120159482D01*
X214694100Y-120175955D01*
X214638000Y-120159482D01*
X214512488Y-120087017D01*
X214512489Y-120087017D01*
X214501006Y-120083940D01*
X214372475Y-120049500D01*
X214227525Y-120049500D01*
X214098993Y-120083940D01*
X214087511Y-120087017D01*
X213961988Y-120159488D01*
X213961982Y-120159493D01*
X213859493Y-120261982D01*
X213859488Y-120261988D01*
X213787017Y-120387511D01*
X213787016Y-120387515D01*
X213749500Y-120527525D01*
X206714070Y-120527525D01*
X206821843Y-120465302D01*
X206915029Y-120372116D01*
X206980921Y-120257988D01*
X207015029Y-120130694D01*
X207015029Y-119998910D01*
X206980921Y-119871616D01*
X206967391Y-119848181D01*
X206962379Y-119827525D01*
X218449500Y-119827525D01*
X218449500Y-119972475D01*
X218486546Y-120110730D01*
X218487017Y-120112488D01*
X218559488Y-120238011D01*
X218559490Y-120238013D01*
X218559491Y-120238015D01*
X218661985Y-120340509D01*
X218661986Y-120340510D01*
X218661988Y-120340511D01*
X218787511Y-120412982D01*
X218787512Y-120412982D01*
X218787515Y-120412984D01*
X218927525Y-120450500D01*
X218927528Y-120450500D01*
X219072472Y-120450500D01*
X219072475Y-120450500D01*
X219212485Y-120412984D01*
X219338015Y-120340509D01*
X219366408Y-120312116D01*
X219427731Y-120278631D01*
X219497423Y-120283615D01*
X219541770Y-120312116D01*
X219562023Y-120332369D01*
X219562024Y-120332370D01*
X219562026Y-120332371D01*
X219687549Y-120404842D01*
X219687550Y-120404842D01*
X219687553Y-120404844D01*
X219827563Y-120442360D01*
X219827566Y-120442360D01*
X219972510Y-120442360D01*
X219972513Y-120442360D01*
X220112523Y-120404844D01*
X220112525Y-120404842D01*
X220112527Y-120404842D01*
X220112528Y-120404841D01*
X220230969Y-120336458D01*
X220298868Y-120319985D01*
X220354970Y-120336458D01*
X220361982Y-120340506D01*
X220361985Y-120340509D01*
X220487515Y-120412984D01*
X220627525Y-120450500D01*
X220627528Y-120450500D01*
X220772472Y-120450500D01*
X220772475Y-120450500D01*
X220912485Y-120412984D01*
X221038015Y-120340509D01*
X221140509Y-120238015D01*
X221150366Y-120220943D01*
X222099500Y-120220943D01*
X222099500Y-120379057D01*
X222139283Y-120527527D01*
X222140423Y-120531783D01*
X222140426Y-120531790D01*
X222219475Y-120668709D01*
X222219481Y-120668717D01*
X222263083Y-120712319D01*
X222296568Y-120773642D01*
X222291584Y-120843334D01*
X222263083Y-120887681D01*
X222219481Y-120931282D01*
X222219475Y-120931290D01*
X222140426Y-121068209D01*
X222140423Y-121068216D01*
X222099500Y-121220943D01*
X222099500Y-121379057D01*
X222132041Y-121500500D01*
X222140423Y-121531783D01*
X222140426Y-121531790D01*
X222219475Y-121668709D01*
X222219479Y-121668714D01*
X222219480Y-121668716D01*
X222331284Y-121780520D01*
X222331286Y-121780521D01*
X222331290Y-121780524D01*
X222468209Y-121859573D01*
X222468216Y-121859577D01*
X222545278Y-121880225D01*
X222604937Y-121916590D01*
X222635466Y-121979437D01*
X222627171Y-122048813D01*
X222582686Y-122102691D01*
X222545279Y-122119774D01*
X222516352Y-122127525D01*
X222468214Y-122140423D01*
X222468209Y-122140426D01*
X222331290Y-122219475D01*
X222331282Y-122219481D01*
X222219481Y-122331282D01*
X222219475Y-122331290D01*
X222140426Y-122468209D01*
X222140423Y-122468216D01*
X222099500Y-122620943D01*
X222099500Y-122779057D01*
X222132041Y-122900500D01*
X222140423Y-122931783D01*
X222140426Y-122931790D01*
X222219475Y-123068709D01*
X222219481Y-123068717D01*
X222263083Y-123112319D01*
X222296568Y-123173642D01*
X222291584Y-123243334D01*
X222263083Y-123287681D01*
X222219481Y-123331282D01*
X222219475Y-123331290D01*
X222140426Y-123468209D01*
X222140423Y-123468216D01*
X222099500Y-123620943D01*
X222099500Y-123779057D01*
X222128316Y-123886598D01*
X222140423Y-123931783D01*
X222140426Y-123931790D01*
X222219475Y-124068709D01*
X222219479Y-124068714D01*
X222219480Y-124068716D01*
X222331284Y-124180520D01*
X222331285Y-124180521D01*
X222331287Y-124180522D01*
X222438832Y-124242613D01*
X222487047Y-124293180D01*
X222500271Y-124361787D01*
X222474303Y-124426652D01*
X222438832Y-124457387D01*
X222331287Y-124519477D01*
X222331282Y-124519481D01*
X222219481Y-124631282D01*
X222219475Y-124631290D01*
X222140426Y-124768209D01*
X222140423Y-124768216D01*
X222099500Y-124920943D01*
X222099500Y-125079057D01*
X222136650Y-125217701D01*
X222140423Y-125231783D01*
X222140426Y-125231790D01*
X222219475Y-125368709D01*
X222219481Y-125368717D01*
X222263083Y-125412319D01*
X222296568Y-125473642D01*
X222291584Y-125543334D01*
X222263083Y-125587681D01*
X222219481Y-125631282D01*
X222219475Y-125631290D01*
X222140426Y-125768209D01*
X222140423Y-125768216D01*
X222099500Y-125920943D01*
X222099500Y-126079057D01*
X222121052Y-126159488D01*
X222140423Y-126231783D01*
X222140426Y-126231790D01*
X222219475Y-126368709D01*
X222219479Y-126368714D01*
X222219480Y-126368716D01*
X222331284Y-126480520D01*
X222331286Y-126480521D01*
X222331290Y-126480524D01*
X222412703Y-126527527D01*
X222468216Y-126559577D01*
X222620943Y-126600500D01*
X222620945Y-126600500D01*
X222779055Y-126600500D01*
X222779057Y-126600500D01*
X222931784Y-126559577D01*
X223068716Y-126480520D01*
X223180520Y-126368716D01*
X223259577Y-126231784D01*
X223300500Y-126079057D01*
X223300500Y-125920943D01*
X223259577Y-125768216D01*
X223215970Y-125692686D01*
X223180524Y-125631290D01*
X223180518Y-125631282D01*
X223136917Y-125587681D01*
X223103432Y-125526358D01*
X223108416Y-125456666D01*
X223136917Y-125412319D01*
X223142424Y-125406812D01*
X223180520Y-125368716D01*
X223259577Y-125231784D01*
X223274116Y-125177525D01*
X226949500Y-125177525D01*
X226949500Y-125322475D01*
X226972099Y-125406814D01*
X226987017Y-125462488D01*
X227059488Y-125588011D01*
X227059490Y-125588013D01*
X227059491Y-125588015D01*
X227161985Y-125690509D01*
X227161986Y-125690510D01*
X227161988Y-125690511D01*
X227287511Y-125762982D01*
X227287512Y-125762982D01*
X227287515Y-125762984D01*
X227427525Y-125800500D01*
X227427528Y-125800500D01*
X227572472Y-125800500D01*
X227572475Y-125800500D01*
X227712485Y-125762984D01*
X227838015Y-125690509D01*
X227940509Y-125588015D01*
X228012984Y-125462485D01*
X228050500Y-125322475D01*
X228050500Y-125177525D01*
X228012984Y-125037515D01*
X228012982Y-125037511D01*
X227951209Y-124930517D01*
X227945681Y-124920943D01*
X227940509Y-124911985D01*
X227901913Y-124873389D01*
X236999500Y-124873389D01*
X236999500Y-125046611D01*
X237004639Y-125079056D01*
X237023715Y-125199502D01*
X237026598Y-125217701D01*
X237080127Y-125382445D01*
X237158768Y-125536788D01*
X237260586Y-125676928D01*
X237383072Y-125799414D01*
X237523212Y-125901232D01*
X237677555Y-125979873D01*
X237842299Y-126033402D01*
X238013389Y-126060500D01*
X238013390Y-126060500D01*
X238186610Y-126060500D01*
X238186611Y-126060500D01*
X238357701Y-126033402D01*
X238522445Y-125979873D01*
X238676788Y-125901232D01*
X238816928Y-125799414D01*
X238939414Y-125676928D01*
X239041232Y-125536788D01*
X239119873Y-125382445D01*
X239173402Y-125217701D01*
X239200500Y-125046611D01*
X239200500Y-124873389D01*
X239173402Y-124702299D01*
X239119873Y-124537555D01*
X239041232Y-124383212D01*
X238939414Y-124243072D01*
X238816928Y-124120586D01*
X238676788Y-124018768D01*
X238522445Y-123940127D01*
X238357701Y-123886598D01*
X238357699Y-123886597D01*
X238357698Y-123886597D01*
X238226271Y-123865781D01*
X238186611Y-123859500D01*
X238013389Y-123859500D01*
X237973728Y-123865781D01*
X237842302Y-123886597D01*
X237677552Y-123940128D01*
X237523211Y-124018768D01*
X237454474Y-124068709D01*
X237383072Y-124120586D01*
X237383070Y-124120588D01*
X237383069Y-124120588D01*
X237260588Y-124243069D01*
X237260588Y-124243070D01*
X237260586Y-124243072D01*
X237224180Y-124293180D01*
X237158768Y-124383211D01*
X237080128Y-124537552D01*
X237026597Y-124702302D01*
X237009621Y-124809488D01*
X236999500Y-124873389D01*
X227901913Y-124873389D01*
X227838015Y-124809491D01*
X227838013Y-124809490D01*
X227838011Y-124809488D01*
X227712488Y-124737017D01*
X227712489Y-124737017D01*
X227701006Y-124733940D01*
X227572475Y-124699500D01*
X227427525Y-124699500D01*
X227298993Y-124733940D01*
X227287511Y-124737017D01*
X227161988Y-124809488D01*
X227161982Y-124809493D01*
X227059493Y-124911982D01*
X227059488Y-124911988D01*
X226987017Y-125037511D01*
X226987016Y-125037515D01*
X226949500Y-125177525D01*
X223274116Y-125177525D01*
X223300500Y-125079057D01*
X223300500Y-124920943D01*
X223259577Y-124768216D01*
X223259573Y-124768209D01*
X223180524Y-124631290D01*
X223180518Y-124631282D01*
X223068717Y-124519481D01*
X223068709Y-124519475D01*
X222961168Y-124457387D01*
X222912952Y-124406821D01*
X222899728Y-124338214D01*
X222925696Y-124273349D01*
X222961168Y-124242613D01*
X223068709Y-124180524D01*
X223068708Y-124180524D01*
X223068716Y-124180520D01*
X223180520Y-124068716D01*
X223259577Y-123931784D01*
X223300500Y-123779057D01*
X223300500Y-123620943D01*
X223259577Y-123468216D01*
X223216260Y-123393188D01*
X223180524Y-123331290D01*
X223180518Y-123331282D01*
X223136917Y-123287681D01*
X223103432Y-123226358D01*
X223108416Y-123156666D01*
X223136917Y-123112319D01*
X223180520Y-123068716D01*
X223259577Y-122931784D01*
X223300500Y-122779057D01*
X223300500Y-122620943D01*
X223259577Y-122468216D01*
X223182152Y-122334110D01*
X223180524Y-122331290D01*
X223180518Y-122331282D01*
X223068717Y-122219481D01*
X223068709Y-122219475D01*
X222931790Y-122140426D01*
X222931786Y-122140424D01*
X222931784Y-122140423D01*
X222854721Y-122119774D01*
X222795062Y-122083410D01*
X222764533Y-122020563D01*
X222772828Y-121951188D01*
X222817313Y-121897310D01*
X222854720Y-121880225D01*
X222931784Y-121859577D01*
X223068716Y-121780520D01*
X223180520Y-121668716D01*
X223259577Y-121531784D01*
X223300500Y-121379057D01*
X223300500Y-121220943D01*
X223259577Y-121068216D01*
X223204077Y-120972086D01*
X223180524Y-120931290D01*
X223180518Y-120931282D01*
X223136917Y-120887681D01*
X223103432Y-120826358D01*
X223108416Y-120756666D01*
X223136917Y-120712319D01*
X223156553Y-120692683D01*
X223180520Y-120668716D01*
X223259577Y-120531784D01*
X223300500Y-120379057D01*
X223300500Y-120220943D01*
X223259577Y-120068216D01*
X223259573Y-120068209D01*
X223180524Y-119931290D01*
X223180518Y-119931282D01*
X223068717Y-119819481D01*
X223068709Y-119819475D01*
X222931790Y-119740426D01*
X222931786Y-119740424D01*
X222931784Y-119740423D01*
X222779057Y-119699500D01*
X222620943Y-119699500D01*
X222468216Y-119740423D01*
X222468209Y-119740426D01*
X222331290Y-119819475D01*
X222331282Y-119819481D01*
X222219481Y-119931282D01*
X222219475Y-119931290D01*
X222140426Y-120068209D01*
X222140423Y-120068216D01*
X222099500Y-120220943D01*
X221150366Y-120220943D01*
X221212984Y-120112485D01*
X221250500Y-119972475D01*
X221250500Y-119827525D01*
X221212984Y-119687515D01*
X221200797Y-119666407D01*
X221140511Y-119561988D01*
X221140506Y-119561982D01*
X221038017Y-119459493D01*
X221038011Y-119459488D01*
X220912488Y-119387017D01*
X220912489Y-119387017D01*
X220882106Y-119378876D01*
X220772475Y-119349500D01*
X220627525Y-119349500D01*
X220517894Y-119378876D01*
X220487511Y-119387017D01*
X220369068Y-119455401D01*
X220301168Y-119471874D01*
X220245068Y-119455401D01*
X220112526Y-119378877D01*
X220112527Y-119378877D01*
X220101044Y-119375800D01*
X219972513Y-119341360D01*
X219827563Y-119341360D01*
X219699031Y-119375800D01*
X219687549Y-119378877D01*
X219562026Y-119451348D01*
X219562023Y-119451351D01*
X219533627Y-119479746D01*
X219472303Y-119513229D01*
X219402611Y-119508242D01*
X219358267Y-119479743D01*
X219338017Y-119459493D01*
X219338011Y-119459488D01*
X219212488Y-119387017D01*
X219212489Y-119387017D01*
X219182106Y-119378876D01*
X219072475Y-119349500D01*
X218927525Y-119349500D01*
X218817894Y-119378876D01*
X218787511Y-119387017D01*
X218661988Y-119459488D01*
X218661982Y-119459493D01*
X218559493Y-119561982D01*
X218559488Y-119561988D01*
X218487017Y-119687511D01*
X218487016Y-119687515D01*
X218449500Y-119827525D01*
X206962379Y-119827525D01*
X206950918Y-119780285D01*
X206973769Y-119714257D01*
X207028689Y-119671065D01*
X207098242Y-119664422D01*
X207106863Y-119666405D01*
X207234108Y-119700500D01*
X207234110Y-119700500D01*
X207365890Y-119700500D01*
X207365892Y-119700500D01*
X207493186Y-119666392D01*
X207607314Y-119600500D01*
X207700500Y-119507314D01*
X207742613Y-119434371D01*
X207793180Y-119386156D01*
X207861787Y-119372933D01*
X207926652Y-119398901D01*
X207957386Y-119434371D01*
X207999500Y-119507314D01*
X208092686Y-119600500D01*
X208191521Y-119657563D01*
X208205284Y-119665509D01*
X208206814Y-119666392D01*
X208334108Y-119700500D01*
X208334110Y-119700500D01*
X208465890Y-119700500D01*
X208465892Y-119700500D01*
X208593186Y-119666392D01*
X208707314Y-119600500D01*
X208800500Y-119507314D01*
X208866392Y-119393186D01*
X208900500Y-119265892D01*
X208900500Y-119152525D01*
X225274500Y-119152525D01*
X225274500Y-119297475D01*
X225306425Y-119416618D01*
X225312017Y-119437488D01*
X225384488Y-119563011D01*
X225384490Y-119563013D01*
X225384491Y-119563015D01*
X225486985Y-119665509D01*
X225486986Y-119665510D01*
X225486988Y-119665511D01*
X225612511Y-119737982D01*
X225612512Y-119737982D01*
X225612515Y-119737984D01*
X225752525Y-119775500D01*
X225752528Y-119775500D01*
X225897472Y-119775500D01*
X225897475Y-119775500D01*
X226037485Y-119737984D01*
X226163015Y-119665509D01*
X226265509Y-119563015D01*
X226337984Y-119437485D01*
X226375500Y-119297475D01*
X226375500Y-119152525D01*
X226337984Y-119012515D01*
X226334691Y-119006812D01*
X226320455Y-118982155D01*
X236750000Y-118982155D01*
X236750000Y-119630000D01*
X237666988Y-119630000D01*
X237634075Y-119687007D01*
X237600000Y-119814174D01*
X237600000Y-119945826D01*
X237634075Y-120072993D01*
X237666988Y-120130000D01*
X236750000Y-120130000D01*
X236750000Y-120777844D01*
X236756401Y-120837372D01*
X236756403Y-120837379D01*
X236806645Y-120972086D01*
X236806649Y-120972093D01*
X236892809Y-121087187D01*
X236892812Y-121087190D01*
X237007906Y-121173350D01*
X237007913Y-121173354D01*
X237142620Y-121223596D01*
X237142627Y-121223598D01*
X237202155Y-121229999D01*
X237202172Y-121230000D01*
X237494949Y-121230000D01*
X237561988Y-121249685D01*
X237607743Y-121302489D01*
X237617687Y-121371647D01*
X237588662Y-121435203D01*
X237551244Y-121464485D01*
X237523211Y-121478768D01*
X237450243Y-121531783D01*
X237383072Y-121580586D01*
X237383070Y-121580588D01*
X237383069Y-121580588D01*
X237260588Y-121703069D01*
X237260588Y-121703070D01*
X237260586Y-121703072D01*
X237235197Y-121738017D01*
X237158768Y-121843211D01*
X237080128Y-121997552D01*
X237026597Y-122162302D01*
X236999500Y-122333389D01*
X236999500Y-122506610D01*
X237020707Y-122640511D01*
X237026598Y-122677701D01*
X237080127Y-122842445D01*
X237158768Y-122996788D01*
X237260586Y-123136928D01*
X237383072Y-123259414D01*
X237523212Y-123361232D01*
X237677555Y-123439873D01*
X237842299Y-123493402D01*
X238013389Y-123520500D01*
X238013390Y-123520500D01*
X238186610Y-123520500D01*
X238186611Y-123520500D01*
X238357701Y-123493402D01*
X238522445Y-123439873D01*
X238676788Y-123361232D01*
X238816928Y-123259414D01*
X238939414Y-123136928D01*
X239041232Y-122996788D01*
X239119873Y-122842445D01*
X239173402Y-122677701D01*
X239200500Y-122506611D01*
X239200500Y-122333389D01*
X239173402Y-122162299D01*
X239119873Y-121997555D01*
X239041232Y-121843212D01*
X238939414Y-121703072D01*
X238816928Y-121580586D01*
X238676788Y-121478768D01*
X238648756Y-121464485D01*
X238597960Y-121416510D01*
X238581165Y-121348689D01*
X238603703Y-121282554D01*
X238658418Y-121239103D01*
X238705051Y-121230000D01*
X238997828Y-121230000D01*
X238997844Y-121229999D01*
X239057372Y-121223598D01*
X239057379Y-121223596D01*
X239192086Y-121173354D01*
X239192093Y-121173350D01*
X239307187Y-121087190D01*
X239307190Y-121087187D01*
X239393350Y-120972093D01*
X239393354Y-120972086D01*
X239443596Y-120837379D01*
X239443598Y-120837372D01*
X239449999Y-120777844D01*
X239450000Y-120777827D01*
X239450000Y-120130000D01*
X238533012Y-120130000D01*
X238565925Y-120072993D01*
X238600000Y-119945826D01*
X238600000Y-119814174D01*
X238565925Y-119687007D01*
X238533012Y-119630000D01*
X239450000Y-119630000D01*
X239450000Y-118982172D01*
X239449999Y-118982155D01*
X239443598Y-118922627D01*
X239443596Y-118922620D01*
X239393354Y-118787913D01*
X239393350Y-118787906D01*
X239307190Y-118672812D01*
X239307187Y-118672809D01*
X239192093Y-118586649D01*
X239192086Y-118586645D01*
X239057379Y-118536403D01*
X239057372Y-118536401D01*
X238997844Y-118530000D01*
X238350000Y-118530000D01*
X238350000Y-119446988D01*
X238292993Y-119414075D01*
X238165826Y-119380000D01*
X238034174Y-119380000D01*
X237907007Y-119414075D01*
X237850000Y-119446988D01*
X237850000Y-118530000D01*
X237202155Y-118530000D01*
X237142627Y-118536401D01*
X237142620Y-118536403D01*
X237007913Y-118586645D01*
X237007906Y-118586649D01*
X236892812Y-118672809D01*
X236892809Y-118672812D01*
X236806649Y-118787906D01*
X236806645Y-118787913D01*
X236756403Y-118922620D01*
X236756401Y-118922627D01*
X236750000Y-118982155D01*
X226320455Y-118982155D01*
X226265511Y-118886988D01*
X226265506Y-118886982D01*
X226163017Y-118784493D01*
X226163011Y-118784488D01*
X226037488Y-118712017D01*
X226037489Y-118712017D01*
X226026006Y-118708940D01*
X225897475Y-118674500D01*
X225752525Y-118674500D01*
X225669212Y-118696824D01*
X225612511Y-118712017D01*
X225486988Y-118784488D01*
X225486982Y-118784493D01*
X225384493Y-118886982D01*
X225384488Y-118886988D01*
X225312017Y-119012511D01*
X225312016Y-119012515D01*
X225274500Y-119152525D01*
X208900500Y-119152525D01*
X208900500Y-119134108D01*
X208866392Y-119006814D01*
X208800500Y-118892686D01*
X208707314Y-118799500D01*
X208650250Y-118766554D01*
X208593187Y-118733608D01*
X208529539Y-118716554D01*
X208465892Y-118699500D01*
X208334108Y-118699500D01*
X208206812Y-118733608D01*
X208092686Y-118799500D01*
X208092683Y-118799502D01*
X207999502Y-118892683D01*
X207999500Y-118892686D01*
X207957387Y-118965628D01*
X207906820Y-119013843D01*
X207838212Y-119027065D01*
X207773348Y-119001097D01*
X207742613Y-118965628D01*
X207700500Y-118892686D01*
X207607314Y-118799500D01*
X207550250Y-118766554D01*
X207493187Y-118733608D01*
X207429539Y-118716554D01*
X207365892Y-118699500D01*
X207234108Y-118699500D01*
X207106812Y-118733608D01*
X206992686Y-118799500D01*
X206992683Y-118799502D01*
X206899502Y-118892683D01*
X206899500Y-118892686D01*
X206833608Y-119006812D01*
X206799500Y-119134108D01*
X206799500Y-119265892D01*
X206831724Y-119386156D01*
X206833609Y-119393188D01*
X206833610Y-119393191D01*
X206847136Y-119416618D01*
X206863610Y-119484517D01*
X206840758Y-119550545D01*
X206785838Y-119593736D01*
X206716285Y-119600378D01*
X206707657Y-119598394D01*
X206618055Y-119574386D01*
X206580421Y-119564302D01*
X206448637Y-119564302D01*
X206321341Y-119598410D01*
X206207215Y-119664302D01*
X206207212Y-119664304D01*
X206114031Y-119757485D01*
X206114024Y-119757494D01*
X206107351Y-119769053D01*
X206056783Y-119817267D01*
X205988176Y-119830488D01*
X205967874Y-119826825D01*
X205865893Y-119799500D01*
X205865892Y-119799500D01*
X205734108Y-119799500D01*
X205606812Y-119833608D01*
X205492686Y-119899500D01*
X205492683Y-119899502D01*
X205399502Y-119992683D01*
X205399500Y-119992686D01*
X205333608Y-120106812D01*
X205303027Y-120220945D01*
X205299500Y-120234108D01*
X202012632Y-120234108D01*
X201938015Y-120159491D01*
X201938013Y-120159490D01*
X201938011Y-120159488D01*
X201812488Y-120087017D01*
X201812489Y-120087017D01*
X201801006Y-120083940D01*
X201672475Y-120049500D01*
X201527525Y-120049500D01*
X201398993Y-120083940D01*
X201387511Y-120087017D01*
X201277185Y-120150715D01*
X201209285Y-120167188D01*
X201143258Y-120144336D01*
X201107799Y-120105328D01*
X201100500Y-120092686D01*
X201007314Y-119999500D01*
X200950250Y-119966554D01*
X200893187Y-119933608D01*
X200829539Y-119916554D01*
X200765892Y-119899500D01*
X200634108Y-119899500D01*
X200506812Y-119933608D01*
X200392686Y-119999500D01*
X200392683Y-119999502D01*
X200299502Y-120092683D01*
X200299500Y-120092686D01*
X200233608Y-120206812D01*
X200199500Y-120334108D01*
X174500500Y-120334108D01*
X174500500Y-117714448D01*
X180882000Y-117714448D01*
X180882000Y-117895551D01*
X180910329Y-118074410D01*
X180966287Y-118246636D01*
X180966288Y-118246639D01*
X181001830Y-118316392D01*
X181048503Y-118407993D01*
X181048506Y-118407997D01*
X181154941Y-118554494D01*
X181154945Y-118554499D01*
X181283000Y-118682554D01*
X181283005Y-118682558D01*
X181410787Y-118775396D01*
X181429506Y-118788996D01*
X181534984Y-118842740D01*
X181590860Y-118871211D01*
X181590863Y-118871212D01*
X181639409Y-118886985D01*
X181763091Y-118927171D01*
X181845929Y-118940291D01*
X181941949Y-118955500D01*
X181941954Y-118955500D01*
X183923051Y-118955500D01*
X184009759Y-118941765D01*
X184101909Y-118927171D01*
X184274139Y-118871211D01*
X184435494Y-118788996D01*
X184582001Y-118682553D01*
X184643611Y-118620943D01*
X188299500Y-118620943D01*
X188299500Y-118779057D01*
X188337970Y-118922627D01*
X188340423Y-118931783D01*
X188340426Y-118931790D01*
X188419475Y-119068709D01*
X188419479Y-119068714D01*
X188419480Y-119068716D01*
X188531284Y-119180520D01*
X188531286Y-119180521D01*
X188531290Y-119180524D01*
X188668209Y-119259573D01*
X188668216Y-119259577D01*
X188820943Y-119300500D01*
X188820945Y-119300500D01*
X188979055Y-119300500D01*
X188979057Y-119300500D01*
X189131784Y-119259577D01*
X189268716Y-119180520D01*
X189380520Y-119068716D01*
X189392612Y-119047772D01*
X189443178Y-118999555D01*
X189511785Y-118986331D01*
X189576650Y-119012298D01*
X189607388Y-119047772D01*
X189619477Y-119068712D01*
X189619479Y-119068715D01*
X189619480Y-119068716D01*
X189731284Y-119180520D01*
X189731286Y-119180521D01*
X189731290Y-119180524D01*
X189868209Y-119259573D01*
X189868216Y-119259577D01*
X190020943Y-119300500D01*
X190020945Y-119300500D01*
X190179055Y-119300500D01*
X190179057Y-119300500D01*
X190331784Y-119259577D01*
X190468716Y-119180520D01*
X190580520Y-119068716D01*
X190592612Y-119047772D01*
X190643178Y-118999555D01*
X190711785Y-118986331D01*
X190776650Y-119012298D01*
X190807388Y-119047772D01*
X190819477Y-119068712D01*
X190819479Y-119068715D01*
X190819480Y-119068716D01*
X190931284Y-119180520D01*
X190931286Y-119180521D01*
X190931290Y-119180524D01*
X191068209Y-119259573D01*
X191068216Y-119259577D01*
X191220943Y-119300500D01*
X191220945Y-119300500D01*
X191379055Y-119300500D01*
X191379057Y-119300500D01*
X191531784Y-119259577D01*
X191668716Y-119180520D01*
X191780520Y-119068716D01*
X191792612Y-119047772D01*
X191843178Y-118999555D01*
X191911785Y-118986331D01*
X191976650Y-119012298D01*
X192007388Y-119047772D01*
X192019477Y-119068712D01*
X192019479Y-119068715D01*
X192019480Y-119068716D01*
X192131284Y-119180520D01*
X192131286Y-119180521D01*
X192131290Y-119180524D01*
X192268209Y-119259573D01*
X192268216Y-119259577D01*
X192420943Y-119300500D01*
X192420945Y-119300500D01*
X192579055Y-119300500D01*
X192579057Y-119300500D01*
X192731784Y-119259577D01*
X192868716Y-119180520D01*
X192962319Y-119086917D01*
X193023642Y-119053432D01*
X193093334Y-119058416D01*
X193137681Y-119086917D01*
X193231284Y-119180520D01*
X193231286Y-119180521D01*
X193231290Y-119180524D01*
X193368209Y-119259573D01*
X193368216Y-119259577D01*
X193520943Y-119300500D01*
X193520945Y-119300500D01*
X193679055Y-119300500D01*
X193679057Y-119300500D01*
X193831784Y-119259577D01*
X193968716Y-119180520D01*
X194080520Y-119068716D01*
X194092612Y-119047772D01*
X194143178Y-118999555D01*
X194211785Y-118986331D01*
X194276650Y-119012298D01*
X194307388Y-119047772D01*
X194319477Y-119068712D01*
X194319479Y-119068715D01*
X194319480Y-119068716D01*
X194431284Y-119180520D01*
X194431286Y-119180521D01*
X194431290Y-119180524D01*
X194568209Y-119259573D01*
X194568216Y-119259577D01*
X194720943Y-119300500D01*
X194720945Y-119300500D01*
X194879055Y-119300500D01*
X194879057Y-119300500D01*
X195031784Y-119259577D01*
X195168716Y-119180520D01*
X195280520Y-119068716D01*
X195359577Y-118931784D01*
X195400500Y-118779057D01*
X195400500Y-118620943D01*
X195376045Y-118529675D01*
X195377708Y-118459832D01*
X195416870Y-118401969D01*
X195463723Y-118377813D01*
X195531784Y-118359577D01*
X195668716Y-118280520D01*
X195780520Y-118168716D01*
X195859577Y-118031784D01*
X195900500Y-117879057D01*
X195900500Y-117720943D01*
X195859577Y-117568216D01*
X195855978Y-117561982D01*
X195780524Y-117431290D01*
X195780518Y-117431282D01*
X195668717Y-117319481D01*
X195668709Y-117319475D01*
X195531790Y-117240426D01*
X195531786Y-117240424D01*
X195531784Y-117240423D01*
X195379057Y-117199500D01*
X195220943Y-117199500D01*
X195068216Y-117240423D01*
X195068209Y-117240426D01*
X194931290Y-117319475D01*
X194931282Y-117319481D01*
X194819481Y-117431282D01*
X194819477Y-117431287D01*
X194807387Y-117452229D01*
X194756820Y-117500445D01*
X194688213Y-117513668D01*
X194623348Y-117487700D01*
X194592613Y-117452229D01*
X194580522Y-117431287D01*
X194580518Y-117431282D01*
X194468717Y-117319481D01*
X194468709Y-117319475D01*
X194331790Y-117240426D01*
X194331786Y-117240424D01*
X194331784Y-117240423D01*
X194179057Y-117199500D01*
X194020943Y-117199500D01*
X193868216Y-117240423D01*
X193868209Y-117240426D01*
X193731290Y-117319475D01*
X193731282Y-117319481D01*
X193637681Y-117413083D01*
X193576358Y-117446568D01*
X193506666Y-117441584D01*
X193462319Y-117413083D01*
X193368717Y-117319481D01*
X193368709Y-117319475D01*
X193231790Y-117240426D01*
X193231786Y-117240424D01*
X193231784Y-117240423D01*
X193079057Y-117199500D01*
X192920943Y-117199500D01*
X192768216Y-117240423D01*
X192768209Y-117240426D01*
X192631290Y-117319475D01*
X192631282Y-117319481D01*
X192519481Y-117431282D01*
X192519477Y-117431287D01*
X192507387Y-117452229D01*
X192456820Y-117500445D01*
X192388213Y-117513668D01*
X192323348Y-117487700D01*
X192292613Y-117452229D01*
X192280522Y-117431287D01*
X192280518Y-117431282D01*
X192168717Y-117319481D01*
X192168709Y-117319475D01*
X192031790Y-117240426D01*
X192031786Y-117240424D01*
X192031784Y-117240423D01*
X191879057Y-117199500D01*
X191720943Y-117199500D01*
X191568216Y-117240423D01*
X191568209Y-117240426D01*
X191431290Y-117319475D01*
X191431282Y-117319481D01*
X191319481Y-117431282D01*
X191319477Y-117431287D01*
X191307387Y-117452229D01*
X191256820Y-117500445D01*
X191188213Y-117513668D01*
X191123348Y-117487700D01*
X191092613Y-117452229D01*
X191080522Y-117431287D01*
X191080518Y-117431282D01*
X190968717Y-117319481D01*
X190968709Y-117319475D01*
X190831790Y-117240426D01*
X190831786Y-117240424D01*
X190831784Y-117240423D01*
X190679057Y-117199500D01*
X190520943Y-117199500D01*
X190368216Y-117240423D01*
X190368209Y-117240426D01*
X190231290Y-117319475D01*
X190231282Y-117319481D01*
X190119481Y-117431282D01*
X190119477Y-117431287D01*
X190107387Y-117452229D01*
X190056820Y-117500445D01*
X189988213Y-117513668D01*
X189923348Y-117487700D01*
X189892613Y-117452229D01*
X189880522Y-117431287D01*
X189880518Y-117431282D01*
X189768717Y-117319481D01*
X189768709Y-117319475D01*
X189631790Y-117240426D01*
X189631786Y-117240424D01*
X189631784Y-117240423D01*
X189479057Y-117199500D01*
X189320943Y-117199500D01*
X189168216Y-117240423D01*
X189168209Y-117240426D01*
X189031290Y-117319475D01*
X189031282Y-117319481D01*
X188919481Y-117431282D01*
X188919475Y-117431290D01*
X188840426Y-117568209D01*
X188840423Y-117568216D01*
X188799500Y-117720943D01*
X188799500Y-117879057D01*
X188823953Y-117970320D01*
X188822291Y-118040168D01*
X188783129Y-118098031D01*
X188736274Y-118122186D01*
X188668220Y-118140421D01*
X188668209Y-118140426D01*
X188531290Y-118219475D01*
X188531282Y-118219481D01*
X188419481Y-118331282D01*
X188419475Y-118331290D01*
X188340426Y-118468209D01*
X188340423Y-118468216D01*
X188299500Y-118620943D01*
X184643611Y-118620943D01*
X184710053Y-118554501D01*
X184710060Y-118554492D01*
X184720637Y-118539934D01*
X184720639Y-118539931D01*
X184772747Y-118468209D01*
X184816496Y-118407994D01*
X184898711Y-118246639D01*
X184954671Y-118074409D01*
X184971157Y-117970318D01*
X184983000Y-117895551D01*
X184983000Y-117714448D01*
X184966519Y-117610397D01*
X184954671Y-117535591D01*
X184920780Y-117431282D01*
X184898712Y-117363363D01*
X184898711Y-117363360D01*
X184860063Y-117287511D01*
X184816496Y-117202006D01*
X184787417Y-117161982D01*
X184710058Y-117055505D01*
X184710054Y-117055500D01*
X184581999Y-116927445D01*
X184581994Y-116927441D01*
X184435497Y-116821006D01*
X184435496Y-116821005D01*
X184435494Y-116821004D01*
X184376396Y-116790892D01*
X184274139Y-116738788D01*
X184274136Y-116738787D01*
X184101910Y-116682829D01*
X183923051Y-116654500D01*
X183923046Y-116654500D01*
X181941954Y-116654500D01*
X181941949Y-116654500D01*
X181763089Y-116682829D01*
X181590863Y-116738787D01*
X181590860Y-116738788D01*
X181429502Y-116821006D01*
X181283005Y-116927441D01*
X181283000Y-116927445D01*
X181154945Y-117055500D01*
X181154941Y-117055505D01*
X181048506Y-117202002D01*
X180966288Y-117363360D01*
X180966287Y-117363363D01*
X180910329Y-117535589D01*
X180882000Y-117714448D01*
X174500500Y-117714448D01*
X174500500Y-116634108D01*
X196699500Y-116634108D01*
X196699500Y-116765892D01*
X196711985Y-116812488D01*
X196733608Y-116893187D01*
X196766121Y-116949500D01*
X196799500Y-117007314D01*
X196892686Y-117100500D01*
X197006814Y-117166392D01*
X197134108Y-117200500D01*
X197134110Y-117200500D01*
X197265890Y-117200500D01*
X197265892Y-117200500D01*
X197393186Y-117166392D01*
X197481751Y-117115258D01*
X197549649Y-117098786D01*
X197605747Y-117115257D01*
X197694314Y-117166392D01*
X197821608Y-117200500D01*
X197821610Y-117200500D01*
X197953390Y-117200500D01*
X197953392Y-117200500D01*
X198080686Y-117166392D01*
X198160318Y-117120416D01*
X198228215Y-117103944D01*
X198284500Y-117123424D01*
X198285648Y-117121438D01*
X198292684Y-117125500D01*
X198292686Y-117125502D01*
X198406814Y-117191394D01*
X198534108Y-117225502D01*
X198534110Y-117225502D01*
X198665890Y-117225502D01*
X198665892Y-117225502D01*
X198793186Y-117191394D01*
X198907314Y-117125502D01*
X198948708Y-117084108D01*
X204249500Y-117084108D01*
X204249500Y-117215892D01*
X204277256Y-117319481D01*
X204283609Y-117343188D01*
X204283609Y-117343189D01*
X204338348Y-117438000D01*
X204354821Y-117505900D01*
X204338348Y-117562000D01*
X204283609Y-117656810D01*
X204283609Y-117656811D01*
X204249500Y-117784108D01*
X204249500Y-117915891D01*
X204283608Y-118043187D01*
X204301635Y-118074410D01*
X204349500Y-118157314D01*
X204442686Y-118250500D01*
X204556814Y-118316392D01*
X204684108Y-118350500D01*
X204684110Y-118350500D01*
X204815890Y-118350500D01*
X204815892Y-118350500D01*
X204943186Y-118316392D01*
X205057314Y-118250500D01*
X205150500Y-118157314D01*
X205216392Y-118043186D01*
X205250500Y-117915892D01*
X205250500Y-117784108D01*
X205216392Y-117656814D01*
X205161650Y-117561999D01*
X205158820Y-117550333D01*
X205151858Y-117540556D01*
X205150736Y-117517010D01*
X205145178Y-117494100D01*
X205149021Y-117481011D01*
X205148533Y-117470765D01*
X205161651Y-117438000D01*
X205167699Y-117427525D01*
X223449500Y-117427525D01*
X223449500Y-117572475D01*
X223487016Y-117712485D01*
X223487017Y-117712488D01*
X223559488Y-117838011D01*
X223559490Y-117838013D01*
X223559491Y-117838015D01*
X223661985Y-117940509D01*
X223661986Y-117940510D01*
X223661988Y-117940511D01*
X223787511Y-118012982D01*
X223787512Y-118012982D01*
X223787515Y-118012984D01*
X223927525Y-118050500D01*
X223927528Y-118050500D01*
X224072472Y-118050500D01*
X224072475Y-118050500D01*
X224212485Y-118012984D01*
X224338015Y-117940509D01*
X224440509Y-117838015D01*
X224446565Y-117827525D01*
X225149500Y-117827525D01*
X225149500Y-117972475D01*
X225176814Y-118074410D01*
X225187017Y-118112488D01*
X225259488Y-118238011D01*
X225259490Y-118238013D01*
X225259491Y-118238015D01*
X225361985Y-118340509D01*
X225361986Y-118340510D01*
X225361988Y-118340511D01*
X225487511Y-118412982D01*
X225487512Y-118412982D01*
X225487515Y-118412984D01*
X225627525Y-118450500D01*
X225627528Y-118450500D01*
X225640232Y-118450500D01*
X225772475Y-118450500D01*
X225912485Y-118412984D01*
X226038015Y-118340509D01*
X226140509Y-118238015D01*
X226212984Y-118112485D01*
X226250500Y-117972475D01*
X226250500Y-117827525D01*
X226212984Y-117687515D01*
X226195256Y-117656810D01*
X226140511Y-117561988D01*
X226140506Y-117561982D01*
X226038017Y-117459493D01*
X226038011Y-117459488D01*
X225912488Y-117387017D01*
X225912489Y-117387017D01*
X225901006Y-117383940D01*
X225772475Y-117349500D01*
X225627525Y-117349500D01*
X225498993Y-117383940D01*
X225487511Y-117387017D01*
X225361988Y-117459488D01*
X225361982Y-117459493D01*
X225259493Y-117561982D01*
X225259488Y-117561988D01*
X225187017Y-117687511D01*
X225187016Y-117687515D01*
X225149500Y-117827525D01*
X224446565Y-117827525D01*
X224512984Y-117712485D01*
X224550500Y-117572475D01*
X224550500Y-117427525D01*
X224512984Y-117287515D01*
X224485795Y-117240423D01*
X224440511Y-117161988D01*
X224440506Y-117161982D01*
X224338017Y-117059493D01*
X224338011Y-117059488D01*
X224212488Y-116987017D01*
X224212489Y-116987017D01*
X224201006Y-116983940D01*
X224072475Y-116949500D01*
X223927525Y-116949500D01*
X223798993Y-116983940D01*
X223787511Y-116987017D01*
X223661988Y-117059488D01*
X223661982Y-117059493D01*
X223559493Y-117161982D01*
X223559488Y-117161988D01*
X223487017Y-117287511D01*
X223487016Y-117287515D01*
X223449500Y-117427525D01*
X205167699Y-117427525D01*
X205208187Y-117357398D01*
X205208187Y-117357397D01*
X205212747Y-117349500D01*
X205216392Y-117343186D01*
X205250500Y-117215892D01*
X205250500Y-117084108D01*
X205216392Y-116956814D01*
X205150500Y-116842686D01*
X205057314Y-116749500D01*
X205000250Y-116716554D01*
X204943187Y-116683608D01*
X204879539Y-116666554D01*
X204815892Y-116649500D01*
X204684108Y-116649500D01*
X204556812Y-116683608D01*
X204442686Y-116749500D01*
X204442683Y-116749502D01*
X204349502Y-116842683D01*
X204349500Y-116842686D01*
X204283608Y-116956812D01*
X204254871Y-117064064D01*
X204249500Y-117084108D01*
X198948708Y-117084108D01*
X199000500Y-117032316D01*
X199066392Y-116918188D01*
X199100500Y-116790894D01*
X199100500Y-116659110D01*
X199066392Y-116531816D01*
X199000500Y-116417688D01*
X198907314Y-116324502D01*
X198850250Y-116291556D01*
X198793187Y-116258610D01*
X198716331Y-116238017D01*
X198665892Y-116224502D01*
X198534108Y-116224502D01*
X198406814Y-116258610D01*
X198406813Y-116258610D01*
X198406811Y-116258611D01*
X198406810Y-116258611D01*
X198327183Y-116304584D01*
X198259282Y-116321057D01*
X198202999Y-116301576D01*
X198201852Y-116303564D01*
X198194815Y-116299501D01*
X198194814Y-116299500D01*
X198129935Y-116262042D01*
X198080687Y-116233608D01*
X197998218Y-116211511D01*
X197953392Y-116199500D01*
X197821608Y-116199500D01*
X197694314Y-116233608D01*
X197694313Y-116233608D01*
X197694311Y-116233609D01*
X197694310Y-116233609D01*
X197605750Y-116284740D01*
X197537850Y-116301213D01*
X197481750Y-116284740D01*
X197393189Y-116233609D01*
X197393186Y-116233608D01*
X197265892Y-116199500D01*
X197134108Y-116199500D01*
X197006812Y-116233608D01*
X196892686Y-116299500D01*
X196892683Y-116299502D01*
X196799502Y-116392683D01*
X196799500Y-116392686D01*
X196733608Y-116506812D01*
X196699500Y-116634108D01*
X174500500Y-116634108D01*
X174500500Y-115827525D01*
X205449500Y-115827525D01*
X205449500Y-115972475D01*
X205487016Y-116112485D01*
X205487017Y-116112488D01*
X205559488Y-116238011D01*
X205559490Y-116238013D01*
X205559491Y-116238015D01*
X205661985Y-116340509D01*
X205661986Y-116340510D01*
X205661988Y-116340511D01*
X205787511Y-116412982D01*
X205787512Y-116412982D01*
X205787515Y-116412984D01*
X205927525Y-116450500D01*
X205927528Y-116450500D01*
X206072472Y-116450500D01*
X206072475Y-116450500D01*
X206212485Y-116412984D01*
X206338015Y-116340509D01*
X206440509Y-116238015D01*
X206512984Y-116112485D01*
X206550500Y-115972475D01*
X206550500Y-115827525D01*
X206512984Y-115687515D01*
X206482933Y-115635466D01*
X206440511Y-115561988D01*
X206440506Y-115561982D01*
X206338017Y-115459493D01*
X206338011Y-115459488D01*
X206212488Y-115387017D01*
X206212489Y-115387017D01*
X206201006Y-115383940D01*
X206072475Y-115349500D01*
X205927525Y-115349500D01*
X205798993Y-115383940D01*
X205787511Y-115387017D01*
X205661988Y-115459488D01*
X205661982Y-115459493D01*
X205559493Y-115561982D01*
X205559488Y-115561988D01*
X205487017Y-115687511D01*
X205487016Y-115687515D01*
X205449500Y-115827525D01*
X174500500Y-115827525D01*
X174500500Y-113607135D01*
X180882000Y-113607135D01*
X180882000Y-115002870D01*
X180882001Y-115002876D01*
X180888408Y-115062483D01*
X180938702Y-115197328D01*
X180938706Y-115197335D01*
X181024952Y-115312544D01*
X181024955Y-115312547D01*
X181140164Y-115398793D01*
X181140171Y-115398797D01*
X181275017Y-115449091D01*
X181275016Y-115449091D01*
X181281944Y-115449835D01*
X181334627Y-115455500D01*
X184530372Y-115455499D01*
X184589983Y-115449091D01*
X184724831Y-115398796D01*
X184840046Y-115312546D01*
X184926296Y-115197331D01*
X184976591Y-115062483D01*
X184983000Y-115002873D01*
X184982999Y-114520943D01*
X208499500Y-114520943D01*
X208499500Y-114679057D01*
X208512488Y-114727527D01*
X208540423Y-114831783D01*
X208540426Y-114831790D01*
X208619475Y-114968709D01*
X208619481Y-114968717D01*
X208713083Y-115062319D01*
X208746568Y-115123642D01*
X208741584Y-115193334D01*
X208713083Y-115237681D01*
X208619481Y-115331282D01*
X208619475Y-115331290D01*
X208540426Y-115468209D01*
X208540424Y-115468214D01*
X208540423Y-115468216D01*
X208499500Y-115620943D01*
X208499500Y-115779057D01*
X208512488Y-115827527D01*
X208540423Y-115931783D01*
X208540426Y-115931790D01*
X208619475Y-116068709D01*
X208619479Y-116068714D01*
X208619480Y-116068716D01*
X208731284Y-116180520D01*
X208731286Y-116180521D01*
X208731290Y-116180524D01*
X208832310Y-116238847D01*
X208868216Y-116259577D01*
X209020943Y-116300500D01*
X209020945Y-116300500D01*
X209179055Y-116300500D01*
X209179057Y-116300500D01*
X209331784Y-116259577D01*
X209424654Y-116205959D01*
X209492555Y-116189486D01*
X209558581Y-116212339D01*
X209601772Y-116267260D01*
X209608413Y-116336814D01*
X209594042Y-116375345D01*
X209587017Y-116387512D01*
X209587016Y-116387514D01*
X209587016Y-116387515D01*
X209549500Y-116527525D01*
X209549500Y-116672475D01*
X209581231Y-116790894D01*
X209587017Y-116812488D01*
X209659488Y-116938011D01*
X209659490Y-116938013D01*
X209659491Y-116938015D01*
X209761985Y-117040509D01*
X209761986Y-117040510D01*
X209761988Y-117040511D01*
X209887511Y-117112982D01*
X209887512Y-117112982D01*
X209887515Y-117112984D01*
X210027525Y-117150500D01*
X210027528Y-117150500D01*
X210172472Y-117150500D01*
X210172475Y-117150500D01*
X210312485Y-117112984D01*
X210438015Y-117040509D01*
X210540509Y-116938015D01*
X210612984Y-116812485D01*
X210650500Y-116672475D01*
X210650500Y-116527525D01*
X210612984Y-116387515D01*
X210599285Y-116363789D01*
X210582812Y-116295890D01*
X210605663Y-116229863D01*
X210644672Y-116194400D01*
X210668716Y-116180520D01*
X210780520Y-116068716D01*
X210828085Y-115986331D01*
X210842613Y-115961168D01*
X210893179Y-115912952D01*
X210961786Y-115899728D01*
X211026651Y-115925696D01*
X211057387Y-115961168D01*
X211119475Y-116068709D01*
X211119479Y-116068714D01*
X211119480Y-116068716D01*
X211231284Y-116180520D01*
X211231286Y-116180521D01*
X211231290Y-116180524D01*
X211332310Y-116238847D01*
X211368216Y-116259577D01*
X211520943Y-116300500D01*
X211520945Y-116300500D01*
X211679054Y-116300500D01*
X211679057Y-116300500D01*
X211828790Y-116260379D01*
X211898638Y-116262042D01*
X211956501Y-116301204D01*
X211984005Y-116365433D01*
X211980657Y-116412246D01*
X211949500Y-116528525D01*
X211949500Y-116673475D01*
X211980963Y-116790894D01*
X211987017Y-116813488D01*
X212059488Y-116939011D01*
X212059490Y-116939013D01*
X212059491Y-116939015D01*
X212161985Y-117041509D01*
X212161986Y-117041510D01*
X212161988Y-117041511D01*
X212287511Y-117113982D01*
X212287512Y-117113982D01*
X212287515Y-117113984D01*
X212427525Y-117151500D01*
X212427528Y-117151500D01*
X212572472Y-117151500D01*
X212572475Y-117151500D01*
X212712485Y-117113984D01*
X212838015Y-117041509D01*
X212940509Y-116939015D01*
X213012984Y-116813485D01*
X213050500Y-116673475D01*
X213050500Y-116528525D01*
X213012984Y-116388515D01*
X213012982Y-116388513D01*
X213010880Y-116380665D01*
X213013649Y-116379922D01*
X213007654Y-116324236D01*
X213038920Y-116261752D01*
X213067683Y-116238850D01*
X213168716Y-116180520D01*
X213280520Y-116068716D01*
X213359577Y-115931784D01*
X213380225Y-115854721D01*
X213416590Y-115795062D01*
X213479437Y-115764533D01*
X213548812Y-115772828D01*
X213602690Y-115817313D01*
X213619775Y-115854723D01*
X213640423Y-115931783D01*
X213640426Y-115931790D01*
X213719475Y-116068709D01*
X213719479Y-116068714D01*
X213719480Y-116068716D01*
X213831284Y-116180520D01*
X213831286Y-116180521D01*
X213831290Y-116180524D01*
X213932310Y-116238847D01*
X213968216Y-116259577D01*
X214120943Y-116300500D01*
X214120945Y-116300500D01*
X214279055Y-116300500D01*
X214279057Y-116300500D01*
X214431784Y-116259577D01*
X214568716Y-116180520D01*
X214680520Y-116068716D01*
X214692612Y-116047772D01*
X214743178Y-115999555D01*
X214811785Y-115986331D01*
X214876650Y-116012298D01*
X214907388Y-116047772D01*
X214919477Y-116068712D01*
X214919479Y-116068715D01*
X214919480Y-116068716D01*
X215031284Y-116180520D01*
X215031286Y-116180521D01*
X215031290Y-116180524D01*
X215132310Y-116238847D01*
X215168216Y-116259577D01*
X215320943Y-116300500D01*
X215320945Y-116300500D01*
X215479055Y-116300500D01*
X215479057Y-116300500D01*
X215631784Y-116259577D01*
X215768716Y-116180520D01*
X215880520Y-116068716D01*
X215959577Y-115931784D01*
X215980225Y-115854721D01*
X216016590Y-115795062D01*
X216079437Y-115764533D01*
X216148812Y-115772828D01*
X216202690Y-115817313D01*
X216219775Y-115854723D01*
X216240423Y-115931783D01*
X216240426Y-115931790D01*
X216319475Y-116068709D01*
X216319479Y-116068714D01*
X216319480Y-116068716D01*
X216431284Y-116180520D01*
X216431286Y-116180521D01*
X216431290Y-116180524D01*
X216532310Y-116238847D01*
X216568216Y-116259577D01*
X216720943Y-116300500D01*
X216720945Y-116300500D01*
X216879055Y-116300500D01*
X216879057Y-116300500D01*
X217031784Y-116259577D01*
X217168716Y-116180520D01*
X217280520Y-116068716D01*
X217292612Y-116047772D01*
X217343178Y-115999555D01*
X217411785Y-115986331D01*
X217476650Y-116012298D01*
X217493114Y-116027881D01*
X217501236Y-116037116D01*
X217519480Y-116068716D01*
X217598660Y-116147896D01*
X217601287Y-116150883D01*
X217614424Y-116179100D01*
X217629339Y-116206415D01*
X217629046Y-116210505D01*
X217630778Y-116214224D01*
X217626576Y-116245054D01*
X217624355Y-116276106D01*
X217621524Y-116282112D01*
X217621342Y-116283454D01*
X217620339Y-116284628D01*
X217615560Y-116294772D01*
X217562017Y-116387511D01*
X217562016Y-116387515D01*
X217524500Y-116527525D01*
X217524500Y-116672475D01*
X217556231Y-116790894D01*
X217562017Y-116812488D01*
X217634488Y-116938011D01*
X217634490Y-116938013D01*
X217634491Y-116938015D01*
X217736985Y-117040509D01*
X217736986Y-117040510D01*
X217736988Y-117040511D01*
X217862511Y-117112982D01*
X217862512Y-117112982D01*
X217862515Y-117112984D01*
X218002525Y-117150500D01*
X218002528Y-117150500D01*
X218147472Y-117150500D01*
X218147475Y-117150500D01*
X218287485Y-117112984D01*
X218413015Y-117040509D01*
X218515509Y-116938015D01*
X218587984Y-116812485D01*
X218625500Y-116672475D01*
X218625500Y-116527525D01*
X218587984Y-116387515D01*
X218574286Y-116363790D01*
X218515511Y-116261988D01*
X218515506Y-116261982D01*
X218488693Y-116235169D01*
X218455208Y-116173846D01*
X218460192Y-116104154D01*
X218478002Y-116071996D01*
X218480512Y-116068723D01*
X218480520Y-116068716D01*
X218559577Y-115931784D01*
X218600500Y-115779057D01*
X218600500Y-115620943D01*
X218586289Y-115567905D01*
X219389880Y-115567905D01*
X219389880Y-115712855D01*
X219407619Y-115779056D01*
X219427397Y-115852868D01*
X219499868Y-115978391D01*
X219499870Y-115978393D01*
X219499871Y-115978395D01*
X219602365Y-116080889D01*
X219602366Y-116080890D01*
X219602368Y-116080891D01*
X219727891Y-116153362D01*
X219727892Y-116153362D01*
X219727895Y-116153364D01*
X219867905Y-116190880D01*
X219867908Y-116190880D01*
X220012852Y-116190880D01*
X220012855Y-116190880D01*
X220152865Y-116153364D01*
X220278395Y-116080889D01*
X220380889Y-115978395D01*
X220453364Y-115852865D01*
X220490880Y-115712855D01*
X220490880Y-115567905D01*
X220453364Y-115427895D01*
X220436564Y-115398797D01*
X220380891Y-115302368D01*
X220380886Y-115302362D01*
X220278397Y-115199873D01*
X220278391Y-115199868D01*
X220152868Y-115127397D01*
X220152869Y-115127397D01*
X220138855Y-115123642D01*
X220012855Y-115089880D01*
X219867905Y-115089880D01*
X219741905Y-115123642D01*
X219727891Y-115127397D01*
X219602368Y-115199868D01*
X219602362Y-115199873D01*
X219499873Y-115302362D01*
X219499868Y-115302368D01*
X219427397Y-115427891D01*
X219427396Y-115427895D01*
X219389880Y-115567905D01*
X218586289Y-115567905D01*
X218559577Y-115468216D01*
X218554538Y-115459488D01*
X218480524Y-115331290D01*
X218480518Y-115331282D01*
X218386917Y-115237681D01*
X218353432Y-115176358D01*
X218358416Y-115106666D01*
X218386917Y-115062319D01*
X218480520Y-114968716D01*
X218559577Y-114831784D01*
X218587513Y-114727525D01*
X237249500Y-114727525D01*
X237249500Y-114872475D01*
X237284441Y-115002876D01*
X237287017Y-115012488D01*
X237359488Y-115138011D01*
X237359490Y-115138013D01*
X237359491Y-115138015D01*
X237461985Y-115240509D01*
X237461986Y-115240510D01*
X237461988Y-115240511D01*
X237587511Y-115312982D01*
X237587512Y-115312982D01*
X237587515Y-115312984D01*
X237727525Y-115350500D01*
X237727528Y-115350500D01*
X237872472Y-115350500D01*
X237872475Y-115350500D01*
X238012485Y-115312984D01*
X238138015Y-115240509D01*
X238240509Y-115138015D01*
X238312984Y-115012485D01*
X238350500Y-114872475D01*
X238350500Y-114727525D01*
X238312984Y-114587515D01*
X238285843Y-114540506D01*
X238240511Y-114461988D01*
X238240506Y-114461982D01*
X238138017Y-114359493D01*
X238138011Y-114359488D01*
X238012488Y-114287017D01*
X238012489Y-114287017D01*
X238001006Y-114283940D01*
X237872475Y-114249500D01*
X237727525Y-114249500D01*
X237598993Y-114283940D01*
X237587511Y-114287017D01*
X237461988Y-114359488D01*
X237461982Y-114359493D01*
X237359493Y-114461982D01*
X237359488Y-114461988D01*
X237287017Y-114587511D01*
X237287016Y-114587515D01*
X237249500Y-114727525D01*
X218587513Y-114727525D01*
X218600500Y-114679057D01*
X218600500Y-114520943D01*
X218559577Y-114368216D01*
X218520450Y-114300445D01*
X218480524Y-114231290D01*
X218480518Y-114231282D01*
X218368715Y-114119479D01*
X218368711Y-114119476D01*
X218231790Y-114040426D01*
X218231786Y-114040424D01*
X218231784Y-114040423D01*
X218183648Y-114027525D01*
X220849500Y-114027525D01*
X220849500Y-114172475D01*
X220880192Y-114287016D01*
X220887017Y-114312488D01*
X220959488Y-114438011D01*
X220959490Y-114438013D01*
X220959491Y-114438015D01*
X221061985Y-114540509D01*
X221061986Y-114540510D01*
X221061988Y-114540511D01*
X221187511Y-114612982D01*
X221187512Y-114612982D01*
X221187515Y-114612984D01*
X221327525Y-114650500D01*
X221327528Y-114650500D01*
X221472472Y-114650500D01*
X221472475Y-114650500D01*
X221612485Y-114612984D01*
X221614170Y-114612011D01*
X221614171Y-114612011D01*
X221656605Y-114587511D01*
X221738015Y-114540509D01*
X221840509Y-114438015D01*
X221912984Y-114312485D01*
X221950500Y-114172475D01*
X221950500Y-114027525D01*
X221912984Y-113887515D01*
X221840509Y-113761985D01*
X221738015Y-113659491D01*
X221738013Y-113659490D01*
X221738011Y-113659488D01*
X221612488Y-113587017D01*
X221612489Y-113587017D01*
X221601006Y-113583940D01*
X221472475Y-113549500D01*
X221327525Y-113549500D01*
X221198993Y-113583940D01*
X221187511Y-113587017D01*
X221061988Y-113659488D01*
X221061982Y-113659493D01*
X220959493Y-113761982D01*
X220959488Y-113761988D01*
X220887017Y-113887511D01*
X220887016Y-113887515D01*
X220849500Y-114027525D01*
X218183648Y-114027525D01*
X218079057Y-113999500D01*
X217920943Y-113999500D01*
X217768216Y-114040423D01*
X217768209Y-114040426D01*
X217631290Y-114119475D01*
X217631282Y-114119481D01*
X217519481Y-114231282D01*
X217519477Y-114231287D01*
X217507387Y-114252229D01*
X217456820Y-114300445D01*
X217388213Y-114313668D01*
X217323348Y-114287700D01*
X217292613Y-114252229D01*
X217280522Y-114231287D01*
X217280518Y-114231282D01*
X217168717Y-114119481D01*
X217168709Y-114119475D01*
X217031790Y-114040426D01*
X217031786Y-114040424D01*
X217031784Y-114040423D01*
X216879057Y-113999500D01*
X216720943Y-113999500D01*
X216568216Y-114040423D01*
X216568209Y-114040426D01*
X216431290Y-114119475D01*
X216431282Y-114119481D01*
X216319481Y-114231282D01*
X216319475Y-114231290D01*
X216240426Y-114368209D01*
X216240423Y-114368214D01*
X216238792Y-114374303D01*
X216221721Y-114438015D01*
X216219775Y-114445277D01*
X216183410Y-114504937D01*
X216120563Y-114535466D01*
X216051187Y-114527171D01*
X215997309Y-114482686D01*
X215980225Y-114445277D01*
X215978280Y-114438017D01*
X215959577Y-114368216D01*
X215920450Y-114300445D01*
X215880524Y-114231290D01*
X215880518Y-114231282D01*
X215768717Y-114119481D01*
X215768709Y-114119475D01*
X215631790Y-114040426D01*
X215631786Y-114040424D01*
X215631784Y-114040423D01*
X215479057Y-113999500D01*
X215320943Y-113999500D01*
X215168216Y-114040423D01*
X215168209Y-114040426D01*
X215031290Y-114119475D01*
X215031282Y-114119481D01*
X214919481Y-114231282D01*
X214919477Y-114231287D01*
X214907387Y-114252229D01*
X214856820Y-114300445D01*
X214788213Y-114313668D01*
X214723348Y-114287700D01*
X214692613Y-114252229D01*
X214680522Y-114231287D01*
X214680518Y-114231282D01*
X214568717Y-114119481D01*
X214568709Y-114119475D01*
X214431790Y-114040426D01*
X214431786Y-114040424D01*
X214431784Y-114040423D01*
X214279057Y-113999500D01*
X214120943Y-113999500D01*
X213968216Y-114040423D01*
X213968209Y-114040426D01*
X213831290Y-114119475D01*
X213831282Y-114119481D01*
X213719481Y-114231282D01*
X213719475Y-114231290D01*
X213640426Y-114368209D01*
X213640423Y-114368214D01*
X213638792Y-114374303D01*
X213621721Y-114438015D01*
X213619775Y-114445277D01*
X213583410Y-114504937D01*
X213520563Y-114535466D01*
X213451187Y-114527171D01*
X213397309Y-114482686D01*
X213380225Y-114445277D01*
X213378280Y-114438017D01*
X213359577Y-114368216D01*
X213320450Y-114300445D01*
X213280524Y-114231290D01*
X213280518Y-114231282D01*
X213168717Y-114119481D01*
X213168709Y-114119475D01*
X213031790Y-114040426D01*
X213031786Y-114040424D01*
X213031784Y-114040423D01*
X212879057Y-113999500D01*
X212720943Y-113999500D01*
X212568216Y-114040423D01*
X212568209Y-114040426D01*
X212431290Y-114119475D01*
X212431282Y-114119481D01*
X212319481Y-114231282D01*
X212319477Y-114231287D01*
X212307387Y-114252229D01*
X212256820Y-114300445D01*
X212188213Y-114313668D01*
X212123348Y-114287700D01*
X212092613Y-114252229D01*
X212080522Y-114231287D01*
X212080518Y-114231282D01*
X211968717Y-114119481D01*
X211968709Y-114119475D01*
X211831790Y-114040426D01*
X211831786Y-114040424D01*
X211831784Y-114040423D01*
X211679057Y-113999500D01*
X211520943Y-113999500D01*
X211368216Y-114040423D01*
X211368209Y-114040426D01*
X211231290Y-114119475D01*
X211231282Y-114119481D01*
X211119481Y-114231282D01*
X211119477Y-114231287D01*
X211057387Y-114338832D01*
X211006820Y-114387047D01*
X210938213Y-114400271D01*
X210873348Y-114374303D01*
X210842613Y-114338832D01*
X210780522Y-114231287D01*
X210780518Y-114231282D01*
X210668717Y-114119481D01*
X210668709Y-114119475D01*
X210531790Y-114040426D01*
X210531786Y-114040424D01*
X210531784Y-114040423D01*
X210379057Y-113999500D01*
X210220943Y-113999500D01*
X210068216Y-114040423D01*
X210068209Y-114040426D01*
X209931290Y-114119475D01*
X209931282Y-114119481D01*
X209819481Y-114231282D01*
X209819477Y-114231287D01*
X209807387Y-114252229D01*
X209756820Y-114300445D01*
X209688213Y-114313668D01*
X209623348Y-114287700D01*
X209592613Y-114252229D01*
X209580522Y-114231287D01*
X209580518Y-114231282D01*
X209468717Y-114119481D01*
X209468709Y-114119475D01*
X209331790Y-114040426D01*
X209331786Y-114040424D01*
X209331784Y-114040423D01*
X209179057Y-113999500D01*
X209020943Y-113999500D01*
X208868216Y-114040423D01*
X208868209Y-114040426D01*
X208731290Y-114119475D01*
X208731282Y-114119481D01*
X208619481Y-114231282D01*
X208619475Y-114231290D01*
X208540426Y-114368209D01*
X208540424Y-114368214D01*
X208540423Y-114368216D01*
X208499500Y-114520943D01*
X184982999Y-114520943D01*
X184982999Y-114300445D01*
X184982999Y-113607129D01*
X184982998Y-113607123D01*
X184982997Y-113607116D01*
X184976591Y-113547517D01*
X184926296Y-113412669D01*
X184926295Y-113412668D01*
X184926293Y-113412664D01*
X184840047Y-113297455D01*
X184840044Y-113297452D01*
X184724835Y-113211206D01*
X184724828Y-113211202D01*
X184589982Y-113160908D01*
X184589983Y-113160908D01*
X184530383Y-113154501D01*
X184530381Y-113154500D01*
X184530373Y-113154500D01*
X184530364Y-113154500D01*
X181334629Y-113154500D01*
X181334623Y-113154501D01*
X181275016Y-113160908D01*
X181140171Y-113211202D01*
X181140164Y-113211206D01*
X181024955Y-113297452D01*
X181024952Y-113297455D01*
X180938706Y-113412664D01*
X180938702Y-113412671D01*
X180888408Y-113547517D01*
X180884162Y-113587016D01*
X180882001Y-113607123D01*
X180882000Y-113607135D01*
X174500500Y-113607135D01*
X174500500Y-112074071D01*
X234549499Y-112074071D01*
X234574497Y-112199738D01*
X234574499Y-112199744D01*
X234623533Y-112318124D01*
X234623538Y-112318133D01*
X234694723Y-112424668D01*
X234694726Y-112424672D01*
X234785327Y-112515273D01*
X234785331Y-112515276D01*
X234891866Y-112586461D01*
X234891872Y-112586464D01*
X234891873Y-112586465D01*
X235010256Y-112635501D01*
X235010260Y-112635501D01*
X235010261Y-112635502D01*
X235135928Y-112660500D01*
X235135931Y-112660500D01*
X235264071Y-112660500D01*
X235348615Y-112643682D01*
X235389744Y-112635501D01*
X235508127Y-112586465D01*
X235614669Y-112515276D01*
X235705276Y-112424669D01*
X235776465Y-112318127D01*
X235805053Y-112249108D01*
X235848893Y-112194705D01*
X235915187Y-112172640D01*
X235951701Y-112176785D01*
X236077525Y-112210500D01*
X236077528Y-112210500D01*
X236222472Y-112210500D01*
X236222475Y-112210500D01*
X236362485Y-112172984D01*
X236488015Y-112100509D01*
X236590509Y-111998015D01*
X236662984Y-111872485D01*
X236700500Y-111732475D01*
X236700500Y-111587525D01*
X236662984Y-111447515D01*
X236658940Y-111440511D01*
X236590511Y-111321988D01*
X236590506Y-111321982D01*
X236488017Y-111219493D01*
X236488011Y-111219488D01*
X236362488Y-111147017D01*
X236362489Y-111147017D01*
X236351006Y-111143940D01*
X236222475Y-111109500D01*
X236077525Y-111109500D01*
X235937515Y-111147016D01*
X235937513Y-111147016D01*
X235937513Y-111147017D01*
X235811981Y-111219493D01*
X235808382Y-111223093D01*
X235747055Y-111256571D01*
X235677364Y-111251579D01*
X235633029Y-111223083D01*
X235614672Y-111204726D01*
X235614668Y-111204723D01*
X235508133Y-111133538D01*
X235508124Y-111133533D01*
X235389744Y-111084499D01*
X235389738Y-111084497D01*
X235264071Y-111059500D01*
X235264069Y-111059500D01*
X235135931Y-111059500D01*
X235135929Y-111059500D01*
X235010261Y-111084497D01*
X235010255Y-111084499D01*
X234891875Y-111133533D01*
X234891866Y-111133538D01*
X234785331Y-111204723D01*
X234785327Y-111204726D01*
X234694726Y-111295327D01*
X234694723Y-111295331D01*
X234623538Y-111401866D01*
X234623533Y-111401875D01*
X234574499Y-111520255D01*
X234574497Y-111520261D01*
X234549500Y-111645928D01*
X234549500Y-111645931D01*
X234549500Y-112074069D01*
X234549500Y-112074071D01*
X234549499Y-112074071D01*
X174500500Y-112074071D01*
X174500500Y-110927525D01*
X186449500Y-110927525D01*
X186449500Y-111072475D01*
X186484937Y-111204726D01*
X186487017Y-111212488D01*
X186559488Y-111338011D01*
X186559490Y-111338013D01*
X186559491Y-111338015D01*
X186661985Y-111440509D01*
X186661986Y-111440510D01*
X186661988Y-111440511D01*
X186787511Y-111512982D01*
X186787512Y-111512982D01*
X186787515Y-111512984D01*
X186927525Y-111550500D01*
X186927528Y-111550500D01*
X187072472Y-111550500D01*
X187072475Y-111550500D01*
X187212485Y-111512984D01*
X187338015Y-111440509D01*
X187440509Y-111338015D01*
X187512984Y-111212485D01*
X187535749Y-111127525D01*
X194649500Y-111127525D01*
X194649500Y-111272475D01*
X194684173Y-111401875D01*
X194687017Y-111412488D01*
X194759488Y-111538011D01*
X194759490Y-111538013D01*
X194759491Y-111538015D01*
X194861985Y-111640509D01*
X194861986Y-111640510D01*
X194861988Y-111640511D01*
X194987511Y-111712982D01*
X194987512Y-111712982D01*
X194987515Y-111712984D01*
X195127525Y-111750500D01*
X195127528Y-111750500D01*
X195272472Y-111750500D01*
X195272475Y-111750500D01*
X195412485Y-111712984D01*
X195538015Y-111640509D01*
X195640509Y-111538015D01*
X195712984Y-111412485D01*
X195750500Y-111272475D01*
X195750500Y-111127525D01*
X207449500Y-111127525D01*
X207449500Y-111272475D01*
X207484173Y-111401875D01*
X207487017Y-111412488D01*
X207559488Y-111538011D01*
X207559490Y-111538013D01*
X207559491Y-111538015D01*
X207661985Y-111640509D01*
X207661986Y-111640510D01*
X207661988Y-111640511D01*
X207787511Y-111712982D01*
X207787512Y-111712982D01*
X207787515Y-111712984D01*
X207927525Y-111750500D01*
X207927528Y-111750500D01*
X208072472Y-111750500D01*
X208072475Y-111750500D01*
X208212485Y-111712984D01*
X208338015Y-111640509D01*
X208440509Y-111538015D01*
X208512984Y-111412485D01*
X208550500Y-111272475D01*
X208550500Y-111127525D01*
X208512984Y-110987515D01*
X208491613Y-110950500D01*
X208440511Y-110861988D01*
X208440506Y-110861982D01*
X208338017Y-110759493D01*
X208338011Y-110759488D01*
X208248009Y-110707525D01*
X226751011Y-110707525D01*
X226751011Y-110852475D01*
X226777277Y-110950500D01*
X226788528Y-110992488D01*
X226860999Y-111118011D01*
X226861001Y-111118013D01*
X226861002Y-111118015D01*
X226963496Y-111220509D01*
X226963497Y-111220510D01*
X226963499Y-111220511D01*
X227089022Y-111292982D01*
X227089023Y-111292982D01*
X227089026Y-111292984D01*
X227229036Y-111330500D01*
X227229039Y-111330500D01*
X227373983Y-111330500D01*
X227373986Y-111330500D01*
X227513996Y-111292984D01*
X227639526Y-111220509D01*
X227742020Y-111118015D01*
X227814495Y-110992485D01*
X227852011Y-110852475D01*
X227852011Y-110707525D01*
X227814495Y-110567515D01*
X227809863Y-110559493D01*
X227742022Y-110441988D01*
X227742017Y-110441982D01*
X227639528Y-110339493D01*
X227639522Y-110339488D01*
X227513999Y-110267017D01*
X227514000Y-110267017D01*
X227502517Y-110263940D01*
X227373986Y-110229500D01*
X227229036Y-110229500D01*
X227100504Y-110263940D01*
X227089022Y-110267017D01*
X226963499Y-110339488D01*
X226963493Y-110339493D01*
X226861004Y-110441982D01*
X226860999Y-110441988D01*
X226788528Y-110567511D01*
X226788527Y-110567515D01*
X226751011Y-110707525D01*
X208248009Y-110707525D01*
X208212488Y-110687017D01*
X208212489Y-110687017D01*
X208197303Y-110682948D01*
X208072475Y-110649500D01*
X207927525Y-110649500D01*
X207802697Y-110682948D01*
X207787511Y-110687017D01*
X207661988Y-110759488D01*
X207661982Y-110759493D01*
X207559493Y-110861982D01*
X207559488Y-110861988D01*
X207487017Y-110987511D01*
X207487016Y-110987515D01*
X207449500Y-111127525D01*
X195750500Y-111127525D01*
X195712984Y-110987515D01*
X195691613Y-110950500D01*
X195640511Y-110861988D01*
X195640506Y-110861982D01*
X195538017Y-110759493D01*
X195538011Y-110759488D01*
X195412488Y-110687017D01*
X195412489Y-110687017D01*
X195397303Y-110682948D01*
X195272475Y-110649500D01*
X195127525Y-110649500D01*
X195002697Y-110682948D01*
X194987511Y-110687017D01*
X194861988Y-110759488D01*
X194861982Y-110759493D01*
X194759493Y-110861982D01*
X194759488Y-110861988D01*
X194687017Y-110987511D01*
X194687016Y-110987515D01*
X194649500Y-111127525D01*
X187535749Y-111127525D01*
X187550500Y-111072475D01*
X187550500Y-110927525D01*
X187512984Y-110787515D01*
X187500033Y-110765084D01*
X187440511Y-110661988D01*
X187440506Y-110661982D01*
X187338017Y-110559493D01*
X187338011Y-110559488D01*
X187212488Y-110487017D01*
X187212489Y-110487017D01*
X187201006Y-110483940D01*
X187072475Y-110449500D01*
X186927525Y-110449500D01*
X186798993Y-110483940D01*
X186787511Y-110487017D01*
X186661988Y-110559488D01*
X186661982Y-110559493D01*
X186559493Y-110661982D01*
X186559488Y-110661988D01*
X186487017Y-110787511D01*
X186487016Y-110787515D01*
X186449500Y-110927525D01*
X174500500Y-110927525D01*
X174500500Y-110327525D01*
X196049500Y-110327525D01*
X196049500Y-110472475D01*
X196077887Y-110578415D01*
X196087017Y-110612488D01*
X196159488Y-110738011D01*
X196159490Y-110738013D01*
X196159491Y-110738015D01*
X196261985Y-110840509D01*
X196261986Y-110840510D01*
X196261988Y-110840511D01*
X196387511Y-110912982D01*
X196387512Y-110912982D01*
X196387515Y-110912984D01*
X196527525Y-110950500D01*
X196527528Y-110950500D01*
X196672472Y-110950500D01*
X196672475Y-110950500D01*
X196812485Y-110912984D01*
X196938015Y-110840509D01*
X197040509Y-110738015D01*
X197112984Y-110612485D01*
X197150500Y-110472475D01*
X197150500Y-110472471D01*
X197151561Y-110464415D01*
X197153390Y-110464655D01*
X197170185Y-110407461D01*
X197222989Y-110361706D01*
X197264560Y-110352662D01*
X197264415Y-110351561D01*
X197272471Y-110350500D01*
X197272475Y-110350500D01*
X197412485Y-110312984D01*
X197538002Y-110240516D01*
X197605899Y-110224044D01*
X197661996Y-110240515D01*
X197787515Y-110312984D01*
X197927525Y-110350500D01*
X197927528Y-110350500D01*
X198072472Y-110350500D01*
X198072475Y-110350500D01*
X198212485Y-110312984D01*
X198338015Y-110240509D01*
X198440509Y-110138015D01*
X198512984Y-110012485D01*
X198550500Y-109872475D01*
X198550500Y-109727525D01*
X198512984Y-109587515D01*
X198512982Y-109587511D01*
X198509454Y-109581400D01*
X198509453Y-109581399D01*
X198491036Y-109549500D01*
X198478349Y-109527525D01*
X217849500Y-109527525D01*
X217849500Y-109672475D01*
X217887016Y-109812485D01*
X217887017Y-109812488D01*
X217959488Y-109938011D01*
X217959490Y-109938013D01*
X217959491Y-109938015D01*
X218061985Y-110040509D01*
X218061986Y-110040510D01*
X218061988Y-110040511D01*
X218187511Y-110112982D01*
X218187512Y-110112982D01*
X218187515Y-110112984D01*
X218327525Y-110150500D01*
X218327528Y-110150500D01*
X218472472Y-110150500D01*
X218472475Y-110150500D01*
X218612485Y-110112984D01*
X218738015Y-110040509D01*
X218750999Y-110027525D01*
X224949500Y-110027525D01*
X224949500Y-110172475D01*
X224974833Y-110267017D01*
X224987017Y-110312488D01*
X225059488Y-110438011D01*
X225059490Y-110438013D01*
X225059491Y-110438015D01*
X225161985Y-110540509D01*
X225161986Y-110540510D01*
X225161988Y-110540511D01*
X225287511Y-110612982D01*
X225287512Y-110612982D01*
X225287515Y-110612984D01*
X225427525Y-110650500D01*
X225427528Y-110650500D01*
X225572472Y-110650500D01*
X225572475Y-110650500D01*
X225712485Y-110612984D01*
X225838015Y-110540509D01*
X225940509Y-110438015D01*
X226012984Y-110312485D01*
X226050500Y-110172475D01*
X226050500Y-110027525D01*
X226012984Y-109887515D01*
X226012696Y-109887017D01*
X225940511Y-109761988D01*
X225940506Y-109761982D01*
X225838017Y-109659493D01*
X225838011Y-109659488D01*
X225712488Y-109587017D01*
X225712489Y-109587017D01*
X225691522Y-109581399D01*
X225572475Y-109549500D01*
X225427525Y-109549500D01*
X225308478Y-109581399D01*
X225287511Y-109587017D01*
X225161988Y-109659488D01*
X225161982Y-109659493D01*
X225059493Y-109761982D01*
X225059488Y-109761988D01*
X224987017Y-109887511D01*
X224987016Y-109887515D01*
X224949500Y-110027525D01*
X218750999Y-110027525D01*
X218840509Y-109938015D01*
X218912984Y-109812485D01*
X218950500Y-109672475D01*
X218950500Y-109527525D01*
X218912984Y-109387515D01*
X218896805Y-109359493D01*
X218840511Y-109261988D01*
X218840506Y-109261982D01*
X218738017Y-109159493D01*
X218738011Y-109159488D01*
X218612488Y-109087017D01*
X218612489Y-109087017D01*
X218601006Y-109083940D01*
X218472475Y-109049500D01*
X218327525Y-109049500D01*
X218198993Y-109083940D01*
X218187511Y-109087017D01*
X218061988Y-109159488D01*
X218061982Y-109159493D01*
X217959493Y-109261982D01*
X217959488Y-109261988D01*
X217887017Y-109387511D01*
X217887016Y-109387515D01*
X217849500Y-109527525D01*
X198478349Y-109527525D01*
X198440509Y-109461985D01*
X198338015Y-109359491D01*
X198338013Y-109359490D01*
X198338011Y-109359488D01*
X198212488Y-109287017D01*
X198212489Y-109287017D01*
X198201006Y-109283940D01*
X198072475Y-109249500D01*
X197927525Y-109249500D01*
X197798993Y-109283940D01*
X197787511Y-109287017D01*
X197662000Y-109359482D01*
X197594100Y-109375955D01*
X197538000Y-109359482D01*
X197412488Y-109287017D01*
X197412489Y-109287017D01*
X197401006Y-109283940D01*
X197272475Y-109249500D01*
X197127525Y-109249500D01*
X196998993Y-109283940D01*
X196987511Y-109287017D01*
X196861988Y-109359488D01*
X196861982Y-109359493D01*
X196759493Y-109461982D01*
X196759488Y-109461988D01*
X196687017Y-109587511D01*
X196649499Y-109727528D01*
X196648439Y-109735585D01*
X196646609Y-109735344D01*
X196629815Y-109792539D01*
X196577011Y-109838294D01*
X196535439Y-109847337D01*
X196535585Y-109848439D01*
X196527528Y-109849499D01*
X196387511Y-109887017D01*
X196261988Y-109959488D01*
X196261982Y-109959493D01*
X196159493Y-110061982D01*
X196159488Y-110061988D01*
X196087017Y-110187511D01*
X196087016Y-110187515D01*
X196049500Y-110327525D01*
X174500500Y-110327525D01*
X174500500Y-108673920D01*
X231649499Y-108673920D01*
X231678340Y-108818907D01*
X231678343Y-108818917D01*
X231734912Y-108955488D01*
X231734919Y-108955501D01*
X231817048Y-109078415D01*
X231817051Y-109078419D01*
X231921580Y-109182948D01*
X231921584Y-109182951D01*
X232044498Y-109265080D01*
X232044511Y-109265087D01*
X232181082Y-109321656D01*
X232181087Y-109321658D01*
X232181091Y-109321658D01*
X232181092Y-109321659D01*
X232326079Y-109350500D01*
X232326082Y-109350500D01*
X232473920Y-109350500D01*
X232571462Y-109331096D01*
X232618913Y-109321658D01*
X232755495Y-109265084D01*
X232878416Y-109182951D01*
X232982951Y-109078416D01*
X233065084Y-108955495D01*
X233121658Y-108818913D01*
X233136459Y-108744505D01*
X233150500Y-108673920D01*
X233150500Y-108589144D01*
X236550711Y-108589144D01*
X236550711Y-108734094D01*
X236573440Y-108818917D01*
X236588228Y-108874107D01*
X236660699Y-108999630D01*
X236660701Y-108999632D01*
X236660702Y-108999634D01*
X236763196Y-109102128D01*
X236763197Y-109102129D01*
X236763199Y-109102130D01*
X236888722Y-109174601D01*
X236888723Y-109174601D01*
X236888726Y-109174603D01*
X237028736Y-109212119D01*
X237028739Y-109212119D01*
X237125500Y-109212119D01*
X237192539Y-109231804D01*
X237238294Y-109284608D01*
X237249500Y-109336119D01*
X237249500Y-110173918D01*
X237249500Y-110173920D01*
X237249499Y-110173920D01*
X237278340Y-110318907D01*
X237278343Y-110318917D01*
X237334912Y-110455488D01*
X237334919Y-110455501D01*
X237417048Y-110578415D01*
X237417051Y-110578419D01*
X237521580Y-110682948D01*
X237521584Y-110682951D01*
X237644498Y-110765080D01*
X237644511Y-110765087D01*
X237698658Y-110787515D01*
X237781087Y-110821658D01*
X237781091Y-110821658D01*
X237781092Y-110821659D01*
X237926079Y-110850500D01*
X237926082Y-110850500D01*
X238073920Y-110850500D01*
X238171462Y-110831096D01*
X238218913Y-110821658D01*
X238355495Y-110765084D01*
X238478416Y-110682951D01*
X238582951Y-110578416D01*
X238665084Y-110455495D01*
X238721658Y-110318913D01*
X238740529Y-110224044D01*
X238750500Y-110173920D01*
X238750500Y-109026079D01*
X238721659Y-108881092D01*
X238721658Y-108881091D01*
X238721658Y-108881087D01*
X238718766Y-108874104D01*
X238665087Y-108744511D01*
X238665080Y-108744498D01*
X238582951Y-108621584D01*
X238582948Y-108621580D01*
X238478419Y-108517051D01*
X238478415Y-108517048D01*
X238355501Y-108434919D01*
X238355488Y-108434912D01*
X238218917Y-108378343D01*
X238218907Y-108378340D01*
X238073920Y-108349500D01*
X238073918Y-108349500D01*
X237926082Y-108349500D01*
X237926080Y-108349500D01*
X237781092Y-108378340D01*
X237781082Y-108378343D01*
X237713886Y-108406177D01*
X237644417Y-108413646D01*
X237581938Y-108382371D01*
X237559049Y-108353619D01*
X237541720Y-108323604D01*
X237439226Y-108221110D01*
X237439224Y-108221109D01*
X237439222Y-108221107D01*
X237313699Y-108148636D01*
X237313700Y-108148636D01*
X237302217Y-108145559D01*
X237173686Y-108111119D01*
X237028736Y-108111119D01*
X236900204Y-108145559D01*
X236888722Y-108148636D01*
X236763199Y-108221107D01*
X236763193Y-108221112D01*
X236660704Y-108323601D01*
X236660699Y-108323607D01*
X236588228Y-108449130D01*
X236588227Y-108449134D01*
X236550711Y-108589144D01*
X233150500Y-108589144D01*
X233150500Y-107124437D01*
X233170185Y-107057398D01*
X233222989Y-107011643D01*
X233258319Y-107001497D01*
X233265881Y-107000501D01*
X233265893Y-107000501D01*
X233393187Y-106966393D01*
X233507315Y-106900501D01*
X233600501Y-106807315D01*
X233666393Y-106693187D01*
X233671556Y-106673920D01*
X237249499Y-106673920D01*
X237278340Y-106818907D01*
X237278343Y-106818917D01*
X237334912Y-106955488D01*
X237334919Y-106955501D01*
X237417048Y-107078415D01*
X237417051Y-107078419D01*
X237521580Y-107182948D01*
X237521584Y-107182951D01*
X237644498Y-107265080D01*
X237644511Y-107265087D01*
X237760141Y-107312982D01*
X237781087Y-107321658D01*
X237781091Y-107321658D01*
X237781092Y-107321659D01*
X237926079Y-107350500D01*
X237926082Y-107350500D01*
X238073920Y-107350500D01*
X238171462Y-107331096D01*
X238218913Y-107321658D01*
X238355495Y-107265084D01*
X238478416Y-107182951D01*
X238582951Y-107078416D01*
X238665084Y-106955495D01*
X238721658Y-106818913D01*
X238736459Y-106744505D01*
X238750500Y-106673920D01*
X238750500Y-105526079D01*
X238721659Y-105381092D01*
X238721658Y-105381091D01*
X238721658Y-105381087D01*
X238692001Y-105309488D01*
X238665087Y-105244511D01*
X238665080Y-105244498D01*
X238582951Y-105121584D01*
X238582948Y-105121580D01*
X238478419Y-105017051D01*
X238478415Y-105017048D01*
X238355501Y-104934919D01*
X238355488Y-104934912D01*
X238218917Y-104878343D01*
X238218907Y-104878340D01*
X238073920Y-104849500D01*
X238073918Y-104849500D01*
X237926082Y-104849500D01*
X237926080Y-104849500D01*
X237781092Y-104878340D01*
X237781082Y-104878343D01*
X237644511Y-104934912D01*
X237644498Y-104934919D01*
X237521584Y-105017048D01*
X237521580Y-105017051D01*
X237417051Y-105121580D01*
X237417048Y-105121584D01*
X237334919Y-105244498D01*
X237334912Y-105244511D01*
X237278343Y-105381082D01*
X237278340Y-105381092D01*
X237249500Y-105526079D01*
X237249500Y-105526082D01*
X237249500Y-106673918D01*
X237249500Y-106673920D01*
X237249499Y-106673920D01*
X233671556Y-106673920D01*
X233700501Y-106565893D01*
X233700501Y-106434109D01*
X233666393Y-106306815D01*
X233600501Y-106192687D01*
X233507315Y-106099501D01*
X233450251Y-106066555D01*
X233393188Y-106033609D01*
X233329540Y-106016555D01*
X233265893Y-105999501D01*
X233134109Y-105999501D01*
X233006813Y-106033609D01*
X232892687Y-106099501D01*
X232892684Y-106099503D01*
X232799503Y-106192684D01*
X232799501Y-106192687D01*
X232729545Y-106313854D01*
X232726621Y-106312165D01*
X232692562Y-106354392D01*
X232626257Y-106376427D01*
X232597696Y-106374121D01*
X232473920Y-106349500D01*
X232473918Y-106349500D01*
X232326082Y-106349500D01*
X232326080Y-106349500D01*
X232181092Y-106378340D01*
X232181082Y-106378343D01*
X232044511Y-106434912D01*
X232044498Y-106434919D01*
X231921584Y-106517048D01*
X231921580Y-106517051D01*
X231817051Y-106621580D01*
X231817048Y-106621584D01*
X231734919Y-106744498D01*
X231734912Y-106744511D01*
X231678343Y-106881082D01*
X231678340Y-106881092D01*
X231649500Y-107026079D01*
X231649500Y-107026082D01*
X231649500Y-108673918D01*
X231649500Y-108673920D01*
X231649499Y-108673920D01*
X174500500Y-108673920D01*
X174500500Y-106727525D01*
X201049500Y-106727525D01*
X201049500Y-106872475D01*
X201087016Y-107012485D01*
X201087017Y-107012488D01*
X201159488Y-107138011D01*
X201159490Y-107138013D01*
X201159491Y-107138015D01*
X201261985Y-107240509D01*
X201261986Y-107240510D01*
X201261988Y-107240511D01*
X201387511Y-107312982D01*
X201387512Y-107312982D01*
X201387515Y-107312984D01*
X201527525Y-107350500D01*
X201527528Y-107350500D01*
X201672472Y-107350500D01*
X201672475Y-107350500D01*
X201812485Y-107312984D01*
X201938015Y-107240509D01*
X202040509Y-107138015D01*
X202112984Y-107012485D01*
X202150500Y-106872475D01*
X202150500Y-106727525D01*
X202112984Y-106587515D01*
X202100500Y-106565893D01*
X202040511Y-106461988D01*
X202040506Y-106461982D01*
X201938017Y-106359493D01*
X201938011Y-106359488D01*
X201812488Y-106287017D01*
X201812489Y-106287017D01*
X201801006Y-106283940D01*
X201672475Y-106249500D01*
X201527525Y-106249500D01*
X201398993Y-106283940D01*
X201387511Y-106287017D01*
X201261988Y-106359488D01*
X201261982Y-106359493D01*
X201159493Y-106461982D01*
X201159488Y-106461988D01*
X201087017Y-106587511D01*
X201087016Y-106587515D01*
X201049500Y-106727525D01*
X174500500Y-106727525D01*
X174500500Y-105677525D01*
X223849500Y-105677525D01*
X223849500Y-105822475D01*
X223887016Y-105962485D01*
X223887017Y-105962488D01*
X223959488Y-106088011D01*
X223959490Y-106088013D01*
X223959491Y-106088015D01*
X224061985Y-106190509D01*
X224061986Y-106190510D01*
X224061988Y-106190511D01*
X224187511Y-106262982D01*
X224187512Y-106262982D01*
X224187515Y-106262984D01*
X224327525Y-106300500D01*
X224327528Y-106300500D01*
X224472472Y-106300500D01*
X224472475Y-106300500D01*
X224612485Y-106262984D01*
X224738015Y-106190509D01*
X224840509Y-106088015D01*
X224912984Y-105962485D01*
X224950500Y-105822475D01*
X224950500Y-105677525D01*
X224912984Y-105537515D01*
X224906381Y-105526079D01*
X224840511Y-105411988D01*
X224840506Y-105411982D01*
X224738017Y-105309493D01*
X224738011Y-105309488D01*
X224612488Y-105237017D01*
X224612489Y-105237017D01*
X224601006Y-105233940D01*
X224472475Y-105199500D01*
X224327525Y-105199500D01*
X224198993Y-105233940D01*
X224187511Y-105237017D01*
X224061988Y-105309488D01*
X224061982Y-105309493D01*
X223959493Y-105411982D01*
X223959488Y-105411988D01*
X223887017Y-105537511D01*
X223887016Y-105537515D01*
X223849500Y-105677525D01*
X174500500Y-105677525D01*
X174500500Y-103967525D01*
X233699500Y-103967525D01*
X233699500Y-104112475D01*
X233717525Y-104179744D01*
X233737017Y-104252488D01*
X233809488Y-104378011D01*
X233809490Y-104378013D01*
X233809491Y-104378015D01*
X233911985Y-104480509D01*
X233911986Y-104480510D01*
X233911988Y-104480511D01*
X234037511Y-104552982D01*
X234037512Y-104552982D01*
X234037515Y-104552984D01*
X234177525Y-104590500D01*
X234177528Y-104590500D01*
X234322472Y-104590500D01*
X234322475Y-104590500D01*
X234462485Y-104552984D01*
X234588015Y-104480509D01*
X234591605Y-104476918D01*
X234652924Y-104443432D01*
X234722616Y-104448413D01*
X234766970Y-104476916D01*
X234785327Y-104495273D01*
X234785331Y-104495276D01*
X234891866Y-104566461D01*
X234891872Y-104566464D01*
X234891873Y-104566465D01*
X235010256Y-104615501D01*
X235010260Y-104615501D01*
X235010261Y-104615502D01*
X235135928Y-104640500D01*
X235135931Y-104640500D01*
X235264071Y-104640500D01*
X235348615Y-104623682D01*
X235389744Y-104615501D01*
X235508127Y-104566465D01*
X235614669Y-104495276D01*
X235705276Y-104404669D01*
X235776465Y-104298127D01*
X235825501Y-104179744D01*
X235850500Y-104054069D01*
X235850500Y-103625931D01*
X235850500Y-103625928D01*
X235825502Y-103500261D01*
X235825501Y-103500260D01*
X235825501Y-103500256D01*
X235776465Y-103381873D01*
X235776464Y-103381872D01*
X235776461Y-103381866D01*
X235705276Y-103275331D01*
X235705273Y-103275327D01*
X235614672Y-103184726D01*
X235614668Y-103184723D01*
X235508133Y-103113538D01*
X235508124Y-103113533D01*
X235389744Y-103064499D01*
X235389738Y-103064497D01*
X235264071Y-103039500D01*
X235264069Y-103039500D01*
X235135931Y-103039500D01*
X235135929Y-103039500D01*
X235010261Y-103064497D01*
X235010255Y-103064499D01*
X234891875Y-103113533D01*
X234891866Y-103113538D01*
X234785331Y-103184723D01*
X234785327Y-103184726D01*
X234694726Y-103275327D01*
X234694723Y-103275331D01*
X234623538Y-103381866D01*
X234623535Y-103381872D01*
X234594946Y-103450892D01*
X234551104Y-103505295D01*
X234484810Y-103527359D01*
X234448293Y-103523213D01*
X234322475Y-103489500D01*
X234177525Y-103489500D01*
X234051708Y-103523213D01*
X234037511Y-103527017D01*
X233911988Y-103599488D01*
X233911982Y-103599493D01*
X233809493Y-103701982D01*
X233809488Y-103701988D01*
X233737017Y-103827511D01*
X233737016Y-103827515D01*
X233699500Y-103967525D01*
X174500500Y-103967525D01*
X174500500Y-103227525D01*
X201049500Y-103227525D01*
X201049500Y-103372475D01*
X201087016Y-103512485D01*
X201087017Y-103512488D01*
X201159488Y-103638011D01*
X201159490Y-103638013D01*
X201159491Y-103638015D01*
X201261985Y-103740509D01*
X201261986Y-103740510D01*
X201261988Y-103740511D01*
X201387511Y-103812982D01*
X201387512Y-103812982D01*
X201387515Y-103812984D01*
X201527525Y-103850500D01*
X201527528Y-103850500D01*
X201672472Y-103850500D01*
X201672475Y-103850500D01*
X201812485Y-103812984D01*
X201938015Y-103740509D01*
X202040509Y-103638015D01*
X202112984Y-103512485D01*
X202150500Y-103372475D01*
X202150500Y-103227525D01*
X208649500Y-103227525D01*
X208649500Y-103372475D01*
X208687016Y-103512485D01*
X208687017Y-103512488D01*
X208759488Y-103638011D01*
X208759490Y-103638013D01*
X208759491Y-103638015D01*
X208861985Y-103740509D01*
X208861986Y-103740510D01*
X208861988Y-103740511D01*
X208987511Y-103812982D01*
X208987512Y-103812982D01*
X208987515Y-103812984D01*
X209127525Y-103850500D01*
X209127528Y-103850500D01*
X209272472Y-103850500D01*
X209272475Y-103850500D01*
X209412485Y-103812984D01*
X209538015Y-103740509D01*
X209640509Y-103638015D01*
X209712984Y-103512485D01*
X209750500Y-103372475D01*
X209750500Y-103227525D01*
X215249500Y-103227525D01*
X215249500Y-103372475D01*
X215287016Y-103512485D01*
X215287017Y-103512488D01*
X215359488Y-103638011D01*
X215359490Y-103638013D01*
X215359491Y-103638015D01*
X215461985Y-103740509D01*
X215461986Y-103740510D01*
X215461988Y-103740511D01*
X215587511Y-103812982D01*
X215587512Y-103812982D01*
X215587515Y-103812984D01*
X215727525Y-103850500D01*
X215727528Y-103850500D01*
X215872472Y-103850500D01*
X215872475Y-103850500D01*
X216012485Y-103812984D01*
X216138015Y-103740509D01*
X216240509Y-103638015D01*
X216312984Y-103512485D01*
X216350500Y-103372475D01*
X216350500Y-103227525D01*
X221249500Y-103227525D01*
X221249500Y-103372475D01*
X221287016Y-103512485D01*
X221287017Y-103512488D01*
X221359488Y-103638011D01*
X221359490Y-103638013D01*
X221359491Y-103638015D01*
X221461985Y-103740509D01*
X221461986Y-103740510D01*
X221461988Y-103740511D01*
X221587511Y-103812982D01*
X221587512Y-103812982D01*
X221587515Y-103812984D01*
X221727525Y-103850500D01*
X221727528Y-103850500D01*
X221872472Y-103850500D01*
X221872475Y-103850500D01*
X222012485Y-103812984D01*
X222138015Y-103740509D01*
X222240509Y-103638015D01*
X222312984Y-103512485D01*
X222350500Y-103372475D01*
X222350500Y-103227525D01*
X228349500Y-103227525D01*
X228349500Y-103372475D01*
X228387016Y-103512485D01*
X228387017Y-103512488D01*
X228459488Y-103638011D01*
X228459490Y-103638013D01*
X228459491Y-103638015D01*
X228561985Y-103740509D01*
X228561986Y-103740510D01*
X228561988Y-103740511D01*
X228687511Y-103812982D01*
X228687512Y-103812982D01*
X228687515Y-103812984D01*
X228827525Y-103850500D01*
X228827528Y-103850500D01*
X228972472Y-103850500D01*
X228972475Y-103850500D01*
X229112485Y-103812984D01*
X229238015Y-103740509D01*
X229340509Y-103638015D01*
X229412984Y-103512485D01*
X229450500Y-103372475D01*
X229450500Y-103227525D01*
X229412984Y-103087515D01*
X229385262Y-103039500D01*
X229340511Y-102961988D01*
X229340506Y-102961982D01*
X229238017Y-102859493D01*
X229238011Y-102859488D01*
X229112488Y-102787017D01*
X229112489Y-102787017D01*
X229101006Y-102783940D01*
X228972475Y-102749500D01*
X228827525Y-102749500D01*
X228698993Y-102783940D01*
X228687511Y-102787017D01*
X228561988Y-102859488D01*
X228561982Y-102859493D01*
X228459493Y-102961982D01*
X228459488Y-102961988D01*
X228387017Y-103087511D01*
X228387016Y-103087515D01*
X228349500Y-103227525D01*
X222350500Y-103227525D01*
X222312984Y-103087515D01*
X222285262Y-103039500D01*
X222240511Y-102961988D01*
X222240506Y-102961982D01*
X222138017Y-102859493D01*
X222138011Y-102859488D01*
X222012488Y-102787017D01*
X222012489Y-102787017D01*
X222001006Y-102783940D01*
X221872475Y-102749500D01*
X221727525Y-102749500D01*
X221598993Y-102783940D01*
X221587511Y-102787017D01*
X221461988Y-102859488D01*
X221461982Y-102859493D01*
X221359493Y-102961982D01*
X221359488Y-102961988D01*
X221287017Y-103087511D01*
X221287016Y-103087515D01*
X221249500Y-103227525D01*
X216350500Y-103227525D01*
X216312984Y-103087515D01*
X216285262Y-103039500D01*
X216240511Y-102961988D01*
X216240506Y-102961982D01*
X216138017Y-102859493D01*
X216138011Y-102859488D01*
X216012488Y-102787017D01*
X216012489Y-102787017D01*
X216001006Y-102783940D01*
X215872475Y-102749500D01*
X215727525Y-102749500D01*
X215598993Y-102783940D01*
X215587511Y-102787017D01*
X215461988Y-102859488D01*
X215461982Y-102859493D01*
X215359493Y-102961982D01*
X215359488Y-102961988D01*
X215287017Y-103087511D01*
X215287016Y-103087515D01*
X215249500Y-103227525D01*
X209750500Y-103227525D01*
X209712984Y-103087515D01*
X209685262Y-103039500D01*
X209640511Y-102961988D01*
X209640506Y-102961982D01*
X209538017Y-102859493D01*
X209538011Y-102859488D01*
X209412488Y-102787017D01*
X209412489Y-102787017D01*
X209401006Y-102783940D01*
X209272475Y-102749500D01*
X209127525Y-102749500D01*
X208998993Y-102783940D01*
X208987511Y-102787017D01*
X208861988Y-102859488D01*
X208861982Y-102859493D01*
X208759493Y-102961982D01*
X208759488Y-102961988D01*
X208687017Y-103087511D01*
X208687016Y-103087515D01*
X208649500Y-103227525D01*
X202150500Y-103227525D01*
X202112984Y-103087515D01*
X202085262Y-103039500D01*
X202040511Y-102961988D01*
X202040506Y-102961982D01*
X201938017Y-102859493D01*
X201938011Y-102859488D01*
X201812488Y-102787017D01*
X201812489Y-102787017D01*
X201801006Y-102783940D01*
X201672475Y-102749500D01*
X201527525Y-102749500D01*
X201398993Y-102783940D01*
X201387511Y-102787017D01*
X201261988Y-102859488D01*
X201261982Y-102859493D01*
X201159493Y-102961982D01*
X201159488Y-102961988D01*
X201087017Y-103087511D01*
X201087016Y-103087515D01*
X201049500Y-103227525D01*
X174500500Y-103227525D01*
X174500500Y-99624500D01*
X174520185Y-99557461D01*
X174572989Y-99511706D01*
X174624500Y-99500500D01*
X240375500Y-99500500D01*
X240442539Y-99520185D01*
G37*
%TD.AperFunction*%
%TD*%
M02*
