%TF.GenerationSoftware,KiCad,Pcbnew,9.0.4*%
%TF.CreationDate,2026-06-19T10:04:36+02:00*%
%TF.ProjectId,usb_c_pd_source,7573625f-635f-4706-945f-736f75726365,rev?*%
%TF.SameCoordinates,Original*%
%TF.FileFunction,Legend,Top*%
%TF.FilePolarity,Positive*%
%FSLAX46Y46*%
G04 Gerber Fmt 4.6, Leading zero omitted, Abs format (unit mm)*
G04 Created by KiCad (PCBNEW 9.0.4) date 2026-06-19 10:04:36*
%MOMM*%
%LPD*%
G01*
G04 APERTURE LIST*
%ADD10C,0.100000*%
%ADD11C,0.150000*%
%ADD12C,0.254000*%
%ADD13C,0.120000*%
%ADD14C,0.200000*%
G04 APERTURE END LIST*
D10*
G36*
X175542428Y-127160000D02*
G01*
X175296475Y-127160000D01*
X175296475Y-125588785D01*
X175198606Y-125670214D01*
X175063590Y-125758656D01*
X174921500Y-125835539D01*
X174804692Y-125886029D01*
X174804692Y-125651556D01*
X174938458Y-125580394D01*
X175058303Y-125501243D01*
X175165317Y-125414152D01*
X175263495Y-125316309D01*
X175334900Y-125226486D01*
X175383914Y-125143531D01*
X175542428Y-125143531D01*
X175542428Y-127160000D01*
G37*
G36*
X176930430Y-125151164D02*
G01*
X177024015Y-125173098D01*
X177107292Y-125208499D01*
X177183175Y-125257814D01*
X177249915Y-125319893D01*
X177308182Y-125395956D01*
X177377137Y-125527515D01*
X177432501Y-125694176D01*
X177464785Y-125885242D01*
X177477564Y-126168129D01*
X177468218Y-126404074D01*
X177442899Y-126591259D01*
X177405146Y-126737826D01*
X177346498Y-126875955D01*
X177274209Y-126986247D01*
X177188625Y-127072927D01*
X177086795Y-127137418D01*
X176966988Y-127177246D01*
X176824581Y-127191263D01*
X176683650Y-127177474D01*
X176563387Y-127138072D01*
X176459600Y-127073958D01*
X176369556Y-126983290D01*
X176305432Y-126884456D01*
X176251536Y-126759247D01*
X176209421Y-126602367D01*
X176181614Y-126407638D01*
X176171475Y-126168129D01*
X176171504Y-126167397D01*
X176424267Y-126167397D01*
X176434400Y-126430419D01*
X176460468Y-126615838D01*
X176496903Y-126741609D01*
X176539672Y-126823066D01*
X176603832Y-126897281D01*
X176671759Y-126947124D01*
X176744619Y-126976274D01*
X176824581Y-126986099D01*
X176904436Y-126976244D01*
X176977238Y-126946990D01*
X177045162Y-126896932D01*
X177109368Y-126822334D01*
X177152237Y-126740529D01*
X177188708Y-126614635D01*
X177214771Y-126429501D01*
X177224895Y-126167397D01*
X177214732Y-125903545D01*
X177188609Y-125717884D01*
X177152136Y-125592243D01*
X177109368Y-125511116D01*
X177045268Y-125437405D01*
X176976937Y-125387720D01*
X176903176Y-125358554D01*
X176821772Y-125348695D01*
X176740751Y-125357788D01*
X176670084Y-125384175D01*
X176607377Y-125428115D01*
X176551273Y-125491943D01*
X176503162Y-125583304D01*
X176463125Y-125717198D01*
X176435033Y-125906792D01*
X176424267Y-126167397D01*
X176171504Y-126167397D01*
X176180925Y-125930184D01*
X176206479Y-125742165D01*
X176244504Y-125595624D01*
X176303611Y-125457507D01*
X176376146Y-125347478D01*
X176461758Y-125261256D01*
X176563597Y-125197057D01*
X176683033Y-125157452D01*
X176824581Y-125143531D01*
X176930430Y-125151164D01*
G37*
G36*
X178485769Y-125151164D02*
G01*
X178579353Y-125173098D01*
X178662630Y-125208499D01*
X178738514Y-125257814D01*
X178805254Y-125319893D01*
X178863520Y-125395956D01*
X178932475Y-125527515D01*
X178987840Y-125694176D01*
X179020123Y-125885242D01*
X179032903Y-126168129D01*
X179023557Y-126404074D01*
X178998238Y-126591259D01*
X178960484Y-126737826D01*
X178901837Y-126875955D01*
X178829548Y-126986247D01*
X178743963Y-127072927D01*
X178642133Y-127137418D01*
X178522327Y-127177246D01*
X178379919Y-127191263D01*
X178238989Y-127177474D01*
X178118726Y-127138072D01*
X178014939Y-127073958D01*
X177924895Y-126983290D01*
X177860770Y-126884456D01*
X177806875Y-126759247D01*
X177764760Y-126602367D01*
X177736952Y-126407638D01*
X177726814Y-126168129D01*
X177726843Y-126167397D01*
X177979605Y-126167397D01*
X177989739Y-126430419D01*
X178015807Y-126615838D01*
X178052241Y-126741609D01*
X178095010Y-126823066D01*
X178159170Y-126897281D01*
X178227098Y-126947124D01*
X178299958Y-126976274D01*
X178379919Y-126986099D01*
X178459774Y-126976244D01*
X178532577Y-126946990D01*
X178600500Y-126896932D01*
X178664706Y-126822334D01*
X178707575Y-126740529D01*
X178744046Y-126614635D01*
X178770110Y-126429501D01*
X178780233Y-126167397D01*
X178770070Y-125903545D01*
X178743948Y-125717884D01*
X178707474Y-125592243D01*
X178664706Y-125511116D01*
X178600606Y-125437405D01*
X178532275Y-125387720D01*
X178458514Y-125358554D01*
X178377110Y-125348695D01*
X178296089Y-125357788D01*
X178225423Y-125384175D01*
X178162716Y-125428115D01*
X178106612Y-125491943D01*
X178058500Y-125583304D01*
X178018464Y-125717198D01*
X177990372Y-125906792D01*
X177979605Y-126167397D01*
X177726843Y-126167397D01*
X177736263Y-125930184D01*
X177761818Y-125742165D01*
X177799842Y-125595624D01*
X177858950Y-125457507D01*
X177931485Y-125347478D01*
X178017096Y-125261256D01*
X178118936Y-125197057D01*
X178238372Y-125157452D01*
X178379919Y-125143531D01*
X178485769Y-125151164D01*
G37*
G36*
X180509351Y-127160000D02*
G01*
X179977878Y-125151346D01*
X180249720Y-125151346D01*
X180554413Y-126468670D01*
X180639043Y-126879975D01*
X180729291Y-126508482D01*
X181110432Y-125151346D01*
X181430146Y-125151346D01*
X181717009Y-126168496D01*
X181811540Y-126542843D01*
X181872836Y-126879975D01*
X181972487Y-126442658D01*
X182286828Y-125151346D01*
X182553175Y-125151346D01*
X182003995Y-127160000D01*
X181748517Y-127160000D01*
X181326343Y-125628963D01*
X181263450Y-125393147D01*
X181204710Y-125628963D01*
X180779849Y-127160000D01*
X180509351Y-127160000D01*
G37*
G36*
X176030181Y-121651346D02*
G01*
X176295184Y-121651346D01*
X176295184Y-122810157D01*
X176286288Y-123012253D01*
X176262360Y-123169664D01*
X176226919Y-123290460D01*
X176170074Y-123400304D01*
X176088920Y-123496242D01*
X175980355Y-123579766D01*
X175856574Y-123639090D01*
X175702898Y-123677388D01*
X175512386Y-123691263D01*
X175326531Y-123679180D01*
X175175042Y-123645777D01*
X175051866Y-123594176D01*
X174943213Y-123519066D01*
X174858854Y-123426042D01*
X174796388Y-123312930D01*
X174756742Y-123187608D01*
X174729933Y-123023026D01*
X174719940Y-122810157D01*
X174719940Y-121651346D01*
X174985066Y-121651346D01*
X174985066Y-122813210D01*
X174991818Y-122989780D01*
X175009208Y-123114707D01*
X175033548Y-123199846D01*
X175073659Y-123276471D01*
X175128664Y-123339835D01*
X175200122Y-123391454D01*
X175281529Y-123427751D01*
X175376942Y-123450640D01*
X175489183Y-123458743D01*
X175638002Y-123448559D01*
X175752633Y-123421056D01*
X175840077Y-123379565D01*
X175905861Y-123325509D01*
X175953644Y-123256717D01*
X175992622Y-123155648D01*
X176019776Y-123011963D01*
X176030181Y-122813210D01*
X176030181Y-121651346D01*
G37*
G36*
X176646039Y-123009825D02*
G01*
X176896144Y-122987843D01*
X176914278Y-123088241D01*
X176942161Y-123171132D01*
X176978698Y-123239291D01*
X177027759Y-123298441D01*
X177093873Y-123351410D01*
X177180198Y-123398171D01*
X177273085Y-123431270D01*
X177375088Y-123451691D01*
X177487700Y-123458743D01*
X177633794Y-123446876D01*
X177755390Y-123413558D01*
X177829132Y-123377975D01*
X177885808Y-123336604D01*
X177928192Y-123289605D01*
X177970932Y-123206687D01*
X177984979Y-123117536D01*
X177971101Y-123028428D01*
X177930268Y-122952550D01*
X177862725Y-122890829D01*
X177750017Y-122833970D01*
X177644840Y-122800492D01*
X177393422Y-122736029D01*
X177139370Y-122665044D01*
X177006786Y-122610610D01*
X176916306Y-122554171D01*
X176845960Y-122491896D01*
X176792951Y-122423642D01*
X176754029Y-122346658D01*
X176730594Y-122263855D01*
X176722609Y-122173660D01*
X176732108Y-122074717D01*
X176760482Y-121980497D01*
X176808583Y-121889361D01*
X176873460Y-121809586D01*
X176956350Y-121742813D01*
X177060031Y-121688593D01*
X177172156Y-121651103D01*
X177294172Y-121628026D01*
X177427616Y-121620083D01*
X177574687Y-121628595D01*
X177704837Y-121652956D01*
X177820359Y-121691891D01*
X177926966Y-121748471D01*
X178013306Y-121818616D01*
X178081943Y-121902916D01*
X178133305Y-121999168D01*
X178166115Y-122103676D01*
X178180373Y-122218356D01*
X177926238Y-122237529D01*
X177900107Y-122116245D01*
X177853558Y-122022270D01*
X177787508Y-121949933D01*
X177703207Y-121898836D01*
X177589752Y-121865147D01*
X177438485Y-121852602D01*
X177279749Y-121864446D01*
X177166710Y-121895412D01*
X177087997Y-121940774D01*
X177025506Y-122005560D01*
X176989954Y-122075525D01*
X176978087Y-122153387D01*
X176986957Y-122221883D01*
X177012678Y-122280279D01*
X177056001Y-122331074D01*
X177114651Y-122368674D01*
X177236454Y-122415954D01*
X177455582Y-122473956D01*
X177752319Y-122549608D01*
X177898883Y-122601695D01*
X178009736Y-122663238D01*
X178094416Y-122731405D01*
X178157048Y-122806127D01*
X178203023Y-122891892D01*
X178230886Y-122986184D01*
X178240457Y-123091158D01*
X178230395Y-123195180D01*
X178200223Y-123295119D01*
X178148866Y-123392676D01*
X178080248Y-123478701D01*
X177993455Y-123551884D01*
X177885938Y-123612739D01*
X177769265Y-123655677D01*
X177641232Y-123682132D01*
X177499912Y-123691263D01*
X177319685Y-123681425D01*
X177169348Y-123654042D01*
X177044277Y-123611639D01*
X176929491Y-123548793D01*
X176834149Y-123469240D01*
X176756071Y-123371915D01*
X176697688Y-123261263D01*
X176661014Y-123141316D01*
X176646039Y-123009825D01*
G37*
G36*
X179495588Y-121659172D02*
G01*
X179616412Y-121680402D01*
X179710921Y-121712285D01*
X179797203Y-121760468D01*
X179869106Y-121822542D01*
X179928175Y-121899619D01*
X179972325Y-121986500D01*
X179998139Y-122074207D01*
X180006699Y-122164134D01*
X179998999Y-122247936D01*
X179975974Y-122328234D01*
X179936967Y-122406301D01*
X179884198Y-122475443D01*
X179814945Y-122536414D01*
X179726674Y-122589483D01*
X179841576Y-122635137D01*
X179933520Y-122695977D01*
X180006088Y-122772055D01*
X180059929Y-122862262D01*
X180092542Y-122962899D01*
X180103785Y-123076748D01*
X180088759Y-123213794D01*
X180044312Y-123339553D01*
X179975889Y-123449563D01*
X179897400Y-123526887D01*
X179801878Y-123583296D01*
X179678070Y-123626416D01*
X179538700Y-123650828D01*
X179355059Y-123660000D01*
X178591311Y-123660000D01*
X178591311Y-123427480D01*
X178856437Y-123427480D01*
X179355059Y-123427480D01*
X179535432Y-123417711D01*
X179621796Y-123394665D01*
X179688328Y-123362267D01*
X179743465Y-123315600D01*
X179789445Y-123249183D01*
X179818853Y-123170727D01*
X179829134Y-123077725D01*
X179822471Y-123003637D01*
X179803226Y-122938293D01*
X179771737Y-122880010D01*
X179728779Y-122829790D01*
X179676195Y-122790672D01*
X179612491Y-122762041D01*
X179499397Y-122737832D01*
X179319521Y-122727969D01*
X178856437Y-122727969D01*
X178856437Y-123427480D01*
X178591311Y-123427480D01*
X178591311Y-122495450D01*
X178856437Y-122495450D01*
X179289480Y-122495450D01*
X179453251Y-122488349D01*
X179542271Y-122472002D01*
X179632776Y-122430359D01*
X179694556Y-122371252D01*
X179732370Y-122294065D01*
X179745847Y-122194542D01*
X179733547Y-122098522D01*
X179697976Y-122017100D01*
X179661535Y-121971378D01*
X179616447Y-121936677D01*
X179561322Y-121912198D01*
X179456670Y-121892543D01*
X179256629Y-121883866D01*
X178856437Y-121883866D01*
X178856437Y-122495450D01*
X178591311Y-122495450D01*
X178591311Y-121651346D01*
X179342725Y-121651346D01*
X179495588Y-121659172D01*
G37*
G36*
X180341189Y-123058185D02*
G01*
X180341189Y-122808080D01*
X181096755Y-122808080D01*
X181096755Y-123058185D01*
X180341189Y-123058185D01*
G37*
G36*
X182829413Y-122956580D02*
G01*
X183094417Y-123023503D01*
X183041840Y-123183026D01*
X182973997Y-123316773D01*
X182891641Y-123428306D01*
X182794487Y-123520293D01*
X182682229Y-123594009D01*
X182558096Y-123647145D01*
X182419947Y-123679909D01*
X182265090Y-123691263D01*
X182101772Y-123681983D01*
X181961702Y-123655802D01*
X181841528Y-123614619D01*
X181738381Y-123559494D01*
X181644458Y-123487465D01*
X181562011Y-123400829D01*
X181490420Y-123298204D01*
X181429658Y-123177620D01*
X181371186Y-123008098D01*
X181335786Y-122829697D01*
X181323778Y-122640652D01*
X181337923Y-122434880D01*
X181378395Y-122254257D01*
X181443335Y-122094891D01*
X181510367Y-121984075D01*
X181589019Y-121889030D01*
X181679745Y-121808291D01*
X181783565Y-121740983D01*
X181934631Y-121674151D01*
X182095705Y-121633807D01*
X182269242Y-121620083D01*
X182418702Y-121630310D01*
X182551115Y-121659688D01*
X182669078Y-121707015D01*
X182774703Y-121772124D01*
X182868030Y-121854372D01*
X182946414Y-121951741D01*
X183010542Y-122065946D01*
X183060223Y-122199427D01*
X182799371Y-122260976D01*
X182742295Y-122122036D01*
X182674614Y-122018639D01*
X182597138Y-121944071D01*
X182504192Y-121890198D01*
X182394419Y-121856642D01*
X182263747Y-121844787D01*
X182113298Y-121858024D01*
X181986096Y-121895551D01*
X181877721Y-121955795D01*
X181784819Y-122037973D01*
X181712599Y-122136453D01*
X181659856Y-122253649D01*
X181624988Y-122379563D01*
X181604089Y-122507834D01*
X181597086Y-122639187D01*
X181606009Y-122808871D01*
X181631356Y-122957032D01*
X181671458Y-123086517D01*
X181731850Y-123205541D01*
X181808758Y-123299554D01*
X181903000Y-123372037D01*
X182010984Y-123424673D01*
X182123795Y-123456008D01*
X182243230Y-123466559D01*
X182353121Y-123458087D01*
X182451364Y-123433590D01*
X182539927Y-123393708D01*
X182620341Y-123338087D01*
X182688590Y-123269329D01*
X182746354Y-123184603D01*
X182793591Y-123081426D01*
X182829413Y-122956580D01*
G37*
G36*
X185141564Y-121656884D02*
G01*
X185258531Y-121670397D01*
X185397388Y-121707273D01*
X185505826Y-121763820D01*
X185566888Y-121814756D01*
X185620306Y-121878500D01*
X185666294Y-121956772D01*
X185699806Y-122041254D01*
X185720164Y-122131705D01*
X185727110Y-122229347D01*
X185716537Y-122354317D01*
X185685842Y-122466408D01*
X185635502Y-122568016D01*
X185564567Y-122660924D01*
X185498229Y-122718267D01*
X185411352Y-122766065D01*
X185299431Y-122803432D01*
X185156866Y-122828260D01*
X184977163Y-122837390D01*
X184463398Y-122837390D01*
X184463398Y-123660000D01*
X184198394Y-123660000D01*
X184198394Y-122604870D01*
X184463398Y-122604870D01*
X184981193Y-122604870D01*
X185113779Y-122597271D01*
X185214675Y-122576949D01*
X185290296Y-122546837D01*
X185345969Y-122508639D01*
X185404677Y-122437830D01*
X185440957Y-122349246D01*
X185453925Y-122237529D01*
X185446487Y-122155123D01*
X185425141Y-122083559D01*
X185390422Y-122020764D01*
X185343186Y-121967108D01*
X185287825Y-121927810D01*
X185222993Y-121901695D01*
X185141974Y-121889443D01*
X184975697Y-121883866D01*
X184463398Y-121883866D01*
X184463398Y-122604870D01*
X184198394Y-122604870D01*
X184198394Y-121651346D01*
X184953838Y-121651346D01*
X185141564Y-121656884D01*
G37*
G36*
X186974084Y-121659729D02*
G01*
X187110868Y-121680167D01*
X187221937Y-121714540D01*
X187319283Y-121762521D01*
X187404692Y-121824026D01*
X187500572Y-121920791D01*
X187579384Y-122034445D01*
X187641608Y-122167187D01*
X187684253Y-122308576D01*
X187710943Y-122466933D01*
X187720254Y-122644682D01*
X187713870Y-122796765D01*
X187695677Y-122931336D01*
X187666887Y-123050369D01*
X187603817Y-123216699D01*
X187530233Y-123342850D01*
X187440955Y-123448331D01*
X187347906Y-123525055D01*
X187241472Y-123582246D01*
X187108792Y-123625806D01*
X186963277Y-123650924D01*
X186787124Y-123660000D01*
X186064410Y-123660000D01*
X186064410Y-123427480D01*
X186329413Y-123427480D01*
X186757083Y-123427480D01*
X186944251Y-123416899D01*
X187067882Y-123390355D01*
X187171670Y-123344056D01*
X187247522Y-123285575D01*
X187303732Y-123217773D01*
X187352822Y-123133457D01*
X187394312Y-123029853D01*
X187422324Y-122921541D01*
X187440450Y-122792835D01*
X187446946Y-122640530D01*
X187439181Y-122477655D01*
X187417867Y-122345342D01*
X187385481Y-122238687D01*
X187343754Y-122153387D01*
X187266721Y-122048605D01*
X187183483Y-121974140D01*
X187093161Y-121925265D01*
X187019946Y-121904639D01*
X186909557Y-121889714D01*
X186750244Y-121883866D01*
X186329413Y-121883866D01*
X186329413Y-123427480D01*
X186064410Y-123427480D01*
X186064410Y-121651346D01*
X186754274Y-121651346D01*
X186974084Y-121659729D01*
G37*
D11*
X220870833Y-130759580D02*
X220823214Y-130807200D01*
X220823214Y-130807200D02*
X220680357Y-130854819D01*
X220680357Y-130854819D02*
X220585119Y-130854819D01*
X220585119Y-130854819D02*
X220442262Y-130807200D01*
X220442262Y-130807200D02*
X220347024Y-130711961D01*
X220347024Y-130711961D02*
X220299405Y-130616723D01*
X220299405Y-130616723D02*
X220251786Y-130426247D01*
X220251786Y-130426247D02*
X220251786Y-130283390D01*
X220251786Y-130283390D02*
X220299405Y-130092914D01*
X220299405Y-130092914D02*
X220347024Y-129997676D01*
X220347024Y-129997676D02*
X220442262Y-129902438D01*
X220442262Y-129902438D02*
X220585119Y-129854819D01*
X220585119Y-129854819D02*
X220680357Y-129854819D01*
X220680357Y-129854819D02*
X220823214Y-129902438D01*
X220823214Y-129902438D02*
X220870833Y-129950057D01*
X221347024Y-130854819D02*
X221537500Y-130854819D01*
X221537500Y-130854819D02*
X221632738Y-130807200D01*
X221632738Y-130807200D02*
X221680357Y-130759580D01*
X221680357Y-130759580D02*
X221775595Y-130616723D01*
X221775595Y-130616723D02*
X221823214Y-130426247D01*
X221823214Y-130426247D02*
X221823214Y-130045295D01*
X221823214Y-130045295D02*
X221775595Y-129950057D01*
X221775595Y-129950057D02*
X221727976Y-129902438D01*
X221727976Y-129902438D02*
X221632738Y-129854819D01*
X221632738Y-129854819D02*
X221442262Y-129854819D01*
X221442262Y-129854819D02*
X221347024Y-129902438D01*
X221347024Y-129902438D02*
X221299405Y-129950057D01*
X221299405Y-129950057D02*
X221251786Y-130045295D01*
X221251786Y-130045295D02*
X221251786Y-130283390D01*
X221251786Y-130283390D02*
X221299405Y-130378628D01*
X221299405Y-130378628D02*
X221347024Y-130426247D01*
X221347024Y-130426247D02*
X221442262Y-130473866D01*
X221442262Y-130473866D02*
X221632738Y-130473866D01*
X221632738Y-130473866D02*
X221727976Y-130426247D01*
X221727976Y-130426247D02*
X221775595Y-130378628D01*
X221775595Y-130378628D02*
X221823214Y-130283390D01*
X220107142Y-121609580D02*
X220059523Y-121657200D01*
X220059523Y-121657200D02*
X219916666Y-121704819D01*
X219916666Y-121704819D02*
X219821428Y-121704819D01*
X219821428Y-121704819D02*
X219678571Y-121657200D01*
X219678571Y-121657200D02*
X219583333Y-121561961D01*
X219583333Y-121561961D02*
X219535714Y-121466723D01*
X219535714Y-121466723D02*
X219488095Y-121276247D01*
X219488095Y-121276247D02*
X219488095Y-121133390D01*
X219488095Y-121133390D02*
X219535714Y-120942914D01*
X219535714Y-120942914D02*
X219583333Y-120847676D01*
X219583333Y-120847676D02*
X219678571Y-120752438D01*
X219678571Y-120752438D02*
X219821428Y-120704819D01*
X219821428Y-120704819D02*
X219916666Y-120704819D01*
X219916666Y-120704819D02*
X220059523Y-120752438D01*
X220059523Y-120752438D02*
X220107142Y-120800057D01*
X221059523Y-121704819D02*
X220488095Y-121704819D01*
X220773809Y-121704819D02*
X220773809Y-120704819D01*
X220773809Y-120704819D02*
X220678571Y-120847676D01*
X220678571Y-120847676D02*
X220583333Y-120942914D01*
X220583333Y-120942914D02*
X220488095Y-120990533D01*
X221392857Y-120704819D02*
X222011904Y-120704819D01*
X222011904Y-120704819D02*
X221678571Y-121085771D01*
X221678571Y-121085771D02*
X221821428Y-121085771D01*
X221821428Y-121085771D02*
X221916666Y-121133390D01*
X221916666Y-121133390D02*
X221964285Y-121181009D01*
X221964285Y-121181009D02*
X222011904Y-121276247D01*
X222011904Y-121276247D02*
X222011904Y-121514342D01*
X222011904Y-121514342D02*
X221964285Y-121609580D01*
X221964285Y-121609580D02*
X221916666Y-121657200D01*
X221916666Y-121657200D02*
X221821428Y-121704819D01*
X221821428Y-121704819D02*
X221535714Y-121704819D01*
X221535714Y-121704819D02*
X221440476Y-121657200D01*
X221440476Y-121657200D02*
X221392857Y-121609580D01*
X204433333Y-108254819D02*
X203957143Y-108254819D01*
X203957143Y-108254819D02*
X203957143Y-107254819D01*
X204719048Y-107350057D02*
X204766667Y-107302438D01*
X204766667Y-107302438D02*
X204861905Y-107254819D01*
X204861905Y-107254819D02*
X205100000Y-107254819D01*
X205100000Y-107254819D02*
X205195238Y-107302438D01*
X205195238Y-107302438D02*
X205242857Y-107350057D01*
X205242857Y-107350057D02*
X205290476Y-107445295D01*
X205290476Y-107445295D02*
X205290476Y-107540533D01*
X205290476Y-107540533D02*
X205242857Y-107683390D01*
X205242857Y-107683390D02*
X204671429Y-108254819D01*
X204671429Y-108254819D02*
X205290476Y-108254819D01*
X194233333Y-122254819D02*
X193900000Y-121778628D01*
X193661905Y-122254819D02*
X193661905Y-121254819D01*
X193661905Y-121254819D02*
X194042857Y-121254819D01*
X194042857Y-121254819D02*
X194138095Y-121302438D01*
X194138095Y-121302438D02*
X194185714Y-121350057D01*
X194185714Y-121350057D02*
X194233333Y-121445295D01*
X194233333Y-121445295D02*
X194233333Y-121588152D01*
X194233333Y-121588152D02*
X194185714Y-121683390D01*
X194185714Y-121683390D02*
X194138095Y-121731009D01*
X194138095Y-121731009D02*
X194042857Y-121778628D01*
X194042857Y-121778628D02*
X193661905Y-121778628D01*
X194804762Y-121683390D02*
X194709524Y-121635771D01*
X194709524Y-121635771D02*
X194661905Y-121588152D01*
X194661905Y-121588152D02*
X194614286Y-121492914D01*
X194614286Y-121492914D02*
X194614286Y-121445295D01*
X194614286Y-121445295D02*
X194661905Y-121350057D01*
X194661905Y-121350057D02*
X194709524Y-121302438D01*
X194709524Y-121302438D02*
X194804762Y-121254819D01*
X194804762Y-121254819D02*
X194995238Y-121254819D01*
X194995238Y-121254819D02*
X195090476Y-121302438D01*
X195090476Y-121302438D02*
X195138095Y-121350057D01*
X195138095Y-121350057D02*
X195185714Y-121445295D01*
X195185714Y-121445295D02*
X195185714Y-121492914D01*
X195185714Y-121492914D02*
X195138095Y-121588152D01*
X195138095Y-121588152D02*
X195090476Y-121635771D01*
X195090476Y-121635771D02*
X194995238Y-121683390D01*
X194995238Y-121683390D02*
X194804762Y-121683390D01*
X194804762Y-121683390D02*
X194709524Y-121731009D01*
X194709524Y-121731009D02*
X194661905Y-121778628D01*
X194661905Y-121778628D02*
X194614286Y-121873866D01*
X194614286Y-121873866D02*
X194614286Y-122064342D01*
X194614286Y-122064342D02*
X194661905Y-122159580D01*
X194661905Y-122159580D02*
X194709524Y-122207200D01*
X194709524Y-122207200D02*
X194804762Y-122254819D01*
X194804762Y-122254819D02*
X194995238Y-122254819D01*
X194995238Y-122254819D02*
X195090476Y-122207200D01*
X195090476Y-122207200D02*
X195138095Y-122159580D01*
X195138095Y-122159580D02*
X195185714Y-122064342D01*
X195185714Y-122064342D02*
X195185714Y-121873866D01*
X195185714Y-121873866D02*
X195138095Y-121778628D01*
X195138095Y-121778628D02*
X195090476Y-121731009D01*
X195090476Y-121731009D02*
X194995238Y-121683390D01*
X193357142Y-125854819D02*
X193023809Y-125378628D01*
X192785714Y-125854819D02*
X192785714Y-124854819D01*
X192785714Y-124854819D02*
X193166666Y-124854819D01*
X193166666Y-124854819D02*
X193261904Y-124902438D01*
X193261904Y-124902438D02*
X193309523Y-124950057D01*
X193309523Y-124950057D02*
X193357142Y-125045295D01*
X193357142Y-125045295D02*
X193357142Y-125188152D01*
X193357142Y-125188152D02*
X193309523Y-125283390D01*
X193309523Y-125283390D02*
X193261904Y-125331009D01*
X193261904Y-125331009D02*
X193166666Y-125378628D01*
X193166666Y-125378628D02*
X192785714Y-125378628D01*
X194309523Y-125854819D02*
X193738095Y-125854819D01*
X194023809Y-125854819D02*
X194023809Y-124854819D01*
X194023809Y-124854819D02*
X193928571Y-124997676D01*
X193928571Y-124997676D02*
X193833333Y-125092914D01*
X193833333Y-125092914D02*
X193738095Y-125140533D01*
X194928571Y-124854819D02*
X195023809Y-124854819D01*
X195023809Y-124854819D02*
X195119047Y-124902438D01*
X195119047Y-124902438D02*
X195166666Y-124950057D01*
X195166666Y-124950057D02*
X195214285Y-125045295D01*
X195214285Y-125045295D02*
X195261904Y-125235771D01*
X195261904Y-125235771D02*
X195261904Y-125473866D01*
X195261904Y-125473866D02*
X195214285Y-125664342D01*
X195214285Y-125664342D02*
X195166666Y-125759580D01*
X195166666Y-125759580D02*
X195119047Y-125807200D01*
X195119047Y-125807200D02*
X195023809Y-125854819D01*
X195023809Y-125854819D02*
X194928571Y-125854819D01*
X194928571Y-125854819D02*
X194833333Y-125807200D01*
X194833333Y-125807200D02*
X194785714Y-125759580D01*
X194785714Y-125759580D02*
X194738095Y-125664342D01*
X194738095Y-125664342D02*
X194690476Y-125473866D01*
X194690476Y-125473866D02*
X194690476Y-125235771D01*
X194690476Y-125235771D02*
X194738095Y-125045295D01*
X194738095Y-125045295D02*
X194785714Y-124950057D01*
X194785714Y-124950057D02*
X194833333Y-124902438D01*
X194833333Y-124902438D02*
X194928571Y-124854819D01*
X223837142Y-103054819D02*
X223503809Y-102578628D01*
X223265714Y-103054819D02*
X223265714Y-102054819D01*
X223265714Y-102054819D02*
X223646666Y-102054819D01*
X223646666Y-102054819D02*
X223741904Y-102102438D01*
X223741904Y-102102438D02*
X223789523Y-102150057D01*
X223789523Y-102150057D02*
X223837142Y-102245295D01*
X223837142Y-102245295D02*
X223837142Y-102388152D01*
X223837142Y-102388152D02*
X223789523Y-102483390D01*
X223789523Y-102483390D02*
X223741904Y-102531009D01*
X223741904Y-102531009D02*
X223646666Y-102578628D01*
X223646666Y-102578628D02*
X223265714Y-102578628D01*
X224789523Y-103054819D02*
X224218095Y-103054819D01*
X224503809Y-103054819D02*
X224503809Y-102054819D01*
X224503809Y-102054819D02*
X224408571Y-102197676D01*
X224408571Y-102197676D02*
X224313333Y-102292914D01*
X224313333Y-102292914D02*
X224218095Y-102340533D01*
X225122857Y-102054819D02*
X225789523Y-102054819D01*
X225789523Y-102054819D02*
X225360952Y-103054819D01*
X188492080Y-115766666D02*
X188539700Y-115814285D01*
X188539700Y-115814285D02*
X188587319Y-115957142D01*
X188587319Y-115957142D02*
X188587319Y-116052380D01*
X188587319Y-116052380D02*
X188539700Y-116195237D01*
X188539700Y-116195237D02*
X188444461Y-116290475D01*
X188444461Y-116290475D02*
X188349223Y-116338094D01*
X188349223Y-116338094D02*
X188158747Y-116385713D01*
X188158747Y-116385713D02*
X188015890Y-116385713D01*
X188015890Y-116385713D02*
X187825414Y-116338094D01*
X187825414Y-116338094D02*
X187730176Y-116290475D01*
X187730176Y-116290475D02*
X187634938Y-116195237D01*
X187634938Y-116195237D02*
X187587319Y-116052380D01*
X187587319Y-116052380D02*
X187587319Y-115957142D01*
X187587319Y-115957142D02*
X187634938Y-115814285D01*
X187634938Y-115814285D02*
X187682557Y-115766666D01*
X187682557Y-115385713D02*
X187634938Y-115338094D01*
X187634938Y-115338094D02*
X187587319Y-115242856D01*
X187587319Y-115242856D02*
X187587319Y-115004761D01*
X187587319Y-115004761D02*
X187634938Y-114909523D01*
X187634938Y-114909523D02*
X187682557Y-114861904D01*
X187682557Y-114861904D02*
X187777795Y-114814285D01*
X187777795Y-114814285D02*
X187873033Y-114814285D01*
X187873033Y-114814285D02*
X188015890Y-114861904D01*
X188015890Y-114861904D02*
X188587319Y-115433332D01*
X188587319Y-115433332D02*
X188587319Y-114814285D01*
X214659580Y-119242857D02*
X214707200Y-119290476D01*
X214707200Y-119290476D02*
X214754819Y-119433333D01*
X214754819Y-119433333D02*
X214754819Y-119528571D01*
X214754819Y-119528571D02*
X214707200Y-119671428D01*
X214707200Y-119671428D02*
X214611961Y-119766666D01*
X214611961Y-119766666D02*
X214516723Y-119814285D01*
X214516723Y-119814285D02*
X214326247Y-119861904D01*
X214326247Y-119861904D02*
X214183390Y-119861904D01*
X214183390Y-119861904D02*
X213992914Y-119814285D01*
X213992914Y-119814285D02*
X213897676Y-119766666D01*
X213897676Y-119766666D02*
X213802438Y-119671428D01*
X213802438Y-119671428D02*
X213754819Y-119528571D01*
X213754819Y-119528571D02*
X213754819Y-119433333D01*
X213754819Y-119433333D02*
X213802438Y-119290476D01*
X213802438Y-119290476D02*
X213850057Y-119242857D01*
X213850057Y-118861904D02*
X213802438Y-118814285D01*
X213802438Y-118814285D02*
X213754819Y-118719047D01*
X213754819Y-118719047D02*
X213754819Y-118480952D01*
X213754819Y-118480952D02*
X213802438Y-118385714D01*
X213802438Y-118385714D02*
X213850057Y-118338095D01*
X213850057Y-118338095D02*
X213945295Y-118290476D01*
X213945295Y-118290476D02*
X214040533Y-118290476D01*
X214040533Y-118290476D02*
X214183390Y-118338095D01*
X214183390Y-118338095D02*
X214754819Y-118909523D01*
X214754819Y-118909523D02*
X214754819Y-118290476D01*
X213754819Y-117671428D02*
X213754819Y-117576190D01*
X213754819Y-117576190D02*
X213802438Y-117480952D01*
X213802438Y-117480952D02*
X213850057Y-117433333D01*
X213850057Y-117433333D02*
X213945295Y-117385714D01*
X213945295Y-117385714D02*
X214135771Y-117338095D01*
X214135771Y-117338095D02*
X214373866Y-117338095D01*
X214373866Y-117338095D02*
X214564342Y-117385714D01*
X214564342Y-117385714D02*
X214659580Y-117433333D01*
X214659580Y-117433333D02*
X214707200Y-117480952D01*
X214707200Y-117480952D02*
X214754819Y-117576190D01*
X214754819Y-117576190D02*
X214754819Y-117671428D01*
X214754819Y-117671428D02*
X214707200Y-117766666D01*
X214707200Y-117766666D02*
X214659580Y-117814285D01*
X214659580Y-117814285D02*
X214564342Y-117861904D01*
X214564342Y-117861904D02*
X214373866Y-117909523D01*
X214373866Y-117909523D02*
X214135771Y-117909523D01*
X214135771Y-117909523D02*
X213945295Y-117861904D01*
X213945295Y-117861904D02*
X213850057Y-117814285D01*
X213850057Y-117814285D02*
X213802438Y-117766666D01*
X213802438Y-117766666D02*
X213754819Y-117671428D01*
X212559580Y-109042857D02*
X212607200Y-109090476D01*
X212607200Y-109090476D02*
X212654819Y-109233333D01*
X212654819Y-109233333D02*
X212654819Y-109328571D01*
X212654819Y-109328571D02*
X212607200Y-109471428D01*
X212607200Y-109471428D02*
X212511961Y-109566666D01*
X212511961Y-109566666D02*
X212416723Y-109614285D01*
X212416723Y-109614285D02*
X212226247Y-109661904D01*
X212226247Y-109661904D02*
X212083390Y-109661904D01*
X212083390Y-109661904D02*
X211892914Y-109614285D01*
X211892914Y-109614285D02*
X211797676Y-109566666D01*
X211797676Y-109566666D02*
X211702438Y-109471428D01*
X211702438Y-109471428D02*
X211654819Y-109328571D01*
X211654819Y-109328571D02*
X211654819Y-109233333D01*
X211654819Y-109233333D02*
X211702438Y-109090476D01*
X211702438Y-109090476D02*
X211750057Y-109042857D01*
X212654819Y-108090476D02*
X212654819Y-108661904D01*
X212654819Y-108376190D02*
X211654819Y-108376190D01*
X211654819Y-108376190D02*
X211797676Y-108471428D01*
X211797676Y-108471428D02*
X211892914Y-108566666D01*
X211892914Y-108566666D02*
X211940533Y-108661904D01*
X211654819Y-107233333D02*
X211654819Y-107423809D01*
X211654819Y-107423809D02*
X211702438Y-107519047D01*
X211702438Y-107519047D02*
X211750057Y-107566666D01*
X211750057Y-107566666D02*
X211892914Y-107661904D01*
X211892914Y-107661904D02*
X212083390Y-107709523D01*
X212083390Y-107709523D02*
X212464342Y-107709523D01*
X212464342Y-107709523D02*
X212559580Y-107661904D01*
X212559580Y-107661904D02*
X212607200Y-107614285D01*
X212607200Y-107614285D02*
X212654819Y-107519047D01*
X212654819Y-107519047D02*
X212654819Y-107328571D01*
X212654819Y-107328571D02*
X212607200Y-107233333D01*
X212607200Y-107233333D02*
X212559580Y-107185714D01*
X212559580Y-107185714D02*
X212464342Y-107138095D01*
X212464342Y-107138095D02*
X212226247Y-107138095D01*
X212226247Y-107138095D02*
X212131009Y-107185714D01*
X212131009Y-107185714D02*
X212083390Y-107233333D01*
X212083390Y-107233333D02*
X212035771Y-107328571D01*
X212035771Y-107328571D02*
X212035771Y-107519047D01*
X212035771Y-107519047D02*
X212083390Y-107614285D01*
X212083390Y-107614285D02*
X212131009Y-107661904D01*
X212131009Y-107661904D02*
X212226247Y-107709523D01*
X209959580Y-109042857D02*
X210007200Y-109090476D01*
X210007200Y-109090476D02*
X210054819Y-109233333D01*
X210054819Y-109233333D02*
X210054819Y-109328571D01*
X210054819Y-109328571D02*
X210007200Y-109471428D01*
X210007200Y-109471428D02*
X209911961Y-109566666D01*
X209911961Y-109566666D02*
X209816723Y-109614285D01*
X209816723Y-109614285D02*
X209626247Y-109661904D01*
X209626247Y-109661904D02*
X209483390Y-109661904D01*
X209483390Y-109661904D02*
X209292914Y-109614285D01*
X209292914Y-109614285D02*
X209197676Y-109566666D01*
X209197676Y-109566666D02*
X209102438Y-109471428D01*
X209102438Y-109471428D02*
X209054819Y-109328571D01*
X209054819Y-109328571D02*
X209054819Y-109233333D01*
X209054819Y-109233333D02*
X209102438Y-109090476D01*
X209102438Y-109090476D02*
X209150057Y-109042857D01*
X210054819Y-108090476D02*
X210054819Y-108661904D01*
X210054819Y-108376190D02*
X209054819Y-108376190D01*
X209054819Y-108376190D02*
X209197676Y-108471428D01*
X209197676Y-108471428D02*
X209292914Y-108566666D01*
X209292914Y-108566666D02*
X209340533Y-108661904D01*
X209054819Y-107185714D02*
X209054819Y-107661904D01*
X209054819Y-107661904D02*
X209531009Y-107709523D01*
X209531009Y-107709523D02*
X209483390Y-107661904D01*
X209483390Y-107661904D02*
X209435771Y-107566666D01*
X209435771Y-107566666D02*
X209435771Y-107328571D01*
X209435771Y-107328571D02*
X209483390Y-107233333D01*
X209483390Y-107233333D02*
X209531009Y-107185714D01*
X209531009Y-107185714D02*
X209626247Y-107138095D01*
X209626247Y-107138095D02*
X209864342Y-107138095D01*
X209864342Y-107138095D02*
X209959580Y-107185714D01*
X209959580Y-107185714D02*
X210007200Y-107233333D01*
X210007200Y-107233333D02*
X210054819Y-107328571D01*
X210054819Y-107328571D02*
X210054819Y-107566666D01*
X210054819Y-107566666D02*
X210007200Y-107661904D01*
X210007200Y-107661904D02*
X209959580Y-107709523D01*
X186759580Y-104966666D02*
X186807200Y-105014285D01*
X186807200Y-105014285D02*
X186854819Y-105157142D01*
X186854819Y-105157142D02*
X186854819Y-105252380D01*
X186854819Y-105252380D02*
X186807200Y-105395237D01*
X186807200Y-105395237D02*
X186711961Y-105490475D01*
X186711961Y-105490475D02*
X186616723Y-105538094D01*
X186616723Y-105538094D02*
X186426247Y-105585713D01*
X186426247Y-105585713D02*
X186283390Y-105585713D01*
X186283390Y-105585713D02*
X186092914Y-105538094D01*
X186092914Y-105538094D02*
X185997676Y-105490475D01*
X185997676Y-105490475D02*
X185902438Y-105395237D01*
X185902438Y-105395237D02*
X185854819Y-105252380D01*
X185854819Y-105252380D02*
X185854819Y-105157142D01*
X185854819Y-105157142D02*
X185902438Y-105014285D01*
X185902438Y-105014285D02*
X185950057Y-104966666D01*
X185854819Y-104109523D02*
X185854819Y-104299999D01*
X185854819Y-104299999D02*
X185902438Y-104395237D01*
X185902438Y-104395237D02*
X185950057Y-104442856D01*
X185950057Y-104442856D02*
X186092914Y-104538094D01*
X186092914Y-104538094D02*
X186283390Y-104585713D01*
X186283390Y-104585713D02*
X186664342Y-104585713D01*
X186664342Y-104585713D02*
X186759580Y-104538094D01*
X186759580Y-104538094D02*
X186807200Y-104490475D01*
X186807200Y-104490475D02*
X186854819Y-104395237D01*
X186854819Y-104395237D02*
X186854819Y-104204761D01*
X186854819Y-104204761D02*
X186807200Y-104109523D01*
X186807200Y-104109523D02*
X186759580Y-104061904D01*
X186759580Y-104061904D02*
X186664342Y-104014285D01*
X186664342Y-104014285D02*
X186426247Y-104014285D01*
X186426247Y-104014285D02*
X186331009Y-104061904D01*
X186331009Y-104061904D02*
X186283390Y-104109523D01*
X186283390Y-104109523D02*
X186235771Y-104204761D01*
X186235771Y-104204761D02*
X186235771Y-104395237D01*
X186235771Y-104395237D02*
X186283390Y-104490475D01*
X186283390Y-104490475D02*
X186331009Y-104538094D01*
X186331009Y-104538094D02*
X186426247Y-104585713D01*
X216657142Y-127254819D02*
X216323809Y-126778628D01*
X216085714Y-127254819D02*
X216085714Y-126254819D01*
X216085714Y-126254819D02*
X216466666Y-126254819D01*
X216466666Y-126254819D02*
X216561904Y-126302438D01*
X216561904Y-126302438D02*
X216609523Y-126350057D01*
X216609523Y-126350057D02*
X216657142Y-126445295D01*
X216657142Y-126445295D02*
X216657142Y-126588152D01*
X216657142Y-126588152D02*
X216609523Y-126683390D01*
X216609523Y-126683390D02*
X216561904Y-126731009D01*
X216561904Y-126731009D02*
X216466666Y-126778628D01*
X216466666Y-126778628D02*
X216085714Y-126778628D01*
X217609523Y-127254819D02*
X217038095Y-127254819D01*
X217323809Y-127254819D02*
X217323809Y-126254819D01*
X217323809Y-126254819D02*
X217228571Y-126397676D01*
X217228571Y-126397676D02*
X217133333Y-126492914D01*
X217133333Y-126492914D02*
X217038095Y-126540533D01*
X218466666Y-126254819D02*
X218276190Y-126254819D01*
X218276190Y-126254819D02*
X218180952Y-126302438D01*
X218180952Y-126302438D02*
X218133333Y-126350057D01*
X218133333Y-126350057D02*
X218038095Y-126492914D01*
X218038095Y-126492914D02*
X217990476Y-126683390D01*
X217990476Y-126683390D02*
X217990476Y-127064342D01*
X217990476Y-127064342D02*
X218038095Y-127159580D01*
X218038095Y-127159580D02*
X218085714Y-127207200D01*
X218085714Y-127207200D02*
X218180952Y-127254819D01*
X218180952Y-127254819D02*
X218371428Y-127254819D01*
X218371428Y-127254819D02*
X218466666Y-127207200D01*
X218466666Y-127207200D02*
X218514285Y-127159580D01*
X218514285Y-127159580D02*
X218561904Y-127064342D01*
X218561904Y-127064342D02*
X218561904Y-126826247D01*
X218561904Y-126826247D02*
X218514285Y-126731009D01*
X218514285Y-126731009D02*
X218466666Y-126683390D01*
X218466666Y-126683390D02*
X218371428Y-126635771D01*
X218371428Y-126635771D02*
X218180952Y-126635771D01*
X218180952Y-126635771D02*
X218085714Y-126683390D01*
X218085714Y-126683390D02*
X218038095Y-126731009D01*
X218038095Y-126731009D02*
X217990476Y-126826247D01*
X220157142Y-123359580D02*
X220109523Y-123407200D01*
X220109523Y-123407200D02*
X219966666Y-123454819D01*
X219966666Y-123454819D02*
X219871428Y-123454819D01*
X219871428Y-123454819D02*
X219728571Y-123407200D01*
X219728571Y-123407200D02*
X219633333Y-123311961D01*
X219633333Y-123311961D02*
X219585714Y-123216723D01*
X219585714Y-123216723D02*
X219538095Y-123026247D01*
X219538095Y-123026247D02*
X219538095Y-122883390D01*
X219538095Y-122883390D02*
X219585714Y-122692914D01*
X219585714Y-122692914D02*
X219633333Y-122597676D01*
X219633333Y-122597676D02*
X219728571Y-122502438D01*
X219728571Y-122502438D02*
X219871428Y-122454819D01*
X219871428Y-122454819D02*
X219966666Y-122454819D01*
X219966666Y-122454819D02*
X220109523Y-122502438D01*
X220109523Y-122502438D02*
X220157142Y-122550057D01*
X221109523Y-123454819D02*
X220538095Y-123454819D01*
X220823809Y-123454819D02*
X220823809Y-122454819D01*
X220823809Y-122454819D02*
X220728571Y-122597676D01*
X220728571Y-122597676D02*
X220633333Y-122692914D01*
X220633333Y-122692914D02*
X220538095Y-122740533D01*
X221490476Y-122550057D02*
X221538095Y-122502438D01*
X221538095Y-122502438D02*
X221633333Y-122454819D01*
X221633333Y-122454819D02*
X221871428Y-122454819D01*
X221871428Y-122454819D02*
X221966666Y-122502438D01*
X221966666Y-122502438D02*
X222014285Y-122550057D01*
X222014285Y-122550057D02*
X222061904Y-122645295D01*
X222061904Y-122645295D02*
X222061904Y-122740533D01*
X222061904Y-122740533D02*
X222014285Y-122883390D01*
X222014285Y-122883390D02*
X221442857Y-123454819D01*
X221442857Y-123454819D02*
X222061904Y-123454819D01*
X208459580Y-117942857D02*
X208507200Y-117990476D01*
X208507200Y-117990476D02*
X208554819Y-118133333D01*
X208554819Y-118133333D02*
X208554819Y-118228571D01*
X208554819Y-118228571D02*
X208507200Y-118371428D01*
X208507200Y-118371428D02*
X208411961Y-118466666D01*
X208411961Y-118466666D02*
X208316723Y-118514285D01*
X208316723Y-118514285D02*
X208126247Y-118561904D01*
X208126247Y-118561904D02*
X207983390Y-118561904D01*
X207983390Y-118561904D02*
X207792914Y-118514285D01*
X207792914Y-118514285D02*
X207697676Y-118466666D01*
X207697676Y-118466666D02*
X207602438Y-118371428D01*
X207602438Y-118371428D02*
X207554819Y-118228571D01*
X207554819Y-118228571D02*
X207554819Y-118133333D01*
X207554819Y-118133333D02*
X207602438Y-117990476D01*
X207602438Y-117990476D02*
X207650057Y-117942857D01*
X208554819Y-116990476D02*
X208554819Y-117561904D01*
X208554819Y-117276190D02*
X207554819Y-117276190D01*
X207554819Y-117276190D02*
X207697676Y-117371428D01*
X207697676Y-117371428D02*
X207792914Y-117466666D01*
X207792914Y-117466666D02*
X207840533Y-117561904D01*
X207983390Y-116419047D02*
X207935771Y-116514285D01*
X207935771Y-116514285D02*
X207888152Y-116561904D01*
X207888152Y-116561904D02*
X207792914Y-116609523D01*
X207792914Y-116609523D02*
X207745295Y-116609523D01*
X207745295Y-116609523D02*
X207650057Y-116561904D01*
X207650057Y-116561904D02*
X207602438Y-116514285D01*
X207602438Y-116514285D02*
X207554819Y-116419047D01*
X207554819Y-116419047D02*
X207554819Y-116228571D01*
X207554819Y-116228571D02*
X207602438Y-116133333D01*
X207602438Y-116133333D02*
X207650057Y-116085714D01*
X207650057Y-116085714D02*
X207745295Y-116038095D01*
X207745295Y-116038095D02*
X207792914Y-116038095D01*
X207792914Y-116038095D02*
X207888152Y-116085714D01*
X207888152Y-116085714D02*
X207935771Y-116133333D01*
X207935771Y-116133333D02*
X207983390Y-116228571D01*
X207983390Y-116228571D02*
X207983390Y-116419047D01*
X207983390Y-116419047D02*
X208031009Y-116514285D01*
X208031009Y-116514285D02*
X208078628Y-116561904D01*
X208078628Y-116561904D02*
X208173866Y-116609523D01*
X208173866Y-116609523D02*
X208364342Y-116609523D01*
X208364342Y-116609523D02*
X208459580Y-116561904D01*
X208459580Y-116561904D02*
X208507200Y-116514285D01*
X208507200Y-116514285D02*
X208554819Y-116419047D01*
X208554819Y-116419047D02*
X208554819Y-116228571D01*
X208554819Y-116228571D02*
X208507200Y-116133333D01*
X208507200Y-116133333D02*
X208459580Y-116085714D01*
X208459580Y-116085714D02*
X208364342Y-116038095D01*
X208364342Y-116038095D02*
X208173866Y-116038095D01*
X208173866Y-116038095D02*
X208078628Y-116085714D01*
X208078628Y-116085714D02*
X208031009Y-116133333D01*
X208031009Y-116133333D02*
X207983390Y-116228571D01*
X220157142Y-125859580D02*
X220109523Y-125907200D01*
X220109523Y-125907200D02*
X219966666Y-125954819D01*
X219966666Y-125954819D02*
X219871428Y-125954819D01*
X219871428Y-125954819D02*
X219728571Y-125907200D01*
X219728571Y-125907200D02*
X219633333Y-125811961D01*
X219633333Y-125811961D02*
X219585714Y-125716723D01*
X219585714Y-125716723D02*
X219538095Y-125526247D01*
X219538095Y-125526247D02*
X219538095Y-125383390D01*
X219538095Y-125383390D02*
X219585714Y-125192914D01*
X219585714Y-125192914D02*
X219633333Y-125097676D01*
X219633333Y-125097676D02*
X219728571Y-125002438D01*
X219728571Y-125002438D02*
X219871428Y-124954819D01*
X219871428Y-124954819D02*
X219966666Y-124954819D01*
X219966666Y-124954819D02*
X220109523Y-125002438D01*
X220109523Y-125002438D02*
X220157142Y-125050057D01*
X221109523Y-125954819D02*
X220538095Y-125954819D01*
X220823809Y-125954819D02*
X220823809Y-124954819D01*
X220823809Y-124954819D02*
X220728571Y-125097676D01*
X220728571Y-125097676D02*
X220633333Y-125192914D01*
X220633333Y-125192914D02*
X220538095Y-125240533D01*
X222061904Y-125954819D02*
X221490476Y-125954819D01*
X221776190Y-125954819D02*
X221776190Y-124954819D01*
X221776190Y-124954819D02*
X221680952Y-125097676D01*
X221680952Y-125097676D02*
X221585714Y-125192914D01*
X221585714Y-125192914D02*
X221490476Y-125240533D01*
X217759580Y-109042857D02*
X217807200Y-109090476D01*
X217807200Y-109090476D02*
X217854819Y-109233333D01*
X217854819Y-109233333D02*
X217854819Y-109328571D01*
X217854819Y-109328571D02*
X217807200Y-109471428D01*
X217807200Y-109471428D02*
X217711961Y-109566666D01*
X217711961Y-109566666D02*
X217616723Y-109614285D01*
X217616723Y-109614285D02*
X217426247Y-109661904D01*
X217426247Y-109661904D02*
X217283390Y-109661904D01*
X217283390Y-109661904D02*
X217092914Y-109614285D01*
X217092914Y-109614285D02*
X216997676Y-109566666D01*
X216997676Y-109566666D02*
X216902438Y-109471428D01*
X216902438Y-109471428D02*
X216854819Y-109328571D01*
X216854819Y-109328571D02*
X216854819Y-109233333D01*
X216854819Y-109233333D02*
X216902438Y-109090476D01*
X216902438Y-109090476D02*
X216950057Y-109042857D01*
X217854819Y-108090476D02*
X217854819Y-108661904D01*
X217854819Y-108376190D02*
X216854819Y-108376190D01*
X216854819Y-108376190D02*
X216997676Y-108471428D01*
X216997676Y-108471428D02*
X217092914Y-108566666D01*
X217092914Y-108566666D02*
X217140533Y-108661904D01*
X217188152Y-107233333D02*
X217854819Y-107233333D01*
X216807200Y-107471428D02*
X217521485Y-107709523D01*
X217521485Y-107709523D02*
X217521485Y-107090476D01*
X190795833Y-120454819D02*
X190462500Y-119978628D01*
X190224405Y-120454819D02*
X190224405Y-119454819D01*
X190224405Y-119454819D02*
X190605357Y-119454819D01*
X190605357Y-119454819D02*
X190700595Y-119502438D01*
X190700595Y-119502438D02*
X190748214Y-119550057D01*
X190748214Y-119550057D02*
X190795833Y-119645295D01*
X190795833Y-119645295D02*
X190795833Y-119788152D01*
X190795833Y-119788152D02*
X190748214Y-119883390D01*
X190748214Y-119883390D02*
X190700595Y-119931009D01*
X190700595Y-119931009D02*
X190605357Y-119978628D01*
X190605357Y-119978628D02*
X190224405Y-119978628D01*
X191748214Y-120454819D02*
X191176786Y-120454819D01*
X191462500Y-120454819D02*
X191462500Y-119454819D01*
X191462500Y-119454819D02*
X191367262Y-119597676D01*
X191367262Y-119597676D02*
X191272024Y-119692914D01*
X191272024Y-119692914D02*
X191176786Y-119740533D01*
X205454819Y-122861904D02*
X206264342Y-122861904D01*
X206264342Y-122861904D02*
X206359580Y-122814285D01*
X206359580Y-122814285D02*
X206407200Y-122766666D01*
X206407200Y-122766666D02*
X206454819Y-122671428D01*
X206454819Y-122671428D02*
X206454819Y-122480952D01*
X206454819Y-122480952D02*
X206407200Y-122385714D01*
X206407200Y-122385714D02*
X206359580Y-122338095D01*
X206359580Y-122338095D02*
X206264342Y-122290476D01*
X206264342Y-122290476D02*
X205454819Y-122290476D01*
X205788152Y-121385714D02*
X206454819Y-121385714D01*
X205407200Y-121623809D02*
X206121485Y-121861904D01*
X206121485Y-121861904D02*
X206121485Y-121242857D01*
X220157142Y-128259580D02*
X220109523Y-128307200D01*
X220109523Y-128307200D02*
X219966666Y-128354819D01*
X219966666Y-128354819D02*
X219871428Y-128354819D01*
X219871428Y-128354819D02*
X219728571Y-128307200D01*
X219728571Y-128307200D02*
X219633333Y-128211961D01*
X219633333Y-128211961D02*
X219585714Y-128116723D01*
X219585714Y-128116723D02*
X219538095Y-127926247D01*
X219538095Y-127926247D02*
X219538095Y-127783390D01*
X219538095Y-127783390D02*
X219585714Y-127592914D01*
X219585714Y-127592914D02*
X219633333Y-127497676D01*
X219633333Y-127497676D02*
X219728571Y-127402438D01*
X219728571Y-127402438D02*
X219871428Y-127354819D01*
X219871428Y-127354819D02*
X219966666Y-127354819D01*
X219966666Y-127354819D02*
X220109523Y-127402438D01*
X220109523Y-127402438D02*
X220157142Y-127450057D01*
X221109523Y-128354819D02*
X220538095Y-128354819D01*
X220823809Y-128354819D02*
X220823809Y-127354819D01*
X220823809Y-127354819D02*
X220728571Y-127497676D01*
X220728571Y-127497676D02*
X220633333Y-127592914D01*
X220633333Y-127592914D02*
X220538095Y-127640533D01*
X221728571Y-127354819D02*
X221823809Y-127354819D01*
X221823809Y-127354819D02*
X221919047Y-127402438D01*
X221919047Y-127402438D02*
X221966666Y-127450057D01*
X221966666Y-127450057D02*
X222014285Y-127545295D01*
X222014285Y-127545295D02*
X222061904Y-127735771D01*
X222061904Y-127735771D02*
X222061904Y-127973866D01*
X222061904Y-127973866D02*
X222014285Y-128164342D01*
X222014285Y-128164342D02*
X221966666Y-128259580D01*
X221966666Y-128259580D02*
X221919047Y-128307200D01*
X221919047Y-128307200D02*
X221823809Y-128354819D01*
X221823809Y-128354819D02*
X221728571Y-128354819D01*
X221728571Y-128354819D02*
X221633333Y-128307200D01*
X221633333Y-128307200D02*
X221585714Y-128259580D01*
X221585714Y-128259580D02*
X221538095Y-128164342D01*
X221538095Y-128164342D02*
X221490476Y-127973866D01*
X221490476Y-127973866D02*
X221490476Y-127735771D01*
X221490476Y-127735771D02*
X221538095Y-127545295D01*
X221538095Y-127545295D02*
X221585714Y-127450057D01*
X221585714Y-127450057D02*
X221633333Y-127402438D01*
X221633333Y-127402438D02*
X221728571Y-127354819D01*
X221404761Y-113150057D02*
X221309523Y-113102438D01*
X221309523Y-113102438D02*
X221214285Y-113007200D01*
X221214285Y-113007200D02*
X221071428Y-112864342D01*
X221071428Y-112864342D02*
X220976190Y-112816723D01*
X220976190Y-112816723D02*
X220880952Y-112816723D01*
X220928571Y-113054819D02*
X220833333Y-113007200D01*
X220833333Y-113007200D02*
X220738095Y-112911961D01*
X220738095Y-112911961D02*
X220690476Y-112721485D01*
X220690476Y-112721485D02*
X220690476Y-112388152D01*
X220690476Y-112388152D02*
X220738095Y-112197676D01*
X220738095Y-112197676D02*
X220833333Y-112102438D01*
X220833333Y-112102438D02*
X220928571Y-112054819D01*
X220928571Y-112054819D02*
X221119047Y-112054819D01*
X221119047Y-112054819D02*
X221214285Y-112102438D01*
X221214285Y-112102438D02*
X221309523Y-112197676D01*
X221309523Y-112197676D02*
X221357142Y-112388152D01*
X221357142Y-112388152D02*
X221357142Y-112721485D01*
X221357142Y-112721485D02*
X221309523Y-112911961D01*
X221309523Y-112911961D02*
X221214285Y-113007200D01*
X221214285Y-113007200D02*
X221119047Y-113054819D01*
X221119047Y-113054819D02*
X220928571Y-113054819D01*
X222309523Y-113054819D02*
X221738095Y-113054819D01*
X222023809Y-113054819D02*
X222023809Y-112054819D01*
X222023809Y-112054819D02*
X221928571Y-112197676D01*
X221928571Y-112197676D02*
X221833333Y-112292914D01*
X221833333Y-112292914D02*
X221738095Y-112340533D01*
X205254819Y-128342857D02*
X204778628Y-128676190D01*
X205254819Y-128914285D02*
X204254819Y-128914285D01*
X204254819Y-128914285D02*
X204254819Y-128533333D01*
X204254819Y-128533333D02*
X204302438Y-128438095D01*
X204302438Y-128438095D02*
X204350057Y-128390476D01*
X204350057Y-128390476D02*
X204445295Y-128342857D01*
X204445295Y-128342857D02*
X204588152Y-128342857D01*
X204588152Y-128342857D02*
X204683390Y-128390476D01*
X204683390Y-128390476D02*
X204731009Y-128438095D01*
X204731009Y-128438095D02*
X204778628Y-128533333D01*
X204778628Y-128533333D02*
X204778628Y-128914285D01*
X205254819Y-127390476D02*
X205254819Y-127961904D01*
X205254819Y-127676190D02*
X204254819Y-127676190D01*
X204254819Y-127676190D02*
X204397676Y-127771428D01*
X204397676Y-127771428D02*
X204492914Y-127866666D01*
X204492914Y-127866666D02*
X204540533Y-127961904D01*
X204588152Y-126533333D02*
X205254819Y-126533333D01*
X204207200Y-126771428D02*
X204921485Y-127009523D01*
X204921485Y-127009523D02*
X204921485Y-126390476D01*
X227984761Y-105950057D02*
X227889523Y-105902438D01*
X227889523Y-105902438D02*
X227794285Y-105807200D01*
X227794285Y-105807200D02*
X227651428Y-105664342D01*
X227651428Y-105664342D02*
X227556190Y-105616723D01*
X227556190Y-105616723D02*
X227460952Y-105616723D01*
X227508571Y-105854819D02*
X227413333Y-105807200D01*
X227413333Y-105807200D02*
X227318095Y-105711961D01*
X227318095Y-105711961D02*
X227270476Y-105521485D01*
X227270476Y-105521485D02*
X227270476Y-105188152D01*
X227270476Y-105188152D02*
X227318095Y-104997676D01*
X227318095Y-104997676D02*
X227413333Y-104902438D01*
X227413333Y-104902438D02*
X227508571Y-104854819D01*
X227508571Y-104854819D02*
X227699047Y-104854819D01*
X227699047Y-104854819D02*
X227794285Y-104902438D01*
X227794285Y-104902438D02*
X227889523Y-104997676D01*
X227889523Y-104997676D02*
X227937142Y-105188152D01*
X227937142Y-105188152D02*
X227937142Y-105521485D01*
X227937142Y-105521485D02*
X227889523Y-105711961D01*
X227889523Y-105711961D02*
X227794285Y-105807200D01*
X227794285Y-105807200D02*
X227699047Y-105854819D01*
X227699047Y-105854819D02*
X227508571Y-105854819D01*
X228270476Y-104854819D02*
X228889523Y-104854819D01*
X228889523Y-104854819D02*
X228556190Y-105235771D01*
X228556190Y-105235771D02*
X228699047Y-105235771D01*
X228699047Y-105235771D02*
X228794285Y-105283390D01*
X228794285Y-105283390D02*
X228841904Y-105331009D01*
X228841904Y-105331009D02*
X228889523Y-105426247D01*
X228889523Y-105426247D02*
X228889523Y-105664342D01*
X228889523Y-105664342D02*
X228841904Y-105759580D01*
X228841904Y-105759580D02*
X228794285Y-105807200D01*
X228794285Y-105807200D02*
X228699047Y-105854819D01*
X228699047Y-105854819D02*
X228413333Y-105854819D01*
X228413333Y-105854819D02*
X228318095Y-105807200D01*
X228318095Y-105807200D02*
X228270476Y-105759580D01*
X194233333Y-124054819D02*
X193900000Y-123578628D01*
X193661905Y-124054819D02*
X193661905Y-123054819D01*
X193661905Y-123054819D02*
X194042857Y-123054819D01*
X194042857Y-123054819D02*
X194138095Y-123102438D01*
X194138095Y-123102438D02*
X194185714Y-123150057D01*
X194185714Y-123150057D02*
X194233333Y-123245295D01*
X194233333Y-123245295D02*
X194233333Y-123388152D01*
X194233333Y-123388152D02*
X194185714Y-123483390D01*
X194185714Y-123483390D02*
X194138095Y-123531009D01*
X194138095Y-123531009D02*
X194042857Y-123578628D01*
X194042857Y-123578628D02*
X193661905Y-123578628D01*
X194709524Y-124054819D02*
X194900000Y-124054819D01*
X194900000Y-124054819D02*
X194995238Y-124007200D01*
X194995238Y-124007200D02*
X195042857Y-123959580D01*
X195042857Y-123959580D02*
X195138095Y-123816723D01*
X195138095Y-123816723D02*
X195185714Y-123626247D01*
X195185714Y-123626247D02*
X195185714Y-123245295D01*
X195185714Y-123245295D02*
X195138095Y-123150057D01*
X195138095Y-123150057D02*
X195090476Y-123102438D01*
X195090476Y-123102438D02*
X194995238Y-123054819D01*
X194995238Y-123054819D02*
X194804762Y-123054819D01*
X194804762Y-123054819D02*
X194709524Y-123102438D01*
X194709524Y-123102438D02*
X194661905Y-123150057D01*
X194661905Y-123150057D02*
X194614286Y-123245295D01*
X194614286Y-123245295D02*
X194614286Y-123483390D01*
X194614286Y-123483390D02*
X194661905Y-123578628D01*
X194661905Y-123578628D02*
X194709524Y-123626247D01*
X194709524Y-123626247D02*
X194804762Y-123673866D01*
X194804762Y-123673866D02*
X194995238Y-123673866D01*
X194995238Y-123673866D02*
X195090476Y-123626247D01*
X195090476Y-123626247D02*
X195138095Y-123578628D01*
X195138095Y-123578628D02*
X195185714Y-123483390D01*
X199959580Y-106966666D02*
X200007200Y-107014285D01*
X200007200Y-107014285D02*
X200054819Y-107157142D01*
X200054819Y-107157142D02*
X200054819Y-107252380D01*
X200054819Y-107252380D02*
X200007200Y-107395237D01*
X200007200Y-107395237D02*
X199911961Y-107490475D01*
X199911961Y-107490475D02*
X199816723Y-107538094D01*
X199816723Y-107538094D02*
X199626247Y-107585713D01*
X199626247Y-107585713D02*
X199483390Y-107585713D01*
X199483390Y-107585713D02*
X199292914Y-107538094D01*
X199292914Y-107538094D02*
X199197676Y-107490475D01*
X199197676Y-107490475D02*
X199102438Y-107395237D01*
X199102438Y-107395237D02*
X199054819Y-107252380D01*
X199054819Y-107252380D02*
X199054819Y-107157142D01*
X199054819Y-107157142D02*
X199102438Y-107014285D01*
X199102438Y-107014285D02*
X199150057Y-106966666D01*
X199054819Y-106633332D02*
X199054819Y-105966666D01*
X199054819Y-105966666D02*
X200054819Y-106395237D01*
X203233333Y-122254819D02*
X202900000Y-121778628D01*
X202661905Y-122254819D02*
X202661905Y-121254819D01*
X202661905Y-121254819D02*
X203042857Y-121254819D01*
X203042857Y-121254819D02*
X203138095Y-121302438D01*
X203138095Y-121302438D02*
X203185714Y-121350057D01*
X203185714Y-121350057D02*
X203233333Y-121445295D01*
X203233333Y-121445295D02*
X203233333Y-121588152D01*
X203233333Y-121588152D02*
X203185714Y-121683390D01*
X203185714Y-121683390D02*
X203138095Y-121731009D01*
X203138095Y-121731009D02*
X203042857Y-121778628D01*
X203042857Y-121778628D02*
X202661905Y-121778628D01*
X204090476Y-121254819D02*
X203900000Y-121254819D01*
X203900000Y-121254819D02*
X203804762Y-121302438D01*
X203804762Y-121302438D02*
X203757143Y-121350057D01*
X203757143Y-121350057D02*
X203661905Y-121492914D01*
X203661905Y-121492914D02*
X203614286Y-121683390D01*
X203614286Y-121683390D02*
X203614286Y-122064342D01*
X203614286Y-122064342D02*
X203661905Y-122159580D01*
X203661905Y-122159580D02*
X203709524Y-122207200D01*
X203709524Y-122207200D02*
X203804762Y-122254819D01*
X203804762Y-122254819D02*
X203995238Y-122254819D01*
X203995238Y-122254819D02*
X204090476Y-122207200D01*
X204090476Y-122207200D02*
X204138095Y-122159580D01*
X204138095Y-122159580D02*
X204185714Y-122064342D01*
X204185714Y-122064342D02*
X204185714Y-121826247D01*
X204185714Y-121826247D02*
X204138095Y-121731009D01*
X204138095Y-121731009D02*
X204090476Y-121683390D01*
X204090476Y-121683390D02*
X203995238Y-121635771D01*
X203995238Y-121635771D02*
X203804762Y-121635771D01*
X203804762Y-121635771D02*
X203709524Y-121683390D01*
X203709524Y-121683390D02*
X203661905Y-121731009D01*
X203661905Y-121731009D02*
X203614286Y-121826247D01*
X205233333Y-119654819D02*
X204900000Y-119178628D01*
X204661905Y-119654819D02*
X204661905Y-118654819D01*
X204661905Y-118654819D02*
X205042857Y-118654819D01*
X205042857Y-118654819D02*
X205138095Y-118702438D01*
X205138095Y-118702438D02*
X205185714Y-118750057D01*
X205185714Y-118750057D02*
X205233333Y-118845295D01*
X205233333Y-118845295D02*
X205233333Y-118988152D01*
X205233333Y-118988152D02*
X205185714Y-119083390D01*
X205185714Y-119083390D02*
X205138095Y-119131009D01*
X205138095Y-119131009D02*
X205042857Y-119178628D01*
X205042857Y-119178628D02*
X204661905Y-119178628D01*
X206090476Y-118988152D02*
X206090476Y-119654819D01*
X205852381Y-118607200D02*
X205614286Y-119321485D01*
X205614286Y-119321485D02*
X206233333Y-119321485D01*
X220584761Y-105950057D02*
X220489523Y-105902438D01*
X220489523Y-105902438D02*
X220394285Y-105807200D01*
X220394285Y-105807200D02*
X220251428Y-105664342D01*
X220251428Y-105664342D02*
X220156190Y-105616723D01*
X220156190Y-105616723D02*
X220060952Y-105616723D01*
X220108571Y-105854819D02*
X220013333Y-105807200D01*
X220013333Y-105807200D02*
X219918095Y-105711961D01*
X219918095Y-105711961D02*
X219870476Y-105521485D01*
X219870476Y-105521485D02*
X219870476Y-105188152D01*
X219870476Y-105188152D02*
X219918095Y-104997676D01*
X219918095Y-104997676D02*
X220013333Y-104902438D01*
X220013333Y-104902438D02*
X220108571Y-104854819D01*
X220108571Y-104854819D02*
X220299047Y-104854819D01*
X220299047Y-104854819D02*
X220394285Y-104902438D01*
X220394285Y-104902438D02*
X220489523Y-104997676D01*
X220489523Y-104997676D02*
X220537142Y-105188152D01*
X220537142Y-105188152D02*
X220537142Y-105521485D01*
X220537142Y-105521485D02*
X220489523Y-105711961D01*
X220489523Y-105711961D02*
X220394285Y-105807200D01*
X220394285Y-105807200D02*
X220299047Y-105854819D01*
X220299047Y-105854819D02*
X220108571Y-105854819D01*
X220918095Y-104950057D02*
X220965714Y-104902438D01*
X220965714Y-104902438D02*
X221060952Y-104854819D01*
X221060952Y-104854819D02*
X221299047Y-104854819D01*
X221299047Y-104854819D02*
X221394285Y-104902438D01*
X221394285Y-104902438D02*
X221441904Y-104950057D01*
X221441904Y-104950057D02*
X221489523Y-105045295D01*
X221489523Y-105045295D02*
X221489523Y-105140533D01*
X221489523Y-105140533D02*
X221441904Y-105283390D01*
X221441904Y-105283390D02*
X220870476Y-105854819D01*
X220870476Y-105854819D02*
X221489523Y-105854819D01*
X200279580Y-109886666D02*
X200327200Y-109934285D01*
X200327200Y-109934285D02*
X200374819Y-110077142D01*
X200374819Y-110077142D02*
X200374819Y-110172380D01*
X200374819Y-110172380D02*
X200327200Y-110315237D01*
X200327200Y-110315237D02*
X200231961Y-110410475D01*
X200231961Y-110410475D02*
X200136723Y-110458094D01*
X200136723Y-110458094D02*
X199946247Y-110505713D01*
X199946247Y-110505713D02*
X199803390Y-110505713D01*
X199803390Y-110505713D02*
X199612914Y-110458094D01*
X199612914Y-110458094D02*
X199517676Y-110410475D01*
X199517676Y-110410475D02*
X199422438Y-110315237D01*
X199422438Y-110315237D02*
X199374819Y-110172380D01*
X199374819Y-110172380D02*
X199374819Y-110077142D01*
X199374819Y-110077142D02*
X199422438Y-109934285D01*
X199422438Y-109934285D02*
X199470057Y-109886666D01*
X199803390Y-109315237D02*
X199755771Y-109410475D01*
X199755771Y-109410475D02*
X199708152Y-109458094D01*
X199708152Y-109458094D02*
X199612914Y-109505713D01*
X199612914Y-109505713D02*
X199565295Y-109505713D01*
X199565295Y-109505713D02*
X199470057Y-109458094D01*
X199470057Y-109458094D02*
X199422438Y-109410475D01*
X199422438Y-109410475D02*
X199374819Y-109315237D01*
X199374819Y-109315237D02*
X199374819Y-109124761D01*
X199374819Y-109124761D02*
X199422438Y-109029523D01*
X199422438Y-109029523D02*
X199470057Y-108981904D01*
X199470057Y-108981904D02*
X199565295Y-108934285D01*
X199565295Y-108934285D02*
X199612914Y-108934285D01*
X199612914Y-108934285D02*
X199708152Y-108981904D01*
X199708152Y-108981904D02*
X199755771Y-109029523D01*
X199755771Y-109029523D02*
X199803390Y-109124761D01*
X199803390Y-109124761D02*
X199803390Y-109315237D01*
X199803390Y-109315237D02*
X199851009Y-109410475D01*
X199851009Y-109410475D02*
X199898628Y-109458094D01*
X199898628Y-109458094D02*
X199993866Y-109505713D01*
X199993866Y-109505713D02*
X200184342Y-109505713D01*
X200184342Y-109505713D02*
X200279580Y-109458094D01*
X200279580Y-109458094D02*
X200327200Y-109410475D01*
X200327200Y-109410475D02*
X200374819Y-109315237D01*
X200374819Y-109315237D02*
X200374819Y-109124761D01*
X200374819Y-109124761D02*
X200327200Y-109029523D01*
X200327200Y-109029523D02*
X200279580Y-108981904D01*
X200279580Y-108981904D02*
X200184342Y-108934285D01*
X200184342Y-108934285D02*
X199993866Y-108934285D01*
X199993866Y-108934285D02*
X199898628Y-108981904D01*
X199898628Y-108981904D02*
X199851009Y-109029523D01*
X199851009Y-109029523D02*
X199803390Y-109124761D01*
X225557142Y-117054819D02*
X225223809Y-116578628D01*
X224985714Y-117054819D02*
X224985714Y-116054819D01*
X224985714Y-116054819D02*
X225366666Y-116054819D01*
X225366666Y-116054819D02*
X225461904Y-116102438D01*
X225461904Y-116102438D02*
X225509523Y-116150057D01*
X225509523Y-116150057D02*
X225557142Y-116245295D01*
X225557142Y-116245295D02*
X225557142Y-116388152D01*
X225557142Y-116388152D02*
X225509523Y-116483390D01*
X225509523Y-116483390D02*
X225461904Y-116531009D01*
X225461904Y-116531009D02*
X225366666Y-116578628D01*
X225366666Y-116578628D02*
X224985714Y-116578628D01*
X226509523Y-117054819D02*
X225938095Y-117054819D01*
X226223809Y-117054819D02*
X226223809Y-116054819D01*
X226223809Y-116054819D02*
X226128571Y-116197676D01*
X226128571Y-116197676D02*
X226033333Y-116292914D01*
X226033333Y-116292914D02*
X225938095Y-116340533D01*
X226842857Y-116054819D02*
X227461904Y-116054819D01*
X227461904Y-116054819D02*
X227128571Y-116435771D01*
X227128571Y-116435771D02*
X227271428Y-116435771D01*
X227271428Y-116435771D02*
X227366666Y-116483390D01*
X227366666Y-116483390D02*
X227414285Y-116531009D01*
X227414285Y-116531009D02*
X227461904Y-116626247D01*
X227461904Y-116626247D02*
X227461904Y-116864342D01*
X227461904Y-116864342D02*
X227414285Y-116959580D01*
X227414285Y-116959580D02*
X227366666Y-117007200D01*
X227366666Y-117007200D02*
X227271428Y-117054819D01*
X227271428Y-117054819D02*
X226985714Y-117054819D01*
X226985714Y-117054819D02*
X226890476Y-117007200D01*
X226890476Y-117007200D02*
X226842857Y-116959580D01*
X233425595Y-125754819D02*
X233425595Y-126564342D01*
X233425595Y-126564342D02*
X233473214Y-126659580D01*
X233473214Y-126659580D02*
X233520833Y-126707200D01*
X233520833Y-126707200D02*
X233616071Y-126754819D01*
X233616071Y-126754819D02*
X233806547Y-126754819D01*
X233806547Y-126754819D02*
X233901785Y-126707200D01*
X233901785Y-126707200D02*
X233949404Y-126659580D01*
X233949404Y-126659580D02*
X233997023Y-126564342D01*
X233997023Y-126564342D02*
X233997023Y-125754819D01*
X234377976Y-125754819D02*
X234997023Y-125754819D01*
X234997023Y-125754819D02*
X234663690Y-126135771D01*
X234663690Y-126135771D02*
X234806547Y-126135771D01*
X234806547Y-126135771D02*
X234901785Y-126183390D01*
X234901785Y-126183390D02*
X234949404Y-126231009D01*
X234949404Y-126231009D02*
X234997023Y-126326247D01*
X234997023Y-126326247D02*
X234997023Y-126564342D01*
X234997023Y-126564342D02*
X234949404Y-126659580D01*
X234949404Y-126659580D02*
X234901785Y-126707200D01*
X234901785Y-126707200D02*
X234806547Y-126754819D01*
X234806547Y-126754819D02*
X234520833Y-126754819D01*
X234520833Y-126754819D02*
X234425595Y-126707200D01*
X234425595Y-126707200D02*
X234377976Y-126659580D01*
X195033333Y-106647080D02*
X194985714Y-106694700D01*
X194985714Y-106694700D02*
X194842857Y-106742319D01*
X194842857Y-106742319D02*
X194747619Y-106742319D01*
X194747619Y-106742319D02*
X194604762Y-106694700D01*
X194604762Y-106694700D02*
X194509524Y-106599461D01*
X194509524Y-106599461D02*
X194461905Y-106504223D01*
X194461905Y-106504223D02*
X194414286Y-106313747D01*
X194414286Y-106313747D02*
X194414286Y-106170890D01*
X194414286Y-106170890D02*
X194461905Y-105980414D01*
X194461905Y-105980414D02*
X194509524Y-105885176D01*
X194509524Y-105885176D02*
X194604762Y-105789938D01*
X194604762Y-105789938D02*
X194747619Y-105742319D01*
X194747619Y-105742319D02*
X194842857Y-105742319D01*
X194842857Y-105742319D02*
X194985714Y-105789938D01*
X194985714Y-105789938D02*
X195033333Y-105837557D01*
X195985714Y-106742319D02*
X195414286Y-106742319D01*
X195700000Y-106742319D02*
X195700000Y-105742319D01*
X195700000Y-105742319D02*
X195604762Y-105885176D01*
X195604762Y-105885176D02*
X195509524Y-105980414D01*
X195509524Y-105980414D02*
X195414286Y-106028033D01*
D12*
X196349880Y-112444318D02*
X196349880Y-113472413D01*
X196349880Y-113472413D02*
X196410357Y-113593365D01*
X196410357Y-113593365D02*
X196470833Y-113653842D01*
X196470833Y-113653842D02*
X196591785Y-113714318D01*
X196591785Y-113714318D02*
X196833690Y-113714318D01*
X196833690Y-113714318D02*
X196954642Y-113653842D01*
X196954642Y-113653842D02*
X197015119Y-113593365D01*
X197015119Y-113593365D02*
X197075595Y-113472413D01*
X197075595Y-113472413D02*
X197075595Y-112444318D01*
X197619880Y-112565270D02*
X197680356Y-112504794D01*
X197680356Y-112504794D02*
X197801309Y-112444318D01*
X197801309Y-112444318D02*
X198103690Y-112444318D01*
X198103690Y-112444318D02*
X198224642Y-112504794D01*
X198224642Y-112504794D02*
X198285118Y-112565270D01*
X198285118Y-112565270D02*
X198345595Y-112686222D01*
X198345595Y-112686222D02*
X198345595Y-112807175D01*
X198345595Y-112807175D02*
X198285118Y-112988603D01*
X198285118Y-112988603D02*
X197559404Y-113714318D01*
X197559404Y-113714318D02*
X198345595Y-113714318D01*
D11*
X229242319Y-131038094D02*
X228242319Y-131038094D01*
X228242319Y-131038094D02*
X228242319Y-130799999D01*
X228242319Y-130799999D02*
X228289938Y-130657142D01*
X228289938Y-130657142D02*
X228385176Y-130561904D01*
X228385176Y-130561904D02*
X228480414Y-130514285D01*
X228480414Y-130514285D02*
X228670890Y-130466666D01*
X228670890Y-130466666D02*
X228813747Y-130466666D01*
X228813747Y-130466666D02*
X229004223Y-130514285D01*
X229004223Y-130514285D02*
X229099461Y-130561904D01*
X229099461Y-130561904D02*
X229194700Y-130657142D01*
X229194700Y-130657142D02*
X229242319Y-130799999D01*
X229242319Y-130799999D02*
X229242319Y-131038094D01*
X229242319Y-129514285D02*
X229242319Y-130085713D01*
X229242319Y-129799999D02*
X228242319Y-129799999D01*
X228242319Y-129799999D02*
X228385176Y-129895237D01*
X228385176Y-129895237D02*
X228480414Y-129990475D01*
X228480414Y-129990475D02*
X228528033Y-130085713D01*
X216657142Y-124854819D02*
X216323809Y-124378628D01*
X216085714Y-124854819D02*
X216085714Y-123854819D01*
X216085714Y-123854819D02*
X216466666Y-123854819D01*
X216466666Y-123854819D02*
X216561904Y-123902438D01*
X216561904Y-123902438D02*
X216609523Y-123950057D01*
X216609523Y-123950057D02*
X216657142Y-124045295D01*
X216657142Y-124045295D02*
X216657142Y-124188152D01*
X216657142Y-124188152D02*
X216609523Y-124283390D01*
X216609523Y-124283390D02*
X216561904Y-124331009D01*
X216561904Y-124331009D02*
X216466666Y-124378628D01*
X216466666Y-124378628D02*
X216085714Y-124378628D01*
X217609523Y-124854819D02*
X217038095Y-124854819D01*
X217323809Y-124854819D02*
X217323809Y-123854819D01*
X217323809Y-123854819D02*
X217228571Y-123997676D01*
X217228571Y-123997676D02*
X217133333Y-124092914D01*
X217133333Y-124092914D02*
X217038095Y-124140533D01*
X218180952Y-124283390D02*
X218085714Y-124235771D01*
X218085714Y-124235771D02*
X218038095Y-124188152D01*
X218038095Y-124188152D02*
X217990476Y-124092914D01*
X217990476Y-124092914D02*
X217990476Y-124045295D01*
X217990476Y-124045295D02*
X218038095Y-123950057D01*
X218038095Y-123950057D02*
X218085714Y-123902438D01*
X218085714Y-123902438D02*
X218180952Y-123854819D01*
X218180952Y-123854819D02*
X218371428Y-123854819D01*
X218371428Y-123854819D02*
X218466666Y-123902438D01*
X218466666Y-123902438D02*
X218514285Y-123950057D01*
X218514285Y-123950057D02*
X218561904Y-124045295D01*
X218561904Y-124045295D02*
X218561904Y-124092914D01*
X218561904Y-124092914D02*
X218514285Y-124188152D01*
X218514285Y-124188152D02*
X218466666Y-124235771D01*
X218466666Y-124235771D02*
X218371428Y-124283390D01*
X218371428Y-124283390D02*
X218180952Y-124283390D01*
X218180952Y-124283390D02*
X218085714Y-124331009D01*
X218085714Y-124331009D02*
X218038095Y-124378628D01*
X218038095Y-124378628D02*
X217990476Y-124473866D01*
X217990476Y-124473866D02*
X217990476Y-124664342D01*
X217990476Y-124664342D02*
X218038095Y-124759580D01*
X218038095Y-124759580D02*
X218085714Y-124807200D01*
X218085714Y-124807200D02*
X218180952Y-124854819D01*
X218180952Y-124854819D02*
X218371428Y-124854819D01*
X218371428Y-124854819D02*
X218466666Y-124807200D01*
X218466666Y-124807200D02*
X218514285Y-124759580D01*
X218514285Y-124759580D02*
X218561904Y-124664342D01*
X218561904Y-124664342D02*
X218561904Y-124473866D01*
X218561904Y-124473866D02*
X218514285Y-124378628D01*
X218514285Y-124378628D02*
X218466666Y-124331009D01*
X218466666Y-124331009D02*
X218371428Y-124283390D01*
X189775595Y-104342319D02*
X189775595Y-105151842D01*
X189775595Y-105151842D02*
X189823214Y-105247080D01*
X189823214Y-105247080D02*
X189870833Y-105294700D01*
X189870833Y-105294700D02*
X189966071Y-105342319D01*
X189966071Y-105342319D02*
X190156547Y-105342319D01*
X190156547Y-105342319D02*
X190251785Y-105294700D01*
X190251785Y-105294700D02*
X190299404Y-105247080D01*
X190299404Y-105247080D02*
X190347023Y-105151842D01*
X190347023Y-105151842D02*
X190347023Y-104342319D01*
X191347023Y-105342319D02*
X190775595Y-105342319D01*
X191061309Y-105342319D02*
X191061309Y-104342319D01*
X191061309Y-104342319D02*
X190966071Y-104485176D01*
X190966071Y-104485176D02*
X190870833Y-104580414D01*
X190870833Y-104580414D02*
X190775595Y-104628033D01*
X184033333Y-108854819D02*
X183700000Y-108378628D01*
X183461905Y-108854819D02*
X183461905Y-107854819D01*
X183461905Y-107854819D02*
X183842857Y-107854819D01*
X183842857Y-107854819D02*
X183938095Y-107902438D01*
X183938095Y-107902438D02*
X183985714Y-107950057D01*
X183985714Y-107950057D02*
X184033333Y-108045295D01*
X184033333Y-108045295D02*
X184033333Y-108188152D01*
X184033333Y-108188152D02*
X183985714Y-108283390D01*
X183985714Y-108283390D02*
X183938095Y-108331009D01*
X183938095Y-108331009D02*
X183842857Y-108378628D01*
X183842857Y-108378628D02*
X183461905Y-108378628D01*
X184366667Y-107854819D02*
X184985714Y-107854819D01*
X184985714Y-107854819D02*
X184652381Y-108235771D01*
X184652381Y-108235771D02*
X184795238Y-108235771D01*
X184795238Y-108235771D02*
X184890476Y-108283390D01*
X184890476Y-108283390D02*
X184938095Y-108331009D01*
X184938095Y-108331009D02*
X184985714Y-108426247D01*
X184985714Y-108426247D02*
X184985714Y-108664342D01*
X184985714Y-108664342D02*
X184938095Y-108759580D01*
X184938095Y-108759580D02*
X184890476Y-108807200D01*
X184890476Y-108807200D02*
X184795238Y-108854819D01*
X184795238Y-108854819D02*
X184509524Y-108854819D01*
X184509524Y-108854819D02*
X184414286Y-108807200D01*
X184414286Y-108807200D02*
X184366667Y-108759580D01*
X215359580Y-109042857D02*
X215407200Y-109090476D01*
X215407200Y-109090476D02*
X215454819Y-109233333D01*
X215454819Y-109233333D02*
X215454819Y-109328571D01*
X215454819Y-109328571D02*
X215407200Y-109471428D01*
X215407200Y-109471428D02*
X215311961Y-109566666D01*
X215311961Y-109566666D02*
X215216723Y-109614285D01*
X215216723Y-109614285D02*
X215026247Y-109661904D01*
X215026247Y-109661904D02*
X214883390Y-109661904D01*
X214883390Y-109661904D02*
X214692914Y-109614285D01*
X214692914Y-109614285D02*
X214597676Y-109566666D01*
X214597676Y-109566666D02*
X214502438Y-109471428D01*
X214502438Y-109471428D02*
X214454819Y-109328571D01*
X214454819Y-109328571D02*
X214454819Y-109233333D01*
X214454819Y-109233333D02*
X214502438Y-109090476D01*
X214502438Y-109090476D02*
X214550057Y-109042857D01*
X215454819Y-108090476D02*
X215454819Y-108661904D01*
X215454819Y-108376190D02*
X214454819Y-108376190D01*
X214454819Y-108376190D02*
X214597676Y-108471428D01*
X214597676Y-108471428D02*
X214692914Y-108566666D01*
X214692914Y-108566666D02*
X214740533Y-108661904D01*
X214454819Y-107757142D02*
X214454819Y-107090476D01*
X214454819Y-107090476D02*
X215454819Y-107519047D01*
X230054819Y-113522857D02*
X229578628Y-113856190D01*
X230054819Y-114094285D02*
X229054819Y-114094285D01*
X229054819Y-114094285D02*
X229054819Y-113713333D01*
X229054819Y-113713333D02*
X229102438Y-113618095D01*
X229102438Y-113618095D02*
X229150057Y-113570476D01*
X229150057Y-113570476D02*
X229245295Y-113522857D01*
X229245295Y-113522857D02*
X229388152Y-113522857D01*
X229388152Y-113522857D02*
X229483390Y-113570476D01*
X229483390Y-113570476D02*
X229531009Y-113618095D01*
X229531009Y-113618095D02*
X229578628Y-113713333D01*
X229578628Y-113713333D02*
X229578628Y-114094285D01*
X230054819Y-112570476D02*
X230054819Y-113141904D01*
X230054819Y-112856190D02*
X229054819Y-112856190D01*
X229054819Y-112856190D02*
X229197676Y-112951428D01*
X229197676Y-112951428D02*
X229292914Y-113046666D01*
X229292914Y-113046666D02*
X229340533Y-113141904D01*
X229054819Y-111665714D02*
X229054819Y-112141904D01*
X229054819Y-112141904D02*
X229531009Y-112189523D01*
X229531009Y-112189523D02*
X229483390Y-112141904D01*
X229483390Y-112141904D02*
X229435771Y-112046666D01*
X229435771Y-112046666D02*
X229435771Y-111808571D01*
X229435771Y-111808571D02*
X229483390Y-111713333D01*
X229483390Y-111713333D02*
X229531009Y-111665714D01*
X229531009Y-111665714D02*
X229626247Y-111618095D01*
X229626247Y-111618095D02*
X229864342Y-111618095D01*
X229864342Y-111618095D02*
X229959580Y-111665714D01*
X229959580Y-111665714D02*
X230007200Y-111713333D01*
X230007200Y-111713333D02*
X230054819Y-111808571D01*
X230054819Y-111808571D02*
X230054819Y-112046666D01*
X230054819Y-112046666D02*
X230007200Y-112141904D01*
X230007200Y-112141904D02*
X229959580Y-112189523D01*
X194633333Y-113159580D02*
X194585714Y-113207200D01*
X194585714Y-113207200D02*
X194442857Y-113254819D01*
X194442857Y-113254819D02*
X194347619Y-113254819D01*
X194347619Y-113254819D02*
X194204762Y-113207200D01*
X194204762Y-113207200D02*
X194109524Y-113111961D01*
X194109524Y-113111961D02*
X194061905Y-113016723D01*
X194061905Y-113016723D02*
X194014286Y-112826247D01*
X194014286Y-112826247D02*
X194014286Y-112683390D01*
X194014286Y-112683390D02*
X194061905Y-112492914D01*
X194061905Y-112492914D02*
X194109524Y-112397676D01*
X194109524Y-112397676D02*
X194204762Y-112302438D01*
X194204762Y-112302438D02*
X194347619Y-112254819D01*
X194347619Y-112254819D02*
X194442857Y-112254819D01*
X194442857Y-112254819D02*
X194585714Y-112302438D01*
X194585714Y-112302438D02*
X194633333Y-112350057D01*
X195490476Y-112588152D02*
X195490476Y-113254819D01*
X195252381Y-112207200D02*
X195014286Y-112921485D01*
X195014286Y-112921485D02*
X195633333Y-112921485D01*
X236757142Y-117154819D02*
X236423809Y-116678628D01*
X236185714Y-117154819D02*
X236185714Y-116154819D01*
X236185714Y-116154819D02*
X236566666Y-116154819D01*
X236566666Y-116154819D02*
X236661904Y-116202438D01*
X236661904Y-116202438D02*
X236709523Y-116250057D01*
X236709523Y-116250057D02*
X236757142Y-116345295D01*
X236757142Y-116345295D02*
X236757142Y-116488152D01*
X236757142Y-116488152D02*
X236709523Y-116583390D01*
X236709523Y-116583390D02*
X236661904Y-116631009D01*
X236661904Y-116631009D02*
X236566666Y-116678628D01*
X236566666Y-116678628D02*
X236185714Y-116678628D01*
X237709523Y-117154819D02*
X237138095Y-117154819D01*
X237423809Y-117154819D02*
X237423809Y-116154819D01*
X237423809Y-116154819D02*
X237328571Y-116297676D01*
X237328571Y-116297676D02*
X237233333Y-116392914D01*
X237233333Y-116392914D02*
X237138095Y-116440533D01*
X238090476Y-116250057D02*
X238138095Y-116202438D01*
X238138095Y-116202438D02*
X238233333Y-116154819D01*
X238233333Y-116154819D02*
X238471428Y-116154819D01*
X238471428Y-116154819D02*
X238566666Y-116202438D01*
X238566666Y-116202438D02*
X238614285Y-116250057D01*
X238614285Y-116250057D02*
X238661904Y-116345295D01*
X238661904Y-116345295D02*
X238661904Y-116440533D01*
X238661904Y-116440533D02*
X238614285Y-116583390D01*
X238614285Y-116583390D02*
X238042857Y-117154819D01*
X238042857Y-117154819D02*
X238661904Y-117154819D01*
X216502142Y-122359580D02*
X216454523Y-122407200D01*
X216454523Y-122407200D02*
X216311666Y-122454819D01*
X216311666Y-122454819D02*
X216216428Y-122454819D01*
X216216428Y-122454819D02*
X216073571Y-122407200D01*
X216073571Y-122407200D02*
X215978333Y-122311961D01*
X215978333Y-122311961D02*
X215930714Y-122216723D01*
X215930714Y-122216723D02*
X215883095Y-122026247D01*
X215883095Y-122026247D02*
X215883095Y-121883390D01*
X215883095Y-121883390D02*
X215930714Y-121692914D01*
X215930714Y-121692914D02*
X215978333Y-121597676D01*
X215978333Y-121597676D02*
X216073571Y-121502438D01*
X216073571Y-121502438D02*
X216216428Y-121454819D01*
X216216428Y-121454819D02*
X216311666Y-121454819D01*
X216311666Y-121454819D02*
X216454523Y-121502438D01*
X216454523Y-121502438D02*
X216502142Y-121550057D01*
X217454523Y-122454819D02*
X216883095Y-122454819D01*
X217168809Y-122454819D02*
X217168809Y-121454819D01*
X217168809Y-121454819D02*
X217073571Y-121597676D01*
X217073571Y-121597676D02*
X216978333Y-121692914D01*
X216978333Y-121692914D02*
X216883095Y-121740533D01*
X217930714Y-122454819D02*
X218121190Y-122454819D01*
X218121190Y-122454819D02*
X218216428Y-122407200D01*
X218216428Y-122407200D02*
X218264047Y-122359580D01*
X218264047Y-122359580D02*
X218359285Y-122216723D01*
X218359285Y-122216723D02*
X218406904Y-122026247D01*
X218406904Y-122026247D02*
X218406904Y-121645295D01*
X218406904Y-121645295D02*
X218359285Y-121550057D01*
X218359285Y-121550057D02*
X218311666Y-121502438D01*
X218311666Y-121502438D02*
X218216428Y-121454819D01*
X218216428Y-121454819D02*
X218025952Y-121454819D01*
X218025952Y-121454819D02*
X217930714Y-121502438D01*
X217930714Y-121502438D02*
X217883095Y-121550057D01*
X217883095Y-121550057D02*
X217835476Y-121645295D01*
X217835476Y-121645295D02*
X217835476Y-121883390D01*
X217835476Y-121883390D02*
X217883095Y-121978628D01*
X217883095Y-121978628D02*
X217930714Y-122026247D01*
X217930714Y-122026247D02*
X218025952Y-122073866D01*
X218025952Y-122073866D02*
X218216428Y-122073866D01*
X218216428Y-122073866D02*
X218311666Y-122026247D01*
X218311666Y-122026247D02*
X218359285Y-121978628D01*
X218359285Y-121978628D02*
X218406904Y-121883390D01*
X199633333Y-120504819D02*
X199300000Y-120028628D01*
X199061905Y-120504819D02*
X199061905Y-119504819D01*
X199061905Y-119504819D02*
X199442857Y-119504819D01*
X199442857Y-119504819D02*
X199538095Y-119552438D01*
X199538095Y-119552438D02*
X199585714Y-119600057D01*
X199585714Y-119600057D02*
X199633333Y-119695295D01*
X199633333Y-119695295D02*
X199633333Y-119838152D01*
X199633333Y-119838152D02*
X199585714Y-119933390D01*
X199585714Y-119933390D02*
X199538095Y-119981009D01*
X199538095Y-119981009D02*
X199442857Y-120028628D01*
X199442857Y-120028628D02*
X199061905Y-120028628D01*
X199966667Y-119504819D02*
X200633333Y-119504819D01*
X200633333Y-119504819D02*
X200204762Y-120504819D01*
X192957142Y-127854819D02*
X192623809Y-127378628D01*
X192385714Y-127854819D02*
X192385714Y-126854819D01*
X192385714Y-126854819D02*
X192766666Y-126854819D01*
X192766666Y-126854819D02*
X192861904Y-126902438D01*
X192861904Y-126902438D02*
X192909523Y-126950057D01*
X192909523Y-126950057D02*
X192957142Y-127045295D01*
X192957142Y-127045295D02*
X192957142Y-127188152D01*
X192957142Y-127188152D02*
X192909523Y-127283390D01*
X192909523Y-127283390D02*
X192861904Y-127331009D01*
X192861904Y-127331009D02*
X192766666Y-127378628D01*
X192766666Y-127378628D02*
X192385714Y-127378628D01*
X193909523Y-127854819D02*
X193338095Y-127854819D01*
X193623809Y-127854819D02*
X193623809Y-126854819D01*
X193623809Y-126854819D02*
X193528571Y-126997676D01*
X193528571Y-126997676D02*
X193433333Y-127092914D01*
X193433333Y-127092914D02*
X193338095Y-127140533D01*
X194861904Y-127854819D02*
X194290476Y-127854819D01*
X194576190Y-127854819D02*
X194576190Y-126854819D01*
X194576190Y-126854819D02*
X194480952Y-126997676D01*
X194480952Y-126997676D02*
X194385714Y-127092914D01*
X194385714Y-127092914D02*
X194290476Y-127140533D01*
X192033333Y-113159580D02*
X191985714Y-113207200D01*
X191985714Y-113207200D02*
X191842857Y-113254819D01*
X191842857Y-113254819D02*
X191747619Y-113254819D01*
X191747619Y-113254819D02*
X191604762Y-113207200D01*
X191604762Y-113207200D02*
X191509524Y-113111961D01*
X191509524Y-113111961D02*
X191461905Y-113016723D01*
X191461905Y-113016723D02*
X191414286Y-112826247D01*
X191414286Y-112826247D02*
X191414286Y-112683390D01*
X191414286Y-112683390D02*
X191461905Y-112492914D01*
X191461905Y-112492914D02*
X191509524Y-112397676D01*
X191509524Y-112397676D02*
X191604762Y-112302438D01*
X191604762Y-112302438D02*
X191747619Y-112254819D01*
X191747619Y-112254819D02*
X191842857Y-112254819D01*
X191842857Y-112254819D02*
X191985714Y-112302438D01*
X191985714Y-112302438D02*
X192033333Y-112350057D01*
X192366667Y-112254819D02*
X192985714Y-112254819D01*
X192985714Y-112254819D02*
X192652381Y-112635771D01*
X192652381Y-112635771D02*
X192795238Y-112635771D01*
X192795238Y-112635771D02*
X192890476Y-112683390D01*
X192890476Y-112683390D02*
X192938095Y-112731009D01*
X192938095Y-112731009D02*
X192985714Y-112826247D01*
X192985714Y-112826247D02*
X192985714Y-113064342D01*
X192985714Y-113064342D02*
X192938095Y-113159580D01*
X192938095Y-113159580D02*
X192890476Y-113207200D01*
X192890476Y-113207200D02*
X192795238Y-113254819D01*
X192795238Y-113254819D02*
X192509524Y-113254819D01*
X192509524Y-113254819D02*
X192414286Y-113207200D01*
X192414286Y-113207200D02*
X192366667Y-113159580D01*
X193670833Y-102292319D02*
X193194643Y-102292319D01*
X193194643Y-102292319D02*
X193194643Y-101292319D01*
X194527976Y-102292319D02*
X193956548Y-102292319D01*
X194242262Y-102292319D02*
X194242262Y-101292319D01*
X194242262Y-101292319D02*
X194147024Y-101435176D01*
X194147024Y-101435176D02*
X194051786Y-101530414D01*
X194051786Y-101530414D02*
X193956548Y-101578033D01*
X231642319Y-130666666D02*
X231166128Y-130999999D01*
X231642319Y-131238094D02*
X230642319Y-131238094D01*
X230642319Y-131238094D02*
X230642319Y-130857142D01*
X230642319Y-130857142D02*
X230689938Y-130761904D01*
X230689938Y-130761904D02*
X230737557Y-130714285D01*
X230737557Y-130714285D02*
X230832795Y-130666666D01*
X230832795Y-130666666D02*
X230975652Y-130666666D01*
X230975652Y-130666666D02*
X231070890Y-130714285D01*
X231070890Y-130714285D02*
X231118509Y-130761904D01*
X231118509Y-130761904D02*
X231166128Y-130857142D01*
X231166128Y-130857142D02*
X231166128Y-131238094D01*
X230642319Y-129761904D02*
X230642319Y-130238094D01*
X230642319Y-130238094D02*
X231118509Y-130285713D01*
X231118509Y-130285713D02*
X231070890Y-130238094D01*
X231070890Y-130238094D02*
X231023271Y-130142856D01*
X231023271Y-130142856D02*
X231023271Y-129904761D01*
X231023271Y-129904761D02*
X231070890Y-129809523D01*
X231070890Y-129809523D02*
X231118509Y-129761904D01*
X231118509Y-129761904D02*
X231213747Y-129714285D01*
X231213747Y-129714285D02*
X231451842Y-129714285D01*
X231451842Y-129714285D02*
X231547080Y-129761904D01*
X231547080Y-129761904D02*
X231594700Y-129809523D01*
X231594700Y-129809523D02*
X231642319Y-129904761D01*
X231642319Y-129904761D02*
X231642319Y-130142856D01*
X231642319Y-130142856D02*
X231594700Y-130238094D01*
X231594700Y-130238094D02*
X231547080Y-130285713D01*
X188570833Y-111142319D02*
X188237500Y-110666128D01*
X187999405Y-111142319D02*
X187999405Y-110142319D01*
X187999405Y-110142319D02*
X188380357Y-110142319D01*
X188380357Y-110142319D02*
X188475595Y-110189938D01*
X188475595Y-110189938D02*
X188523214Y-110237557D01*
X188523214Y-110237557D02*
X188570833Y-110332795D01*
X188570833Y-110332795D02*
X188570833Y-110475652D01*
X188570833Y-110475652D02*
X188523214Y-110570890D01*
X188523214Y-110570890D02*
X188475595Y-110618509D01*
X188475595Y-110618509D02*
X188380357Y-110666128D01*
X188380357Y-110666128D02*
X187999405Y-110666128D01*
X188951786Y-110237557D02*
X188999405Y-110189938D01*
X188999405Y-110189938D02*
X189094643Y-110142319D01*
X189094643Y-110142319D02*
X189332738Y-110142319D01*
X189332738Y-110142319D02*
X189427976Y-110189938D01*
X189427976Y-110189938D02*
X189475595Y-110237557D01*
X189475595Y-110237557D02*
X189523214Y-110332795D01*
X189523214Y-110332795D02*
X189523214Y-110428033D01*
X189523214Y-110428033D02*
X189475595Y-110570890D01*
X189475595Y-110570890D02*
X188904167Y-111142319D01*
X188904167Y-111142319D02*
X189523214Y-111142319D01*
X202783333Y-116259580D02*
X202735714Y-116307200D01*
X202735714Y-116307200D02*
X202592857Y-116354819D01*
X202592857Y-116354819D02*
X202497619Y-116354819D01*
X202497619Y-116354819D02*
X202354762Y-116307200D01*
X202354762Y-116307200D02*
X202259524Y-116211961D01*
X202259524Y-116211961D02*
X202211905Y-116116723D01*
X202211905Y-116116723D02*
X202164286Y-115926247D01*
X202164286Y-115926247D02*
X202164286Y-115783390D01*
X202164286Y-115783390D02*
X202211905Y-115592914D01*
X202211905Y-115592914D02*
X202259524Y-115497676D01*
X202259524Y-115497676D02*
X202354762Y-115402438D01*
X202354762Y-115402438D02*
X202497619Y-115354819D01*
X202497619Y-115354819D02*
X202592857Y-115354819D01*
X202592857Y-115354819D02*
X202735714Y-115402438D01*
X202735714Y-115402438D02*
X202783333Y-115450057D01*
X203688095Y-115354819D02*
X203211905Y-115354819D01*
X203211905Y-115354819D02*
X203164286Y-115831009D01*
X203164286Y-115831009D02*
X203211905Y-115783390D01*
X203211905Y-115783390D02*
X203307143Y-115735771D01*
X203307143Y-115735771D02*
X203545238Y-115735771D01*
X203545238Y-115735771D02*
X203640476Y-115783390D01*
X203640476Y-115783390D02*
X203688095Y-115831009D01*
X203688095Y-115831009D02*
X203735714Y-115926247D01*
X203735714Y-115926247D02*
X203735714Y-116164342D01*
X203735714Y-116164342D02*
X203688095Y-116259580D01*
X203688095Y-116259580D02*
X203640476Y-116307200D01*
X203640476Y-116307200D02*
X203545238Y-116354819D01*
X203545238Y-116354819D02*
X203307143Y-116354819D01*
X203307143Y-116354819D02*
X203211905Y-116307200D01*
X203211905Y-116307200D02*
X203164286Y-116259580D01*
D13*
%TO.C,C9*%
X225361252Y-129665000D02*
X224838748Y-129665000D01*
X225361252Y-131135000D02*
X224838748Y-131135000D01*
%TO.C,C13*%
X225361252Y-119965000D02*
X224838748Y-119965000D01*
X225361252Y-121435000D02*
X224838748Y-121435000D01*
%TO.C,J3*%
X236720000Y-118500000D02*
X238100000Y-118500000D01*
X236720000Y-119880000D02*
X236720000Y-118500000D01*
X236720000Y-121150000D02*
X236720000Y-131420000D01*
X236720000Y-121150000D02*
X239480000Y-121150000D01*
X236720000Y-131420000D02*
X239480000Y-131420000D01*
X239480000Y-121150000D02*
X239480000Y-131420000D01*
%TO.C,L2*%
X202050000Y-108700000D02*
X207150000Y-108700000D01*
X202050000Y-113900000D02*
X207150000Y-113900000D01*
%TO.C,R8*%
X197412258Y-121277500D02*
X196937742Y-121277500D01*
X197412258Y-122322500D02*
X196937742Y-122322500D01*
%TO.C,R10*%
X197437258Y-124877500D02*
X196962742Y-124877500D01*
X197437258Y-125922500D02*
X196962742Y-125922500D01*
%TO.C,R17*%
X224707064Y-103665000D02*
X224252936Y-103665000D01*
X224707064Y-105135000D02*
X224252936Y-105135000D01*
%TO.C,C2*%
X189165000Y-115188748D02*
X189165000Y-115711252D01*
X190635000Y-115188748D02*
X190635000Y-115711252D01*
%TO.C,C20*%
X211765000Y-118538748D02*
X211765000Y-119061252D01*
X213235000Y-118538748D02*
X213235000Y-119061252D01*
%TO.C,C16*%
X211465000Y-112361252D02*
X211465000Y-111838748D01*
X212935000Y-112361252D02*
X212935000Y-111838748D01*
%TO.C,C15*%
X208865000Y-112361252D02*
X208865000Y-111838748D01*
X210335000Y-112361252D02*
X210335000Y-111838748D01*
%TO.C,C6*%
X187465000Y-105061252D02*
X187465000Y-104538748D01*
X188935000Y-105061252D02*
X188935000Y-104538748D01*
%TO.C,R16*%
X213927064Y-126065000D02*
X213472936Y-126065000D01*
X213927064Y-127535000D02*
X213472936Y-127535000D01*
%TO.C,C12*%
X225361252Y-122365000D02*
X224838748Y-122365000D01*
X225361252Y-123835000D02*
X224838748Y-123835000D01*
%TO.C,C18*%
X209365000Y-118538748D02*
X209365000Y-119061252D01*
X210835000Y-118538748D02*
X210835000Y-119061252D01*
%TO.C,C11*%
X225361252Y-124765000D02*
X224838748Y-124765000D01*
X225361252Y-126235000D02*
X224838748Y-126235000D01*
%TO.C,C14*%
X216665000Y-112361252D02*
X216665000Y-111838748D01*
X218135000Y-112361252D02*
X218135000Y-111838748D01*
%TO.C,R1*%
X193737258Y-119477500D02*
X193262742Y-119477500D01*
X193737258Y-120522500D02*
X193262742Y-120522500D01*
%TO.C,J2*%
X174822500Y-111745000D02*
X174822500Y-120365000D01*
X174822500Y-120365000D02*
X184242500Y-120365000D01*
X178132500Y-111745000D02*
X178132500Y-120365000D01*
X184242500Y-111745000D02*
X174822500Y-111745000D01*
X184242500Y-111745000D02*
X184242500Y-113255000D01*
X184242500Y-115355000D02*
X184242500Y-116755000D01*
X184242500Y-120365000D02*
X184242500Y-118855000D01*
X184932500Y-114305000D02*
X185532500Y-114005000D01*
X185532500Y-114005000D02*
X185532500Y-114605000D01*
X185532500Y-114605000D02*
X184932500Y-114305000D01*
%TO.C,U4*%
X207290000Y-121590000D02*
X207765000Y-121590000D01*
X207290000Y-122065000D02*
X207290000Y-121590000D01*
X207290000Y-124335000D02*
X207290000Y-124810000D01*
X207290000Y-124810000D02*
X207765000Y-124810000D01*
X210035000Y-121590000D02*
X210270000Y-121590000D01*
X210510000Y-122065000D02*
X210510000Y-121890000D01*
X210510000Y-124335000D02*
X210510000Y-124810000D01*
X210510000Y-124810000D02*
X210035000Y-124810000D01*
X210840000Y-121830000D02*
X210510000Y-121590000D01*
X210840000Y-121350000D01*
X210840000Y-121830000D01*
G36*
X210840000Y-121830000D02*
G01*
X210510000Y-121590000D01*
X210840000Y-121350000D01*
X210840000Y-121830000D01*
G37*
%TO.C,C10*%
X225361252Y-127165000D02*
X224838748Y-127165000D01*
X225361252Y-128635000D02*
X224838748Y-128635000D01*
%TO.C,Q1*%
X222665000Y-110910000D02*
X222665000Y-114450000D01*
X222665000Y-110910000D02*
X223035000Y-110910000D01*
X222665000Y-114450000D02*
X223035000Y-114450000D01*
X226205000Y-114450000D02*
X225835000Y-114450000D01*
X226205000Y-114450000D02*
X226205000Y-111240000D01*
X226365000Y-110920000D02*
X225885000Y-110920000D01*
X225885000Y-110440000D01*
X226365000Y-110920000D01*
G36*
X226365000Y-110920000D02*
G01*
X225885000Y-110920000D01*
X225885000Y-110440000D01*
X226365000Y-110920000D01*
G37*
D14*
%TO.C,J4*%
X233800000Y-111050000D02*
X233800000Y-112180000D01*
X233800000Y-112180000D02*
X234275000Y-112180000D01*
X236600000Y-103520000D02*
X236200000Y-103520000D01*
X236600000Y-104650000D02*
X236600000Y-103520000D01*
D10*
X237000000Y-110650000D02*
X237000000Y-110650000D01*
X237000000Y-110750000D02*
X237000000Y-110750000D01*
X237000000Y-110650000D02*
G75*
G02*
X237000000Y-110750000I0J-50000D01*
G01*
X237000000Y-110750000D02*
G75*
G02*
X237000000Y-110650000I0J50000D01*
G01*
D13*
%TO.C,R14*%
X205765000Y-127572936D02*
X205765000Y-128027064D01*
X207235000Y-127572936D02*
X207235000Y-128027064D01*
%TO.C,Q3*%
X225210000Y-109805000D02*
X225210000Y-109435000D01*
X225210000Y-109805000D02*
X228750000Y-109805000D01*
X228750000Y-106265000D02*
X225540000Y-106265000D01*
X228750000Y-106265000D02*
X228750000Y-106635000D01*
X228750000Y-109805000D02*
X228750000Y-109435000D01*
X225220000Y-106585000D02*
X224740000Y-106585000D01*
X225220000Y-106105000D01*
X225220000Y-106585000D01*
G36*
X225220000Y-106585000D02*
G01*
X224740000Y-106585000D01*
X225220000Y-106105000D01*
X225220000Y-106585000D01*
G37*
%TO.C,R9*%
X197412258Y-123077500D02*
X196937742Y-123077500D01*
X197412258Y-124122500D02*
X196937742Y-124122500D01*
%TO.C,C7*%
X196902500Y-107848752D02*
X196902500Y-107326248D01*
X198372500Y-107848752D02*
X198372500Y-107326248D01*
%TO.C,R6*%
X201012258Y-121277500D02*
X200537742Y-121277500D01*
X201012258Y-122322500D02*
X200537742Y-122322500D01*
%TO.C,R4*%
X202700242Y-118727500D02*
X203174758Y-118727500D01*
X202700242Y-119772500D02*
X203174758Y-119772500D01*
%TO.C,Q2*%
X220210000Y-106255000D02*
X220210000Y-106625000D01*
X220210000Y-109795000D02*
X220210000Y-109425000D01*
X220210000Y-109795000D02*
X223420000Y-109795000D01*
X223750000Y-106255000D02*
X220210000Y-106255000D01*
X223750000Y-106255000D02*
X223750000Y-106625000D01*
X223740000Y-109955000D02*
X223740000Y-109475000D01*
X224220000Y-109475000D01*
X223740000Y-109955000D01*
G36*
X223740000Y-109955000D02*
G01*
X223740000Y-109475000D01*
X224220000Y-109475000D01*
X223740000Y-109955000D01*
G37*
%TO.C,C8*%
X199390000Y-112109420D02*
X199390000Y-112390580D01*
X200410000Y-112109420D02*
X200410000Y-112390580D01*
%TO.C,R13*%
X229927064Y-115865000D02*
X229472936Y-115865000D01*
X229927064Y-117335000D02*
X229472936Y-117335000D01*
%TO.C,U3*%
X231587500Y-118115000D02*
X229387500Y-118115000D01*
X231587500Y-118115000D02*
X233787500Y-118115000D01*
X231587500Y-124885000D02*
X229387500Y-124885000D01*
X231587500Y-124885000D02*
X233787500Y-124885000D01*
X227727500Y-118575000D02*
X227397500Y-118815000D01*
X227397500Y-118335000D01*
X227727500Y-118575000D01*
G36*
X227727500Y-118575000D02*
G01*
X227397500Y-118815000D01*
X227397500Y-118335000D01*
X227727500Y-118575000D01*
G37*
%TO.C,C1*%
X194465000Y-108776248D02*
X194465000Y-109298752D01*
X195935000Y-108776248D02*
X195935000Y-109298752D01*
D10*
%TO.C,U2*%
X197037500Y-115010000D02*
X197287500Y-115010000D01*
X197037500Y-116010000D02*
X197037500Y-116260000D01*
X197037500Y-118010000D02*
X197037500Y-117760000D01*
X197137500Y-118010000D02*
X197037500Y-118010000D01*
X197287500Y-118010000D02*
X197137500Y-118010000D01*
X197787500Y-118510000D02*
X197787500Y-118510000D01*
X197787500Y-118610000D02*
X197787500Y-118610000D01*
X199787500Y-118010000D02*
X200037500Y-118010000D01*
X200037500Y-115010000D02*
X199387500Y-115010000D01*
X200037500Y-117010000D02*
X200037500Y-116510000D01*
X200037500Y-118010000D02*
X200037500Y-117760000D01*
X197787500Y-118510000D02*
G75*
G02*
X197787500Y-118610000I0J-50000D01*
G01*
X197787500Y-118610000D02*
G75*
G02*
X197787500Y-118510000I0J50000D01*
G01*
D13*
%TO.C,D1*%
X227827500Y-126362500D02*
X227827500Y-129047500D01*
X227827500Y-129047500D02*
X229747500Y-129047500D01*
X229747500Y-129047500D02*
X229747500Y-126362500D01*
%TO.C,R18*%
X213927064Y-123665000D02*
X213472936Y-123665000D01*
X213927064Y-125135000D02*
X213472936Y-125135000D01*
%TO.C,U1*%
X191600000Y-105877500D02*
X190800000Y-105877500D01*
X191600000Y-105877500D02*
X192400000Y-105877500D01*
X191600000Y-108997500D02*
X190800000Y-108997500D01*
X191600000Y-108997500D02*
X192400000Y-108997500D01*
X190300000Y-105927500D02*
X190060000Y-105597500D01*
X190540000Y-105597500D01*
X190300000Y-105927500D01*
G36*
X190300000Y-105927500D02*
G01*
X190060000Y-105597500D01*
X190540000Y-105597500D01*
X190300000Y-105927500D01*
G37*
%TO.C,R3*%
X187427064Y-107665000D02*
X186972936Y-107665000D01*
X187427064Y-109135000D02*
X186972936Y-109135000D01*
%TO.C,C17*%
X214065000Y-112361252D02*
X214065000Y-111838748D01*
X215535000Y-112361252D02*
X215535000Y-111838748D01*
%TO.C,R15*%
X226925000Y-113107064D02*
X226925000Y-112652936D01*
X228395000Y-113107064D02*
X228395000Y-112652936D01*
%TO.C,C4*%
X194002500Y-115188748D02*
X194002500Y-115711252D01*
X195472500Y-115188748D02*
X195472500Y-115711252D01*
%TO.C,R12*%
X233572936Y-115865000D02*
X234027064Y-115865000D01*
X233572936Y-117335000D02*
X234027064Y-117335000D01*
%TO.C,C19*%
X213961252Y-121265000D02*
X213438748Y-121265000D01*
X213961252Y-122735000D02*
X213438748Y-122735000D01*
%TO.C,R7*%
X197374758Y-119527500D02*
X196900242Y-119527500D01*
X197374758Y-120572500D02*
X196900242Y-120572500D01*
%TO.C,R11*%
X197437258Y-126877500D02*
X196962742Y-126877500D01*
X197437258Y-127922500D02*
X196962742Y-127922500D01*
%TO.C,C3*%
X191602500Y-115188748D02*
X191602500Y-115711252D01*
X193072500Y-115188748D02*
X193072500Y-115711252D01*
%TO.C,L1*%
X193576248Y-102777500D02*
X194098752Y-102777500D01*
X193576248Y-104997500D02*
X194098752Y-104997500D01*
%TO.C,R5*%
X230452500Y-127727064D02*
X230452500Y-127272936D01*
X231922500Y-127727064D02*
X231922500Y-127272936D01*
%TO.C,R2*%
X191964564Y-109952500D02*
X191510436Y-109952500D01*
X191964564Y-111422500D02*
X191510436Y-111422500D01*
%TO.C,C5*%
X202796920Y-116940000D02*
X203078080Y-116940000D01*
X202796920Y-117960000D02*
X203078080Y-117960000D01*
%TD*%
M02*
