%TF.GenerationSoftware,KiCad,Pcbnew,9.0.4*%
%TF.CreationDate,2026-06-19T10:04:36+02:00*%
%TF.ProjectId,usb_c_pd_source,7573625f-635f-4706-945f-736f75726365,rev?*%
%TF.SameCoordinates,Original*%
%TF.FileFunction,Soldermask,Bot*%
%TF.FilePolarity,Negative*%
%FSLAX46Y46*%
G04 Gerber Fmt 4.6, Leading zero omitted, Abs format (unit mm)*
G04 Created by KiCad (PCBNEW 9.0.4) date 2026-06-19 10:04:36*
%MOMM*%
%LPD*%
G01*
G04 APERTURE LIST*
G04 Aperture macros list*
%AMRoundRect*
0 Rectangle with rounded corners*
0 $1 Rounding radius*
0 $2 $3 $4 $5 $6 $7 $8 $9 X,Y pos of 4 corners*
0 Add a 4 corners polygon primitive as box body*
4,1,4,$2,$3,$4,$5,$6,$7,$8,$9,$2,$3,0*
0 Add four circle primitives for the rounded corners*
1,1,$1+$1,$2,$3*
1,1,$1+$1,$4,$5*
1,1,$1+$1,$6,$7*
1,1,$1+$1,$8,$9*
0 Add four rect primitives between the rounded corners*
20,1,$1+$1,$2,$3,$4,$5,0*
20,1,$1+$1,$4,$5,$6,$7,0*
20,1,$1+$1,$6,$7,$8,$9,0*
20,1,$1+$1,$8,$9,$2,$3,0*%
G04 Aperture macros list end*
%ADD10R,1.700000X1.700000*%
%ADD11C,1.700000*%
%ADD12RoundRect,0.250000X-1.550000X0.650000X-1.550000X-0.650000X1.550000X-0.650000X1.550000X0.650000X0*%
%ADD13O,3.600000X1.800000*%
%ADD14C,0.700000*%
%ADD15O,0.800000X1.100000*%
%ADD16O,1.000000X2.000000*%
%ADD17O,1.000000X2.500000*%
%ADD18C,0.500000*%
%ADD19C,0.600000*%
G04 APERTURE END LIST*
D10*
%TO.C,J3*%
X238100000Y-119880000D03*
D11*
X238100000Y-122420000D03*
X238100000Y-124960000D03*
X238100000Y-127500000D03*
X238100000Y-130040000D03*
%TD*%
D12*
%TO.C,J2*%
X182932500Y-114305000D03*
D13*
X182932500Y-117805000D03*
%TD*%
D14*
%TO.C,J4*%
X234250000Y-104040000D03*
X236150000Y-111660000D03*
D15*
X235200000Y-103840000D03*
D16*
X238000000Y-106100000D03*
D17*
X232400000Y-107850000D03*
D16*
X238000000Y-109600000D03*
D15*
X235200000Y-111860000D03*
%TD*%
D18*
X204750000Y-117150000D03*
X204750000Y-117850000D03*
X192300000Y-122400000D03*
X195450000Y-127100000D03*
X192650000Y-121000000D03*
X200700000Y-120400000D03*
X195450000Y-127750000D03*
D14*
X196600000Y-103887500D03*
X227300000Y-117700000D03*
X234800000Y-115200000D03*
X225700000Y-131800000D03*
D19*
X203800000Y-120600000D03*
D14*
X226600000Y-131800000D03*
D19*
X194400000Y-111400000D03*
D14*
X197600000Y-104800000D03*
D19*
X219940380Y-115640380D03*
X218400000Y-109600000D03*
X208000000Y-111200000D03*
X217500000Y-127800000D03*
X220700000Y-119900000D03*
X201600000Y-120600000D03*
X219000000Y-119900000D03*
X212700000Y-128400000D03*
X224400000Y-105750000D03*
X227301511Y-110780000D03*
X218075000Y-116600000D03*
X225500000Y-110100000D03*
D18*
X200000000Y-123200000D03*
X209400000Y-126000000D03*
X208300000Y-126000000D03*
X200100000Y-124000000D03*
X208400000Y-119200000D03*
D19*
X237101211Y-108661619D03*
D18*
X207300000Y-119200000D03*
X233200001Y-106500001D03*
X205800000Y-120300000D03*
D19*
X225825000Y-119225000D03*
X225700000Y-117900000D03*
D18*
X206514529Y-120064802D03*
X210700000Y-125600000D03*
D19*
X219900038Y-119891860D03*
D14*
X222700000Y-126000000D03*
D19*
X195200000Y-111200000D03*
D14*
X194800000Y-118700000D03*
X211600000Y-114600000D03*
X194100000Y-117800000D03*
D19*
X208800000Y-127400000D03*
D14*
X209100000Y-114600000D03*
X222700000Y-121300000D03*
X210300000Y-114600000D03*
X214200000Y-114600000D03*
D19*
X224000000Y-117500000D03*
D14*
X189400000Y-117800000D03*
X222700000Y-120300000D03*
D19*
X197200000Y-109800000D03*
D14*
X214200000Y-115700000D03*
X191800000Y-117800000D03*
D19*
X221400000Y-114100000D03*
D14*
X222700000Y-122700000D03*
D19*
X215250000Y-128450000D03*
X206000000Y-115900000D03*
X237800000Y-114800000D03*
D14*
X218000000Y-115700000D03*
D19*
X198000000Y-109800000D03*
D14*
X222700000Y-130900000D03*
D19*
X233000000Y-130500000D03*
D14*
X215400000Y-115700000D03*
X222700000Y-123700000D03*
X222700000Y-127500000D03*
D19*
X196600000Y-110400000D03*
D14*
X191300000Y-118700000D03*
X212800000Y-115700000D03*
D19*
X203200000Y-126600000D03*
D14*
X193600000Y-118700000D03*
X195300000Y-117800000D03*
X216800000Y-114600000D03*
D19*
X201600000Y-103300000D03*
D14*
X216800000Y-115700000D03*
D19*
X215100000Y-120600000D03*
X235000000Y-128100000D03*
D14*
X222700000Y-128500000D03*
X190100000Y-118700000D03*
D19*
X212500000Y-116601000D03*
X210100000Y-116600000D03*
D14*
X209100000Y-115700000D03*
D19*
X204800000Y-122200000D03*
X209200000Y-103300000D03*
X201600000Y-106800000D03*
D14*
X215400000Y-114600000D03*
X218000000Y-114600000D03*
X190600000Y-117800000D03*
D19*
X187000000Y-111000000D03*
D14*
X192500000Y-118700000D03*
D19*
X215800000Y-103300000D03*
D14*
X222700000Y-125000000D03*
D19*
X188700000Y-126400000D03*
D14*
X222700000Y-129900000D03*
D19*
X227500000Y-125250000D03*
X221800000Y-103300000D03*
D14*
X188900000Y-118700000D03*
X210300000Y-115700000D03*
D19*
X228900000Y-103300000D03*
X214300000Y-120600000D03*
X188800000Y-121400000D03*
D14*
X211600000Y-115700000D03*
X193000000Y-117800000D03*
X212800000Y-114600000D03*
M02*
